<?xml version="1.0" encoding="utf-8"?>
<!-- Designed by Vexels.com - 2020 All Rights Reserved - https://vexels.com/terms-and-conditions/  -->
<svg version="1.1" id="Layer_1" xmlns="http://www.w3.org/2000/svg" xmlns:xlink="http://www.w3.org/1999/xlink" x="0px" y="0px"
	 viewBox="0 0 1200 1200" enable-background="new 0 0 1200 1200" xml:space="preserve">
<g>
	<g>
		<path d="M51.197,473.023c14.542,51.345,35.292,101.582,54.424,151.361c18.815,48.953,37.591,97.925,56.623,146.794
			c18.901,48.532,37.653,97.125,56.749,145.58c18.455,46.83,36.258,95.652,62.248,138.93c6.723,11.195,27.328,3.765,21.986-9.269
			c-19.743-48.171-41.741-95.307-60.753-143.82c-19.031-48.56-37.78-97.23-56.727-145.823
			c-19.064-48.89-38.19-97.766-57.554-146.537c-19.13-48.181-37.296-97.783-60.606-144.126
			C62.979,456.952,48.46,463.357,51.197,473.023L51.197,473.023z"/>
	</g>
	<g>
		<path d="M880.907,160.456c16.096,46.878,39.905,91.866,60.838,136.741c21.319,45.704,42.639,91.408,63.958,137.112
			s42.639,91.408,63.958,137.112c10.929,23.429,21.909,46.829,33.134,70.118c10.194,21.149,19.774,44.146,35.16,62.084
			c5.098,5.944,13.044-0.631,11.941-6.951c-4.074-23.351-16.361-45.958-26.222-67.338c-10.289-22.306-20.788-44.508-31.358-66.682
			c-21.685-45.49-43.37-90.98-65.056-136.471c-21.129-44.324-42.258-88.648-63.388-132.971
			c-22.03-46.214-42.164-94.995-68.975-138.654C890.519,147.427,877.992,151.967,880.907,160.456L880.907,160.456z"/>
	</g>
	<g>
		<path d="M61.637,471.172c51.89-26.403,101.565-57.057,153.325-83.803c50.835-26.268,102.633-50.69,155.272-73.127
			c105.85-45.118,215.237-82.308,326.593-111.251c63.94-16.619,128.648-31.016,193.677-42.677c14.686-2.634,8.43-24.89-6.163-22.355
			c-228.827,39.756-449.92,111.294-656.595,217.707c-59.387,30.577-120.206,62.173-174.131,101.784
			C45.479,463.426,52.35,475.898,61.637,471.172L61.637,471.172z"/>
	</g>
	<g>
		<path d="M304.866,1062.032c64.871-15.981,127.147-46.52,188.651-72.107c71.103-29.581,141.881-59.922,212.626-90.346
			c120.756-51.932,241.71-103.632,360.646-159.587c17.871-8.408,36.182-15.983,54.247-23.971c5.001-2.212,10-4.341,14.8-6.939
			c3.579-1.937,8.97-4.678,3.044-2.313c-2.509-5.952-5.018-11.903-7.527-17.855c-0.007,0.004-0.014,0.007-0.021,0.011
			c-11.163,5.796-1.294,22.662,9.861,16.87c0.007-0.004,0.014-0.007,0.021-0.011c9.632-5.001,2.873-22.005-7.527-17.855
			c-3.761,1.501-4.029,1.313,1.481-0.035c-1.797,0.44-3.489,0.568-5.26,1.097c-4.557,1.362-8.832,3.093-13.196,4.991
			c-13.773,5.99-27.52,12.039-41.282,18.054c-48.623,21.251-97.966,40.922-146.709,61.933
			c-139.411,60.092-278.645,120.616-417.921,181.02c-70.059,30.385-145.059,56.253-210.988,95.052
			C293.343,1053.846,297.653,1063.809,304.866,1062.032L304.866,1062.032z"/>
	</g>
	<g>
		<path d="M492.569,680.546c-4.199-2.856-8.426-5.672-12.64-8.508c-9.684,16.927-19.187,33.96-28.624,51.026
			c-19.077,34.497-37.927,69.157-55.93,104.23c-18.012,35.091-35.471,70.487-52.62,106.007
			c-15.913,32.962-36.012,68.457-44.524,104.212c-2.066,8.678,8.802,12.454,13.725,5.786
			c22.847-30.953,37.939-69.961,55.223-104.263c17.182-34.101,34.927-67.89,52.878-101.591
			c17.958-33.713,36.149-67.286,54.53-100.772c8.021-14.612,17.712-31.642,27.597-48.939
			C498.966,685.354,495.757,682.964,492.569,680.546z"/>
	</g>
	<g>
		<path d="M68.831,474.957c56.553,32.944,121.349,54.762,182.306,78.121c30.457,11.671,61.005,23.133,91.716,34.122
			c16.512,5.908,33.068,11.877,49.742,17.312c14.926,4.866,30.35,11.188,46.181,10.543c6.659-0.271,12.009-9.49,5.98-14.436
			c-23.351-19.159-59.752-26.012-87.88-36.041c-30.71-10.949-61.394-21.959-91.935-33.374
			c-62.896-23.507-125.128-53.076-189.761-71.304C66.192,457.366,60.732,470.239,68.831,474.957L68.831,474.957z"/>
	</g>
	<g>
		<path d="M880.972,153.361c-28.06,60.779-53.894,122.557-82.044,183.303c-10.662,23.006-21.487,45.935-32.442,68.801
			c5.235,7.454,7.183,23.689,12.07,31.392c13.33-27.285,29.691-63.379,42.374-90.97c27.937-60.778,55.491-121.961,78.201-184.914
			C903.425,149.067,886.3,141.821,880.972,153.361z"/>
	</g>
	<g>
		<path d="M729.203,593.377c27.32,16.9,64.454,23.647,95.133,32.246c35.327,9.903,70.63,19.883,105.976,29.718
			c34.128,9.496,68.282,18.888,102.42,28.346c17.071,4.73,34.1,9.595,51.273,13.945c16.721,4.235,33.987,10.746,51.337,10.511
			c11.213-0.152,14.784-14.79,5.593-20.649c-13.618-8.682-30.24-11.992-45.58-16.748c-16.926-5.249-33.975-10.015-51.044-14.775
			c-35.345-9.855-70.724-19.548-106.208-28.889c-34.267-9.021-68.614-17.679-103.016-26.175
			c-32.033-7.91-69.496-20.882-102.719-19.213C726.199,582.004,723.783,590.024,729.203,593.377L729.203,593.377z"/>
	</g>
	<path d="M787.788,416.799c-8.621-20.817-27.518-34.149-50.4-32.258c-27.787,2.295-46.686,25.217-62.708,45.52
		c-22.352,28.325-46.268,63.523-57.422,100.598c-12.075-7.627-25.34-13.676-36.721-18.343c-28.698-11.77-59.399-18.82-90.41-20.367
		c-56.31-2.81-123.005,19.754-123.499,86.282c-0.45,60.655,53.469,101.369,105.165,120.179
		c33.479,12.183,69.478,19.909,104.529,25.898c31.566,5.394,65.207,10.341,96.332,1.012c4.747,4.327,12.726,5.604,17.41,0.192
		c19.065-22.026,32.642-49.554,46.352-75.15c12.207-22.792,23.323-46.189,32.495-70.378c9.924-26.179,17.015-53.281,20.965-81
		C793.614,472.742,798.246,442.052,787.788,416.799z M606.396,682.371c-26.345,7.049-58.75,0.643-84.582-6.484
		c-29.037-8.011-56.062-20.86-80.315-38.678c-6.442-4.732-0.85-15.092,6.403-10.953c24.789,14.143,50.91,25.546,78.683,32.325
		c26.604,6.493,53.212,5.058,79.812,9.731C613.713,669.597,612.963,680.614,606.396,682.371z M744.901,543.303
		c-3.787,15.302-9.77,31.849-22.901,41.479c-5.181,3.799-12.107-2.503-10.495-8.069c3.846-13.28,11.763-24.922,15.682-38.294
		C730.514,527.058,747.742,531.822,744.901,543.303z M768.135,468.923c-2.404,17.19-6.91,33.337-17.646,47.121
		c-2.964,3.805-9.078,0.432-9.084-3.764c-0.03-18.752,7.27-36.392,8.737-54.943c0.932-11.784-4.132-32.199-20.075-26.706
		c-7.266,2.503-15.095,9.196-19.713,15.267c-4.464,5.869-14.312,0.681-10.198-5.961c11.669-18.837,45.841-49.211,65.105-20.537
		C774.372,432.959,770.219,454.032,768.135,468.923z"/>
	<g>
		<path d="M306.391,924.038c15.475-15.558,24.248-37.805,34.364-57.023c9.621-18.28,21.325-36.126,23.289-57.037
			c0.598-6.363-7.771-8.612-11.823-4.897c-15.586,14.289-22.814,35.789-31.597,54.607c-8.748,18.744-20.561,38.308-23.493,58.96
			C296.406,923.75,302.113,928.339,306.391,924.038L306.391,924.038z"/>
	</g>
	<g>
		<path d="M390.222,750.542c2.348-7.022,6.909-16.523,1.842-23.358c-1.086-1.464-2.872-2.568-4.775-1.943
			c-8.675,2.847-10.417,13.335-12.673,20.999C371.655,756.3,386.941,760.356,390.222,750.542L390.222,750.542z"/>
	</g>
	<g>
		<path d="M822.505,565.349c11.93,10.253,27.888,13.031,42.692,17.456c16.443,4.915,32.945,9.631,49.348,14.683
			c31.827,9.803,67.646,27.67,101.074,28.021c8.204,0.086,9.4-9.893,3.827-14.128c-26.358-20.031-67.483-26.683-99.068-35.049
			c-16.594-4.395-33.226-8.662-50.003-12.307c-15.16-3.294-31.008-8.336-46.357-4.401
			C821.646,560.23,820.531,563.653,822.505,565.349L822.505,565.349z"/>
	</g>
	<g>
		<path d="M526.984,750.781c29.079,16.162,65.469,22.088,98.116,26.502c15.047,2.035,30.212,3.228,45.386,3.771
			c15.477,0.554,32.042,2.804,46.22-4.078c5.339-2.592,3.05-9.706-1.498-11.459c-13.654-5.262-30.161-2.385-44.722-2.974
			c-16.33-0.66-32.606-2.163-48.813-4.248c-31.038-3.992-61.026-13.694-91.929-17.704
			C524.191,739.872,522.552,748.318,526.984,750.781L526.984,750.781z"/>
	</g>
	<g>
		<path d="M811.876,207.361c-4.757,12.767-8.462,25.908-13.06,38.741c-4.185,11.679-10.155,23.158-10.661,35.677
			c-0.264,6.536,8.5,10.044,12.943,5.361c8.597-9.06,12.227-21.467,16.189-33.127c4.647-13.679,8.921-27.811,11.039-42.117
			C829.92,201.128,815.773,196.902,811.876,207.361L811.876,207.361z"/>
	</g>
	<g>
		<path d="M778.063,314.808c-2.801,7.261-5.692,14.478-8.114,21.876c-1.826,5.577-4.743,13.336-0.933,18.54
			c1.175,1.605,2.852,2.461,4.857,1.977c6.541-1.581,9.12-9.191,11.398-14.874c3.065-7.645,5.619-15.455,8.256-23.256
			C796.879,309.163,781.712,305.349,778.063,314.808L778.063,314.808z"/>
	</g>
	<g>
		<path d="M186.403,465.401c17.333,10.363,37.876,16.109,56.833,22.902c18.66,6.687,38.922,16.979,59.047,14.308
			c3.45-0.458,5.982-4.484,3.041-7.343c-14.294-13.895-35.173-17.519-53.764-23.146c-20.368-6.164-41.371-14.02-62.618-16.095
			C183.759,455.522,182.4,463.008,186.403,465.401L186.403,465.401z"/>
	</g>
</g>
</svg>
