<?xml version="1.0" encoding="utf-8"?>
<!-- Designed by Vexels.com - 2019 All Rights Reserved - https://vexels.com/terms-and-conditions/  -->
<svg version="1.1" fill="#5a1d1d" id="Layer_1" xmlns="http://www.w3.org/2000/svg" xmlns:xlink="http://www.w3.org/1999/xlink" x="0px" y="0px"
	 viewBox="0 0 1200 1200" enable-background="new 0 0 1200 1200" xml:space="preserve">
<g>
	<path d="M670.946,467.316c1.299,11.348,3.024,21.824,3.604,32.363c1.612,29.291,2.474,58.624,4.159,87.91
		c1.412,24.55,3.555,49.058,5.422,73.58c0.115,1.514,0.656,2.996,1.178,5.277c6.381-4.37,12.317-8.306,18.119-12.432
		c16.939-12.046,34.343-23.367,53.057-32.456c22.52-10.937,45.002-22.103,69.112-29.214c19.325-5.699,39.148-9.365,59.346-8.779
		c8.424,0.244,17.121,2.101,25.072,4.957c11.422,4.102,22.376,9.577,33.343,14.855c11.816,5.686,21.494,14.117,29.009,24.857
		c17.073,24.399,31.471,50.204,37.075,79.796c3.395,17.929,5.658,36.126,7.39,54.301c1.69,17.729,2.113,35.581,2.989,53.385
		c0.802,16.291-1.082,32.438-2.565,48.627c-2.12,23.148-4.109,46.299-8.188,69.207c-2.58,14.492-6.587,28.564-12.813,41.952
		c-1.141,2.454-2.437,4.869-3.27,7.429c-4.863,14.944-12.234,28.772-21.035,41.544c-11.996,17.409-23.82,35.248-40.949,48.344
		c-16.677,12.75-33.721,25.031-53.647,32.398c-12.965,4.793-26.268,8.151-40.26,7.834c-7.671-0.174-15.468,0.525-22.988-0.618
		c-12.888-1.958-25.591-5.115-38.397-7.639c-5.057-0.997-10.205-1.533-15.271-2.49c-5.716-1.08-11.708-1.609-17.011-3.772
		c-11.868-4.842-23.209-10.978-35.089-15.784c-11.503-4.653-20.309-12.785-28.417-21.427c-9.846-10.496-18.707-21.97-27.448-33.438
		c-14.627-19.191-23.594-40.942-27.701-64.705c-0.192-1.112-0.266-2.258-0.581-3.333c-6.308-21.54-0.372-40.929,10.3-59.548
		c6.318-11.023,15.498-19.44,25.406-26.883c16.41-12.326,34.124-10.456,51.085-1.617c28.488,14.846,41.002,40.012,43.321,71.079
		c0.781,10.463,0.239,20.701-4.827,30.318c-7.536,14.304-19.976,22.335-34.668,27.417c-4.835,1.673-9.973,2.467-15.622,3.818
		c1.172,1.194,2.056,2.345,3.17,3.191c8.752,6.644,18.92,10.56,29.083,14.21c9.498,3.411,18.933,7.438,29.264,7.907
		c2.905,0.132,5.829,0.41,8.718,0.223c8.55-0.553,17.078-1.706,25.631-1.886c12.516-0.263,23.919-4.016,34.869-9.645
		c10.648-5.474,20.933-11.527,30.194-19.189c21.563-17.841,39.296-37.79,45.633-66.612c7.478-34.009,11.124-68.063,8.632-102.785
		c-1.437-20.023-2.526-40.072-4.164-60.077c-1.126-13.75-3.725-27.249-9.023-40.125c-2.488-6.046-4.381-12.339-6.921-18.361
		c-11.237-26.64-30.878-43.01-59.738-46.968c-13.505-1.852-26.953,0.099-40.167,3.813c-47.366,13.313-88.349,38.253-126.27,68.835
		c-4.918,3.966-9.651,8.162-14.484,12.234c-6.512,5.485-13.646,3.453-16.077-5.093c-2.154-7.572-3.889-15.33-4.994-23.122
		c-3.36-23.676-6.444-47.394-9.419-71.122c-4.606-36.739-7.231-73.619-8.747-110.628c-1.395-34.057-2.855-68.088-2.529-102.184
		c0.151-15.823,0.62-31.571,4.154-47.087c1.077-4.73,2.937-5.937,7.658-4.381c0.428,0.141,0.878,0.254,1.269,0.467
		c16.701,9.107,35.244,10.636,53.58,12.825c11.422,1.364,22.927,2.021,34.378,3.154c28.063,2.777,55.915,0.151,83.708-3.343
		c25.546-3.211,50.687-8.541,75.571-15.158c16.341-4.345,32.81-8.209,49.156-12.534c10.524-2.785,20.343-7.339,29.697-12.923
		c13.155-7.852,26.371-15.6,39.549-23.414c4.068-2.412,6.755-1.737,8.392,2.68c1.82,4.913,2.55,9.956,1.17,15.257
		c-5.318,20.433-12.259,40.1-25.078,57.27c-4.713,6.313-8.346,13.486-13.414,19.469c-24.558,28.993-54.927,48.994-91.735,59.386
		c-23.901,6.748-48.26,9.408-72.871,10.141c-15.988,0.476-32.053,0.318-48.012-0.686c-22.472-1.414-42.906-10.129-62.725-20.116
		C680.957,475.367,676.379,471.177,670.946,467.316z M894.459,1076.269c-4.565-36.441,1.966-69.171,20.935-98.969
		c19.164-30.103,45.933-50.34,81.396-60.293c1.436-16.641,3.018-33.686,4.312-50.753c0.383-5.048-3.767-8.854-8.917-8.808
		c-2.477,0.022-4.962,0.565-7.424,0.451c-3.531-0.164-4.81-2.259-3.61-5.472c0.312-0.836,0.89-1.569,1.289-2.378
		c8.602-17.436,16.461-35.16,19.929-54.455c0.665-3.699,0.912-7.595,0.574-11.33c-1.443-15.954-3.544-31.855-4.73-47.825
		c-2.493-33.554-15.055-63.398-32.774-91.428c-1.079-1.707-1.572-4.382-4.472-4.279c-2.563,5.337-2.574,10.673-0.528,15.922
		c2.78,7.132,5.533,14.301,8.841,21.193c4.581,9.543,10.143,18.632,14.432,28.294c7.044,15.866,9.826,32.817,10.369,50.062
		c0.458,14.554-2.183,28.827-6.328,42.694c-7.828,26.186-18.227,51.422-29.389,76.347c-0.972,2.171-1.856,4.382-2.78,6.574
		c2.033-0.368,3.287-1.216,4.505-2.114c5.125-3.78,10.511-7.01,16.894-8.199c5.063-0.943,9.926-0.503,14.339,2.329
		c6.109,3.92,7.962,10.233,5.19,16.873c-0.865,2.071-1.271,4.343-2.221,6.365c-2.173,4.626-4.437,9.26-9.517,11.143
		c-3.659-2.112-1.921-5.023-1.982-7.563c-0.14-5.843-2.204-10.497-7.845-13.112c-5.34-2.475-9.758-1.55-14.244,2.356
		c-9.247,8.052-17.758,16.615-23.951,27.348c-4.396,7.618-9.382,14.894-13.818,22.491c-2.831,4.848-5.36,9.904-7.627,15.042
		c-3.829,8.679-7.449,17.415-13.581,24.851c-2.718,3.296-5.582,6.665-7.41,10.468c-6.789,14.126-11.331,28.952-12.619,44.678
		c-1.05,12.823,2.37,24.57,8.425,35.684C891.039,1072.143,892.424,1073.574,894.459,1076.269z M927.63,912.496
		c1.168-1.865,2.454-3.666,3.487-5.603c18.307-34.347,32.594-70.345,43.631-107.623c6.985-23.59,8.368-47.497,1.644-71.418
		c-1.815-6.456-3.751-13.262-7.385-18.746c-8.357-12.613-30.499-21.456-48.378-11.679c-7.746,4.236-10.605,10.871-7.302,19.012
		c4.842,11.933,9.481,23.906,11.206,36.773c1.018,7.597,1.932,15.208,2.931,22.808c0.226,1.719,0.608,3.417,0.907,5.061
		c1.293,0.324,2.15,0.697,3.022,0.732c10.104,0.414,20.524-8.995,22.066-20.002c0.801-5.719,0.261-11.293-2.859-16.329
		c-2.592-4.183-5.261-4.716-9.69-2.829c-3.702,1.577-4.057,4.081-3.637,7.637c0.188,1.595-1.116,4.596-2.21,4.837
		c-1.829,0.403-4.431-0.401-5.961-1.628c-1.394-1.118-2.237-3.401-2.55-5.297c-0.823-4.994,0.64-9.477,4.568-12.774
		c2.401-2.015,5.101-3.725,7.831-5.283c4.926-2.81,9.961-2.471,14.842,0.2c4.73,2.589,7.957,6.541,10.064,11.479
		c7.441,17.445,1.616,36.34-14.379,46.892c-4.324,2.853-8.923,4.209-14.083,3.661c-2.109-0.224-4.226-0.376-6.776-0.598
		c0.325,6.333,0.598,11.643,0.918,17.875c6.606,0,12.627,0.053,18.646-0.013c7.695-0.085,9.783,2.865,6.733,10.061
		c-2.198,5.186-4.55,10.322-7.14,15.322C935.242,859.219,929.408,885.219,927.63,912.496z M796.745,413.055
		c-4.482,0.468-9.01,0.654-13.401,1.529c-2.001,0.399-4.127,1.808-5.51,3.368c-4.555,5.134-7.777,10.958-8.713,17.989
		c-0.253,1.897-1.741,4.251-3.361,5.191c-2.174,1.261-4.148-0.571-5.763-2.329c-3.812-4.153-7.717-8.22-11.582-12.325
		c-5.543-5.885-11.566-9.26-20.411-9.694c-22.055-1.083-44.026-3.841-66.042-5.807c-2.363-0.211-5.061-0.236-7.154,0.679
		c-10.087,4.414-18.625,10.973-25.28,19.809c-1.189,1.579-2.589,3.52-2.647,5.333c-0.185,5.741,0.22,11.5,0.438,18.608
		c2.598-2.524,4.122-4.05,5.694-5.525c15.724-14.759,32.977-26.811,55.048-29.657c22.091-2.848,41.268,2.212,54.861,21.402
		c8.301,11.719,7.278,25.291-2.726,35.777c-1.135,1.19-2.153,2.491-3.58,4.154c3.055,0.602,5.273,0.99,7.468,1.484
		c2.878,0.648,5.335-0.06,7.481-2.049c7.292-6.759,12.941-14.44,14.021-24.726c0.141-1.343,0.251-2.729,0.679-3.993
		c1.084-3.207,4.101-3.85,6.139-1.207c1.217,1.578,1.841,3.599,2.851,5.352c4.967,8.628,10.287,16.967,18.338,23.181
		c2.071,1.598,4.07,2.519,6.802,2.107c11.634-1.756,22.956-4.444,33.937-8.875c12.454-5.025,19.575-14.173,22.325-26.889
		c1.383-6.393,1.961-13.087-0.803-19.295c-3.858-8.665-16.627-15.813-26.166-15.115c-13.715,1.004-25.564,12.366-27.133,25.968
		c-0.502,4.35,0.503,8.293,4.094,10.844c3.451,2.452,7.226,4.573,11.113,6.245c3.349,1.441,6.5,0.506,9.125-2.409
		c5.515-6.125,5.236-11.333-1.282-16.582c-2.02-1.627-4.073-3.192-2.724-6.129c1.217-2.651,3.721-3.145,6.312-2.923
		c4.069,0.35,7.164,2.323,9.415,5.804c6.68,10.333,3.831,20.266-4.606,29.431c-4.618,5.017-10.531,6.764-17.232,5.751
		c-6.628-1.003-12.467-3.918-17.784-7.852c-8.887-6.576-12.453-15.513-9.768-26.166
		C790.948,426.648,794.084,420.137,796.745,413.055z M927.131,679.445c-6.242-3.051-11.273-5.467-16.266-7.958
		c-14.002-6.984-27.102-15.274-38.402-26.242c-5.364-5.206-8.994-11.381-10.27-18.665c-1.479-8.443,0.392-16.24,6.774-22.307
		c1.368-1.3,4.141-2.083,5.927-1.663c1.312,0.309,2.474,2.854,2.983,4.612c0.805,2.783,0.545,5.916,1.555,8.591
		c2.892,7.662,7.182,14.515,12.937,20.44c12.792,13.169,26.808,24.83,42.503,34.372c4.313,2.622,9.043,4.558,13.327,6.683
		c-1.829-8.986-4.267-17.42-5.095-26.01c-0.864-8.965,2.907-17.146,8.261-25.415c-7.353-4.657-14.29-9.05-21.688-13.734
		c-4.992,10.258-5.741,19.833-3.186,29.795c0.631,2.462,1.01,4.989,1.705,8.492c-9.932-1.995-14.746-8.807-20.273-14.543
		c-9.711-10.08-12.05-22.32-9.537-36.179c-17.069-5.45-33.166-1.582-49.941,1.506c0.474,4.389,1.118,7.931,1.119,11.473
		c0,1.538-0.977,3.941-2.13,4.403c-1.54,0.616-3.789,0.016-5.529-0.621c-1.15-0.421-1.894-1.874-2.901-2.775
		c-3.172-2.841-6.382-5.64-9.67-8.537c-4.61,1.576-8.854,3.026-13.099,4.477c20.539,6.233,23.441,22.35,23.857,39.878
		c2.924,0.514,5.468,0.961,7.991,1.404c0.807-4.197-1.987-8.302,1.958-11.479c3.222,0.134,5.158,2.285,6.909,4.683
		c6.416,8.786,13.479,16.757,23.014,22.514c6.99,4.22,12.402,10.412,16.782,17.411c1.998,3.193,4.282,6.208,6.942,10.03
		C909.525,685.859,917.825,682.893,927.131,679.445z M641.962,508.447c-0.931-4.307-3.08-6.858-6.879-8.153
		c-2.279-0.777-4.12-2.365-3.247-5.082c0.858-2.67,3.14-3.849,5.856-3.622c1.52,0.127,3.261,0.524,4.422,1.421
		c2.287,1.768,4.739,3.653,6.245,6.043c7.398,11.734,3.454,20.41-10.781,22.24c-2.367,0.304-4.806,0.043-6.968,0.043
		c0,5.723,0,10.723,0,16.867c3.084-1.904,5.041-3.402,7.227-4.393c3.259-1.478,6.601-3.005,10.069-3.682
		c1.506-0.294,3.848,1.083,5.034,2.4c1.603,1.779,0.491,3.809-1.099,5.349c-2.268,2.197-4.797,4.177-6.78,6.604
		c-2.547,3.119-5.482,6.293-6.81,9.964c-3.844,10.629-6.771,21.577-5.794,33.081c1.777,20.905,3.758,41.793,5.476,62.702
		c0.344,4.184,2.126,7.107,5.287,9.69c5.765,4.711,11.447,9.54,16.921,14.584c4.812,4.433,3.777,9.752-2.294,12.219
		c-2.688,1.092-5.654,1.488-8.474,2.273c-2.32,0.646-4.609,1.402-7.268,2.218c1.147,6.609,0.672,12.866,2.822,19.436
		c3.776-1.952,6.83-3.361,9.717-5.054c10.705-6.278,17.64-15.171,19.406-27.789c0.422-3.017-0.088-4.959-2.548-6.961
		c-8.828-7.184-15.802-16.009-22.065-25.485c-7.909-11.965-10.988-25.095-10.154-39.241c0.656-11.12,3.195-21.853,7.238-32.227
		c3.276-8.406,6.561-16.808,9.902-25.188c4.171-10.463,6.078-21.194,4.409-32.467c-1.644-11.106-5.695-21.352-11.204-30.998
		c-1.485-2.599-4.008-5.044-6.645-6.464c-7.663-4.126-15.383,0.819-15.219,9.478c0.086,4.511,0.387,9.02,0.7,13.523
		C629.008,509.613,633.949,512.161,641.962,508.447z M904.729,1071.399c0.47,0.351,0.939,0.703,1.408,1.054
		c5.286-3.702,10.677-7.269,15.778-11.21c1.126-0.87,1.647-3.04,1.734-4.651c0.525-9.65,0.378-19.357,1.341-28.956
		c1.383-13.784,7.04-25.963,15.741-36.743c10.625-13.164,25.309-19.98,40.58-25.734c3.281-1.236,5.369-2.689,6.218-6.138
		c1.991-8.087,4.227-16.114,6.232-24.198c0.349-1.408,0.049-2.977,0.049-5.152c-2.886,0.911-5.215,1.61-7.52,2.379
		c-9.989,3.334-18.451,9.409-26.836,15.463c-12.147,8.771-22.744,19.272-30.999,31.796
		C910.023,1007.273,904.621,1038.666,904.729,1071.399z M693.677,917.226c5.003,2.522,10.247,4.676,14.973,7.653
		c9.31,5.865,15.774,13.969,18.093,25.057c1.852,8.854-0.386,16.604-6.118,23.31c-4.899,5.731-11.431,8.505-18.799,6.671
		c-8.344-2.077-15.575-6.385-18.614-15.145c-2.297-6.621,0.527-14.055,6.327-17.838c2.357-1.537,4.915-2.684,7.445-0.444
		c2.664,2.359,1.531,4.853-0.122,7.228c-0.773,1.11-1.899,2.067-2.35,3.285c-0.509,1.374-1.094,3.326-0.502,4.392
		c2.208,3.975,6.022,6.062,10.407,6.727c3.744,0.568,6.436-1.517,8.502-4.475c3.975-5.689,3.305-13.885-1.527-20.17
		c-3.981-5.177-9.496-8.182-15.084-11.191c-4.826-2.599-9.184-1.554-13.288,1.335c-4.393,3.093-7.136,7.34-8.494,12.624
		c-3.44,13.386-1.034,25.956,5.122,37.977c0.826,1.612,2.684,3.641,4.216,3.778c6.025,0.541,12.226,1.199,18.148,0.34
		c10.027-1.454,18.747-6.388,26.328-13.072c7.108-6.267,10.875-14.286,11.27-23.78c0.15-3.604-0.101-7.223,0.02-10.829
		c0.129-3.825-1.204-7.118-3.476-10.014c-3.941-5.022-8.35-9.38-14.856-11.175c-3.652-1.008-7.082-2.812-10.628-4.216
		c-2.265-0.897-3.023-2.694-2.699-4.875c0.33-2.22,1.121-4.367,1.517-6.581c0.86-4.806,1.597-9.635,2.359-14.298
		c-7.06-4.443-12.858-9.66-21.896-7.721C701.984,890.886,702.579,901.65,693.677,917.226z M635.947,465.056
		c11.353,0.536,18.438,6.968,24.423,15.503c0.459-4.135,0.258-8.089,0.53-12.009c0.182-2.629,0.911-5.247,1.619-7.807
		c0.967-3.496,3.545-4.644,6.82-3.645c4.487,1.368,8.915,2.966,13.281,4.685c2.151,0.847,4.108,2.187,6.864,3.693
		c0-2.062,0.047-2.945-0.007-3.821c-0.468-7.508,3.472-12.91,8.695-17.504c4.569-4.019,9.869-3.913,15.253-1.686
		c2.543,1.052,4.147,2.878,3.602,5.754c-0.474,2.506-2.319,3.778-4.815,4.015c-1.345,0.128-2.732-0.051-4.051,0.184
		c-5.944,1.058-8.383,7.797-4.315,12.277c2.563,2.823,5.3,5.615,8.395,7.802c6.14,4.339,12.038,3.988,17.346-0.45
		c6.522-5.453,9.229-13.508,5.934-19.847c-4.029-7.752-9.714-14.009-18.069-17.547c-11.802-4.998-23.82-4.801-35.815-1.441
		c-17.706,4.96-31.786,15.697-44.136,28.942C636.947,462.747,636.697,463.626,635.947,465.056z M743.935,1042.907
		c-0.092,0.34-0.184,0.68-0.276,1.02c9.539,7.859,19.079,15.718,28.618,23.578c0.869,0.716,1.662,1.551,2.61,2.138
		c1.525,0.945,3.068,1.969,4.746,2.541c8.092,2.756,16.089,6.025,24.399,7.834c6.943,1.511,14.302,1.942,21.423,1.634
		c13.496-0.584,24.808-11.065,27.252-24.164c0.946-5.07-0.251-9.343-4.429-12.626c-6.543-5.141-14.047-5.831-21.802-4.329
		c-9.714,1.881-15.02,9.323-13.79,19.158c0.261,2.09,1.336,4.301,2.645,5.98c1.598,2.049,5.326,1.981,7.397,0.392
		c2.096-1.609,2.839-4.967,1.492-7.271c-0.443-0.757-1.555-1.234-1.758-1.998c-0.423-1.596-1.113-3.677-0.446-4.853
		c0.709-1.252,2.809-2.23,4.389-2.375c4.29-0.394,8.259,3.519,9.035,8.396c1.184,7.437-3.041,15.457-9.721,18.457
		c-7.911,3.553-16.412,1.847-21.044-5.155c-2.246-3.396-3.681-7.797-4.019-11.865c-0.4-4.822,0.778-9.775,1.299-14.937
		c-6.757,0-13.757-0.659-20.583,0.152c-10.609,1.26-21.062,1.622-31.536-0.688C747.889,1043.496,745.903,1043.242,743.935,1042.907z
		 M729.558,1077.445c8.289,3.449,15.079,6.33,21.923,9.077c1.436,0.577,3.079,0.977,4.609,0.927
		c15.616-0.515,30.137,5.177,45.106,8.147c14.823,2.941,29.624,2.367,44.485,2.216c3.981-0.041,7.538-1.55,9.768-5.12
		c3.915-6.267,7.696-12.619,11.639-18.869c0.77-1.22,2.299-3.161,2.999-2.974c1.412,0.377,2.909,1.775,3.609,3.142
		c0.9,1.756,0.884,3.956,1.565,5.857c0.951,2.656,2.181,5.211,3.497,8.289c2.855-1.376,4.982-2.401,7.463-3.596
		c-6.004-12.543-10.407-24.994-12.002-38.347c-1.609-13.469,1.01-26.554,3.802-39.911c-8.678,3.654-9.369,10.463-8.898,17.755
		c0.13,2.018,0.418,4.054,0.907,6.014c0.589,2.357,0.903,4.653-1.68,5.837c-2.518,1.154-4.246-0.537-5.75-2.347
		c-0.865-1.041-1.712-2.098-2.59-3.129c-5.845-6.864-5.896-6.876-13.875-2.18c-0.289,0.17-0.336,0.754-0.627,1.47
		c1.137,0.567,2.325,1.097,3.455,1.73c13.411,7.523,16.584,16.331,13.568,29.068c-4.084,17.245-19.776,30.11-37.491,31.056
		c-11.869,0.634-23.418-1.051-34.603-4.985c-8.717-3.066-17.298-6.522-26.011-9.602
		C753.282,1073.032,742.092,1072.078,729.558,1077.445z M863.018,473.918c0.234,0.397,0.467,0.794,0.701,1.19
		c4.69-1.478,9.318-3.211,14.086-4.369c5.474-1.329,9.1-4.403,11.428-9.488c2.248-4.911,4.851-9.662,7.381-14.439
		c1.36-2.568,2.571-5.617,6.134-5.538c3.966,0.088,4.82,3.541,6.042,6.413c0.934,2.196,1.742,4.444,2.822,7.224
		c3.968-2.766,7.229-5.039,11.065-7.713c-8.547-6.157-9.094-14.655-8.374-23.426c0.574-7.003,3.953-12.412,10.44-15.475
		c5.937-2.803,10.554-0.634,11.888,5.366c-10.337,1.762-14.454,8.006-12.157,18.44c1.212,5.508,5.586,8.174,10.538,5.474
		c5.295-2.887,10.745-6.404,13.008-12.314c2.955-7.718,3.178-15.885,0.937-23.915c-1.044-3.739-3.479-5.859-7.767-6.297
		c-8.25-0.844-15.369,1.493-20.922,7.323c-5.883,6.177-11.789,12.543-16.437,19.643
		C891.724,440.514,879.763,459.044,863.018,473.918z M638.314,959.087c-0.47,7.674,1.83,13.254,5.957,17.926
		c8.522,9.648,17.801,18.517,28.615,25.627c1.373,0.903,2.959,1.482,5.814,2.883c-3.202-6.413-5.84-11.342-8.153-16.42
		c-2.7-5.928-5.97-11.777-7.493-18.026c-4.222-17.323-2.392-33.593,10.918-47.013c2.539-2.56,5.232-4.988,7.56-7.728
		c2.464-2.901,4.915-5.913,6.757-9.219c2.29-4.112,2.875-8.888,0.037-12.826c-2.24-3.108-5.979-5.111-10.075-4.326
		c-4.222,0.809-6.293,4.268-7.254,8.127c-0.986,3.961-1.117,7.934,3.028,10.607c0.846-0.556,1.454-0.859,1.942-1.295
		c1.747-1.561,3.742-3.238,5.867-1.214c2.265,2.157,0.891,4.59-0.645,6.648c-3.913,5.243-11.055,5.488-14.906,0.057
		c-2.299-3.243-3.511-7.257-5.366-11.255c-4.701,7.275-8.266,14.837-9.221,23.177c-1.176,10.261-1.529,20.617-2.198,30.934
		c-0.16,2.465,0.12,4.996-0.35,7.389c-0.258,1.314-1.459,3.078-2.594,3.409c-1.158,0.338-3.082-0.483-4.081-1.423
		C641.058,963.795,640.182,961.89,638.314,959.087z M792.476,653.534c-0.189-2.757-0.433-4.763-0.442-6.771
		c-0.022-4.727,1.65-8.846,4.992-12.172c2.761-2.748,6.131-3.791,9.914-2.471c3.273,1.142,3.995,3.559,1.953,6.285
		c-0.803,1.072-2.255,1.796-2.719,2.955c-0.791,1.977-1.763,4.381-1.242,6.2c0.32,1.12,3.261,2.053,5.04,2.081
		c4.266,0.066,8.539-0.513,12.814-0.712c2.893-0.135,3.794-1.925,4.111-4.394c1.313-10.222-6.495-20.587-16.682-21.665
		c-9.56-1.012-19.104-0.137-27.701,4.248c-8.192,4.178-15.876,9.367-23.688,14.264c-2.787,1.747-5.294,3.942-7.928,5.932
		c12.598-2.113,24.717-4.621,32.52,9.088C786.554,655.409,789.316,654.535,792.476,653.534z M672.848,659.129
		c-2.954-32.874-5.785-64.388-8.617-95.901c-6.195,12.556-11.138,25.283-13.239,39.18
		C647.545,625.217,658.152,642.123,672.848,659.129z M888.802,426.194c2.016-2.923,3.165-4.822,4.538-6.541
		c6.59-8.253,12.808-16.859,19.989-24.566c7.385-7.927,16.915-11.694,28.045-10.589c9.62,0.955,15.262,5.546,17.639,14.919
		c0.859,3.388,1.251,6.894,2.074,11.593c5.031-7.145,9.448-13.416,14.537-20.643c-3.677,0.218-5.884,0.48-8.088,0.453
		c-5.552-0.07-8.389-2.262-9.518-7.656c-0.548-2.62-0.453-5.371-0.735-8.053c-0.148-1.408-0.482-2.796-0.848-4.842
		c-21.274,12.802-44.872,17.155-67.007,24.078c0.529,5.681,1.407,10.604,1.327,15.511
		C890.674,414.755,889.633,419.636,888.802,426.194z M732.251,649.69c-15.324,9.103-30.389,18.052-45.502,27.029
		c2.734,8.125,3.704,16.12,10.78,22.102c3.696-2.979,8.671-5.156,10.65-8.912c7.151-13.571,14.618-26.852,24.345-38.771
		C732.603,651.041,732.463,650.766,732.251,649.69z M932.124,1051.347c0.871-0.299,1.124-0.313,1.264-0.445
		c6.67-6.294,11.411-12.88,11.191-23.18c-0.343-16.028,11.278-30.323,26.462-35.479c1.388-0.471,3.197-1.227,3.745-2.364
		c1.792-3.719,3.091-7.676,4.73-11.93c-1.546,0.105-2.022,0.023-2.398,0.18C947.289,990.578,933.253,1016.783,932.124,1051.347z
		 M752.804,1061.719c-14.48-11.565-27.729-22.081-44.366-26.708c-6.003-1.669-12.451-1.971-18.729-2.327
		c-3.254-0.184-7.003-0.007-9.249,4.321c13.667,0.273,24.758,6.531,36.295,11.632c10.084,4.459,20.422,8.349,30.681,12.406
		C748.562,1061.49,749.908,1061.378,752.804,1061.719z M681.044,692.349c-7.387,15.52-19.484,24.445-35.537,28.953
		c1.137,5.876,2.209,11.414,3.244,16.761c13.388-11.724,26.203-22.947,39.193-34.323
		C685.912,700.386,683.757,696.827,681.044,692.349z M684.347,1045.13c6.709,11.726,21.504,22.669,36.625,27.918
		c4.476-2.86,8.707-5.564,13.553-8.66C717.317,1059.362,702.735,1048.898,684.347,1045.13z M868.785,451.909
		c3.809-4.403,6.145-9.251,6.232-14.8c0.155-9.876,0.134-19.76-0.118-29.632c-0.078-3.066-1.138-6.107-1.866-9.744
		c-6.845,1.733-13.21,3.344-20.855,5.28C870.755,415.702,873.105,432.711,868.785,451.909z M991.461,347.742
		c-7.05,4.861-13.469,9.26-19.847,13.719c-0.691,0.483-1.513,1.24-1.647,1.983c-1.015,5.639-3.077,11.191-1.899,17.928
		c3.996-0.772,7.702-1.347,11.318-2.271c1.125-0.287,2.477-1.318,2.927-2.354C986.324,367.518,988.871,357.843,991.461,347.742z
		 M689.825,1022.42c-13.695-7.517-28.248-14.902-40.653-25.871c4.517,13.458,13.959,23.338,22.321,32.707
		C678.128,1026.782,683.917,1024.623,689.825,1022.42z M915.938,631.474c2.08-7.654,3.989-14.677,5.982-22.011
		c-5.465-2.137-10.417-5.966-17.102-7.271C906.05,613.421,908.117,623.509,915.938,631.474z M757.302,665.262
		c-5.13-1.938-12.787-3.037-16.6-2.279c-1.736,0.345-3.557,0.765-5.071,1.623c-3.434,1.945-10.317,12.673-11.364,17.246
		C735.212,676.355,746.157,670.859,757.302,665.262z M929.806,818.161c0.33,4.875,0.651,9.313,0.925,13.755
		c0.277,4.493,0.506,8.989,0.755,13.484c0.368-0.007,0.736-0.013,1.104-0.02c3.891-8.464,7.782-16.928,11.824-25.721
		C939.119,819.116,934.723,818.665,929.806,818.161z M990.766,848.177c4.19,0.988,7.937,1.871,12.254,2.889
		c0.563-8.537,1.582-16.634,0.119-25.036C999.035,833.376,994.931,840.723,990.766,848.177z M770.828,468.205
		c-3.727,5.586-6.996,10.486-10.938,16.395c7.472-0.584,13.91-1.088,21.066-1.648C777.281,477.601,774.251,473.189,770.828,468.205z
		 M625.875,420.37c5.727-5.287,10.291-9.5,15.206-14.037c-5.498-2.243-10.18-4.154-15.206-6.205
		C625.875,406.656,625.875,412.665,625.875,420.37z M732.009,912.541c-3.538-7.361-7.209-12.75-12.859-17.844
		c-0.998,4.507-1.835,8.283-2.779,12.544C721.302,908.912,725.868,910.46,732.009,912.541z M641.283,936.341
		c1.841-10.263,3.717-20.717,5.557-30.972C638.258,912.762,635.8,926.443,641.283,936.341z M966.978,1002.273
		c-8.455,7.178-15.375,13.809-16.136,25.502C957.269,1022.676,964.611,1011.132,966.978,1002.273z M777.406,658.238
		c-6.411-7.016-16.579-7.733-25.809-1.998C760.3,657.95,768.481,658.969,777.406,658.238z M755.377,416.93
		c2.921,3.381,5.164,5.976,7.717,8.931c1.159-2.085,1.978-3.423,2.663-4.827c0.728-1.493,1.327-3.048,2.295-5.304
		C763.625,416.149,760.092,416.484,755.377,416.93z M649.294,678.653c-2.926-2.984-5.297-5.403-7.669-7.822
		c-0.39,0.243-0.781,0.486-1.171,0.729c0.379,2.931,0.758,5.862,1.18,9.122C644.341,679.965,646.227,679.466,649.294,678.653z
		 M872.064,1091.346c-1.204-2.625-2.149-4.686-3.521-7.677c-2.426,3.735-4.336,6.676-6.247,9.617c0.31,0.356,0.62,0.711,0.93,1.067
		C866.026,1093.4,868.825,1092.448,872.064,1091.346z M901.806,454.302c-1.798,2.642-3.83,4.361-3.201,8.473
		c2.128-1.936,3.806-3.032,4.786-4.573C903.766,457.613,902.545,456.008,901.806,454.302z"/>
	<path d="M255.872,1150c-1.495-1.134-3.875-2.492-5.629-4.419c-1.235-1.356-2.349-3.524-2.26-5.265
		c0.424-8.292-1.705-16.665,0.741-24.889c0.184-0.619,0.033-1.34,0.025-2.014c-0.094-8.264-0.106-8.303,7.524-10.492
		c15.384-4.412,30.859-8.527,46.147-13.249c10.542-3.257,20.951-7.009,30.12-13.515c11.757-8.342,23.745-16.359,35.461-24.757
		c14.78-10.593,22.352-25.619,25.57-43.113c0.443-2.409,0.322-4.944,0.277-7.418c-0.777-42.649-1.533-85.299-2.419-127.946
		c-0.22-10.601-0.973-21.191-1.299-31.791c-0.152-4.951,0.121-9.915,0.216-14.873c1.055-55.507,2.426-111.01,3.064-166.522
		c0.451-39.26-0.084-78.531-0.21-117.797c-0.007-2.162-0.302-4.324-0.551-7.664c-5.87,6.078-11.004,11.288-16.02,16.609
		c-21.019,22.294-45.285,40.022-73.666,51.758c-24.066,9.952-48.979,11.685-74.355,6.133c-7.915-1.732-15.694-4.103-23.511-6.269
		c-8.072-2.237-14.35-7.472-20.54-12.737c-3.68-3.13-4.869-7.41-4.505-12.693c2.044-0.548,4.159-1.146,6.29-1.682
		c9.383-2.361,18.885-4.329,28.125-7.155c9.682-2.961,19.442-6.036,28.594-10.295c24.143-11.235,45.182-26.98,64.468-45.342
		c25.281-24.069,47.779-50.519,67.923-78.894c11.731-16.525,23.287-33.421,31.073-52.27c4.154-10.057,11.116-13.646,21.002-13.05
		c12.601,0.76,25.175,1.964,37.759,3c2.693,0.222,5.432,1.019,8.054,0.72c5.783-0.661,10.377,2.359,15.255,4.408
		c1.081,0.454,1.931,2.429,2.131,3.813c0.449,3.115,0.462,6.296,0.584,9.453c0.656,16.908,1.334,33.816,1.912,50.728
		c0.207,6.047,1.072,12.159-1.381,18.041c-0.407,0.975-0.141,2.229-0.186,3.355c-0.775,19.39-1.302,38.794-2.377,58.168
		c-2,36.044-4.459,72.064-6.436,108.109c-0.791,14.417-1.125,28.876-1.127,43.316c-0.007,44.23-0.195,88.467,0.553,132.687
		c0.511,30.223,2.061,60.447,3.904,90.623c1.623,26.559,4.425,53.045,6.449,79.582c0.875,11.468,1.228,22.983,1.552,34.484
		c0.107,3.786,1.064,6.942,3.325,9.991c21.584,29.103,49.192,49.712,84.807,57.766c15.073,3.409,30.677,5.431,46.33,4.132
		c4.546-0.377,9.297,1.007,13.676-2.14c2.286-1.643,4.847,0.925,4.907,5.228c0.105,7.44-0.106,14.889-0.331,22.329
		c-0.116,3.83-0.606,7.647-0.823,11.475c-0.34,5.992-1.812,8.066-7.863,8.921c-8.035,1.135-16.124,2.155-24.222,2.529
		c-34.716,1.602-69.452,2.78-104.165,4.44c-29.301,1.402-58.577,3.324-87.872,4.876c-12.844,0.68-25.723,0.764-38.558,1.556
		c-23.87,1.472-47.716,3.311-71.579,4.908c-14.85,0.994-29.718,1.721-44.561,2.801C263.601,1147.953,260.026,1149.129,255.872,1150z
		 M429.194,988.357c3.744-1.952,7.156-3.246,9.947-5.36c1.803-1.366,3.498-3.8,3.865-5.987
		c2.222-13.229-11.091-26.741-24.421-25.196c-2.994,0.347-5.072,1.771-6.332,4.401c-9.208,19.236-2.953,36.923,12.436,46.849
		c4.474,2.885,8.998,3.879,14.02,1.328c3.009-1.528,6.24-2.615,9.301-4.049c13.864-6.498,21.048-17.591,20.951-32.748
		c-0.064-10.112-0.397-20.444-2.5-30.272c-3.391-15.845-8.328-31.36-12.661-47c-0.356-1.286-1.001-2.515-1.653-3.693
		c-5.242-9.473-10.424-18.98-15.802-28.375c-11.695-20.432-20.995-41.911-28.463-64.211c-0.594-1.774-1.355-3.492-2.039-5.236
		c-0.482,0.08-0.965,0.16-1.447,0.24c-0.319,19.832-0.469,39.669-1.032,59.494c-0.255,8.963,3.091,16.271,8.758,22.736
		c4.162,4.747,8.351,9.528,12.998,13.78c11.958,10.942,19.677,24.52,25.639,39.335c3.098,7.698,3.32,15.828,4.059,23.889
		c0.066,0.715-0.677,1.504-0.974,2.114c-3.647,0.414-4.652-2.121-5.612-4.304c-5.169-11.76-13.861-20.515-24.08-27.786
		c-7.045-5.012-13.682-10.294-18.609-17.494c-0.147-0.214-0.795-0.084-1.335-0.125c0,15.861,0,31.707,0,48.56
		c1.755-1.356,2.645-2.31,3.74-2.837c2.994-1.442,5.973-3.504,9.138-3.908c19.981-2.548,36.896,14.029,35.219,34.17
		c-0.597,7.175-8.298,15.845-15.312,17.24C431.913,994.923,429.567,993.195,429.194,988.357z M442.128,710.101
		c-1.548,0.134-2.646,0.244-3.746,0.322c-5.811,0.411-6.71,1.282-6.294,6.886c0.442,5.959,2.505,11.405,5.706,16.444
		c5.139,8.09,10.068,9.175,17.471,2.941c2.767-2.331,5.319-5.857,6.196-9.291c1.657-6.488,2.555-13.283,2.811-19.987
		c0.36-9.438-2.185-18.338-7.672-26.167c-11.265-16.071-30.028-14.3-38.673-0.368c-5.239,8.444-8.015,17.58-8.833,27.396
		c-3.501,41.988,5.287,81.578,23.336,119.35c0.362,0.758,1.101,1.337,1.134,1.376c0-9.385-0.303-19.052,0.076-28.692
		c0.48-12.167,6.638-22.326,12.757-32.345c0.842-1.379,3.491-2.691,4.941-2.375c1.468,0.32,2.809,2.549,3.598,4.228
		c0.627,1.334,0.253,3.111,0.468,4.671c1.259,9.135,2.252,18.322,3.927,27.382c2.007,10.854,4.594,21.601,6.969,32.385
		c0.451,2.048,1.085,4.055,1.635,6.081c1.024-3.066,1.091-5.966,1.013-8.862c-0.573-21.414-1.194-42.828-1.754-64.243
		c-0.165-6.313-0.149-12.632-0.297-18.946c-0.034-1.434-0.405-2.861-0.707-4.867c-2.176,1.688-3.727,2.967-5.354,4.14
		c-4.49,3.236-9.49,5.047-15.026,5.57c-5.406,0.511-10.052-1.007-12.955-5.579c-3.481-5.481-7.13-11.069-9.276-17.117
		c-1.828-5.154-2.384-11.059-2.157-16.576c0.363-8.828,7.684-14.194,15.725-12.502C441.769,702.329,442.956,704.234,442.128,710.101
		z M406.934,669.827c0.631,0.076,1.261,0.151,1.892,0.227c1.473-5.133,3.407-10.184,4.329-15.414
		c2.372-13.454,1.992-26.956-0.481-40.39c-2.292-12.452-1.383-24.66,2.316-36.766c5.286-17.302,7.266-34.854,3.015-52.716
		c-0.597-2.51-1.295-5.129,1.093-6.826c2.61-1.855,5.158-0.232,7.523,1.127c0.583,0.335,1.145,0.742,1.63,1.207
		c11.834,11.334,20.706,24.216,23.071,41.008c4.543,32.252-2,62.338-16.867,90.935c-1.113,2.142-2.191,4.302-3.834,7.531
		c16.121-2.697,26.947,4.954,36.383,16.072c1.487-5.24,0.728-9.232-2.35-12.754c-4.28-4.896-8.376-9.967-12.868-14.659
		c-2.398-2.504-3.11-4.787-1.36-7.789c8.018-13.751,12.788-28.69,17.137-43.94c4.249-14.904,1.898-28.789-4.592-41.97
		c-7.807-15.855-18.239-30.113-31.035-42.405c-8.174-7.851-13.009-17.141-14.436-28.312c-0.538-4.214-1.164-8.416-1.839-13.255
		c-17.389,11.867-37.568,15.868-56.98,23.973c16.773,7.399,19.335,21.17,18.375,37.019c5.877-5.856,11.537-11.436,15.252-18.715
		c3.416-6.692,8.951-11.536,14.236-16.606c4.47,4.506,5.066,6.445,2.22,11.785c-2.129,3.995-2.692,7.984-2.593,12.34
		c0.861,37.902,1.758,75.803,0.577,113.72c-0.337,10.821-0.02,21.663,0.011,32.495C406.763,667.774,406.874,668.801,406.934,669.827
		z M367.966,1072.632c5.094,3.242,5.537,3.787,6.682,7.588c4.994,16.578-0.658,34.111-14.397,44.734
		c-0.934,0.722-1.763,1.581-2.913,2.622c1.03,0.184,1.499,0.412,1.889,0.316c20.66-5.097,40.568-11.783,58.445-23.951
		c14.423-9.818,24.02-22.878,29.874-39.002c2.481-6.833,2.47-13.819-0.406-20.461c-3.52-8.13-9.65-13.985-17.383-18.295
		c-2.978-1.66-5.823-1.768-9.076-1.15c-20.08,3.814-26.888,22.861-27.336,38.537c-0.13,4.556,2.464,8.08,6.625,10.274
		c9.025,4.758,20.434,1.318,24.906-7.789c1.532-3.12,4.13-6.555,1.879-10.119c-2.3-3.643-6.457-2.457-9.962-2.335
		c-3.249,0.113-6.485,0.63-10.091,1.008c-0.297-5.069,2.077-7.913,5.726-8.785c4.736-1.132,9.801-1.983,14.592-1.534
		c7.333,0.686,12.539,7.7,11.416,15.061c-3.81,24.968-24.096,33.543-43.685,25.636c-9.154-3.695-13.882-11.167-14.322-21.134
		c-0.104-2.366-0.015-4.74-0.015-6.937c-0.942-0.151-1.215-0.287-1.35-0.202c-1.137,0.715-2.262,1.453-3.367,2.218
		c-15.544,10.76-29.948,23.183-46.873,31.953c-1.698,0.88-2.858,3.249-3.746,5.168c-6.669,14.406-15.481,26.927-29.773,34.799
		c-0.973,0.536-1.805,1.33-2.702,2.004c8.915-0.94,18.003,0.508,26.02-3.959c18.446-10.277,31.918-25.441,42.368-43.512
		C363.33,1081.343,365.48,1077.192,367.966,1072.632z M587.914,1087.967c-27.669-4.415-51.015-14.835-71.268-32.632
		c-0.508,1.391-0.932,1.989-0.908,2.568c0.658,15.735-9.432,24.554-20.862,32.518c-0.37,0.258-0.76,0.671-1.15,0.683
		c-1.652,0.051-3.308-0.022-4.962-0.05c0.165-1.453-0.031-3.078,0.564-4.327c1.84-3.863,4.124-7.513,5.978-11.37
		c4.927-10.251,6.018-21.094,5.047-32.33c-0.361-4.173-2.075-7.487-5.032-9.968c-6.212-5.213-9.033-12.218-11.262-19.62
		c-0.483-1.605-0.703-3.289-1.171-5.552c-4.758,4.422-8.929,8.299-13.228,12.295c1.474,1.64,2.563,2.776,3.57,3.981
		c10.028,11.999,14.549,25.85,13.314,41.399c-1.59,20.028-11.317,36.279-24.32,50.924c-1.485,1.672-4.047,2.637-4.233,5.758
		c10.033-0.453,19.672-0.887,29.377-1.325c1.034-2.689,2.091-4.938,2.775-7.296c4.237-14.599,15.141-22.58,28.277-28.031
		c6.349-2.635,13.205-2.883,19.964-1.153c9.937,2.542,16.233,9.871,17.398,20.064c0.142,1.242,0.379,2.474,0.799,5.162
		C565.027,1099.074,575.635,1093.684,587.914,1087.967z M411.904,398.708c16.749,4.222,25.275,14.183,25.384,29.614
		c0.064,9.134-1.458,18.169-7.118,25.634c-3.826,5.045-5.109,10.549-4.95,16.457c0.343,12.778,1.882,25.136,12.006,34.719
		c14.425,13.654,24.465,30.514,33.912,47.753c0.684,1.248,1.417,2.469,2.724,4.739c1.388-13.397,2.65-25.494,3.876-37.595
		c0.065-0.643-0.166-1.316-0.302-2.272c-0.932,0.306-1.756,0.514-2.531,0.839c-9.938,4.162-17.265,2.484-23.991-5.861
		c-6.942-8.613-10.252-18.401-8.958-29.582c1.044-9.021,3.135-17.742,6.865-26.046c2.586-5.756,4.983-11.604,7.743-17.275
		c7.022-14.431,12.857-29.29,16.933-44.829c0.945-3.605,2.111-7.153,3.216-10.864c-4.031-1.372-5.949,0.102-7.732,2.964
		c-4.887,7.842-9.994,15.548-15.108,23.245c-4.208,6.334-8.1,6.184-12.171-0.38c-1.069-1.723-1.918-3.585-3.025-5.28
		c-5.198-7.956-11.399-14.903-20.084-20.027C416.297,389.48,414.195,393.897,411.904,398.708z M404.142,1124.445
		c0.075,0.43,0.151,0.86,0.226,1.29c10.553-0.684,21.109-1.334,31.656-2.095c1.298-0.094,2.717-0.531,3.799-1.239
		c4.891-3.201,10.206-5.999,14.411-9.96c12.764-12.022,20.274-27.196,22.192-44.45c1.815-16.324-3.767-30.654-16.093-41.913
		c-4.73-4.32-4.726-6.644,0.571-10.547c3.631-2.675,7.406-5.182,10.837-8.093c2.902-2.463,5.505-5.31,8.03-8.172
		c0.988-1.12,2.077-2.798,1.969-4.128c-0.526-6.458-1.442-12.883-2.22-19.32c-1.663,2.263-2.238,4.426-2.832,6.583
		c-2.959,10.741-9.252,19.001-18.848,24.578c-4.272,2.483-8.88,4.388-13.336,6.553c-1.709,0.83-3.421,1.654-5.654,2.734
		c2.348,1.768,4.137,3.096,5.905,4.45c16.315,12.491,21.816,31.815,14.25,50.612c-6.864,17.052-17.903,30.675-33.519,40.436
		C418.469,1116.149,411.262,1120.228,404.142,1124.445z M345.689,561.607c-2.233-1.24-3.814-1.969-5.238-2.932
		c-9.58-6.48-11.445-19.869-4.012-28.529c2.64-3.076,5.884-4.971,10.042-4.587c1.2,0.111,3.064,0.682,3.333,1.478
		c0.427,1.262,0.209,3.195-0.544,4.288c-0.968,1.406-2.814,2.174-4.14,3.373c-3.866,3.495-4.092,9.577-0.577,13.384
		c3.221,3.489,10.122,3.496,13.339-0.446c7.177-8.792,10.598-23.847,5.585-33.716c-4.585-9.027-16.678-12.096-24.736-5.99
		c-6.198,4.696-11.547,10.335-15.028,17.224c-5.274,10.439-9.911,21.205-14.678,31.895c-4.491,10.072-8.805,20.222-13.171,30.349
		c-0.305,0.708-0.389,1.512-0.603,2.378c10.975-2.117,17.226-8.079,18.028-19.086c0.097-1.333,0.657-2.627,0.862-3.96
		c0.353-2.286,0.707-5.125,3.351-5.144c1.835-0.013,4.061,1.583,5.444,3.079c2.379,2.573,4.236,5.628,6.576,8.845
		C335.147,569.37,340.178,565.665,345.689,561.607z M423.413,655.384c0.775-0.661,1.434-0.978,1.717-1.499
		c13.844-25.511,21.679-52.5,18.857-81.765c-0.704-7.305-2.982-14.539-5.221-21.587c-1.505-4.736-4.208-9.094-9.32-12.644
		c0.679,16.91-2.129,32.31-6.889,47.47c-2.544,8.102-1.724,16.472-0.674,24.822c1.15,9.151,2.124,18.349,2.551,27.556
		C424.7,643.463,423.809,649.244,423.413,655.384z M355.221,483.941c0.856,0.151,1.352,0.408,1.698,0.275
		c14.061-5.387,28.269-10.432,42.106-16.346c11.086-4.738,19.566-12.989,24.796-23.859c3.805-7.907,4.923-16.493,0.549-24.753
		c-4.912-9.275-15.719-10.257-22.355-2.169c-1.278,1.558-2.34,3.315-3.353,5.066c-2.531,4.373-2.139,8.49,1.583,13.006
		c3.184-2.055,6.229-4.02,9.252-5.971c3.362,4.732,3.227,8.999-0.059,12.342c-6.064,6.168-11.282,5.863-21.582-1.457
		c-1.952,2.651-3.906,5.303-6.655,9.035c4.463,0.936,7.824,1.807,11.239,2.304c2.854,0.416,5.529,0.885,5.813,4.376
		c0.25,3.067-1.839,4.348-4.468,5.01c-0.436,0.11-0.856,0.282-1.289,0.407c-8.658,2.518-16.936,5.728-24.939,10.109
		C361.873,474.429,358.667,478.899,355.221,483.941z M480.75,408.447c-4.286,11.565-8.497,23.158-12.886,34.684
		c-2.962,7.78-6.73,15.299-9.108,23.243c-2.04,6.815-3.021,14.026-3.732,21.136c-0.71,7.106,2.664,13.156,7.026,18.483
		c3.851,4.703,8.236,4.232,11.393-1.132c3.454-5.87,4.151-12.324,2.928-18.933c-0.254-1.373-1.521-2.559-2.559-4.21
		c-2.185,1.534-3.99,2.817-5.812,4.075c-2.087,1.441-4.522,3.065-6.686,0.919c-2.445-2.424-0.614-4.97,0.985-7.219
		c5.685-8,8.597-9.164,18.868-7.077C479.954,451.018,483.664,429.818,480.75,408.447z M446.624,787.49
		c-12.503,18.602-1.945,76.718,18.761,101.631C463.411,853.837,453.754,821.064,446.624,787.49z M519.989,1106.535
		c0.294,2.545,0.473,5.205,0.945,7.811c0.363,2.004,0.969,4.213,3.625,4.151c4.508-0.105,9.034-0.248,13.503-0.78
		c1.31-0.156,2.847-1.435,3.606-2.629c2.499-3.931,4.005-8.131,1.547-12.739c-2.449-4.592-6.212-6.837-11.465-7.018
		c-13.345-0.46-23.22,6.092-31.573,15.554c-2.15,2.436-3.549,5.535-6.018,9.49c6.667-0.333,11.934-0.596,17.09-0.853
		C512.733,1106.557,513.132,1105.961,519.989,1106.535z M295.437,567.228c-1.605,1.433-3.254,2.821-4.807,4.308
		c-6.741,6.458-14.362,11.624-22.828,15.525c-15.403,7.098-29.423,3.281-39.127-10.992c-2.499,0.556-5.204,1.157-8.032,1.787
		c2.767,5.282,5.156,9.842,7.676,14.653c1.566,0.35,3.3,0.8,5.059,1.12c14.95,2.721,29.942,4.057,44.991,0.87
		c1.85-0.392,4.167-1.11,5.183-2.481C289.03,584.625,293.089,576.446,295.437,567.228z M279.568,1119.572
		c1.419-3.689,2.414-6.056,3.235-8.481c0.694-2.052,0.759-4.158-1.6-5.201c-2.889-1.278-10.462,2.017-11.367,5.156
		c-0.862,2.991-1.447,6.174-1.455,9.274c-0.01,4.321,1.712,5.935,6.112,6.57c7.32,1.056,13.801-1.179,19.74-5.308
		c8.871-6.167,14.929-14.881,21.126-23.459c0.132-0.183-0.232-0.724-0.518-1.533c-8.556,2.161-17.144,4.33-25.601,6.465
		C290.381,1113.547,288.675,1116.802,279.568,1119.572z M249.092,569.742c11.269,4.886,22.035,3.322,31.359-3.346
		c7.62-5.448,14.28-12.346,20.875-19.081c4.078-4.165,5.941-9.797,6.958-15.71c-7.563,6.586-17.554,10.417-21.708,20.546
		c-0.659,1.606-2.03,2.983-3.271,4.275c-3.895,4.051-8.8,7.475-14.268,6.434C260.539,561.241,255.643,567.261,249.092,569.742z
		 M631.182,1113.685c-3.433-9.968-7.667-17.198-17.72-18.167c-7.189-0.693-14.458-0.728-21.4,1.78
		c-2.904,1.049-6.238,1.596-8.874,5.153c15.073-0.797,28.096,2.981,40.452,9.603
		C625.452,1113.025,627.803,1112.991,631.182,1113.685z M404.665,876.462c-1.621,4.42,0.104,7.25,1.542,10.331
		c7.32,15.68,22.495,23.018,34.94,33.285C433.264,902.068,418.238,890.233,404.665,876.462z M433.04,383.385
		c5.408,6.571,10.435,12.678,15.814,19.212c4.225-6.238,8.303-12.256,13.015-19.212C451.56,383.385,442.646,383.385,433.04,383.385z
		 M332.896,1128.514c15.253-1.31,32.7-16.393,31.843-35.003C355.634,1106.986,345.239,1118.64,332.896,1128.514z M457.555,643.681
		c3.442,3.231,6.706,6.295,10.676,10.022c0.568-12.663,1.079-24.038,1.589-35.413c-0.235-0.011-0.47-0.021-0.704-0.032
		C465.352,626.536,461.587,634.813,457.555,643.681z M567.342,1115.546c15.067-0.493,29.07-0.951,43.898-1.437
		C598.281,1105.929,579.304,1106.535,567.342,1115.546z M259.523,1139.225c6.224-1.037,11.847-1.974,17.47-2.911
		c-1.556-1.267-3.04-1.429-4.479-1.776c-8.119-1.955-11.674-6.627-11.224-15.042c0.143-2.666,0.866-5.297,1.233-7.957
		c0.08-0.581-0.227-1.215-0.37-1.893c-0.794-0.109-1.447-0.323-2.069-0.253c-0.832,0.093-1.64,0.405-3.075,0.787
		C257.831,1119.687,258.636,1128.985,259.523,1139.225z M403.754,999.454c0,5.394,0,11.744,0,18.37
		c4.879-1.85,9.585-3.635,14.76-5.597C413.394,1007.796,408.547,1003.601,403.754,999.454z M264.845,579.997
		c-9.28-1.708-18.361-3.379-27.486-5.058C240.537,583.076,252.901,585.36,264.845,579.997z M218.134,590.486
		c-3.618-10.987-6.038-12.288-20.278-6.831c2.348,1.125,4.272,2.328,6.367,2.99C208.469,587.987,212.808,589.037,218.134,590.486z
		 M637.956,1104.348c0.367-0.087,0.734-0.174,1.101-0.261c0-5.099,0-10.199,0-15.597c-3.589,0.764-6.866,1.461-10.167,2.164
		C632.142,1095.566,635.049,1099.957,637.956,1104.348z M316.468,580.419c2.757-1.6,3.974-2.306,5.505-3.195
		c-1.092-1.544-1.916-2.709-3.211-4.539C318.003,575.246,317.479,577.012,316.468,580.419z M508.097,1064.829
		c0.334-0.067,0.668-0.133,1.002-0.2c-0.055-1.192-0.11-2.383-0.165-3.575c-0.211,0.001-0.421,0.002-0.632,0.002
		C508.234,1062.314,508.165,1063.572,508.097,1064.829z"/>
	<path d="M899.394,116.861c-1.934,20.65-4.065,41.285-5.718,61.957c-0.826,10.332-0.907,20.732-1.053,31.106
		c-0.047,3.339,0.438,6.776,1.267,10.018c1.47,5.755,4.376,6.836,9.318,3.575c9.276-6.121,17.526-13.434,24.853-21.81
		c10.692-12.224,21.458-24.383,32.22-36.545c1.343-1.518,2.787-2.964,4.307-4.304c2.2-1.942,4.35-4.152,7.612-1.565
		c3.493,2.771,4.017,4.525,1.86,8.701c-3,5.808-5.944,11.657-9.22,17.31c-11.457,19.77-20.524,40.601-28.695,61.915
		c-8.149,21.256-17.029,42.233-25.705,63.284c-2.558,6.207-5.293,12.365-8.406,18.305c-1.052,2.007-3.324,3.601-5.373,4.82
		c-13.808,8.217-28.635,14.176-43.678,19.716c-16.243,5.982-33.283,8.116-50.201,10.615c-13.799,2.039-27.755,3.302-41.688,4.067
		c-11.959,0.656-23.824-1.152-35.575-3.668c-16.305-3.49-32.787-6.198-48.4-12.413c-10.011-3.986-17.517-9.935-21.759-20.544
		c-8.365-20.921-17.705-41.454-26.727-62.11c-1.348-3.086-2.876-6.172-4.811-8.912c-12.351-17.498-24.695-35.004-37.345-52.285
		c-5.854-7.997-12.445-15.451-18.588-23.242c-1.797-2.28-3.787-4.695-4.591-7.377c-0.608-2.027-0.162-5.166,1.134-6.689
		c0.871-1.023,4.435-0.803,6.107,0.113c3.928,2.153,7.683,4.781,11.085,7.707c12.14,10.442,24.183,21,36.111,31.685
		c10.323,9.247,21.617,16.975,34.155,22.873c1.422,0.669,2.901,1.27,4.413,1.69c8.859,2.459,16.273-2.162,16.829-11.363
		c0.473-7.828,0.061-15.776-0.697-23.6c-2.612-26.956-11.526-52.302-20.418-77.635c-1.642-4.678-3.322-9.344-4.828-14.066
		c-0.54-1.692-0.9-3.54-0.845-5.302c0.1-3.239,2.42-4.578,5.032-2.727c2.158,1.529,4.066,3.593,5.627,5.751
		c10.97,15.165,21.633,30.555,32.775,45.591c7.509,10.133,15.692,19.765,23.47,29.701c3.716,4.747,9.171,7.481,13.115,12.096
		c3.706,4.336,7.613,3.511,11.498-0.804c6.236-6.927,9.863-14.998,10.995-24.234c3.237-26.407,6.489-52.813,9.753-79.217
		c1.244-10.064,2.4-20.143,3.881-30.173c0.553-3.745,1.384-8.343,5.977-8.834c5.088-0.543,5.86,4.506,6.756,7.92
		c2.341,8.913,4.118,17.979,5.971,27.015c3.894,18.99,7.499,38.041,11.595,56.987c3.013,13.937,8.026,27.213,14.549,39.931
		c2.691,5.246,6.615,9.094,11.626,11.91c5.265,2.958,8.587,2.842,12.877-1.397c4.114-4.066,8.11-8.448,11.226-13.291
		c12.969-20.159,22.813-41.958,32.915-63.633c3.975-8.529,9.142-16.506,13.87-24.675c1.122-1.939,2.799-4.384,5.236-3.016
		c1.568,0.88,2.964,3.472,3.044,5.355c0.334,7.876,0.141,15.775,0.141,23.665C898.648,116.827,899.021,116.844,899.394,116.861z
		 M806.919,201.697c0.477,2.489,0.981,4.621,1.279,6.781c0.492,3.564,1.092,7.143,1.13,10.722c0.013,1.199-1.407,3.207-2.44,3.399
		c-1.032,0.192-2.949-1.161-3.509-2.309c-1.27-2.604-2.193-5.443-2.82-8.283c-3.495-15.814-6.388-31.791-13.424-46.588
		c-0.869-1.827-1.427-3.802-2.659-7.148c-2.112,6.706-3.588,11.882-5.38,16.946c-1.753,4.954-5.559,5.936-9.343,2.307
		c-1.91-1.831-3.256-4.284-4.707-6.551c-1.888-2.951-3.627-5.997-5.43-9.002c-2.151,7.972-3.466,15.522-3.764,23.112
		c-0.291,7.412,0.485,14.864,0.729,22.3c0.059,1.796,0.223,3.717-0.316,5.367c-0.483,1.479-1.666,3.497-2.899,3.796
		c-2.232,0.541-2.892-1.634-3.019-3.522c-0.258-3.822-0.425-7.652-0.561-11.481c-0.076-2.124-0.014-4.253-0.014-7.446
		c-4,4.452-7.092,7.892-10.265,11.422c0.229,1.543,0.549,3.089,0.674,4.65c0.65,8.08,1.383,16.156,1.794,24.249
		c0.142,2.801,0.106,5.956-3.829,7.665c-4.338-4.97-2.276-11.177-3.252-16.652c-1.06-5.952-1.675-11.983-2.5-18.099
		c-2.711-0.597-5.033-1.108-7.573-1.667c-0.145,1.364-0.362,2.252-0.313,3.126c0.675,11.934,1.383,23.867,2.093,35.799
		c0.147,2.475,0.586,4.96,0.464,7.42c-0.353,7.082-7.58,11.071-13.528,7.291c-3.976-2.527-7.66-5.574-11.217-8.682
		c-5.434-4.749-10.629-9.772-15.966-14.633c-1.253-1.141-2.669-2.102-4.336-3.399c-2.888,6.244-6.825,10.507-12.9,12.948
		c-7.972,3.203-15.489,2.224-22.884-1.33c-10.37-4.984-20.68-10.094-29.603-17.551c-1.389-1.161-3.088-1.951-4.643-2.913
		c3.6,6.977,7.803,13.108,11.909,19.304c1.35,2.037,3.131,2.729,5.483,3.33c4.307,1.1,8.939,2.232,12.511,4.693
		c23.709,16.333,38.168,38.481,41.142,67.539c0.076,0.746,0.427,1.463,0.852,2.861c2.54-3.276,4.378-6.123,6.677-8.531
		c9.766-10.228,20.844-17.608,35.907-14.007c11.169,2.671,20.537,8.607,26.222,18.728c3.603,6.415,6.06,13.549,8.411,20.568
		c1.695,5.059,2.37,10.461,3.484,15.633c5.775,0.873,25.209-0.894,33.13-3.019c0.399-2.53,0.774-5.2,1.246-7.853
		c2.216-12.444,4.708-24.749,10.693-36.146c6.058-11.537,14.94-19.698,27.005-24.313c12.665-4.845,27.494-4.858,38.897,9.605
		c4.392,5.57,8.008,11.432,9.318,18.527c0.736,3.985,1.622,7.943,2.497,11.901c0.071,0.321,0.575,0.546,0.974,0.903
		c0.571-0.147,1.271-0.194,1.828-0.501c0.765-0.422,1.422-1.04,2.227-1.651c-0.468-1.629-0.844-3.151-1.342-4.633
		c-3.37-10.018-3.994-20.276-2.722-30.7c1.229-10.071,5.003-19.196,10.796-27.426c10.033-14.254,20.6-28.008,36.542-36.397
		c1.394-0.734,2.414-2.524,3.186-4.039c4.915-9.642,9.721-19.34,14.538-29.032c0.695-1.399,1.253-2.866,1.875-4.301
		c-7.711,7.918-14.347,16.508-21.864,24.243c-8.307,8.548-17.054,16.762-26.297,24.276c-7.53,6.121-17.488,3.566-22.693-4.711
		c-1.058-1.682-1.918-3.49-3.094-5.653c-10.735,8.049-21.157,15.87-31.588,23.679c-2.163,1.619-4.199,3.51-6.576,4.72
		c-4.098,2.087-7.659,0.206-8.643-4.324c-0.331-1.524-0.37-3.144-0.323-4.714c0.283-9.466,0.655-18.93,0.941-28.396
		c0.093-3.074,0.015-6.153,0.015-9.516c-4.455,1.133-8.504,2.163-13.06,3.322c0.731,6.764,1.561,13.433,2.137,20.125
		c0.367,4.259,0.499,8.553,0.413,12.825c-0.02,0.999-1.35,1.971-2.077,2.955c-0.997-0.754-2.328-1.314-2.908-2.311
		c-0.769-1.322-1.155-2.96-1.353-4.507c-1.057-8.264-2.286-16.52-2.903-24.82C814.849,204.514,815.164,204.49,806.919,201.697z
		 M880.848,328.419c-1.178-4.806-2.435-8.893-3.153-13.072c-1.527-8.889-6.415-15.699-12.663-21.814
		c-3.762-3.682-8.341-5.537-13.421-5.433c-13.654,0.28-25.108,5.373-32.665,17.122c-8.698,13.524-10.547,29.251-14.262,45.315
		c5.033-0.862,9.109-1.56,13.624-2.333c-0.44-10.68,3.523-19.383,8.749-27.708c5.7-9.08,14.194-13.024,24.484-12.893
		c3.065,0.039,6.61,1.699,9.045,3.699c5.096,4.185,8.882,9.533,10.565,16.137c0.361,1.415,1.187,2.712,1.925,4.343
		C875.712,330.642,877.947,329.675,880.848,328.419z M843.326,240.722c10.132-7.735,18.917-14.301,27.545-21.068
		c8.947-7.018,8.928-7.103,8.981-18.476c0.018-3.828,0.613-7.726-0.228-12.941c-2.211,3.078-3.563,4.839-4.785,6.686
		c-2.61,3.943-4.924,8.105-7.786,11.851c-2.908,3.807-6.325,3.512-8.41-0.788c-1.439-2.967-2.271-6.346-2.755-9.632
		c-0.797-5.411-1.094-10.896-1.725-17.682c-3.054,4.977-5.158,8.909-7.761,12.478c-1.826,2.504-2.647,4.951-2.647,8.053
		c0.002,11.039-0.27,22.077-0.425,33.116C843.3,234.538,843.326,236.758,843.326,240.722z M693.692,344.094
		c0.856-2.385,1.234-4.44,2.259-6.094c2.587-4.173,4.874-8.782,8.344-12.107c8.36-8.009,20.355-7.176,28.358,1.158
		c5.905,6.15,10.705,12.787,11.137,21.745c0.073,1.518,0.728,3.009,1.245,5.024c3.367,0.229,6.607,0.45,10.233,0.697
		c-1.944-11.27-5.131-21.259-10.721-30.45c-4.45-7.317-11.097-12.11-18.886-14.599c-4.466-1.427-10.409-1.906-14.513-0.117
		c-13.885,6.052-22.669,17.063-27.081,32.164C687.508,342.437,690.477,343.233,693.692,344.094z M888.526,111.454
		c-0.409-0.162-0.817-0.324-1.226-0.485c-0.997,1.863-2.082,3.684-2.975,5.596c-4.196,8.979-7.383,18.602-12.716,26.838
		c-8.92,13.776-10.075,28.501-8.55,44.009c0.295,3.001,0.688,5.991,1.035,8.987c5.156-5.515,8.901-11.333,12.895-16.975
		c2.936-4.149,4.819-8.469,5.078-13.677c0.257-5.158,1.346-10.27,1.956-15.415C885.557,137.376,887.029,124.414,888.526,111.454z
		 M668.623,335.625c13.45-15.713-9.87-69.396-34.199-77.864c2.987,5.657,5.814,10.725,8.381,15.923
		C652.708,293.733,664.743,312.891,668.623,335.625z M668.012,139.115c0,2.333-0.094,2.795,0.014,3.204
		c3.941,15.019,7.892,30.035,11.873,45.043c0.281,1.058,0.525,2.332,1.246,3.034c5.925,5.772,11.958,11.432,18.45,17.592
		c0-1.57,0.093-2.397-0.014-3.197c-1.073-8.032-2.077-16.075-3.354-24.075c-0.297-1.858-1.297-3.747-2.411-5.309
		c-6.409-8.982-12.974-17.852-19.431-26.8C672.428,145.895,670.65,143.057,668.012,139.115z M866.126,334.688
		c-0.627-6.727-4.092-11.087-7.561-15.547c-3.693-4.748-8.515-5.836-13.83-4.385c-3.153,0.861-6.633,2.287-8.831,4.557
		c-6.809,7.034-12.13,15.061-12.544,25.362c-0.034,0.837,0.256,1.687,0.474,3.001c3.975-0.839,7.641-1.613,11.332-2.393
		c1.26-6.562,0.5-14.059,8.911-15.986c2.328-0.533,5.575-0.973,7.198,0.203c2.888,2.093,4.859,5.452,7.401,8.507
		C860.932,337.003,863.363,335.92,866.126,334.688z M929.495,239.492c-10.669,9.876-20.089,20.397-26.715,33.074
		c-6.75,12.914-7.057,26.452-3.368,40.542C909.439,288.569,919.467,264.031,929.495,239.492z M706.441,189.512
		c-0.424,0.233-0.847,0.466-1.271,0.699c2.402,12.157,4.803,24.313,7.367,37.294c-5.595-0.214-9.353-1.672-12.52-4.797
		c-4.335-4.277-8.659-8.564-13.048-12.784c-0.985-0.947-2.221-1.633-3.922-2.856c0.41,4.934,0.745,8.951,1.07,12.863
		c5.6,4.157,11.15,8.031,16.418,12.257c5.339,4.283,10.398,8.915,16.191,13.923c0-15.211,0.034-29.362-0.051-43.513
		c-0.009-1.478-0.286-3.352-1.196-4.352C712.663,195.155,709.481,192.398,706.441,189.512z M735.992,352.649
		c-0.942-10.075-0.942-10.075-8.493-18.16c-6.921-7.41-13.695-7.467-20.715-0.101c-2.968,3.114-5.168,6.674-6.239,11.575
		c2.927,0.552,5.478,1.033,8.109,1.53c0.727-1.607,1.129-2.9,1.841-3.99c1.915-2.936,4.381-5.328,8.168-5.033
		c3.517,0.274,4.413,3.435,5.64,6.053c0.474,1.011,0.877,2.093,1.082,3.186c0.434,2.314,1.836,3.477,4.06,3.842
		C731.423,351.875,733.401,352.214,735.992,352.649z M762.695,131.394c-1.476,6.183-3.618,11.77-1.485,16.585
		c2.798,6.315,7.401,11.831,11.922,18.755c2.85-10.151,6.931-18.543,6.99-28.251c-1.348,0.249-1.881,0.183-2.129,0.417
		c-5.336,5.051-8.117,4.696-11.868-1.577C765.13,135.659,764.182,133.969,762.695,131.394z M771.739,129.142
		c1.001-6.066,2.813-10.804,2.318-15.287c-1.191-10.788-3.462-21.456-5.297-32.173c-1.256,2.489-1.812,5.057-2.098,7.656
		c-0.686,6.242-0.446,12.71-2.047,18.695C762.386,116.375,765.878,122.145,771.739,129.142z M842.462,343.523
		c3.428-1.229,6.228-2.233,8.953-3.209c-0.627-3.314-1.289-5.628-4.615-5.315C843.626,335.297,842.813,336.739,842.462,343.523z
		 M716.948,343.915c-1.237,1.128-2.283,2.082-3.954,3.606c2.39,0.552,3.964,0.916,5.831,1.347c-0.112-1.186-0.028-1.872-0.265-2.418
		C718.221,345.667,717.647,344.985,716.948,343.915z"/>
	<path d="M737.524,270.275c1.68-1.992,2.869-3.912,4.519-5.277c12.544-10.373,18.937-24.478,23.6-39.455
		c2.598-8.343,4.206-17.001,6.083-25.556c0.552-2.517,0.675-5.178,4.059-5.134c2.806,0.037,3.655,2.275,4.149,4.568
		c0.38,1.76,0.645,3.55,0.873,5.337c2.734,21.43,12.739,38.632,29.926,51.709c3.887,2.958,4.266,3.826,2.089,8.563
		c-1.666,3.626-3.892,7.088-6.363,10.234c-7.172,9.134-13.32,18.816-15.974,30.234c-1.577,6.783-2.337,13.755-3.495,20.637
		c-0.298,1.772-0.658,3.539-1.092,5.283c-0.69,2.769-2.454,4.131-5.377,4.104c-2.633-0.025-3.782-1.372-4.899-3.714
		c-4.552-9.542-9.352-18.969-14.209-28.361C755.282,291.587,747.761,280.683,737.524,270.275z"/>
	<path d="M701.035,294.899c-6.602-0.065-12.169-5.589-12.034-11.941c0.153-7.176,5.539-12.733,12.169-12.558
		c6.599,0.175,10.868,5.177,10.921,12.794C712.14,290.215,707.655,294.964,701.035,294.899z"/>
	<path d="M861.989,252.998c6.064-0.025,10.264,3.706,10.296,9.144c0.044,7.582-5.373,13.799-11.964,13.73
		c-5.681-0.059-10.834-5.144-10.916-10.77C849.305,258.145,854.624,253.027,861.989,252.998z"/>
	<path d="M826.315,265.373c3.788,0.016,6.803,3.022,6.878,6.856c0.08,4.136-3.158,7.269-7.295,7.06
		c-3.857-0.195-6.689-3.269-6.565-7.125C819.453,268.404,822.587,265.357,826.315,265.373z"/>
	<path d="M685.024,262.26c-0.183,2.759-2.497,4.701-5.531,4.641c-3.713-0.073-6.753-3.463-6.362-7.092
		c0.311-2.882,2.576-4.588,5.685-4.282C682.246,255.864,685.234,259.104,685.024,262.26z"/>
	<path d="M887.888,247.374c-0.173,2.968-2.953,5.466-5.854,5.259c-2.83-0.202-5.415-3.02-5.399-5.886
		c0.016-2.91,2.724-5.659,5.549-5.634C885.23,241.14,888.069,244.257,887.888,247.374z"/>
	<path d="M732.229,289.502c-3.558,0.265-6.113-1.981-6.125-4.428c-0.013-2.7,1.649-4.122,4.138-4.464
		c2.36-0.324,5.414,2.232,4.868,4.428C734.65,286.891,732.956,288.436,732.229,289.502z"/>
</g>
</svg>
