<?xml version="1.0" encoding="utf-8"?>
<!-- Designed by Vexels.com - 2019 All Rights Reserved - https://vexels.com/terms-and-conditions/  -->
<svg version="1.1" id="Layer_1" xmlns="http://www.w3.org/2000/svg" xmlns:xlink="http://www.w3.org/1999/xlink" x="0px" y="0px"
	 viewBox="0 0 1200 1200" enable-background="new 0 0 1200 1200" xml:space="preserve">
<g>
	<path d="M889.222,534.179c2.217,1.98,4.171,3.631,6.019,5.392c11.905,11.345,20.504,24.53,21.719,41.383
		c0.329,4.562-0.102,9.464-1.482,13.797c-2.107,6.62-5.753,7.484-11.968,4.045c-6.777-3.75-13.572-7.467-20.393-11.136
		c-1.815-0.976-3.752-1.724-6.253-1.942c0.88,1.157,1.689,2.377,2.652,3.461c2.962,3.335,5.86,6.739,9,9.901
		c22.715,22.88,34.301,51.175,40.07,82.279c7.233,39.003,5.587,77.324-6.574,115.435c-8.631,27.048-19.9,52.477-35.067,76.504
		c-34.383,54.466-74.379,104.388-120.163,149.565c-35.83,35.355-74.465,67.472-116.562,95.238
		c-10.187,6.719-20.677,12.979-30.973,19.535c-6.111,3.891-12.115,7.95-18.822,12.364c-1.019-0.427-2.842-0.906-4.359-1.868
		c-27.548-17.475-55.47-34.364-81.419-54.272c-51.436-39.462-98.27-83.558-139.269-133.954
		c-27.637-33.972-53.093-69.335-74.822-107.327c-5.101-8.919-9.69-18.334-12.979-28.041c-6.166-18.201-12.425-36.521-16.438-55.264
		c-6.054-28.282-4.954-56.955,0.295-85.379c1.488-8.061,3.616-16.013,5.679-23.956c6.95-26.752,22.586-48.207,41.489-67.647
		c1.47-1.512,2.871-3.092,4.248-4.689c0.221-0.256,0.144-0.77,0.309-1.849c-2.609,1.211-4.925,2.146-7.109,3.326
		c-6.606,3.57-13.148,7.257-19.738,10.856c-5.444,2.973-9.067,2.101-11.227-3.561c-1.378-3.612-1.941-7.747-1.924-11.644
		c0.073-16.206,7.578-29.249,18.27-40.747c2.845-3.059,6.028-5.804,9.45-9.069c-3.551-4.052-6.899-7.906-10.284-11.726
		c-14.932-16.851-25.06-36.109-29.955-58.187c-3.961-17.864-8.376-35.598-15.411-52.62c-6.052-14.644-15.807-25.89-28.691-34.761
		c-2.469-1.7-4.966-3.622-6.758-5.97c-2.051-2.687-1.109-4.949,2.051-5.955c9.564-3.046,19.104-6.197,28.773-8.876
		c15.207-4.214,30.651-3.817,46.115-1.536c43.474,6.411,78.806,27.527,107.973,59.783c0.456,0.504,1.061,0.874,2.364,1.924
		c-0.303-2.09-0.402-3.5-0.719-4.858c-6.15-26.366-5.421-52.762,0.936-78.862c4.893-20.088,18.57-33.187,37.058-41.526
		c2.1-0.947,4.512-1.549,6.81-1.657c19.644-0.922,37.23,3.897,51.067,18.809c2.824,3.043,5.64,6.093,8.459,9.139
		c0.416-0.22,0.832-0.44,1.248-0.66c-0.602-2.363-1.127-4.749-1.819-7.086c-4.277-14.46-7.395-29.207-8.087-44.237
		c-1.391-30.196,4.535-59.011,19.973-85.185c10.961-18.583,23.2-36.413,34.878-54.573c4.823-7.5,9.859-14.871,14.462-22.504
		c6.207-10.293,10.985-21.234,14.038-32.918c1.302-4.984,2.848-9.941,4.759-14.72c1.895-4.74,3.224-5.119,8.425-4.367
		c0.991,0.143,2.277-0.085,3.085-0.64c3.538-2.429,5.922-0.677,7.464,2.281c1.612,3.093,3.004,6.419,3.787,9.806
		c5.455,23.593,17.673,43.736,31.199,63.404c11.565,16.817,22.503,34.085,33.204,51.47c14.395,23.388,20.386,49.416,21.301,76.503
		c0.637,18.882-3.419,37.331-8.598,55.464c-0.637,2.231-1.273,4.462-0.947,7.479c1.762-1.787,3.692-3.439,5.259-5.383
		c12.67-15.722,29.352-22.767,49.244-23.157c6.78-0.133,13.041,1.419,18.814,4.894c17.834,10.736,29.274,25.68,32.583,46.808
		c3.748,23.924,4.433,47.636-1.257,71.321c-0.157,0.654-0.027,1.383,0.02,2.073c0.011,0.158,0.235,0.301,1.21,1.457
		c1.462-1.877,2.729-3.799,4.281-5.453c21.127-22.499,46.145-39.32,75.455-48.877c12.604-4.11,26.012-6.414,39.237-7.811
		c20.153-2.128,39.77,1.174,58.28,9.93c1.431,0.677,3.16,0.711,4.743,1.079c4.568,1.062,5.667,3.878,2.85,7.582
		c-0.834,1.096-1.927,2.114-3.112,2.806c-21.591,12.62-32.071,32.922-38.495,55.918c-3.282,11.748-6.299,23.581-9.042,35.467
		c-4.752,20.595-14.435,38.572-28.101,54.527C897.212,525.173,893.311,529.522,889.222,534.179z M669.463,371.445
		c2.045-1.416,4.106-2.81,6.132-4.253c7.131-5.078,14.666-8.148,23.842-4.473c1.606-1.863,3.166-3.672,5.009-5.81
		c-8.416-3.609-15.982-1.994-23.529-0.657c-0.635,0.113-1.402,0.525-1.753,1.04c-3.231,4.73-6.384,9.514-9.56,14.283
		c-8.653,8.57-14.499,19.198-22.058,29.043c3.664,2.547,6.813,4.736,10.391,7.223c0.682-3.139,1.359-5.623,1.747-8.152
		c1.398-9.124,3.794-17.873,9.001-25.663C669.163,373.311,669.214,372.312,669.463,371.445z M530.179,371.421
		c-6.565-13.647-9.595-15.674-23.945-15.641c-3.357,0.008-6.923-0.371-10.185,2.547c1.795,1.889,3.335,3.509,5.009,5.271
		c8.593-3.96,15.711-0.629,22.603,3.742c2.138,1.356,4.158,2.897,6.232,4.353c7.482,10.981,10.151,23.703,12.238,37.207
		c4.031-2.823,7.043-4.933,10.33-7.235c-0.999-1.595-1.862-3.22-2.953-4.674C543.095,388.445,536.629,379.94,530.179,371.421z
		 M599.16,1079.332c0.811-0.223,1.336-0.231,1.679-0.485c1.507-1.115,2.983-2.275,4.431-3.466
		c51.631-42.492,99.598-88.722,141.657-140.791c39.925-49.426,70.413-104.142,89.358-164.975c6.468-20.769,9.744-41.843,6.68-63.861
		c-3.276-23.535-12.966-43.436-29.673-60.057c-2.626-2.613-5.637-5.031-8.874-6.803c-8.703-4.764-17.852-8.563-27.975-8.707
		c-7.953-0.113-15.922,0.107-23.87,0.468c-24.953,1.135-46.514,10.599-64.792,27.388c-11.754,10.796-23.295,21.851-34.476,33.237
		c-15.472,15.754-30.354,32.06-42.466,50.664c-1.403,2.154-3.063,4.171-4.805,6.068c-4.064,4.424-7.746,4.61-12.054,0.331
		c-2.31-2.295-4.117-5.101-6.118-7.702c-6.868-8.927-13.15-18.385-20.706-26.684c-13.271-14.575-27.043-28.725-41.142-42.503
		c-8.366-8.175-17.226-16.065-26.798-22.744c-24.391-17.018-52.169-20.284-80.843-16.901c-14.053,1.658-25.897,8.291-35.739,19.204
		c-15.989,17.728-23.708,38.462-26.041,61.779c-2.029,20.286,1.683,39.801,7.718,58.932
		c18.359,58.205,47.188,110.976,84.966,158.689c42.728,53.964,91.991,101.579,145.052,145.315
		C595.935,1077.053,597.669,1078.225,599.16,1079.332z M600.806,130.262c-8.549,24.115-21.07,46.011-31.309,68.897
		c-5.485,12.26-10.704,24.529-13.453,37.675c-7.372,35.252-6.115,70.401,1.435,105.498c5.633,26.188,16.27,50.402,28.683,73.907
		c3.9,7.385,8.729,14.28,13.442,21.898c1.378-1.862,2.323-2.903,3.004-4.095c6.275-10.995,12.901-21.814,18.673-33.069
		c17.41-33.944,26.384-70.184,27.607-108.233c0.927-28.845-1.898-57.278-13.472-84.143c-5.565-12.918-11.92-25.494-17.749-38.301
		c-4.664-10.247-9.121-20.59-13.571-30.933C602.823,136.406,601.893,133.3,600.806,130.262z M463.553,541.983
		c56.835,18.382,98.106,57.065,136.221,100.974c37.995-44.144,79.519-83.035,136.481-101.22c-2.246-1.042-4.224-1.609-6.236-1.997
		c-34.558-6.657-69.231-12.487-104.423-14.641c-12.802-0.783-25.415-1.742-38.437-0.468c-31.984,3.13-63.952,6.062-95.577,11.937
		C482.226,538.307,472.895,540.175,463.553,541.983z M543.369,453.206c-1.308-2.566-2.181-4.424-3.179-6.213
		c-3.547-6.353-7.369-12.564-10.665-19.044c-9.094-17.877-20.035-34.583-33.026-49.772c-7.118-8.323-15.324-15.903-23.902-22.736
		c-8.452-6.732-16.334-4.174-19.778,6.039c-2.294,6.803-3.529,14.093-4.272,21.264c-1.845,17.807,1.975,35.08,6.389,52.144
		c3.037,11.739,6.952,23.25,10.519,35.01C491.5,464.319,517.096,458.835,543.369,453.206z M734.697,468.965
		c2.396-7.62,5.056-14.863,6.93-22.303c3.431-13.62,7.255-27.232,9.273-41.087c1.47-10.094,0.755-20.601,0.118-30.868
		c-0.326-5.256-2.128-10.589-4.134-15.533c-3.24-7.985-9.52-9.97-17.13-6.055c-1.45,0.746-2.957,1.561-4.107,2.683
		c-7.873,7.682-16.206,14.983-23.365,23.29c-18.517,21.489-30.916,46.906-44.545,71.506c-0.17,0.308,0.074,0.845,0.21,2.001
		C683.29,458.004,708.862,463.457,734.697,468.965z M403.418,489.842c-26.946-46.998-88.393-91.587-121.243-97.754
		c2.886,4.423,5.463,8.612,8.275,12.636c9.267,13.261,15.534,27.726,18.595,43.671c2.425,12.631,4.663,25.383,8.393,37.654
		c3.419,11.248,9.26,21.527,19.151,28.85c2.323,1.719,4.161,2.137,6.988,0.91c19.14-8.309,38.383-16.383,57.581-24.558
		C401.969,490.906,402.675,490.313,403.418,489.842z M917.672,391.649c-0.27-0.397-0.541-0.794-0.811-1.191
		c-12.9,4.196-25.196,9.961-36.733,16.981c-21.539,13.106-40.917,29.145-58.155,47.489c-7.98,8.492-14.314,18.533-21.357,27.899
		c-1.466,1.949-2.767,4.022-4.108,5.984c21.815,9.295,42.902,18.28,64.04,27.287c12.238-7.475,18.542-19.26,22.716-32.093
		c2.877-8.846,4.349-18.195,5.928-27.408c3.541-20.668,10.534-39.835,23.246-56.723
		C914.387,397.286,915.937,394.398,917.672,391.649z M916.714,720.871c-4.418,2.983-7.759,5.551-11.392,7.599
		c-3.306,1.864-6.918,2.727-10.823,1.395c-11.294-3.852-17.283-21.708-10.204-31.312c1.737-2.357,4.285-4.421,6.9-5.762
		c5.042-2.584,10.656-0.389,12.798,4.86c0.715,1.753,0.982,4.395,0.148,5.911c-1.296,2.357-3.575,0.853-5.571,0.046
		c-4.259-1.721-7.006-0.027-6.627,4.553c0.236,2.86,1.673,5.733,3.048,8.35c1.129,2.148,3.254,2.309,5.518,1.317
		c9.551-4.183,16.31-20.49,12.219-30.159c-1.988-4.698-5.089-8.919-10.755-8.846c-5.344,0.069-10.493,1.164-14.863,5.125
		c-8.707,7.893-14.362,17.184-15.539,29.044c-0.795,8.007-1.959,15.985-1.536,24.773c2.084-1.288,3.393-2.201,4.793-2.94
		c2.982-1.576,6.141-1.708,8.411,0.889c2.374,2.716,0.156,5.072-1.388,7.512c-2.751,4.348-5.374,8.807-7.647,13.418
		c-1.97,3.995-2.731,8.292-0.517,13.576c1.913-3.116,3.306-5.689,4.985-8.06c4.592-6.484,10.678-10.648,18.852-10.416
		c1.929,0.055,4.463,1.675,5.45,3.331c0.581,0.974-0.851,4.026-2.204,5.139c-13.436,11.056-20.737,25.782-25.646,41.993
		c-0.208,0.689-0.027,1.495-0.027,3.626c8.9-10.603,18.451-15.66,31.214-9.985c0.955-3.339,1.708-5.975,2.44-8.533
		c-7.903-3.529-8.292-4.687-3.629-11.37c2.143-3.072,4.736-5.827,6.932-8.865c1.2-1.66,2.51-3.508,2.895-5.445
		C917.564,748.472,917.613,735.187,916.714,720.871z M330.701,738.277c-0.685-8.111-1.411-15.721-1.951-23.344
		c-0.902-12.722-6.492-23.213-16.528-30.624c-11.283-8.332-22.404-6.059-25.613,7.254c-2.235,9.271,4.304,22.602,12.839,26.859
		c1.146,0.571,3.447,1.086,3.808,0.595c2.016-2.742,4.164-5.622,5.172-8.802c1.019-3.213-0.662-5.921-4.471-6.984
		c-0.902,0.484-1.879,1.374-2.943,1.494c-1.663,0.188-3.765,0.391-4.951-0.446c-0.805-0.568-0.82-3.047-0.397-4.429
		c2.089-6.815,9.106-9.188,15.282-5.35c7.639,4.747,10.188,14.823,6.171,24.399c-5.471,13.045-15.739,15.932-27.085,7.595
		c-1.971-1.448-3.87-2.993-7.196-5.575c0.484,12.847,0.92,24.041,1.322,35.236c0.211,5.881,2.347,10.782,6.564,15.016
		c2.45,2.459,4.427,5.492,6.175,8.522c2.099,3.638,1.419,5.17-2.411,7.178c-0.928,0.487-1.897,0.896-3.115,1.467
		c1.001,3.068,1.841,5.64,2.817,8.629c13.46-6.686,22.416,0.31,31.03,9.356c0.108-1.254,0.371-1.978,0.191-2.565
		c-5.038-16.393-12.243-31.446-25.915-42.642c-1.375-1.126-2.753-3.781-2.323-5.166c0.472-1.521,2.901-2.771,4.733-3.422
		c1.402-0.498,3.253-0.098,4.814,0.277c6.962,1.675,12.281,5.647,15.921,11.83c1.209,2.053,2.386,4.125,3.933,6.805
		c2.117-5.975,1.306-10.755-1.104-15.222c-2.442-4.527-5.405-8.774-7.807-13.32c-0.874-1.655-1.729-4.635-0.924-5.561
		c1.27-1.46,4.004-2.419,6.014-2.261C325.125,735.262,327.387,736.862,330.701,738.277z M450.077,560.231
		c0.068-0.454,0.136-0.909,0.204-1.363c-4.33-0.882-8.781-1.387-12.963-2.73c-7.312-2.348-13.656-0.506-20.142,2.916
		c-8.499,4.485-14.87,10.452-17.395,20.058c-0.828,3.152-2.278,6.156-3.591,9.163c-2.87,6.575-3.757,6.931-9.848,3.414
		c-7.807-4.508-16.039-7.632-24.989-9.044c-3.547-0.559-6.182,0.146-9.059,2.301c-10.974,8.221-20.346,18.047-29.425,28.226
		c-12.023,13.479-12.603,15.102-10.316,32.916c0.179,1.392,0.898,2.797,0.751,4.127c-0.213,1.922-0.436,4.62-1.676,5.437
		c-1.304,0.859-3.986,0.33-5.75-0.379c-2.527-1.016-4.766-2.746-7.784-4.567c-1.968,5.769-5.025,10.401-5.108,16.205
		c11.552-1.257,20.991,2.478,30.103,10.015c-0.32-3.474-0.603-5.78-0.735-8.095c-0.97-16.967-0.328-33.766,4.845-50.16
		c2.869-9.091,8.228-16.221,15.928-21.735c10.531-7.541,23.591-6.453,32.595,2.808c4.513,4.641,7.666,10.067,9.18,16.382
		c0.745,3.107,1.343,6.249,2.037,9.511c8.911-3.62,17.478-7.1,26.016-10.568c-4.801-15.188-3.662-24.286,4.136-34.847
		c6.073-8.225,14.21-13.525,23.714-16.905C443.875,562.227,446.986,561.257,450.077,560.231z M901.928,649.78
		c-2.746,1.702-4.758,2.854-6.667,4.158c-2.221,1.516-4.44,2.917-7.016,0.896c-2.22-1.741-1.467-4.053-1.27-6.441
		c0.555-6.745,0.964-13.521,0.94-20.283c-0.008-2.123-1.1-4.636-2.497-6.297c-11.171-13.286-22.519-26.391-36.468-36.995
		c-3.71-2.821-7.088-3.736-11.618-2.832c-8.625,1.722-16.58,4.883-24.164,9.266c-4.85,2.803-6.331,2.26-8.611-2.83
		c-1.817-4.057-3.453-8.214-4.873-12.426c-2.276-6.756-6.292-12-12.597-15.372c-3.716-1.988-7.469-3.923-11.304-5.666
		c-1.433-0.651-3.221-1.16-4.718-0.922c-7.022,1.12-13.998,2.523-20.991,3.825c-0.045,0.506-0.091,1.011-0.136,1.517
		c2.349,0.77,4.801,1.319,7.029,2.351c5.715,2.649,11.794,4.849,16.895,8.418c14.019,9.807,19.318,25.054,14.697,39.982
		c-0.455,1.471-0.945,2.93-1.338,4.142c8.89,3.552,17.297,6.912,26.137,10.445c0.484-2.44,0.927-4.692,1.378-6.943
		c1.415-7.065,4.461-13.294,9.452-18.542c9.255-9.733,22.211-10.9,33.082-3.086c8.341,5.995,13.601,13.973,16.471,23.799
		c4.885,16.723,4.975,33.761,3.921,50.915c-0.088,1.436-0.012,2.883-0.012,5.533c8.826-9.031,18.931-10.875,30.204-10.705
		c-1.158-3.489-2.045-6.367-3.073-9.193C904.076,654.556,903.174,652.689,901.928,649.78z M847.125,664.592
		c1.384-0.952,2.253-1.765,3.28-2.219c5.378-2.378,8.311-0.271,7.479,5.492c-0.501,3.471-1.219,6.94-2.193,10.307
		c-1.201,4.153-1.317,8.129-0.43,12.429c1.42,6.876,2.305,13.879,3.103,20.864c1.972,17.268-0.786,34.134-4.595,50.904
		c-0.56,2.468-0.967,5.082-0.791,7.582c0.379,5.368,1.222,10.701,1.808,16.056c1.152,10.535,0.902,10.749-9.852,9.302
		c-0.423-0.057-0.889,0.207-2.008,0.493c-0.913,2.287-1.975,4.949-3.491,8.749c9.797-2.654,17.573-0.24,25.35,4.772
		c0.148-2.925,0.476-4.994,0.318-7.025c-1.034-13.321-1.641-26.704-3.406-39.932c-2.471-18.528-2.508-36.861,0.649-55.307
		c2.211-12.916,4.225-25.921,5.24-38.971c1.224-15.733,0.18-31.424-5.309-46.498c-1.963-5.391-4.826-10.073-9.503-13.645
		c-8.692-6.639-15.932-5.383-21.715,3.96c-4.76,7.691-5.131,16.344-3.174,24.502c0.997,4.158,5.283,8.83,9.265,10.579
		c3.531,1.551,7.638-2.426,10.424-5.783c0.749-0.902,1.569-1.756,2.237-2.714c3.348-4.803,2.875-8.453-1.461-12.279
		c-1.477-1.303-2.845-2.728-5.095-4.901c2.634-0.942,4.04-1.853,5.462-1.879c4.83-0.087,9.264,3.411,10.979,8.424
		c1.971,5.759,1.142,11.338-2.508,16.014c-4.101,5.254-8.859,9.996-13.548,15.201c0.41,0.78,1.03,2.04,1.73,3.254
		C845.714,662.913,846.205,663.414,847.125,664.592z M357.044,795.536c-2.317,0.538-3.648,0.91-5.002,1.15
		c-5.693,1.011-7.304-0.393-6.839-6.114c0.455-5.607,0.768-11.248,1.671-16.789c0.659-4.044,0.357-7.819-0.519-11.767
		c-3.254-14.653-6.504-29.362-4.932-44.521c0.918-8.854,2.572-17.632,3.538-26.482c0.397-3.639,0.019-7.396-0.325-11.07
		c-0.217-2.312-1.282-4.543-1.508-6.855c-0.329-3.358-2.477-7.19,0.677-9.996c3.581-3.186,6.299,1.159,9.945,2.061
		c1.104-2.111,2.228-4.26,3.475-6.646c-6.935-3.593-11.178-8.886-14.843-14.67c-2.919-4.607-3.526-9.677-1.91-14.874
		c1.61-5.177,6.836-9.213,11.498-8.822c1.178,0.099,2.612,1.063,3.263,2.063c0.383,0.588-0.29,2.241-0.947,3.035
		c-0.87,1.052-2.234,1.68-3.307,2.585c-2.885,2.433-3.651,5.619-2.024,8.865c2.464,4.916,5.997,9.038,11.407,10.887
		c1.378,0.471,3.732,0.574,4.545-0.243c2.783-2.795,6.473-5.742,7.303-9.229c2.527-10.627,1.63-21.073-6.378-29.627
		c-4.055-4.331-9.649-5.146-14.731-2.125c-5.12,3.044-9.652,6.884-11.639,12.732c-2.029,5.972-4.31,11.985-5.276,18.169
		c-3.33,21.316-2.049,42.598,2.261,63.654c3.988,19.485,4.884,38.964,2.465,58.74c-1.736,14.186-2.477,28.496-3.556,42.758
		c-0.182,2.4,0.177,4.841,0.273,6.983c4.563-1.712,8.334-3.723,12.338-4.459c3.946-0.725,8.13-0.158,12.602-0.158
		C359.399,801.71,358.333,798.915,357.044,795.536z M746.009,973.806c6.493-4.506,12.053-9.285,18.391-12.557
		c10.475-5.407,20.894-2.413,28.036,6.971c0.777,1.021,1.533,2.057,2.672,3.586c2.277-2.91,4.081-5.216,5.689-7.272
		c-1.655-3.229-3.19-5.636-4.157-8.253c-1.279-3.462,0.111-5.362,3.863-5.647c1.862-0.142,3.751,0.11,5.628,0.104
		c7.522-0.024,8.738-0.878,11.851-8.345c-2.163-0.122-4.277-0.096-6.348-0.383c-11.363-1.576-17.034-10.497-13.685-21.422
		c2.66-8.676,10.579-14.475,19.046-13.522c2.144,0.241,4.429,1.427,6.099,2.832c0.946,0.797,1.388,3.171,0.904,4.369
		c-0.374,0.926-2.513,1.447-3.918,1.573c-2.072,0.186-4.232-0.459-6.278-0.184c-4.534,0.61-7.878,5.527-7.391,10.414
		c0.364,3.654,3.156,5.364,8.522,5.218c9.069-0.246,19.129-7.692,21.83-16.357c1.439-4.615,0.551-8.941-3.036-12.271
		c-4.838-4.491-10.588-7.435-17.293-5.98c-5.42,1.176-10.938,2.815-15.821,5.376c-12.508,6.561-21.461,17.303-30.626,27.692
		c-0.988,1.12-1.598,2.574-2.698,4.394c4.192,0.339,7.709,0.282,11.055,1.01c2.385,0.519,4.931,1.668,6.705,3.298
		c2.522,2.318,1.632,5.439-1.589,6.653c-1.498,0.565-3.225,0.491-4.822,0.828c-3.659,0.771-7.704,0.877-10.862,2.595
		c-5.474,2.977-11.236,6.223-15.285,10.773C749.142,963.065,748.091,968.873,746.009,973.806z M433.098,934.89
		c-1.038-1.662-1.479-2.75-2.239-3.527c-7.543-7.704-14.823-15.707-22.826-22.904c-5.753-5.174-12.716-8.713-20.446-10.568
		c-8.014-1.923-14.877,0.054-20.852,5.43c-3.394,3.053-4.634,6.999-3.501,11.468c2.27,8.96,13.16,17.398,22.445,17.511
		c7.049,0.086,9.863-4.071,7.189-10.571c-1.397-3.395-3.846-5.232-7.554-5.263c-2.77-0.023-5.54-0.005-8.309,0.001
		c-1.427-5.25-0.206-7.402,4.75-8.368c9.676-1.886,19.374,5.421,21.234,16c1.729,9.834-3.622,16.882-14.252,18.731
		c-2.142,0.373-4.302,0.638-6.678,0.985c4.78,7.641,5.53,8.08,13.136,7.916c1.171-0.025,2.341-0.238,3.511-0.235
		c5.298,0.012,6.624,2.142,4.348,7.109c-1.057,2.308-2.32,4.523-3.64,7.071c2.005,2.355,3.866,4.54,5.859,6.88
		c0.965-1.19,1.431-1.71,1.833-2.275c0.407-0.572,0.681-1.249,1.134-1.776c6.316-7.325,13.828-11.118,23.672-7.927
		c7.059,2.288,13.114,6.16,18.252,11.503c0.976,1.015,2.05,1.935,3.08,2.899c-0.956-4.955-2.62-9.292-4.567-13.499
		c-0.76-1.644-1.901-3.313-3.301-4.426c-7.093-5.636-14.883-9.802-24.162-10.445c-1.17-0.081-2.5,0.163-3.471-0.318
		c-1.369-0.679-3.303-1.766-3.482-2.914c-0.238-1.531,0.534-3.769,1.68-4.827c1.441-1.331,3.631-2.158,5.622-2.52
		C424.998,935.406,428.529,935.308,433.098,934.89z M679.661,642.696c19.814-16.753,42.886-26.708,69.395-28.644
		c-0.878-2.837-1.626-4.805-2.092-6.837c-2.53-11.034,4.235-19.011,15.658-18.536c5.434,0.226,10.113,4.138,9.956,8.905
		c-0.059,1.784-1.264,4.014-2.673,5.07c-0.723,0.542-3.114-0.927-4.62-1.731c-0.771-0.412-1.185-1.877-1.881-1.97
		c-1.749-0.234-3.856-0.48-5.253,0.298c-0.909,0.506-1.288,2.86-1.096,4.277c0.545,4.02,3.399,7.035,7.397,7.372
		c8.634,0.728,15.399-1.065,13.862-12.801c-0.296-2.263-1.126-4.557-2.166-6.605c-4.101-8.079-10.51-13.927-18.941-16.979
		c-8.563-3.1-17.415-5.413-26.171-7.968c-6.837-1.995-12.504,0.661-18.39,4.56c2.229,1.617,4.005,2.738,5.59,4.084
		c10.567,8.974,11.221,22.458,1.035,31.899c-3.873,3.59-8.651,6.506-13.49,8.669c-5.298,2.368-11.093,3.71-16.763,5.132
		c-5.811,1.458-11.733,2.471-17.3,3.616C674.337,630.501,676.806,636.157,679.661,642.696z M520.534,643.549
		c2.834-6.356,5.449-12.219,8.021-17.985c-8.478-1.946-17.416-3.822-26.256-6.08c-7.819-1.997-15.032-5.399-20.98-11.021
		c-10.641-10.057-10.069-23.77,1.32-32.926c1.508-1.213,3.086-2.339,5.057-3.826c-5.533-2.905-10.114-5.613-15.935-4.709
		c-10.981,1.706-21.513,4.837-31.528,9.62c-7.223,3.449-12.871,8.742-16.208,16.021c-1.413,3.082-2.231,6.714-2.244,10.101
		c-0.024,6.043,3.142,8.597,10.078,9.229c6.003,0.547,9.994-1.853,11.176-7.209c0.332-1.506-0.192-4.375-1.07-4.721
		c-1.639-0.645-3.868-0.08-5.763,0.36c-0.711,0.165-1.028,1.699-1.786,2.057c-1.353,0.641-3.184,1.539-4.298,1.079
		c-1.208-0.499-2.31-2.326-2.608-3.751c-0.834-3.989,2.84-8.647,7.356-9.815c11.766-3.045,21.434,6.445,18.478,18.174
		c-0.545,2.162-1.297,4.271-2.084,6.826C477.823,616.909,500.499,626.749,520.534,643.549z M548.075,468.879
		c-0.202-0.612-0.403-1.225-0.605-1.837c-6.116,1.393-12.237,2.769-18.343,4.206c-0.649,0.153-1.195,0.701-1.818,1.008
		c-2.864,1.411-5.629,3.118-8.625,4.149c-20.001,6.886-37.029,17.032-43.715,38.861c-0.069,0.224-0.128,0.453-0.225,0.664
		c-2.214,4.82-6.873,5.358-9.743,0.902c-1.632-2.533-2.646-5.471-3.882-8.252c-2.757-6.204-7.036-11.082-12.948-14.374
		c-1.503-0.837-3.621-1.458-5.206-1.092c-4.852,1.118-9.583,2.764-14.361,4.205c-0.213,0.418-0.427,0.836-0.64,1.254
		c15.513,4.759,18.32,16.898,18.285,30.751c4.942-0.977,9.259-2.153,13.651-2.634c9.822-1.076,18.705-4.747,26.683-10.187
		c15.102-10.298,30.032-20.873,44.651-31.843C537.351,480.069,542.491,474.179,548.075,468.879z M827.874,548.231
		c-0.916-2.246-1.15-3.41-1.785-4.282c-6.607-9.075-12.543-18.779-20.09-27c-14.216-15.485-32.967-20.569-53.459-20.374
		c-4.458,0.043-8.246,1.671-11.287,4.884c-3.864,4.083-4.738,10.607-1.318,14.096c5.045,5.146,11.188,8.642,18.704,8.214
		c1.772-0.101,4.711-1.567,4.916-2.777c0.422-2.494-0.018-5.593-1.269-7.775c-1.143-1.993-3.845-2.317-6.275-0.872
		c-1.478,0.878-3.164,1.405-4.877,2.141c-1.814-7.651,2.25-12.289,8.969-11.193c10.432,1.701,15.781,14.272,10.03,23.623
		c-0.899,1.462-1.945,2.833-3.414,4.955c10.981,2.287,21.17,3.954,31.095,6.605C807.629,541.099,817.181,544.715,827.874,548.231z
		 M387.452,543.852c-2.776-9.345,0.254-16.602,5.789-22.802c6.933-7.765,19.008-5.074,21.835,4.751c0.481,1.67,0,4.375-1.128,5.577
		c-1.796,1.914-3.87,0.344-5.391-1.283c-0.797-0.854-1.448-1.843-2.186-2.754c-1.936-2.393-4.325-2.19-6.04-0.193
		c-3.084,3.59-5.463,7.614-3.035,13.223c10.377-2.236,20.63-4.504,30.912-6.627c3.152-0.651,4.811-2.654,5.957-5.381
		c2.721-6.474-0.628-15.435-6.943-18.648c-5.432-2.764-11.163-3.385-17.122-2.511c-7.724,1.134-14.93,3.71-22.015,7.016
		c-19.84,9.256-34.236,24.321-46.104,42.203c-0.946,1.425-1.629,3.025-2.691,5.029C355.649,555.475,371.192,549.795,387.452,543.852
		z M515.608,1077.436c6.779,7.222,36.196,29.307,41.596,31.215c2.253-14.197,5.958-18.215,13.228-13.895
		c-0.585,1.673-1.347,3.38-1.778,5.167c-1.369,5.672,0.015,10.706,3.944,14.983c2.402,2.615,5.404,3.561,8.931,2.778
		c14.257-3.164,16.332-17.944,8.981-27.149c-7.695-9.636-18.105-12.677-29.94-12.679
		C545.589,1077.853,530.608,1077.588,515.608,1077.436z M636.955,462.883c-0.178,0.558-0.356,1.117-0.534,1.675
		c1.715,1.525,3.326,3.19,5.162,4.552c15.44,11.455,30.836,22.972,46.419,34.23c11.099,8.019,23.516,13.603,36.284,18.399
		c2.542,0.955,5.232,1.517,9.254,2.656c-10.496-15.668-4.699-26.986,7.554-37.225c-3.585-1.102-6.284-1.815-8.896-2.765
		c-3.552-1.292-6.557-0.659-9.95,1.122c-5.375,2.822-7.107,7.839-9.271,12.745c-3.87,8.775-7.066,9.331-13.566,2.044
		c-5.307-5.95-11.241-11.593-15.311-18.331c-5.199-8.607-12.026-12.664-21.804-13.814
		C653.76,467.169,645.396,464.703,636.955,462.883z M685.863,1076.669c-2.498-0.46-3.145-0.697-3.785-0.68
		c-15.21,0.389-30.425,0.665-45.624,1.303c-4.394,0.185-8.861,1.025-13.087,2.271c-6.826,2.012-11.138,7.492-15.692,12.548
		c-2.973,3.302-1.447,7.143-1.442,10.776c0.01,7.347,7.66,14.653,15.016,13.957c2.32-0.22,4.955-1.586,6.632-3.249
		c4.41-4.371,4.732-9.937,3.336-15.72c-0.408-1.69-0.762-3.392-1.44-6.427c3.076,0.598,5.22,0.503,6.783,1.409
		c5.757,3.337,5.598,9.625,6.779,16.352C657.576,1098.315,671.074,1087.985,685.863,1076.669z M766.295,1003.139
		c-0.812-0.705-1.5-1.308-2.195-1.904c-8.72-7.478-7.548-18.914,2.64-24.247c1.742-0.912,4.146-1.419,5.991-1
		c1.412,0.321,2.936,2.242,3.404,3.761c0.241,0.782-1.549,2.457-2.716,3.34c-1.443,1.092-3.767,1.4-4.652,2.744
		c-0.969,1.474-1.412,4.02-0.78,5.565c0.422,1.031,3.203,1.737,4.792,1.532c5.169-0.669,12.154-8.639,12.584-13.831
		c0.295-3.554-0.944-6.413-3.768-8.613c-4.981-3.882-10.26-3.956-15.885-1.525c-10.962,4.738-17.72,13.62-23.209,23.64
		c-2.924,5.338-5.78,10.802-7.833,16.51c-6.68,18.565-18.435,33.015-34.558,44.094c-4.572,3.142-9.234,6.155-13.854,9.226
		c12.407-2.392,24.093-6.16,33.544-14.827c3.805-3.489,7.465-7.16,11.48-10.389c5.72-4.6,9.132-10.606,11.507-17.337
		c1.325-3.756,2.365-7.614,3.72-11.358c1.344-3.713,2.935-4.309,6.377-2.392c2.2,1.224,4.219,2.773,7.004,4.635
		C761.938,1008.323,763.88,1006.012,766.295,1003.139z M512.678,1062.795c-1.208-0.945-2.387-1.931-3.629-2.828
		c-5.693-4.113-11.6-7.958-17.065-12.354c-8.652-6.959-16.107-15.037-20.812-25.285c-2.54-5.533-4.828-11.182-7.39-16.704
		c-4.842-10.432-9.833-20.777-18.488-28.784c-4.759-4.402-10.145-7.598-16.589-8.599c-7.095-1.102-14.38,4.905-14.021,11.33
		c0.293,5.246,7.637,13.608,12.979,14.385c1.417,0.206,3.757-0.276,4.321-1.237c0.784-1.333,1.014-3.981,0.179-5.048
		c-1.301-1.663-3.783-2.351-5.59-3.688c-1.037-0.767-2.487-2.07-2.4-3.006c0.129-1.387,1.205-3.441,2.333-3.806
		c1.794-0.58,4.28-0.635,5.922,0.188c12.251,6.142,12.383,19.355,3.601,24.865c-0.723,0.453-1.297,1.145-2.212,1.972
		c2.491,2.57,4.697,4.845,7.032,7.253c1.134-0.79,1.884-1.3,2.621-1.828c8.073-5.789,8.819-5.659,11.492,3.881
		c3.118,11.128,8.196,20.837,17.668,27.939c3.175,2.38,5.887,5.367,8.904,7.969C490.428,1057.08,501.094,1060.819,512.678,1062.795z
		 M564.504,1067.139c0.272-0.435,0.544-0.87,0.816-1.305c-5.765-4.672-11.707-9.146-17.229-14.088
		c-3.428-3.068-6.644-3.792-11.326-3.219c-13.273,1.624-24.475-3.61-33.292-13.254c-7.663-8.381-10.343-18.207-5.197-28.309
		c-7.123-6.614-13.753-12.771-20.274-18.826c-3.627,4.564-4.744,7.244-4.205,13.058c0.996,10.748,3.992,20.876,11.912,28.615
		c5.837,5.703,11.94,11.324,18.666,15.891C522.523,1058.023,542.789,1064.784,564.504,1067.139z M635.259,1064.763
		c0.115,0.389,0.231,0.778,0.346,1.167c1.15,0,2.32,0.137,3.448-0.02c25.445-3.549,48.479-12.812,68.234-29.441
		c11.004-9.263,18.163-20.796,19.048-35.6c0.335-5.596-0.629-10.689-5.353-15.227c-6.591,6.736-13.054,13.342-19.28,19.705
		c3.633,9.601,3.948,13.271,0.566,20.327c-1.794,3.743-4.094,7.542-7.069,10.364c-9.487,8.998-20.734,13.472-34.078,11.519
		c-1.71-0.25-4.032-0.447-5.207,0.456C648.889,1053.413,642.116,1059.143,635.259,1064.763z M641.626,644.365
		c0.381,0.724,0.889,1.474,1.193,2.3c2.872,7.786,6.671,9.65,14.551,7.097c6.5-2.106,9.105-5.743,8.51-11.879
		c-0.664-6.84-5.194-10.662-13.236-10.599c-7.141,0.057-13.855,2.11-20.248,5.298c-2.587,1.29-3.843,3.251-4.071,6.061
		c-1.23,15.171-2.563,30.334-3.653,45.514c-0.165,2.297,0.762,4.672,1.373,8.057c9.901-10.578,18.795-20.079,28.139-30.061
		c-2.965-0.597-5.267-0.917-7.487-1.535c-6.332-1.763-11.157-7.234-11.468-12.82C634.975,647.233,636.187,645.772,641.626,644.365z
		 M546.115,666.22c4.969,7.309,25.08,27.878,28.566,29.37c0.187-0.933,0.457-1.822,0.531-2.726
		c1.368-16.754-1.074-33.264-3.357-49.769c-0.232-1.678-1.287-3.882-2.64-4.66c-7.871-4.53-16.324-7.36-25.542-5.832
		c-5.891,0.977-8.766,4.396-9.348,9.887c-0.763,7.196,3.929,12.078,12.409,12.912c5.703,0.561,8.19-1.003,10.192-6.295
		c0.545-1.441,1.282-2.808,1.85-4.033c4.009-0.002,5.63,2.171,6.202,5.17c0.765,4.005-0.839,7.375-3.482,10.277
		C557.61,664.789,552.615,666.449,546.115,666.22z M598.219,465.824c-5.947,6.426-10.955,12.329-16.492,17.684
		c-5.725,5.536-11.722,10.858-18.048,15.686c-5.985,4.568-12.551,8.374-18.861,12.514c8.359,0.674,16.242-0.115,24.145-0.448
		c3.664-0.155,6.129-1.466,8.152-4.467c3.408-5.057,6.889-10.091,10.712-14.835c4.529-5.62,7.52-6.154,13.141-1.738
		c6.065,4.766,11.569,10.243,17.348,15.375c1.549,1.375,3.076,3.515,4.84,3.778c6.993,1.041,14.061,1.969,21.386,0.931
		C626.312,498.495,609.745,485.3,598.219,465.824z M354.931,831.335c1.704,1.27,3.322,2.525,4.993,3.707
		c1.895,1.34,3.688,2.985,5.793,3.835c3.715,1.5,5.95-0.016,6.242-3.942c0.1-1.35-0.168-2.796-0.571-4.105
		c-2.457-7.987-8.186-13.036-15.56-16.154c-6.25-2.643-12.621,1.351-13.14,8.097c-0.227,2.954-0.068,6.24,1.025,8.923
		c1.742,4.276,3.957,8.525,6.767,12.171c13.2,17.124,30.506,29.565,48.264,41.433c0.229,0.153,0.773-0.163,1.552-0.354
		c-7.486-13.149-14.916-26.199-22.312-39.191c-9.409,4.059-16.009,3.043-21.564-3.014
		C352.449,838.41,352.122,836.404,354.931,831.335z M799.36,885.169c1.787-0.683,2.67-0.84,3.341-1.304
		c13.298-9.198,26.478-18.585,37.806-30.205c4.556-4.673,8.748-9.795,12.477-15.15c3.501-5.028,5.794-10.732,4.581-17.185
		c-1.163-6.19-6.541-9.875-12.353-7.735c-8.053,2.966-14.188,8.346-16.381,16.971c-0.555,2.182-0.118,5.843,1.312,6.947
		c1.352,1.043,4.738-0.025,6.985-0.84c1.653-0.599,2.856-2.361,4.363-3.465c1.239-0.907,2.628-1.609,5.186-3.142
		c0.062,3.249,0.677,5.553,0.04,7.435c-2.483,7.336-12.195,11.828-19.696,9.385c-1.673-0.545-3.278-1.297-4.84-1.924
		C814.573,858.362,807.236,871.29,799.36,885.169z M501.927,517.778c0.182,0.406,0.363,0.812,0.545,1.218
		c4.342-0.777,8.894-0.979,12.979-2.464c6.133-2.229,11.971-5.292,17.88-8.116c20.627-9.859,38.016-23.848,52.542-41.444
		c1.12-1.356,1.999-2.91,3.198-4.679c-1.289-0.319-1.918-0.606-2.546-0.605c-1.872,0.002-3.749,0.057-5.616,0.197
		c-13.502,1.014-13.699,0.833-23.011,10.621c-12.812,13.468-26.622,25.679-42.217,35.841
		C511.023,511.381,506.507,514.629,501.927,517.778z M358.951,871.786c-0.121-0.803-0.084-1.041-0.184-1.143
		c-0.82-0.829-1.621-1.684-2.51-2.436c-12.969-10.969-22.785-24.216-29.139-40.014c-1.486-3.695-2.889-7.531-5.067-10.813
		c-2.559-3.855-5.516-7.679-9.079-10.551c-2.308-1.861-5.979-2.586-9.094-2.744c-3.465-0.175-6.256,2.894-5.389,5.924
		c1.599,5.59,3.917,10.989,6.201,16.355c0.413,0.971,2.095,1.402,3.683,2.388c-0.401-3.475-0.722-6.26-1.093-9.477
		c6.632,0.833,8.819,4.798,10.083,9.529c1.573,5.888-2.388,8.389-7.57,9.989c2.989,4.917,4.345,9.75,9.147,12.291
		c11.409,6.036,22.738,12.222,34.134,18.284C354.844,870.309,356.795,870.91,358.951,871.786z M891.878,826.801
		c0.452,0.365,0.904,0.73,1.357,1.095c1.453-1.935,3.242-3.708,4.278-5.846c1.422-2.935,2.209-6.172,3.389-9.233
		c1.058-2.746,1.836-5.478-0.576-7.847c-2.665-2.618-5.821-2.582-9.153-1.332c-5.097,1.913-8.732,5.613-11.342,10.107
		c-2.814,4.844-5.206,9.972-7.364,15.151c-6.075,14.58-15.292,26.812-27.045,37.241c-1.22,1.082-2.281,2.343-3.416,3.522
		c3.423-0.315,6.157-1.524,8.784-2.933c9.297-4.988,18.424-10.315,27.88-14.976c5.971-2.943,8.982-7.633,11.015-13.419
		c-7.303-4.57-8.262-6.358-6.499-11.646c1.858-5.575,4.906-7.878,10.026-7.273C892.764,821.887,892.321,824.344,891.878,826.801z
		 M527.134,595.61c-1.332-0.756-2.196-1.162-2.971-1.699c-5.399-3.738-10.709-7.609-16.185-11.23
		c-5.59-3.696-15.366-2.416-20.029,2.401c-4.555,4.705-5.031,10.505-0.138,14.903c3.922,3.526,8.62,6.593,13.498,8.576
		c16.963,6.894,35.188,8.369,53.244,11.41c-2.793-3.285-5.847-6.12-8.996-8.847c-3.341-2.893-6.773-5.682-10-8.38
		c-2.367,1.316-4.134,2.495-6.051,3.331c-8.46,3.69-19.184,0.189-22.287-7.536c-0.754-1.876-0.862-5.062,0.242-6.399
		c1.897-2.297,4.173-0.273,5.972,1.316c1.052,0.929,2.031,2.016,3.235,2.685C519.584,597.759,522.615,599.107,527.134,595.61z
		 M645.424,619.583c6.428-1.088,11.98-1.792,17.422-2.997c11.427-2.531,22.848-5.124,34.165-8.096
		c5.948-1.562,11.277-4.68,15.532-9.262c3.656-3.937,4.258-7.516,2.243-11.52c-3.156-6.27-14.038-10.693-20.059-7.259
		c-7.248,4.134-13.907,9.301-21.827,14.708c2.616,0.95,3.825,1.718,5.068,1.78c3.836,0.191,6.401-2.269,9.198-4.49
		c1.387-1.101,3.646-1.103,5.511-1.602c0.276,1.981,0.946,4.013,0.702,5.928c-0.19,1.488-1.343,2.978-2.372,4.213
		c-4.51,5.413-13.068,7.265-19.959,4.336c-2.123-0.902-4.116-2.111-6.609-3.408c-5.505,4.79-10.988,9.524-16.414,14.321
		C647.21,616.956,646.657,617.973,645.424,619.583z M606.24,460.878c4.013,5.164,6.812,9.206,10.052,12.856
		c13.398,15.092,29.638,26.459,47.15,36.31c8.069,4.539,16.719,4.94,25.503,5.96c-1.235-1.53-2.626-2.693-4.116-3.709
		c-20.375-13.894-40.287-28.435-57.776-45.884C621.276,460.648,615.084,460.26,606.24,460.878z M657.316,321.903
		c9.253-11.699,16.983-23.912,21.451-37.913c5.392-16.897,1.032-31.397-10.82-44.041c-3.236-3.452-7.229-5.426-12.6-6.318
		c1.227,7.593,2.479,14.482,3.403,21.415c0.468,3.515,1.848,6.021,4.95,7.906c9.123,5.543,11.419,15.113,7.639,24.553
		c-2.496,6.232-6.3,11.937-9.474,17.902c-1.069,2.01-2.371,4-2.911,6.163C658.113,314.942,657.834,318.452,657.316,321.903z
		 M542.15,322.165c-0.621-6.559-0.814-12.913-5.57-18.773c-4.131-5.089-6.555-11.875-8.585-18.275
		c-2.289-7.215-0.657-14.554,5.761-18.919c5.658-3.848,8.08-8.51,8.559-14.939c0.278-3.729,1.223-7.404,1.703-11.124
		c0.219-1.695,0.037-3.441,0.037-5.378c-1.35,0.234-2.06,0.256-2.698,0.482c-10.493,3.73-15.243,12.755-19.604,21.883
		c-2.551,5.34-3.017,11.177-2.29,17.201C521.685,292.733,531.542,307.5,542.15,322.165z M861.127,561.13
		c-0.211-1.865-0.118-2.623-0.39-3.214c-4.506-9.791-8.913-19.633-13.727-29.272c-0.92-1.843-3.303-3.252-5.322-4.196
		c-6.585-3.078-13.301-5.88-20.004-8.7c-1.053-0.443-2.3-0.428-4.109-0.736c3.908,6.048,7.632,11.184,10.675,16.696
		c3.048,5.523,5.336,11.46,8.141,17.125c0.671,1.355,1.851,2.848,3.171,3.425C846.396,555.252,853.352,557.968,861.127,561.13z
		 M615.678,708.277c-9.357-10.616-14.684-22.242-14.343-36.104c0.022-0.91-0.836-1.843-1.245-2.683
		c-1.395,7.294-1.896,14.647-4.326,21.295c-2.43,6.645-6.791,12.584-10.555,19.276c4.516,6.222,9.416,12.972,14.639,20.167
		C605.263,722.72,610.299,715.736,615.678,708.277z M544.029,176.626c3.752,3.483,3.791,3.349,7.926,4.568
		c1.32,0.389,3.408,1.81,3.326,2.56c-0.172,1.578-1.289,4.009-2.483,4.323c-2.562,0.674-5.47,0.553-8.137,0.131
		c-1.929-0.305-3.698-1.619-5.861-2.634c-5.342,8.821-9.816,17.612-12.117,27.558c2.793-1.13,5.166-2.544,7.319-4.235
		c5.894-4.629,11.619-9.474,17.552-14.052c7.686-5.931,11.352-14.11,13.321-23.24c0.712-3.304,0.281-6.539-2.064-9.267
		c-2.696-3.136-7.24-3.391-9.637-0.054C549.926,166.807,547.154,171.671,544.029,176.626z M662.189,185.864
		c-5.52,0.843-9.548,1.87-13.568,1.844c-1.363-0.009-3.527-2.508-3.872-4.17c-0.521-2.517,1.685-3.478,4.11-3.497
		c0.927-0.007,1.9-0.104,2.77-0.4c3.718-1.265,4.634-3.436,2.62-7.003c-2.073-3.671-4.301-7.288-6.804-10.676
		c-3.219-4.357-8.313-4.065-10.72,0.741c-1.079,2.156-1.513,5.012-1.205,7.418c1.139,8.88,4.796,16.705,11.685,22.593
		c6.417,5.484,13.118,10.639,19.77,15.843c1.864,1.458,3.995,2.575,6.004,3.849C671.026,202.016,666.719,193.341,662.189,185.864z
		 M442.83,311.046c9.324,15.542,2.378,31.772-8.275,38.769c-2.89,1.898-5.402,4.371-8.663,7.054
		c2.969,0.875,5.235,1.298,7.282,2.212c2.254,1.005,4.307,2.461,6.681,3.859c1.714-3.807,2.655-7.656,4.899-10.464
		c3.228-4.04,3.834-8.15,3.28-13.006c-0.545-4.781,0.476-9.345,3.825-13.117c5.898-6.645,13.874-5.735,17.451,2.382
		c1.65,3.743,2.093,8.019,3.223,12.625c1.183,0.443,2.888,1.082,5.574,2.089c-3.026-13.384-7.664-24.777-18.619-32.677
		C452.231,305.535,451.171,305.534,442.83,311.046z M774.127,355.491c-16.64-11.432-28.028-24.48-16.903-45.313
		c-7.738-5.445-9.301-5.475-16.364-0.381c-10.317,7.441-15.318,18.061-17.894,30.098c-0.119,0.556,0.382,1.245,0.646,2.023
		c1.026-0.327,1.945-0.521,2.772-0.911c0.801-0.378,1.507-0.956,2.255-1.446c0.447-4.901,1.272-9.612,3.43-13.601
		c3.099-5.726,8.624-6.733,13.649-2.592c2.557,2.107,4.719,5.314,5.768,8.455c1.064,3.188,0.551,6.907,0.704,10.394
		c0.07,1.59-0.446,3.454,0.212,4.725c2.563,4.954,5.489,9.72,8.28,14.554C764.602,359.743,768.769,357.883,774.127,355.491z
		 M779.266,460.587c11.086-2.341,20.68-6.858,29.88-12.29c7.225-4.265,12.721-10.318,17.213-17.212
		c4.845-7.435,4.877-15.251,0.646-23.362c-4.673,2.168-7.315,4.513-6.458,10.264c0.536,3.594-0.748,7.994-2.558,11.296
		c-4.201,7.667-11.412,11.401-19.916,12.781c-1.793,0.291-4.279,0.133-5.215,1.231C788.105,448.87,783.757,454.789,779.266,460.587z
		 M373.24,407.703c-4.003,9.915-3.776,18.074,1.814,26.17c8.684,12.577,21.571,19.038,34.964,24.858
		c3.404,1.479,6.926,2.685,10.393,4.017c-3.124-6.125-6.996-11.091-10.719-16.168c-1.627-2.219-3.482-3.172-6.34-3.546
		c-16.849-2.206-25.184-12.772-23.436-29.663C378.161,411.881,376.231,410.243,373.24,407.703z M282.844,458.747
		c1.722,1.665,2.928,3.337,4.555,4.294c2.966,1.744,4.001,4.212,2.563,7.06c-2.327,4.61-0.928,8.597,1.198,12.62
		c3.057,5.786,6.256,11.5,9.219,17.334c2.25,4.43,5.773,6.381,11.453,6.43c-2.174-2.061-3.804-3.643-5.474-5.182
		c-7.703-7.101-11.682-15.633-10.283-26.306c0.576-4.398,1.07-8.811,1.474-13.228c0.491-5.376,0.878-10.798-1.602-15.851
		c-2.285-4.657-5.638-8.047-11.224-8.291c-2.742-0.12-4.922,1.218-4.798,3.911c0.124,2.695,0.899,5.68,2.39,7.851
		c0.691,1.007,3.763,0.319,5.74,0.538c0.613,0.068,1.176,0.592,1.817,0.936C290.431,455.363,286.434,455.907,282.844,458.747z
		 M310.295,577.574c8.941-4.167,15.984-8.321,20.084-16.875c4.958-10.344,11.372-19.935,19.265-28.412
		c0.478-0.514,0.632-1.329,0.937-2.005c-7.643,2.952-14.322,6.753-20.902,10.718c-1.566,0.944-3.137,2.214-4.133,3.714
		C319.053,554.491,313.781,564.863,310.295,577.574z M888.919,504.029c5.118,1.36,8.261-0.047,10.235-3.761
		c3.409-6.415,6.856-12.81,10.274-19.22c1.93-3.62,3.039-7.231,1.033-11.319c-1.555-3.17-0.749-5.769,2.529-7.7
		c1.553-0.915,2.61-2.674,4.071-4.245c-3.058-2.739-7.659-3.325-6.378-8.106c7.698-0.229,9.211-1.448,9.625-7.592
		c0.253-3.762-1.756-5.886-5.473-5.394c-5.103,0.676-8.971,3.68-10.39,8.398c-1.382,4.596-1.825,9.595-1.895,14.428
		c-0.065,4.412,0.71,8.878,1.486,13.254c1.947,10.981-1.958,19.795-9.74,27.211C892.683,501.52,890.721,502.689,888.919,504.029z
		 M859.689,532.91c0.251,2.193,0.138,2.932,0.424,3.451c4.575,8.278,7.541,17.112,9.402,26.362c0.256,1.272,0.812,2.944,1.778,3.536
		c5.653,3.47,11.47,6.674,17.231,9.968c-1.525-9.313-4.126-17.745-6.867-26.132c-0.416-1.273-1.242-2.672-2.297-3.435
		C873.192,542.203,866.899,537.919,859.689,532.91z M466.607,308.103c-0.429,0.496-0.859,0.991-1.288,1.487
		c1.023,0.55,2.242,0.899,3.038,1.68c9.858,9.666,16.319,21.06,16.994,35.121c0.197,4.104,2.707,5.407,5.751,6.864
		C497.779,331.121,486.178,310.046,466.607,308.103z M583.845,1129.283c5.365,4.514,10.645,8.957,15.966,13.433
		c5.791-5.085,11.143-9.785,16.489-14.48c-5.655-3.235-10.67-6.104-15.574-8.909
		C595.309,1122.522,589.914,1125.704,583.845,1129.283z M710.01,353.995c2.074-3.489,4.366-5.635,4.566-7.962
		c1.223-14.211,7.302-25.892,17.334-35.758c0.814-0.8,1.329-1.903,2.263-3.276C713.653,310.047,701.725,332.268,710.01,353.995z
		 M761.679,461.246c4.317-5.132,7.249-10.776,9.019-17.098c1.772-6.327,0.826-13.397,5.322-19.02c0.767-0.96,0.971-2.78,0.706-4.052
		c-0.341-1.64-1.045-3.866-2.274-4.482c-1.325-0.664-4.017-0.387-5.078,0.596c-1.974,1.828-3.824,4.268-4.628,6.802
		C760.897,436.12,761.394,448.661,761.679,461.246z M354.438,402.304c-5.06-6.703-8.348-17.048-19.231-17.778
		c5.942,10.295,12.32,20.662,17.928,31.429c1.965,3.771,4.278,6.26,7.499,7.935c1.413-7.347,2.763-14.367,4.265-22.178
		C362.164,397.526,358.843,403.113,354.438,402.304z M439.256,461.978c-0.475-8.99-0.794-17.993-1.503-26.965
		c-0.274-3.469-1.063-7.011-2.312-10.253c-0.968-2.513-2.711-4.945-4.706-6.755c-1.074-0.975-3.777-1.269-5.059-0.585
		c-1.261,0.672-2.491,3.11-2.254,4.526c0.486,2.91,1.972,5.651,3.022,8.471c0.617,1.658,1.689,3.331,1.698,5.001
		C428.191,445.607,432.506,454.077,439.256,461.978z M839.688,423.057c2.824-1.727,5.25-3.647,7.047-6.952
		c5.248-9.653,10.969-19.05,16.515-28.542c0.756-1.294,1.57-2.553,2.583-4.196c-11.751,1.478-14.905,11.727-20.491,18.299
		c-4.039,0.425-7.343-4.935-10.036-0.838C836.846,408.638,838.221,415.614,839.688,423.057z M293.807,381.603
		c3.228,1.435,5.947,2.768,8.766,3.839c1.2,0.456,2.789,0.852,3.892,0.442c7.58-2.818,12.904,0.421,16.533,6.59
		c3.751,6.376,9.851,9.421,16.171,13.71c-4.377-9.468-13.632-20.959-21.268-25.325c-4.57-2.613-9.697-4.591-14.822-5.801
		C298.174,373.899,296.026,375.861,293.807,381.603z M906.283,380.722c-0.471-4.845-3.209-6.452-6.778-6.497
		c-2.754-0.034-5.68,0.262-8.25,1.188c-14.469,5.211-22.619,16.929-30.001,29.386c6.289-3.997,12.896-7.387,16.828-14.295
		c3.227-5.669,8.536-7.653,15.1-5.784c1.398,0.398,3.169,0.228,4.563-0.263C900.583,383.459,903.28,382.064,906.283,380.722z
		 M352.456,906.196c2.356-10.136,10.475-12.737,17.214-17.604c-11.21-2.052-21.667-3.966-33.637-6.157
		C341.837,890.833,346.685,897.846,352.456,906.196z M830.781,887.879c3.852,2.476,7.463,4.224,10.328,6.8
		c2.795,2.512,4.828,5.871,7.2,8.854c6.338-6.805,12.837-16.863,14.034-21.81C852.07,883.727,841.859,885.719,830.781,887.879z
		 M648.802,206.183c0.712,8.681,2.054,10.93,7.645,15.251c7.532,5.822,16.378,9.947,22.627,17.441
		c0.109,0.13,0.728-0.165,1.354-0.324c-0.565-3.207-1.288-6.386-1.649-9.606c-0.42-3.736-2.526-5.347-5.879-6.842
		c-5.056-2.254-9.765-5.361-14.423-8.409C655.219,211.563,652.294,208.924,648.802,206.183z M763.156,403.034
		c7.376-7.543,12.175-15.232,15.817-23.612c2.399-5.52,0.522-12.004-3.467-13.571c-3.822-1.501-10.152,2.31-12.091,7.384
		c-0.943,2.467-1.177,4.885,1.775,7.002c1.951-2.439,3.742-4.678,5.626-7.035c2.981,1.772,3.389,4.197,3.011,6.833
		c-0.862,6.008-5.989,7.718-10.672,9.776C763.156,394.046,763.156,397.938,763.156,403.034z M522.741,379.761
		c-1.474,3.316-2.435,5.477-3.524,7.926c4.595,7.222,9.337,14.675,14.079,22.127c-1.095-9.123-1.982-18.128-5.894-26.447
		c-2.267-4.821-5.482-8.798-10.016-11.498c-3.121-1.859-6.404-3.923-11.295-2.272c2.678,3.723,5.067,7.044,7.312,10.164
		C516.287,379.761,518.574,379.761,522.741,379.761z M551.936,207.062c-0.888,0.479-1.713,0.775-2.359,1.294
		c-7.678,6.163-14.96,12.906-24.742,15.842c-1.103,0.331-2.354,1.791-2.634,2.946c-0.975,4.023-1.553,8.142-2.397,12.868
		c1.437-0.661,2.113-0.836,2.623-1.228c5.176-3.98,10.185-8.193,15.517-11.95C544.901,221.932,551.836,217.188,551.936,207.062z
		 M435.804,382.14c1.917-7.88,0.04-12.055-5.438-14.925c-3.722-1.95-7.164-1.183-8.746,2.641c-1.014,2.451-1.841,5.732-1.039,8.048
		c3.267,9.438,8.378,17.856,16.334,25.435c0-4.911,0-8.814,0-12.604c-11.133-4.978-13.624-10.586-7.136-16.461
		C431.515,376.541,433.244,378.798,435.804,382.14z M435.596,316.317c-3.779,3.557-3.909,3.573-3.38,7.734
		c0.881,6.921-1.107,13.025-7.216,16.175c-5.495,2.833-5.796,6.888-5.954,13.079c6.272-5.1,11.887-9.229,16.967-13.935
		c4.127-3.823,5.475-9.046,5.299-14.697C441.192,320.798,439.884,317.9,435.596,316.317z M764.705,315.508
		c-4.063,1.055-5.509,3.981-5.683,7.853c-0.229,5.081,0.406,10.18,4.103,13.779c5.293,5.152,11.199,9.676,17.928,15.389
		c-0.354-5.35,0.82-9.488-3.416-11.594c-7.838-3.897-10.566-10.217-9.431-18.544C768.638,319.22,767.67,316.905,764.705,315.508z
		 M681.166,386.689c-0.441-0.806-0.749-1.411-1.094-1.994c-2.856-4.824-2.35-5.674,3.31-6.072c1.511-0.106,3.482-0.276,4.379-1.229
		c2.304-2.448,4.124-5.352,6.137-8.073c-8.254-1.269-13.714,2.351-17.835,7.928c-6.566,8.887-7.719,19.526-8.363,30.413
		C672.192,400.666,676.684,393.67,681.166,386.689z M579.361,440.855c-2.774-4.271-5.548-8.542-8.297-12.775
		c-2.143,0.352-3.894,1.157-5.298,0.753c-2.352-0.677-4.955-1.664-6.599-3.352c-2.648-2.719-1.435-5.342,2.458-6.346
		c0.744-0.192,1.523-0.25,2.549-0.412c-4.019-6.648-7.626-7.329-11.657-2.755c-2.478,2.812-2.596,6.245,0.357,9.506
		C559.888,433.22,568.377,438.765,579.361,440.855z M621.13,439.619c0.417,0.381,0.833,0.762,1.25,1.142
		c9.721-2.963,17.86-8.492,24.79-15.907c1.982-2.121,3.379-4.647,1.944-7.631c-1.396-2.905-3.704-4.89-7.06-4.98
		c-3.411-0.092-4.774,2.338-5.761,5.409c0.994,0.171,1.931,0.201,2.772,0.499c3.783,1.337,4.663,3.91,1.873,6.672
		c-1.523,1.508-3.853,2.465-5.988,3.009c-1.697,0.432-3.65-0.141-5.997-0.303C626.364,431.529,623.747,435.574,621.13,439.619z
		 M618.18,648.409c-12.592,15.962-12.036,40.983,0.87,50.928C614.32,682.475,615.098,666.03,618.18,648.409z M457.331,488.349
		c4.623,4.911,8.385,8.908,11.774,12.508c6.765-6.884,13.356-13.592,21.205-21.579C478.528,482.519,468.297,485.333,457.331,488.349
		z M582.236,699.526c11.418-11.561,13.088-36.293,0.49-48.594c0.683,7.941,1.981,16.067,1.911,24.182
		C584.568,683.141,583.117,691.156,582.236,699.526z M607.377,96.123c-0.501,0.063-1.002,0.125-1.502,0.188
		c1.21,7.085,1.833,14.334,3.751,21.222c4.176,15,1.052,11.748,15.705,13.641c0.287,0.037,0.645-0.48,1.299-1
		c-2.292-2.946-2.942-7.07-7.962-7.769c-4.71-0.656-4.524-1.079-3.698-6.107c0.315-1.92,0.392-4.207-0.361-5.912
		C612.456,105.518,609.822,100.862,607.377,96.123z M713.071,479.248c-8.381-1.63-15.91-4.197-24.405-4.439
		c5.139,7.915,13.012,16.587,16.837,18.765C707.869,489.096,710.235,484.617,713.071,479.248z M694.452,1013.328
		c-7.094,4.75-24.406,21.481-26.618,25.548C683.437,1037.253,695.21,1026.225,694.452,1013.328z M506.46,1013.693
		c-3.02,12.001,12.19,26.341,26.877,25.3C524.121,1030.317,515.45,1022.155,506.46,1013.693z M593.68,98.365
		c-0.472-0.065-0.944-0.131-1.415-0.196c-1.364,2.681-2.713,5.37-4.096,8.042c-2.12,4.096-4.939,7.878-2.404,13.054
		c1.106,2.256-0.83,4.159-3.31,4.126c-5.796-0.078-6.812,4.111-8.731,8.981c5.157-0.772,9.44-1.412,13.395-2.004
		C590.84,119.412,593.293,109.082,593.68,98.365z M639.225,149.195c-3.162-4.675-5.26-10.081-10.049-14.165
		c-1.569,3.652-2.825,6.937-4.366,10.084c-2.687,5.489-1.871,10.235,2.638,14.779c1.775-2.166,3.182-4.328,5.026-6.009
		C634.342,152.181,636.642,150.952,639.225,149.195z M573.308,160.476c5.185-8.04,4.406-14.544-3.379-24.417
		c-3.061,4.756-6.023,9.357-8.59,13.347C565.608,153.355,569.271,156.742,573.308,160.476z M386.371,578.871
		c2.517-6.119,4.843-11.774,7.61-18.502c-8.449,3.854-16.217,6.225-23.384,11.42C376.179,574.295,380.997,576.458,386.371,578.871z
		 M927.512,416.131c-12.66,2.294-20.624,7.983-21.547,14.646c5.63-0.571,11.438-1.16,18.004-1.826
		c0.96-2.93,2.276-6.865,3.517-10.823C927.673,417.528,927.512,416.819,927.512,416.131z M829.245,571.081
		c-5.616-4.654-17.13-9.716-22.285-9.923c2.276,5.544,4.577,11.151,6.922,16.864C819.026,575.698,824.098,573.406,829.245,571.081z
		 M294.615,432.915c-1.325-7.972-10.756-14.53-22.361-15.686c1.523,4.741,2.982,9.284,4.558,14.189
		C283.211,428.378,288.874,430.358,294.615,432.915z M594.395,494.872c-3.442,5.271-7.405,9.109-9.717,14.964
		c4.413-0.307,8.114-0.499,11.802-0.84c3.551-0.328,7.089-0.811,12.141-1.402C603.413,502.936,599.323,499.279,594.395,494.872z
		 M431.436,479.902c-7.185-7.472-22.69-15.007-35.483-16.772c3.943,3.442,6.477,7.419,9.73,8.136
		c7.478,1.648,14.189,4.465,20.442,8.667C427.727,481.007,429.217,482.163,431.436,479.902z M699.832,332.661
		c-4.207,1.817-10.79,9.682-13.852,16.835c4.851,0,9.588,0,14.656,0C700.357,343.66,700.093,338.125,699.832,332.661z
		 M769.09,479.235c2.4,2.406,4.015,0.093,5.998-0.83c5.489-2.554,10.931-5.368,16.677-7.168c6.002-1.88,7.497-2.601,10.21-9.14
		C781.588,468.654,774.515,472.333,769.09,479.235z M534.457,328.828c5.058,11.981,10.029,24.005,17.237,34.932
		C550.06,350.101,546.014,337.623,534.457,328.828z M449.302,451.777c-0.545,0.141-1.09,0.282-1.635,0.423
		c0,7.521,0,15.043,0,23.386c3.535-1.115,6.459-2.038,9.811-3.095C454.536,465.038,451.919,458.407,449.302,451.777z
		 M933.998,373.563c4.336,4.354,4.336,4.354,1.081,11.481c5.147-0.964,8.748-3.912,12.204-6.889c1.24-1.068,2.693-3.427,2.276-4.523
		c-0.63-1.658-2.61-3.345-4.375-3.923C940.693,368.238,937.067,370.286,933.998,373.563z M647.696,364.013
		c6.447-8.647,16.216-29.265,17.14-35.479C653.585,337.074,650.443,349.639,647.696,364.013z M514.969,350.253
		c-4.224-6.878-8.477-12.418-14.217-17.618c-0.458,6.326-0.855,11.817-1.275,17.618
		C504.442,350.253,509.077,350.253,514.969,350.253z M266.4,374.965c-4.662-4.501-8.021-5.743-11.762-4.471
		c-3.246,1.104-5.351,4.213-3.748,6.179c3.598,4.413,8.072,7.698,14.58,9.309c-1.488-3.198-2.442-5.249-3.492-7.507
		C263.658,377.141,265.015,376.064,266.4,374.965z M875.449,863.144c-0.323-0.533-0.645-1.065-0.968-1.598
		c-9.771,4.991-19.542,9.983-29.313,14.974c0.213,0.432,0.426,0.864,0.64,1.295C856.531,874.667,869.148,875.436,875.449,863.144z
		 M356.626,877.988c-10.471-5.261-20.942-10.523-31.413-15.784C331.107,876.881,344.833,875.452,356.626,877.988z M752.444,474.751
		c0-8.587,0-16.169,0-23.752c-0.452-0.123-0.903-0.246-1.355-0.369c-2.73,6.895-5.46,13.79-8.358,21.108
		C746.299,472.845,748.924,473.659,752.444,474.751z M892.481,562.117c0.527,4.807,1.304,9.603,1.513,14.423
		c0.231,5.315,3.655,7.21,8.25,9.146C902.164,576.085,898.518,568.624,892.481,562.117z M646.019,450.176
		c2.743-5.303,5.147-9.951,8.334-16.113c-7.699,5.058-13.928,9.151-21.313,14.003C637.878,448.853,641.626,449.462,646.019,450.176z
		 M545.881,434.984c3.248,6.265,5.752,11.094,8.315,16.036c4.624-0.751,8.423-1.367,13.059-2.12
		C560.029,444.195,553.697,440.073,545.881,434.984z M922.112,400.107c-3.153,5.03-7.12,8.872-9.297,15.343
		c6.409-4.169,13.484-4.469,18.024-10.456C927.858,403.324,925.288,401.886,922.112,400.107z M287.411,414.639
		c-3.019-4.506-6.038-9.011-9.188-13.712c-3.346,1.892-6.034,3.412-9.085,5.137C274.4,411.528,280.953,412.632,287.411,414.639z
		 M660.369,295.361c6.839-9.729,6.832-19.668,0-23.243C660.369,279.814,660.369,287.322,660.369,295.361z M879.947,527.558
		c2.957-4.516,5.612-8.572,8.266-12.627c-0.337-0.292-0.675-0.584-1.012-0.876c-5.288,2.339-10.576,4.679-16.912,7.481
		C873.9,523.787,876.58,525.458,879.947,527.558z M738.307,968.067c-0.334-0.291-0.668-0.582-1.002-0.872
		c-3.273,3.759-6.546,7.518-9.928,11.402c2.452,2.775,2.944,6.185,6.199,8.261C735.265,980.148,736.786,974.107,738.307,968.067z
		 M298.663,586.628c6.953-6.849,5.785-16.791,9.56-24.858C301.837,568.772,298.228,576.89,298.663,586.628z M313.211,514.99
		c-0.413,0.38-0.825,0.76-1.238,1.139c2.822,4.043,5.644,8.086,8.565,12.269c3.329-2.105,5.794-3.663,9.387-5.935
		C323.553,519.614,318.382,517.302,313.211,514.99z M539.654,271.398c-6.616,8.004-6.383,14.794,0,24.357
		C539.654,287.799,539.654,280.349,539.654,271.398z M467.06,989.009c2.373-4.183,3.944-6.951,5.655-9.967
		c-3.474-3.907-6.731-7.569-9.988-11.231c-0.31,0.252-0.621,0.503-0.931,0.755C463.419,974.867,465.041,981.169,467.06,989.009z
		 M427.999,406.243c-3.436-4.705-6.644-9.099-9.852-13.492c-0.41,0.137-0.821,0.275-1.231,0.412
		c0.662,5.097,1.323,10.195,2.04,15.719C422.367,407.886,424.999,407.118,427.999,406.243z M783.449,391.771
		c-0.46-0.058-0.92-0.116-1.379-0.175c-3.134,4.529-6.269,9.057-9.685,13.992c3.417,0.916,5.782,1.55,8.41,2.254
		c0.51-1.777,1.043-3.065,1.232-4.402C782.575,399.561,782.985,395.662,783.449,391.771z M460.504,330.144
		c-4.635,2.805-5.557,6.391-4.895,11.12c3.423-0.56,6.326-1.035,9.208-1.506C465.884,335.412,463.81,332.888,460.504,330.144z
		 M739.565,329.549c-3.205,2.182-4.801,4.947-4.368,9.226c3.188,0.541,6.248,1.061,9.859,1.675
		C744.67,335.477,744.661,331.315,739.565,329.549z M888.974,495.761c7.957-8.315,9.547-14.515,6.382-21.948
		C893.371,480.638,891.421,487.344,888.974,495.761z M304.956,475.168c-2.917,8.234-0.563,14.977,6.011,20.322
		C308.964,488.716,306.96,481.942,304.956,475.168z M387.655,420.437c-0.4,0.285-0.801,0.571-1.201,0.856
		c1.778,6.645,5.968,10.962,13.32,12.245C395.734,429.171,391.694,424.804,387.655,420.437z M800.8,432.365
		c8.351-1.896,11.9-6.018,12.022-13.091C808.519,423.961,804.659,428.163,800.8,432.365z M410.355,478.506
		c-0.359,0.314-0.718,0.628-1.078,0.942c1.143,2.243,2.287,4.485,3.669,7.196c2.764-0.953,5.315-1.833,9.369-3.23
		C417.407,481.4,413.881,479.953,410.355,478.506z M790.721,479.101c-0.361-0.449-0.721-0.897-1.082-1.346
		c-3.305,1.375-6.61,2.75-9.915,4.126c0.056,0.471,0.112,0.943,0.169,1.414c2.456,0.813,4.912,1.626,7.477,2.475
		C788.709,483.108,789.715,481.105,790.721,479.101z M915.931,379.148c0.867-7.778,0.356-9.03-3.447-9.938
		C913.48,372.084,914.427,374.813,915.931,379.148z M262.491,393.814c2.353,5.463,2.353,5.463,6.93,2.623
		C267.015,395.526,265.063,394.787,262.491,393.814z M287.747,370.085c-0.798-0.257-1.596-0.514-2.394-0.77
		c-0.699,2.854-1.399,5.708-2.098,8.561c0.499,0.141,0.998,0.282,1.497,0.423C285.75,375.56,286.749,372.822,287.747,370.085z
		 M937.723,394.266c-0.317-0.399-0.634-0.799-0.95-1.198c-1.927,0.883-3.854,1.767-6.722,3.082c2.398,1.057,3.645,1.607,5.221,2.301
		C936.157,396.941,936.94,395.603,937.723,394.266z M579.013,139.537c0.829,1.704,1.433,2.946,2.505,5.151
		c0.803-2.4,1.251-3.737,1.891-5.649C581.654,139.237,580.613,139.355,579.013,139.537z M928.436,367.703
		c-5.507,0.111-5.507,0.111-3.435,3.591C925.931,370.323,926.796,369.418,928.436,367.703z M618.144,142.586
		c0.731-0.096,1.462-0.192,2.192-0.288c-0.205-1.289-0.363-2.591-0.696-3.846c-0.03-0.112-1.198,0.079-1.837,0.129
		C617.917,139.916,618.03,141.251,618.144,142.586z M271.835,368.676c1.819,1.669,2.839,2.605,4.308,3.953
		c0.49-1.712,0.767-2.68,1.132-3.953C275.461,368.676,274.209,368.676,271.835,368.676z"/>
</g>
</svg>
