<?xml version="1.0" encoding="utf-8"?>
<!-- Designed by Vexels.com - 2019 All Rights Reserved - https://vexels.com/terms-and-conditions/  -->
<svg version="1.1" id="Layer_1" xmlns="http://www.w3.org/2000/svg" xmlns:xlink="http://www.w3.org/1999/xlink" x="0px" y="0px"
	 viewBox="0 0 1200 1200" enable-background="new 0 0 1200 1200" xml:space="preserve">
<g>
	<path fill="#1D3338" d="M1147.164,155.41c-3.569-25.181-14.206-50.82-39.144-61.199c-26.17-10.892-59.073-1.939-85.003,5.915
		c-29.776,9.02-58.239,22.507-84.994,38.289c-1.734,1.022-3.451,2.078-5.175,3.118c-1.332,0.369-2.66,0.747-3.978,1.148
		c-54.638,16.59-100.231,55.18-141.675,93.023c-81.991,74.868-150.063,164.798-200.308,263.768
		c-44.895-77.605-98.715-150.006-160.255-215.267c-29.042-30.8-59.734-61.777-93.216-88.538
		c-12.232-13.849-24.871-27.319-38.161-40.135c-21.36-20.597-44.434-39.633-69.232-55.965
		c-22.149-14.588-50.979-34.728-77.675-19.168c-24.04,14.012-33.814,46.873-41.778,71.631c-1.825,5.676-3.462,11.406-5.001,17.163
		C78.774,191.23,63.084,220.988,55.546,251.5c-14.238,57.632,0.876,116.827,23.394,170.217
		c22.717,53.862,51.074,105.745,79.696,156.662C187.653,630,218.682,680.506,252.1,729.401
		c67.517,98.783,144.898,191.018,233.884,271.085c21.327,25.11,42.787,50.109,64.307,75.052c0.258,6.213,5.322,11.426,11.61,13.59
		c8.848,10.333,17.749,20.62,26.765,30.808c13.971,15.785,36.701-7.285,23.055-23.056c-6.491-7.503-12.979-15.009-19.469-22.514
		c49.794-45.439,92.493-97.458,131.885-152.034c145.592-153.643,301.621-301.129,381.127-501.501
		c22.584-56.915,37.672-116.744,42.72-177.838C1150.372,214.09,1151.245,184.198,1147.164,155.41z M269.188,189.686
		c-11.318-2.658-23.011-4.323-34.736-4.861c-2.699-1.68-5.382-3.386-8.095-5.045c-6.813-4.165-18.9-2.178-22.305,5.849
		c-0.067,0.158-0.125,0.318-0.192,0.475c-31.406,4.248-60.734,17.883-80.85,43.905c1.752-14.555,4.324-29.021,7.771-43.346
		C173.332,151.048,222.998,162.27,269.188,189.686z M1054.037,329.303c-15.286,26.836-30.9,53.482-46.807,79.954
		c-64.586,107.483-133.953,212.022-205.717,314.826c-75.907,108.739-154.509,215.556-233.265,322.24
		c-9.667-11.549-19.226-23.185-28.673-34.911c0.354-4.033-1.128-8.249-5.325-11.827c-4.42-3.769-8.796-7.581-13.157-11.406
		c-55.346-70.447-106.77-143.94-153.897-220.206c-67.937-109.944-132.78-227.265-154.805-356.184
		c-11.023-64.522-8.631-132.008,13.646-193.804c75.324,47.741,144.938,103.909,207.462,167.58c1.114,1.135,2.208,2.29,3.317,3.428
		c58.849,88.925,112.137,181.524,165.299,273.924c10.462,18.183,38.646,1.781,28.154-16.456c-3.377-5.869-6.755-11.74-10.134-17.609
		c0.223-0.124,0.454-0.227,0.674-0.359c8.425,7.338,23.451,6.774,26.033-7.093c20.969-112.592,93.501-205.552,161.488-294.296
		c31.843-41.565,65.161-82.587,104.434-117.432c16.471-14.614,35.251-29.219,55.471-41.42c21.627-2.014,43.347,1.246,63.158,12.526
		c38.505,21.922,50.251,68.644,44.594,110.317C1068.769,303.948,1061.253,316.635,1054.037,329.303z M667.793,405.325
		c31.869-42.602,56.182-68.211,118.389-103.009c-31.451,39.926-61.833,80.987-89.561,123.358
		c-27.285,41.694-51.207,86.042-67.076,133.222C609.454,485.354,641.658,440.262,667.793,405.325z M134.434,279.809
		c8.499-31.041,30.076-49.043,56.232-57.153c-35.09,116.046,40.333,406.609,75.483,435.211
		c-111.29-90.556-114.793-252.897-125.12-286.444C131.923,341.845,126.093,310.276,134.434,279.809z M1071.72,170.639
		c-13.08-12.899-28.781-21.977-45.729-27.701c7.703-2.035,15.478-3.58,23.309-4.398c25.416-2.652,46.548,8.468,55.655,32.727
		c7.157,19.062,5.414,39.167-0.316,58.201C1098.932,207.463,1088.293,186.983,1071.72,170.639z M159.049,113.671
		c10.53-12.151,66.973-14.105,95.883,37.356c-25.523-5.48-84.676-19.554-110.151-9.763
		C148.319,131.498,152.419,121.322,159.049,113.671z M94.874,230.009c-0.473,46.793,10.078,149.14,17.95,190.175
		C55.089,346.986,69.893,244.234,94.874,230.009z M887.428,700.998c-30.149,33.823-43.496,62.946-56.973,62.946
		c63.224-96.739,126.407-193.504,189.61-290.257c30.649-46.918,74.051-162.603,82.005-149.485
		c-7.277,29.967-16.919,59.389-28.247,87.96C1031.271,519.488,963.796,615.323,887.428,700.998z"/>
</g>
</svg>
