<?xml version="1.0" encoding="utf-8"?>
<!-- Designed by Vexels.com - 2019 All Rights Reserved - https://vexels.com/terms-and-conditions/  -->
<svg version="1.1" fill="#593b25" id="Layer_1" xmlns="http://www.w3.org/2000/svg" xmlns:xlink="http://www.w3.org/1999/xlink" x="0px" y="0px"
	 viewBox="0 0 1200 1200" enable-background="new 0 0 1200 1200" xml:space="preserve">
<path d="M553.065,100.848c-1.217-2.842-1.871-6.013-1.794-9.42c0.112-4.927,2.57-9.571,6.576-12.426
	c1.707-1.215,3.601-2.019,5.567-2.444c0-0.088-0.013-0.174-0.013-0.262c0-2.796,0.394-5.496,1.063-8.086
	c-12.206,3.555-21.134,14.805-21.134,28.159c0,4.629,1.102,8.992,3.011,12.885C548.408,106.292,550.659,103.478,553.065,100.848z
	 M561.386,83.968c-2.447,1.744-3.95,4.585-4.019,7.597c-0.037,1.648,0.158,3.204,0.53,4.664c2.6-2.179,5.538-4.23,8.687-6.023
	c-1.128-2.36-2.008-4.86-2.539-7.492C563.121,82.994,562.219,83.375,561.386,83.968z M555.536,180.264
	c5.137-6.927,10.57-13.785,15.823-20.417c5.515-6.963,11.22-14.159,16.557-21.415l0.992-1.353c0.808-1.106,1.679-2.266,2.582-3.475
	c6.176-8.237,13.482-17.985,13.719-27.173c-0.038-0.48-0.073-0.958-0.057-1.418c-0.146-2.574-0.851-5.097-2.373-7.519
	c-2.854-4.543-7.022-7.098-12.383-7.601c-0.654-0.062-1.324-0.092-1.997-0.092c-10.547,0-23.493,7.236-30.485,14.767
	c-12.401,13.359-20.336,32.08-20.711,48.861c-0.274,12.281,1.401,32.803,6.326,49.669
	C545.364,196.207,549.369,188.584,555.536,180.264z M636.114,70.62c4.004,2.855,6.461,7.498,6.572,12.422
	c0.187,8.151-3.63,15.024-10.132,18.88c2.27,1.518,4.323,3.13,6.141,4.832c6.314-5.382,10.33-13.38,10.33-22.327
	c0-16.017-12.837-29.013-28.78-29.317c3.151,3.631,5.495,7.962,6.788,12.732C630.241,67.756,633.405,68.688,636.114,70.62z
	 M828.883,663.518c-0.998,2.285-2.362,5.411-1.933,8.454c0.424,2.987,3.024,5.245,6.046,5.251h0.019c2.621,0,4.004-1.535,4.92-2.555
	c0.168-0.187,0.342-0.379,0.534-0.569c2.045-2.039,5.269-2.365,8.157-2.413c1.367-0.027,2.733,0.003,4.081,0.024
	c6.091,0.101,12.378,0.214,18.341-4.007c1.455-1.033,2.661-2.218,3.951-3.539c2.381,2.114,4.354,4.151,5.117,6.732
	c0.286,1.049,0.662,2.125,1.044,3.211c0.729,2.071,1.481,4.209,1.409,5.993c-0.117,2.984-2.21,6.817-3.774,9.441
	c-3.545,5.95-9.033,11.174-15.872,15.108c-14.924,8.585-34.851,12.783-57.748,12.079c-26.867-0.798-48.696-5.307-64.886-13.403
	c-5.328-2.661-14.409-8.422-15.394-17.086c-0.609-5.373,2.29-11.441,7.383-15.461c4.463-3.523,10.175-5.066,15.167-4.348
	c-3.572,3.881-5.074,9.663-3.334,14.761c2.402,7.036,10.48,11.337,17.666,9.377c7.818-2.127,12.938-11.174,11.182-19.756
	c-1.484-7.258-7.341-13.662-15.282-16.71c-10.178-3.905-22.753-2.093-32.825,4.719c-5.822,3.943-10.114,8.972-12.418,14.545
	c-3.262,7.893-1.836,16.056-0.069,21.515c5.312,16.419,32.592,27.547,50.266,30.203c1.97,0.296,3.961,0.51,5.955,0.723
	c5.138,0.55,9.994,1.07,14.449,2.992c8.496,3.668,16.08,7.084,22.881,11.806c21.427,14.876,35.045,31.17,40.472,48.429
	c3.19,10.135,2.159,21.122-2.899,30.935c-1.74,3.377-5.752,7.931-8.95,9.329c-1.18,0.521-2.469,0.988-3.638,1.308
	c-0.163-0.198-0.342-0.414-0.544-0.641c-0.467-0.521-0.929-1.049-1.321-1.626c-1.26-1.863-2.114-4.105-3.019-6.476
	c-0.803-2.109-1.634-4.29-2.813-6.345c-2.998-5.224-7.381-8.859-12.679-10.514c-7.338-2.288-12.233-1.18-14.532,3.289
	c-2.509,4.874-2.952,10.151-1.399,16.614c2.928,12.185,15.866,18.832,27.39,20.017c1.385,0.141,2.733,0.214,4.055,0.214
	c4.129,0,8.008-0.699,11.967-2.138c3.897-1.417,6.623-3.561,9.513-6.342c5.066-4.88,8.299-9.778,10.474-15.88
	c1.703-4.765,3.521-10.394,4.105-16.021c1.383-13.21-4.095-26.023-8.932-34.445c-8.854-15.421-22.716-29.317-39.068-39.434
	c3.835,0.278,7.645,0.468,11.436,0.607c10.687,15.757,26.706,26.678,42.266,37.271c3.072,2.093,6.134,4.175,9.14,6.289
	c17.393,12.217,36.292,27.526,44.57,48.405c3.353,8.462,4.338,16.643,2.851,23.666c-1.722,8.117-6.954,14.809-13.659,17.46
	c-7.076,2.8-15.834,0.323-19.521-5.515c-0.555-0.878-1.044-1.839-1.535-2.8c-1.604-3.136-3.422-6.689-7.354-8.088
	c-5.357-1.901-10.958,2.037-12.658,6.751c-1.791,4.96-0.19,10.021,1.468,13.395c5.421,11.024,17.754,17.647,30.457,17.647
	c4.578,0,9.204-0.859,13.573-2.683c14.684-6.137,25.262-22.07,26.325-39.647c0.795-13.156-3.318-27.079-11.647-39.813
	c5.018,8.076,12.935,14.018,21.737,16.304c7.301,1.898,15.461,1.473,24.259-1.241c9.108-2.813,16.811-7.501,22.281-13.552
	c12.498-13.83,15.522-37.597,7.188-56.512c-3.27-7.426-8.101-13.95-14.356-19.387c-5.016-4.359-10.92-9.303-17.54-12.767
	c-11.964-6.27-26.349-9.009-43.969-8.334c-14.679,0.545-27.659,2.013-39.679,4.484c-6.206,1.273-12.581,2.242-18.947,3.04
	c6.943-3.83,12.458-8.371,16.667-13.704c6.193-7.845,9.089-17.855,7.947-27.465c-1.073-9.025-5.611-17.097-12.773-22.727
	c-5.99-4.706-15.012-7.85-22.5-7.85h-0.141c-9.999,0.051-17.583,2.757-22.54,8.045c-3.038,3.238-4.741,7.162-6.393,10.974
	L828.883,663.518z M892.805,726.175c7.338-1.538,15.13-2.381,22.662-3.198l0.846-0.091c10.087-1.097,17.751-1.388,24.857-0.94
	c8.104,0.51,16.616,2.688,23.962,6.131c5.659,2.653,11.846,7.178,18.389,13.451c1.858,1.783,3.547,3.772,5.024,5.91
	c7.637,11.072,9.07,25.762,3.74,38.334c-4.952,11.678-14.815,19.545-27.064,21.584c-1.289,0.216-3.12,0.424-4.153-0.264
	c-0.715-0.478-1.284-1.529-1.807-2.565c-0.929-1.844-1.791-3.724-2.651-5.606c-1.748-3.814-3.558-7.76-5.934-11.417
	c-3.07-4.722-8.358-10.715-16.12-12.452c-3.726-0.838-7.002-0.093-8.993,2.05c-1.255,1.353-1.778,3.008-2.09,4.295
	c-1.714,6.975-0.175,15.069,4.216,22.229c-1.201-1.824-2.489-3.625-3.861-5.394c-10.552-13.606-24.806-23.906-36.044-31.362
	c-4.888-3.243-9.957-6.422-14.857-9.497c-10.037-6.297-20.415-12.807-29.667-20.121c-2.086-1.763-4.095-3.651-6.006-5.597
	c4.941-0.045,9.839-0.172,14.636-0.467C868.264,730.187,881.263,728.596,892.805,726.175z M590.965,83.821
	c2.417,0.227,4.664,0.808,6.751,1.672l0.258,0.323c0.043-0.034,0.063-0.084,0.108-0.116c5.564-3.997,7.581-10.418,5.397-17.178
	c-0.93-2.867-3.183-5.16-6.027-6.129c-2.733-0.936-5.548-0.552-7.926,1.078c-1.885,1.294-2.999,3.987-2.582,6.264
	c0.371,2.046,1.885,3.406,4.497,4.046c1.636,0.404,2.637,2.053,2.237,3.689c-0.401,1.639-2.063,2.637-3.688,2.237
	c-4.943-1.212-8.238-4.45-9.046-8.881c-0.844-4.641,1.268-9.732,5.137-12.386c3.951-2.7,8.809-3.363,13.339-1.816
	c4.654,1.587,8.343,5.334,9.86,10.021c2.736,8.456,0.492,16.822-5.768,22.438c1.67,1.453,3.168,3.16,4.431,5.169
	c0.602,0.958,1.109,1.924,1.538,2.896c1.217-0.777,2.596-1.262,4.071-1.504c5.237-4.81,8.544-11.69,8.544-19.344
	c0-14.498-11.798-26.296-26.299-26.296C581.295,50,569.5,61.798,569.5,76.296c0,4,0.924,7.779,2.528,11.177
	C578.215,84.773,584.826,83.243,590.965,83.821z M919.483,671.651l-1.202,0.838c-2.83,1.972-4.352,5.563-3.263,8.835
	c3.695,11.106,3.409,14.921,3.409,14.921s2.294-2.336,14.958-5.756c3.377-0.912,5.537-4.24,5.559-7.738l0.036-5.589l0.823,6.14
	c0.213,3.442,2.488,6.61,5.849,7.382c11.408,2.62,14.518,4.849,14.518,4.849s-0.802-3.174,2.863-15.77
	c0.978-3.358-0.742-6.934-3.718-8.772l-2.69-1.662l3.044,1.495c2.978,1.739,6.876,1.612,9.388-0.751
	c8.526-8.02,12.109-9.363,12.109-9.363s-3.084-1.1-11.508-11.156c-2.246-2.681-6.174-3.243-9.357-1.793l-7.15,3.255l6.994-5.234
	c2.873-1.908,4.474-5.464,3.458-8.76c-3.448-11.185-3.077-14.994-3.077-14.994s-2.345,2.285-15.083,5.422
	c-3.397,0.836-5.629,4.116-5.729,7.612l-0.671,6.933l-0.49-7.131c-0.237-3.441-2.534-6.593-5.901-7.341
	c-11.426-2.541-14.551-4.748-14.551-4.748s0.824,3.169-2.754,15.789c-0.954,3.365,0.79,6.929,3.779,8.746l5.75,4.076l-6.591-3.007
	c-3.138-1.432-7.003-0.914-9.266,1.69c-7.677,8.835-11.107,10.531-11.107,10.531s3.179,0.785,12.57,9.945
	C912.854,672.857,916.534,673.124,919.483,671.651z M923.927,654.551c1.145-1.317,3.1-1.58,4.688-0.855l3.335,1.521l-2.91-2.062
	c-1.512-0.92-2.395-2.723-1.912-4.425c1.81-6.386,1.393-7.989,1.393-7.989s1.581,1.117,7.362,2.402
	c1.704,0.379,2.866,1.973,2.985,3.714l0.248,3.608l0.339-3.508c0.051-1.769,1.18-3.428,2.899-3.852
	c6.445-1.587,7.631-2.743,7.631-2.743s-0.188,1.927,1.557,7.586c0.514,1.668-0.296,3.467-1.75,4.432l-3.539,2.648l3.618-1.646
	c1.611-0.733,3.598-0.45,4.735,0.907c4.262,5.088,5.823,5.645,5.823,5.645s-1.813,0.679-6.127,4.737
	c-1.271,1.196-3.243,1.26-4.75,0.38l-1.54-0.756l1.361,0.841c1.506,0.93,2.376,2.739,1.881,4.439
	c-1.855,6.373-1.449,7.979-1.449,7.979s-1.574-1.128-7.346-2.453c-1.701-0.39-2.852-1.993-2.959-3.735l-0.416-3.107l-0.018,2.828
	c-0.011,1.77-1.104,3.454-2.813,3.915c-6.408,1.73-7.569,2.912-7.569,2.912s0.145-1.931-1.725-7.55
	c-0.551-1.656,0.219-3.473,1.651-4.471l0.608-0.424c-1.492,0.745-3.354,0.611-4.554-0.56c-4.752-4.634-6.36-5.031-6.36-5.031
	S920.042,659.021,923.927,654.551z M739.823,774.911l0.95-0.466l-0.839,0.519c-0.928,0.573-1.465,1.688-1.16,2.736
	c1.143,3.929,0.893,4.919,0.893,4.919s0.97-0.695,4.529-1.513c1.049-0.241,1.758-1.229,1.825-2.303l0.257-1.915l0.011,1.743
	c0.007,1.091,0.681,2.129,1.734,2.413c3.95,1.067,4.666,1.796,4.666,1.796s-0.089-1.19,1.063-4.655
	c0.34-1.021-0.135-2.141-1.018-2.756l-0.375-0.261c0.92,0.459,2.068,0.376,2.807-0.345c2.929-2.857,3.921-3.102,3.921-3.102
	s-1.07-0.529-3.465-3.285c-0.706-0.812-1.911-0.974-2.89-0.527l-2.056,0.938l1.794-1.272c0.932-0.567,1.476-1.678,1.179-2.728
	c-1.116-3.937-0.859-4.925-0.859-4.925s-0.975,0.689-4.539,1.481c-1.05,0.234-1.767,1.217-1.84,2.29l-0.153,2.224l-0.209-2.163
	c-0.031-1.09-0.728-2.113-1.787-2.374c-3.973-0.978-4.705-1.691-4.705-1.691s0.116,1.188-0.96,4.677
	c-0.317,1.028,0.183,2.137,1.079,2.733l2.182,1.632l-2.23-1.015c-0.993-0.452-2.218-0.277-2.919,0.56
	c-2.627,3.137-3.589,3.48-3.589,3.48s1.118,0.419,3.777,2.92C737.679,775.414,738.894,775.453,739.823,774.911z M933.8,662.565
	l-0.329,0.229c-0.774,0.54-1.191,1.522-0.893,2.418c1.011,3.04,0.933,4.084,0.933,4.084s0.628-0.639,4.094-1.575
	c0.924-0.25,1.515-1.161,1.521-2.117l0.01-1.53l0.225,1.68c0.058,0.942,0.681,1.809,1.601,2.02c3.122,0.717,3.973,1.327,3.973,1.327
	s-0.22-0.869,0.784-4.316c0.268-0.919-0.203-1.898-1.017-2.401l-0.736-0.455l0.833,0.409c0.815,0.476,1.882,0.441,2.569-0.206
	c2.333-2.195,3.314-2.562,3.314-2.562s-0.844-0.301-3.149-3.053c-0.615-0.734-1.69-0.888-2.561-0.491l-1.957,0.891l1.914-1.432
	c0.786-0.522,1.224-1.495,0.946-2.397c-0.944-3.061-0.842-4.103-0.842-4.103s-0.642,0.625-4.127,1.484
	c-0.929,0.229-1.541,1.126-1.568,2.083l-0.184,1.898l-0.134-1.952c-0.065-0.942-0.693-1.804-1.615-2.009
	c-3.127-0.695-3.982-1.299-3.982-1.299s0.226,0.867-0.754,4.321c-0.261,0.921,0.216,1.896,1.034,2.394l1.574,1.115l-1.804-0.823
	c-0.859-0.392-1.917-0.25-2.536,0.462c-2.101,2.418-3.04,2.882-3.04,2.882s0.87,0.215,3.44,2.722
	C931.986,662.895,932.992,662.968,933.8,662.565z M855.969,967.831c4.327,0,8.424-0.561,12.338-1.682
	c10.691-3.059,19.62-10.514,25.142-20.997c2.936-5.565,3.865-10.696,2.92-16.144c-2.021-11.67-10.592-21.032-21.835-23.848
	c-11.355-2.837-22.804-0.336-29.883,6.54c-2.739,2.664-6.324,6.679-5.838,10.755c0.168,1.415,0.905,3.419,3.451,4.925
	c5.851,3.47,9.783-1.933,11.9-4.826c0.585-0.798,1.134-1.551,1.602-2.034c3.091-3.193,8.502-3.908,12.199-3.553
	c4.29,0.419,8.043,2.125,11.16,5.074c3.43,3.243,5.387,7.119,5.507,10.912c0.155,4.946-2.723,9.449-5.162,12.359
	c-5.867,6.991-14.385,10.995-23.378,10.995h-0.072c-8.422-0.021-17.989-2.635-29.248-7.987c-8.008-3.804-16.339-9.201-26.218-16.985
	c-6.928-5.455-14.516-11.168-22.678-16.668c16.109-1.457,34.409-7.4,41.905-21.405c0,0,0,0,0-0.003
	c2.854-5.341,4.351-10.816,4.45-16.27c0.149-8.256-3.79-16.085-10.541-20.946c-6.745-4.858-15.044-6.078-22.777-3.339
	c-5.427,1.922-9.807,5.165-12.666,9.38c-1.113,1.642-6.462,10.127-2.472,16.069c1.03,1.535,2.611,2.573,4.452,2.928
	c1.853,0.358,3.788-0.045,5.32-1.097c2.717-1.861,3.035-4.524,3.267-6.47c0.051-0.408,0.099-0.822,0.173-1.241
	c0.633-3.518,3.903-6.681,7.773-7.517c6.615-1.423,10.061,1.732,11.809,4.634c3.625,6.027,2.867,15.656-1.66,21.029
	c-3.147,3.737-7.744,6.841-14.049,9.489c-9.433,3.959-19.761,5.803-29.979,5.432c-7.05-4.019-14.448-7.741-22.26-10.853
	c-9.034-3.601-18.148-6.259-26.451-8.398c7.372-2.604,13.661-6.364,18.593-11.341c2.827-2.854,5.053-5.528,6.809-8.176
	c2.181-3.294,3.66-6.548,4.519-9.946c1.265-5.002,0.814-10.528-1.271-15.557c-3.854-9.308-12.89-16.566-23.015-18.49
	c-6.761-1.284-13.496,0.059-18.979,3.78c-5.704,3.876-12.159,13.045-7.904,20.412c1.1,1.903,3.43,4.201,6.377,4.415
	c1.949,0.128,3.801-0.702,5.13-2.381c1.06-1.348,2.023-3.636,0.593-6.9c-0.176-0.395-0.221-0.563-0.235-0.563h-0.003
	c0.016-0.059,0.077-0.251,0.334-0.755c3.176-6.318,9.61-6.324,14.564-4.226c6.748,2.864,12.244,10.085,9.756,17.209
	c-3.459,9.911-13.539,17.236-21.12,20.495c-9.292,3.999-20.698,6.003-34.869,6.129c-1.381,0.014-2.511,0.224-3.455,0.555
	c-1.63,0.069-3.205,0.57-4.142,2.133c-1.11,1.858-0.678,3.353-0.323,4.076c0.585,1.194,1.635,1.869,2.756,2.274
	c1.747,1.291,4.074,1.487,5.087,1.506c1.787,0.033,3.442,0.05,5.031,0.056c3.055,0.396,6.135,0.773,9.233,1.068
	c10.17,0.969,20.273,3.927,30.049,6.785l2.512,0.734c18.143,5.289,36.573,14.707,56.305,28.738c0.481,0.618,0.97,1.097,1.259,1.372
	c16.229,15.442,25.81,37.734,25.003,58.175c-0.069,1.735-0.182,3.473-0.294,5.213c-0.315,4.92-0.641,10.007-0.008,15.111
	c2.013,16.245,10.373,28.634,22.932,33.988c3.828,1.634,6.86,2.549,9.831,2.968c0.878,0.123,1.74,0.176,2.589,0.176
	c2.45,0,4.789-0.435,7.068-0.862l0.854-0.157c5.675-1.044,13.659-4.554,17.481-11.016h0.003c1.839-3.115,2.95-6.428,3.214-9.588
	c0.579-6.903-1.775-14.308-6.297-19.804c-1.775-2.154-4.861-4.837-8.203-5.899c-2.432-0.769-4.936-0.216-6.537,1.441
	c-1.471,1.524-1.885,3.734-1.108,5.91c0.868,2.429,2.659,4.031,4.239,5.443c0.865,0.774,1.682,1.505,2.216,2.256
	c1.527,2.154,2.365,4.738,2.36,7.282c-0.008,5.018-3.078,9.449-8.011,11.569c-5.336,2.288-11.022,1.903-16.897-1.148
	c-14.436-7.495-13.945-23.402-13.467-38.785c0.091-2.95,0.179-5.835,0.157-8.59c-0.087-11.105-2.845-22.24-7.91-32.681
	c8.652,5.858,18.4,10.589,29.131,13.964C843.268,966.71,849.845,967.831,855.969,967.831z M623.902,97.169
	c0.798,0.353,1.541,0.732,2.298,1.104c0.108-0.052,0.188-0.138,0.303-0.178c6.48-2.24,10.251-7.814,10.087-14.915
	c-0.069-3.012-1.57-5.85-4.017-7.594c-1.377-0.981-2.914-1.484-4.498-1.602c0.054,0.766,0.117,1.531,0.117,2.311
	c0,7.519-2.597,14.43-6.912,19.934C622.181,96.493,623.064,96.799,623.902,97.169z M621.438,102.746
	c-2.972-1.317-8.09-2.083-9.63,0.443c-0.512,0.831-0.68,1.853-0.516,3.117c0.785,6.017,4.979,11.457,9.036,16.715l1.32,1.718
	c5.282,6.934,10.642,12.859,16.393,18.114c0.65,0.595,1.357,1.205,2.086,1.839c2.013,1.744,4.434,3.843,6.411,6.316
	C648.45,136.918,647.002,114.045,621.438,102.746z M711.486,760.339c-9.601,11.462-13.116,12.716-13.116,12.716
	s4.084,1.531,13.801,10.672c2.863,2.693,7.306,2.839,10.701,0.856l3.47-1.703l-3.066,1.894c-3.392,2.096-5.352,6.17-4.238,9.999
	c4.178,14.356,3.264,17.974,3.264,17.974s3.545-2.541,16.547-5.527c3.831-0.88,6.425-4.49,6.667-8.413l0.938-6.999l0.041,6.37
	c0.026,3.987,2.487,7.78,6.336,8.819c14.435,3.898,17.049,6.56,17.049,6.56s-0.327-4.349,3.885-17.008
	c1.241-3.73-0.494-7.823-3.719-10.07l-1.37-0.956c3.362,1.68,7.556,1.375,10.258-1.261c10.703-10.44,14.327-11.335,14.327-11.335
	s-3.909-1.933-12.66-12.003c-2.578-2.967-6.984-3.558-10.561-1.926l-7.513,3.427l6.554-4.645c3.407-2.072,5.395-6.133,4.307-9.969
	c-4.079-14.384-3.139-17.997-3.139-17.997s-3.562,2.516-16.585,5.412c-3.837,0.853-6.456,4.445-6.725,8.367l-0.559,8.128
	l-0.764-7.903c-0.114-3.985-2.659-7.723-6.53-8.677c-14.518-3.576-17.191-6.18-17.191-6.18s0.423,4.341-3.507,17.09
	c-1.158,3.756,0.668,7.809,3.942,9.985l7.971,5.966l-8.149-3.709C718.523,756.644,714.046,757.283,711.486,760.339z
	 M728.641,765.738c1.295-1.547,3.561-1.87,5.397-1.034l4.123,1.877l-4.033-3.018c-1.657-1.1-2.58-3.151-1.995-5.052
	c1.988-6.45,1.774-8.647,1.774-8.647s1.353,1.317,8.698,3.127c1.959,0.482,3.247,2.374,3.304,4.39l0.387,3.999l0.283-4.113
	c0.136-1.984,1.461-3.802,3.403-4.234c6.589-1.465,8.392-2.738,8.392-2.738s-0.475,1.827,1.588,9.106
	c0.55,1.941-0.456,3.996-2.179,5.044l-3.316,2.351l3.801-1.734c1.81-0.825,4.039-0.527,5.343,0.974
	c4.428,5.095,6.406,6.073,6.406,6.073s-1.833,0.453-7.249,5.735c-1.367,1.334-3.489,1.488-5.19,0.638l0.694,0.483
	c1.632,1.137,2.51,3.208,1.882,5.096c-2.131,6.405-1.966,8.605-1.966,8.605s-1.323-1.347-8.627-3.32
	c-1.948-0.526-3.193-2.445-3.206-4.462l-0.021-3.223l-0.475,3.541c-0.122,1.985-1.435,3.812-3.373,4.257
	c-6.579,1.511-8.372,2.797-8.372,2.797s0.463-1.831-1.651-9.094c-0.564-1.937,0.428-3.999,2.144-5.059l1.552-0.959l-1.756,0.862
	c-1.718,1.003-3.965,0.93-5.414-0.433c-4.917-4.625-6.983-5.399-6.983-5.399S723.783,771.537,728.641,765.738z M636.133,149.298
	c-0.772-0.667-1.517-1.314-2.204-1.945c-6.024-5.505-11.627-11.693-17.129-18.919l-1.301-1.688
	c-2.283-2.961-4.711-6.136-6.659-9.588c-3.023,7.498-8.282,14.516-12.47,20.102c-0.887,1.186-1.741,2.326-2.533,3.409l-1.008,1.376
	c-5.406,7.344-11.141,14.587-16.692,21.589c-5.224,6.592-10.625,13.411-15.705,20.262c-1.246,1.68-2.372,3.314-3.423,4.918
	c0.698,1.748,1.385,3.419,1.99,4.874c3.363,8.088,7.876,15.828,13.988,22.156c5.384,5.575,12.784,11.919,20.719,13.116
	c0.688,0.104,1.367,0.153,2.036,0.153c7.194,0,13.338-5.66,18.858-9.817c5.632-4.241,10.574-9.367,14.67-15.102
	c5.36-7.505,9.205-16.003,11.737-24.855c1.517-5.303,2.547-10.737,3.213-16.21l-0.455-0.166c0.01-0.026,0.023-0.063,0.036-0.105
	C645.534,157.946,641.714,154.136,636.133,149.298z M315.345,535.854c0,0-3.628,8.816-1.42,12.447
	c0.898,1.477,3.794,0.95,4.517-0.49c0.104-0.206,0.149-0.436,0.193-0.662c1.814-9.32,6.344-18.166,13.589-24.434
	c0,0-11.358,22.475-9.938,31.812c0,0,0.789,2.074,4.417,0.172c0,0,8.834-28.008,25.556-36.652c-0.35,1.673-0.848,3.327-1.411,4.939
	c-0.578,1.656-1.208,3.31-2.104,4.823c-0.873,1.473-2.055,2.531-3.24,3.732c-1.088,1.103-2.148,2.248-3.078,3.489
	c-0.626,0.836-1.628,2.08-1.541,3.206c0.015,0.202,0.054,0.393,0.169,0.565c0,0,1.856,3.384,6.114,0.218
	c2.792-2.569,6.321-5.522,8.672-8.492c3.983-5.032,8.569-10.813,9.383-17.397c0.168-1.362-0.381-12.48,0.396-12.76
	c24.755-8.935,53.518-17.771,75.757-32.323c20.605-13.483,37.972-32.305,50.435-53.496c4.952-8.42,9.024-17.465,13.71-26.068
	c7.999-14.687,15.999-29.373,23.998-44.06c0.088,16.816,3.738,32.778,7.333,48.287c2.859,12.33,5.815,25.081,6.926,38.137
	c0.087,1.012,0.027,2.111-0.033,3.195l-0.057,1.241c-0.041,0.625-0.06,1.182-0.079,1.724c-0.035,0.974-0.068,1.943-0.192,2.862
	c-0.101,0.675-0.19,1.332-0.276,1.983l-0.037,0.278c-0.284,2.167-0.578,4.407-1.245,6.583c-0.136,0.478-0.258,0.996-0.375,1.508
	c-0.095,0.413-0.191,0.815-0.299,1.217c-1.461-3.16-3.622-6.361-6.89-8.851c-4.007-3.048-9.209-4.869-15.044-5.261
	c-10.082-0.646-19.889,3.305-25.572,10.386c-4.463,5.563-5.994,12.685-3.996,18.586c2.38,7.028,9.999,11.457,16.65,9.676
	c6.123-1.642,10.237-8.28,8.981-14.497c-0.844-4.177-4-7.592-7.888-9.116c3.082-2.117,7.27-3.107,11.403-2.533
	c5.093,0.715,9.492,3.694,11.21,7.592c2.784,6.318-1.182,13.963-3.794,17.959c-8.067,12.338-21.589,24.48-40.192,36.086
	c-15.797,9.858-31.547,15.114-45.549,15.202c-6.406-0.027-12.32-1.369-17.209-4.073c-1.232-0.681-4.982-2.755-6.384-4.952
	c-0.733-1.148-1.058-2.843-1.404-4.639c-0.182-0.94-0.363-1.869-0.582-2.68c-0.462-1.893-0.047-3.889,0.683-6.193
	c1.145,0.31,2.48,0.635,3.876,0.758c6.123,0.537,10.591-2.173,14.92-4.802c0.937-0.566,1.883-1.142,2.859-1.69
	c1.975-1.105,4.283-2.162,6.397-1.612c0.202,0.053,0.394,0.115,0.581,0.176c1.082,0.344,2.895,0.926,4.949-0.275
	c2.346-1.375,3.342-4.308,2.316-6.823c-1.002-2.458-3.325-4.153-5.02-5.395l-0.275-0.2c-2.767-2.031-5.627-4.132-9.194-5.194
	c-5.822-1.735-12.431-0.507-19.645,3.654c-5.421,3.126-10.637,9.206-12.981,15.132c-2.792,7.06-2.668,14.772,0.348,21.718
	c3.209,7.383,9.485,13.363,17.221,16.403c4.567,1.796,9.59,2.747,15.15,2.854c-4.08,1.7-8.209,3.297-12.342,4.693
	c-9.547,3.222-19.353,7.549-29.976,13.227c-12.809,6.844-21.914,14.759-27.834,24.2c-3.279,5.229-5.427,11.19-7.182,16.366
	c-2.205,6.494-2.938,13.17-2.178,19.844c1.933,16.99,14.015,32.721,28.733,37.402c3.454,1.097,7.199,1.647,11.111,1.647
	c3.398,0,6.924-0.414,10.493-1.247c7.433-1.73,13.455-4.842,17.899-9.257c5.385-5.349,8.591-12.97,8.795-20.903
	c0.183-7.052-2.125-13.587-6.328-17.93c-0.799-0.825-1.915-1.834-3.466-2.304c-2.461-0.745-5.259,0.12-7.682,2.37
	c-4.896,4.546-6.193,11.096-6.42,15.792c-0.173,3.601,0.178,7.151,0.517,10.587c0.167,1.679,0.334,3.361,0.436,5.04
	c0.051,0.846,0.085,1.791-0.169,2.312c-0.41,0.841-2.027,1.455-2.561,1.658c-9.335,3.545-19.381,2.082-27.559-4.031
	c-8.821-6.591-13.79-17.399-12.969-28.207c0.159-2.093,0.529-4.164,1.097-6.155c2.023-7.079,4.507-12.781,7.382-16.945
	c3.74-5.416,8.811-10.421,14.282-14.091c4.809-3.227,10.325-6.171,17.886-9.545l0.699-0.312c5.631-2.514,11.454-5.114,17.232-7.039
	c9.189-3.062,19.058-7.306,31.058-13.36c8.861-4.468,17.739-9.695,26.438-15.559c-6.852,13.52-10.604,28.458-10.508,42.482
	c0.053,8.024,1.484,19.451,7.987,28.327c2.759,3.766,6.396,7.026,9.592,9.719c4.117,3.467,8.483,5.627,14.157,7.007
	c3.257,0.79,6.126,1.188,9.544,0.569c4.557-0.828,8.474-2.523,12.327-5.336c7.227-5.277,14.521-15.252,11.29-25.991
	c-1.604-5.333-4.161-8.969-8.049-11.446c-2.545-1.626-6.741-2.285-12.261,3.753c-3.15,3.446-4.795,7.941-4.759,13
	c0.015,1.978,0.33,3.881,0.634,5.72c0.335,2.023,0.651,3.932,0.532,5.712c-0.037,0.547-0.145,1.092-0.255,1.626
	c-0.028,0.136-0.051,0.264-0.072,0.387c-0.818,0.198-1.796,0.371-2.733,0.48c-2.68,0.307-7.349-1.247-9.848-2.832
	c-7.513-4.781-12.695-12.015-14.592-20.367c-3.257-14.332-0.362-31.359,8.606-50.61c2.07-4.445,4.732-8.586,7.75-12.853
	c1.38,13.04,13.642,28.367,23.499,36.295c1.277,1.025,2.603,2.005,3.931,2.982c3.375,2.485,6.563,4.834,8.874,7.971
	c4.479,6.075,8.416,11.598,11.257,17.698c8.966,19.251,11.861,36.279,8.606,50.61c-1.899,8.358-7.082,15.589-14.593,20.367
	c-2.5,1.588-7.172,3.126-9.846,2.832c-0.928-0.109-1.895-0.28-2.736-0.483c-0.021-0.123-0.044-0.248-0.072-0.382
	c-0.109-0.537-0.218-1.081-0.255-1.626c-0.119-1.783,0.198-3.692,0.533-5.715c0.304-1.839,0.619-3.742,0.634-5.72
	c0.036-5.053-1.61-9.548-4.759-13c-5.515-6.033-9.711-5.373-12.261-3.753c-3.888,2.477-6.445,6.115-8.049,11.446
	c-3.231,10.739,4.063,20.714,11.291,25.991c3.854,2.813,7.772,4.508,12.326,5.336c3.415,0.614,6.285,0.219,9.547-0.569
	c5.674-1.38,10.039-3.539,14.157-7.007c3.195-2.693,6.832-5.953,9.589-9.719c6.503-8.875,7.933-20.303,7.988-28.327
	c0.095-14.027-3.657-28.962-10.51-42.482c8.702,5.865,17.58,11.091,26.44,15.559c12.013,6.059,21.883,10.306,31.057,13.363
	c5.803,1.93,11.649,4.543,17.303,7.068l0.63,0.28c7.552,3.371,13.069,6.316,17.884,9.545c5.477,3.678,10.549,8.681,14.281,14.091
	c2.878,4.167,5.363,9.868,7.383,16.948c0.571,2.002,0.94,4.071,1.097,6.153c0.822,10.808-4.148,21.616-12.97,28.207
	c-8.173,6.113-18.223,7.573-27.561,4.031c-0.531-0.203-2.149-0.817-2.56-1.658c-0.251-0.518-0.222-1.425-0.168-2.309
	c0.104-1.679,0.27-3.353,0.435-5.029c0.342-3.438,0.691-6.994,0.518-10.6c-0.227-4.695-1.521-11.246-6.42-15.792
	c-2.424-2.253-5.224-3.115-7.682-2.37c-1.548,0.467-2.664,1.476-3.465,2.304c-4.204,4.343-6.51,10.88-6.329,17.932
	c0.029,1.15,0.14,2.289,0.293,3.419c-0.398,0.355-0.739,0.756-1.022,1.217c-5.867,4.079-11.43,10.081-16.615,18.106
	c-1.746,2.704-3.419,5.512-5.102,8.336c-5.865,9.85-11.929,20.033-21.656,25.954c-7.221,4.402-18.222,6.433-25.306,0.497
	c-5.11-4.284-6.533-12.452-3.171-18.213c3.365-5.755,11.183-8.539,17.423-6.182l0.523,0.2c1.834,0.71,4.348,1.682,6.872,0.406
	c1.389-0.705,2.397-1.97,2.839-3.564c0.504-1.823,0.21-3.862-0.79-5.451c-1.227-1.949-3.302-3.345-6.345-4.271
	c-8.913-2.704-18.596-0.459-25.891,6.009c-7.561,6.705-11.067,16.395-9.381,25.919c0.013,0.072,0.028,0.141,0.045,0.211
	c2.779,10.736,13.656,19.318,25.866,20.407c0.924,0.083,1.854,0.123,2.792,0.123c10.135,0,20.907-4.749,29.324-13.045
	c6.807-6.711,11.421-15.314,15.884-23.631c3.781-7.05,7.463-13.88,12.294-19.399c0.992,5.244,2.893,10.116,5.193,14.478
	c-0.019,0.369-0.032,0.71-0.039,0.989c-0.219,8.139-3.94,16.547-10.474,23.685c-7.589,8.288-17.108,12.93-27.186,17.844
	c-4.423,2.157-8.996,4.388-13.415,6.959c-20.686,12.033-34.605,24.646-41.373,37.488c-3.786,7.183-6.364,15.076-7.259,22.219
	c-1.244,9.935-0.705,18.141,1.648,25.081c3.865,11.398,14.009,20.882,26.473,24.753c4.008,1.247,8.029,1.858,11.947,1.858
	c7.516,0,14.643-2.258,20.516-6.647c7.967-5.953,13.009-15.49,13.158-24.891c0.159-10.09-5.44-19.94-13.934-24.512
	c-4.119-2.218-8.275-2.757-11.712-1.513c-2.428,0.878-4.492,2.848-5.52,5.269c-0.893,2.103-0.909,4.324-0.044,6.252
	c1.477,3.302,4.721,4.599,7.326,5.64c1.157,0.462,2.252,0.9,3.123,1.447c2.264,1.423,3.713,4.314,3.692,7.365
	c-0.021,2.899-1.264,5.963-3.497,8.633c-3.646,4.356-8.894,6.615-14.724,6.329c-6.64-0.307-13.13-3.927-16.941-9.444
	c-10.453-15.135-5.197-35.064,4.108-47.172c7.778-10.125,18.514-19.272,32.819-27.966c2.45-1.487,4.933-2.934,7.418-4.38
	c8.762-5.104,17.823-10.384,25.489-17.585c7.082-6.653,12.993-15.485,16.936-25.108c5.666,6.787,12.282,12.734,18.692,18.482
	c2.627,2.354,5.253,4.709,7.818,7.122c7.493,7.047,16.649,16.654,21.008,28.495c4.316,11.716,2.803,24.408-3.854,32.339
	c-3.884,4.618-9.108,7.084-14.844,6.924c-6.214-0.168-12.119-3.385-16.197-8.819c-3.9-5.194-6.382-13.533-2.616-19.569
	c0.347-0.555,0.739-1.124,1.137-1.698c1.989-2.88,4.711-6.825,2.568-10.979c-2.005-3.873-6.922-4.575-10.336-3.003
	c-3.337,1.532-5.235,4.645-6.372,6.852c-4.404,8.55-5.146,19.078-1.986,28.164c3.55,10.197,12.201,18.848,22.58,22.572
	c3.467,1.244,7.172,2.378,10.907,2.378c0.347,0,0.697-0.011,1.044-0.032c0,0,0,0,0.003,0c16.411-0.972,28.893-14.881,32.739-28.116
	c3.339-11.489,1.999-24.571-3.766-36.839c-4.717-10.034-12.458-19.678-23.01-28.666c-3.459-2.944-7.103-5.736-10.629-8.435
	c-5.651-4.327-11.497-8.801-16.504-13.886c-3.233-3.28-7.771-8.645-10.725-15.265c4.279,3.732,9.752,6.464,16.437,8.02
	c3.569,0.833,7.095,1.247,10.493,1.247c3.911,0,7.656-0.55,11.11-1.647c14.716-4.679,26.8-20.407,28.733-37.4
	c0.761-6.676,0.027-13.352-2.175-19.846c-1.756-5.176-3.905-11.136-7.183-16.363c-5.918-9.441-15.023-17.359-27.833-24.203
	c-10.629-5.68-20.434-10.007-29.979-13.227c-4.132-1.396-8.262-2.992-12.34-4.693c5.56-0.107,10.581-1.057,15.151-2.854
	c7.733-3.04,14.009-9.017,17.217-16.4c3.016-6.946,3.142-14.66,0.35-21.72c-2.344-5.926-7.56-12.007-12.978-15.132
	c-7.21-4.159-13.814-5.395-19.649-3.654c-3.566,1.062-6.425,3.163-9.193,5.194L601,536.563c-1.695,1.239-4.017,2.936-5.02,5.395
	c-1.024,2.514-0.028,5.445,2.32,6.823c2.053,1.204,3.87,0.622,4.954,0.27c0.187-0.059,0.379-0.123,0.577-0.174
	c2.109-0.552,4.418,0.507,6.393,1.612c0.977,0.547,1.925,1.124,2.862,1.692c4.327,2.627,8.795,5.368,14.916,4.802
	c1.393-0.123,2.733-0.451,3.884-0.763c0.707,2.226,1.151,4.258,0.691,6.137c-0.232,0.87-0.414,1.796-0.595,2.736
	c-0.344,1.796-0.67,3.494-1.404,4.642c-1.401,2.194-5.152,4.271-6.385,4.952c-4.888,2.707-10.853,4.175-17.209,4.076
	c-14.003-0.091-29.754-5.347-45.549-15.204c-18.602-11.606-32.125-23.749-40.192-36.086c-2.612-3.996-6.579-11.641-3.794-17.957
	c1.716-3.895,6.117-6.876,11.211-7.594c4.143-0.59,8.323,0.414,11.403,2.533c-3.887,1.527-7.044,4.938-7.889,9.116
	c-1.256,6.217,2.857,12.855,8.98,14.497c6.651,1.772,14.273-2.648,16.651-9.676c1.998-5.902,0.467-13.024-3.996-18.586
	c-5.097-6.352-13.525-10.161-22.484-10.412c5.127-6.276,9.566-13.589,11.475-20.582c0.031-0.049,0.056-0.09,0.087-0.139
	c0.458-0.798,0.922-1.703,1.384-2.603l0.809-1.562c0.185-0.384,0.419-0.825,0.67-1.295c0.505-0.948,1.025-1.927,1.367-2.92
	l1.775-4.61c0.451-1.062,0.722-2.138,0.996-3.222c0.14-0.566,0.283-1.129,0.436-1.65c0.814-2.589,1.188-5.16,1.583-7.869
	l0.352-2.392c0.553-7.175,0.391-13.803-0.492-20.265c-0.354-3.305-1.09-6.849-1.744-9.997c-0.519-2.402-1.132-4.698-1.751-7.02
	l-0.697-2.635c-1.798-6.286-3.621-12.362-5.423-18.069c-4.947-15.491-7.434-28.234-7.864-40.291c0.105,0.38,0.174,0.625,0.174,0.625
	s20.464-5.171,39.212-5.551c-0.629,2.393-1.454,5.216-2.565,8.598c-1.404,4.27,0.646,8.937,4.387,11.43l7.166,5.537l-8.302-4.211
	c-3.952-2.005-8.942-1.545-11.985,1.677c-10.326,10.935-14.819,12.93-14.819,12.93s4.039,1.177,15.608,13.434
	c2.921,3.095,7.63,3.633,11.496,1.899l-1.588,1.012c-3.738,2.381-5.882,6.91-4.658,11.169c4.154,14.455,3.584,19.338,3.584,19.338
	s3.069-2.878,19.509-6.595c4.384-0.991,7.333-5.149,7.548-9.639l0.343-7.173l0.73,7.927c0.09,4.431,2.843,8.618,7.117,9.788
	c14.506,3.969,18.38,6.996,18.38,6.996s-0.862-4.118,4.514-20.093c1.433-4.26-0.584-8.941-4.307-11.459l-3.365-2.277l3.829,2.081
	c3.731,2.391,8.742,2.434,12.093-0.465c11.371-9.843,16.042-11.377,16.042-11.377s-3.901-1.576-14.181-14.934
	c-2.741-3.562-7.754-4.49-11.918-2.799l-9.352,3.799l9.257-6.348c3.789-2.298,6.034-6.778,4.905-11.063
	c-0.96-3.642-1.636-6.676-2.112-9.18c9.168-0.052,20.426,1.063,33.744,4.26c-0.36,12.253-2.855,25.181-7.897,40.965
	c-1.81,5.744-3.633,11.82-5.429,18.101l-0.686,2.589c-0.614,2.304-1.228,4.613-1.756,7.044c-0.651,3.134-1.388,6.687-1.74,9.978
	c-0.884,6.462-1.044,13.093-0.475,20.423l0.336,2.224c0.376,2.597,0.763,5.283,1.572,7.84c0.165,0.563,0.307,1.126,0.459,1.73
	c0.119,0.476,0.244,0.958,0.38,1.436c-0.518,1.452-0.91,2.855-1.186,4.121c-3.062,14.009,11.756,33.329,23.252,42.576
	c1.273,1.022,2.595,1.997,3.919,2.971c3.379,2.49,6.569,4.839,8.886,7.981c4.476,6.073,8.414,11.596,11.256,17.698
	c8.966,19.248,11.86,36.276,8.603,50.61c-1.895,8.355-7.079,15.586-14.593,20.367c-2.496,1.588-7.154,3.139-9.842,2.832
	c-0.929-0.109-1.895-0.278-2.736-0.483c-0.021-0.123-0.045-0.251-0.072-0.387c-0.112-0.531-0.219-1.07-0.254-1.623
	c-0.12-1.78,0.195-3.692,0.531-5.712c0.304-1.842,0.619-3.742,0.633-5.72c0.035-5.058-1.61-9.553-4.759-13
	c-5.52-6.035-9.719-5.368-12.263-3.753c-3.889,2.48-6.444,6.115-8.048,11.446c-3.23,10.739,4.063,20.714,11.289,25.991
	c3.854,2.813,7.773,4.508,12.33,5.333c3.419,0.627,6.289,0.222,9.545-0.566c5.672-1.377,10.037-3.54,14.155-7.007
	c3.195-2.691,6.833-5.95,9.591-9.719c6.502-8.878,7.933-20.306,7.987-28.327c0.096-14.025-3.657-28.962-10.509-42.482
	c8.702,5.865,17.58,11.091,26.44,15.559c11.999,6.054,21.87,10.298,31.06,13.363c5.787,1.925,11.625,4.533,17.268,7.055l0.662,0.294
	c7.562,3.377,13.077,6.321,17.884,9.545c5.475,3.673,10.547,8.678,14.281,14.091c2.878,4.164,5.363,9.866,7.383,16.942
	c0.571,2.007,0.94,4.079,1.097,6.158c0.822,10.808-4.148,21.616-12.97,28.207c-8.179,6.113-18.223,7.576-27.561,4.031
	c-0.531-0.203-2.149-0.817-2.557-1.655c-0.254-0.521-0.224-1.431-0.171-2.314c0.104-1.684,0.27-3.369,0.435-5.05
	c0.339-3.433,0.689-6.98,0.518-10.579c-0.23-4.695-1.527-11.248-6.42-15.789c-2.424-2.253-5.221-3.118-7.682-2.37
	c-1.548,0.467-2.664,1.476-3.465,2.304c-4.204,4.343-6.51,10.88-6.329,17.93c0.203,7.931,3.409,15.551,8.795,20.903
	c4.442,4.412,10.464,7.527,17.9,9.257c3.569,0.833,7.092,1.247,10.493,1.247c3.911,0,7.658-0.55,11.11-1.647
	c14.719-4.682,26.803-20.412,28.732-37.402c0.761-6.673,0.027-13.349-2.175-19.844c-1.756-5.176-3.905-11.136-7.183-16.366
	c-5.921-9.439-15.023-17.356-27.833-24.2c-10.629-5.68-20.434-10.007-29.979-13.227c-4.132-1.396-8.259-2.992-12.343-4.693
	c5.56-0.107,10.584-1.057,15.154-2.854c7.733-3.04,14.009-9.02,17.217-16.403c3.016-6.946,3.142-14.657,0.35-21.718
	c-2.344-5.926-7.56-12.007-12.978-15.132c-7.21-4.161-13.811-5.392-19.649-3.654c-3.566,1.062-6.425,3.163-9.19,5.194l-0.272,0.198
	c-1.698,1.241-4.023,2.936-5.026,5.4c-1.025,2.514-0.029,5.448,2.32,6.823c2.053,1.199,3.865,0.622,4.946,0.272
	c0.187-0.061,0.379-0.123,0.585-0.176c2.111-0.553,4.415,0.507,6.393,1.612c0.977,0.55,1.925,1.124,2.864,1.695
	c4.33,2.624,8.83,5.355,14.913,4.797c1.404-0.125,2.741-0.448,3.884-0.761c0.707,2.226,1.151,4.258,0.691,6.137
	c-0.232,0.87-0.414,1.796-0.595,2.736c-0.344,1.796-0.67,3.494-1.404,4.642c-1.401,2.194-5.152,4.271-6.385,4.952
	c-4.888,2.709-10.781,4.161-17.212,4.073c-14.001-0.088-29.75-5.344-45.547-15.202c-3.457-2.157-6.678-4.338-9.782-6.529
	c3.695-0.179,7.407-0.657,10.99-1.136c3.473-0.464,4.368-2.072,6.638-4.837c10.261-12.496,20.449-25.048,30.339-37.842
	c8.188-10.594,16.72-21.277,23.467-32.874c1.133-1.946,2.364-3.992,2.961-6.182c0,0,15.948-29.04-0.725-48.401l-61.86-80.344
	c0,0-21.493-32.156-37.099-21.742c-2.787,0.01-5.595,0.209-8.378,0.419c-7.991,0.603-15.667-0.331-22.886-4.042
	c-16.559-8.512-22.042-26.068-23.178-43.648c-0.502,0.383-1.004,0.769-1.518,1.169c-4.863,3.784-10.916,8.493-18.47,8.493
	c-0.893,0-1.794-0.068-2.678-0.201c-4.603-0.694-9.288-2.874-14.163-6.548c-2.022,20.039-10.121,38.993-32.339,44.064
	c-8.172,1.866-15.88-0.782-24.058-0.175c-14.675,1.09-23.601,10.939-28.932,23.305c-7.766,18.017-12.025,37.714-16.201,56.795
	c0,0-15.144,42.185-19.245,65.006c-8.268,5.33-16.447,10.833-24.569,16.426c-9.359,6.445-18.642,13.029-27.604,20.197
	c-9.107,7.283-39.779,27.606-45.564,31.248c-6.004,3.78-11.985,7.62-17.803,11.737c-2.965,2.098-6.766,4.337-9.235,7.347
	c-5.866,2.558-13.48,3.75-13.48,3.75c-0.465,3.904,3.016,4.471,5.483,4.399c-6.883,7.19-16.187,18.152-15.988,24.707
	C309.823,536.028,312.011,539.238,315.345,535.854z M676.436,461.477c-0.807,3.992,0.617,8.14,3.349,11.046
	c-0.907-0.674-1.818-1.359-2.748-2.057l-12.565-9.439c0,0-1.048,0.058-2.777,0.194l-0.141-0.302
	c-0.176-0.399-0.369-0.799-0.558-1.193c0.154-0.782,0.384-1.554,0.716-2.307c1.716-3.897,6.115-6.876,11.211-7.592
	c4.145-0.59,8.32,0.416,11.401,2.533C680.437,453.886,677.279,457.3,676.436,461.477z M680.903,346.56
	c0.725-0.726,9.001-6.413,9.001-6.413c0.002,0.972,2.107,2.864,2.665,3.541c2.306,2.795,4.757,5.476,7.297,8.06
	c3.276,3.332,6.722,6.508,10.392,9.403c3.263,2.574,6.924,4.541,9.606,7.77c4.048,4.872,8.071,10.141,12.105,15.168
	c3.942,4.913,7.97,11.022,13.572,14.139c-6.631,21.969-15.195,44.756-27.759,64.034c-4.805,7.373-11.838,18.126-21.954,17.4
	c-4.649-0.334-8.38-2.013-11.911-4.259c0.491,0.21,0.975,0.432,1.497,0.573c6.62,1.77,14.273-2.645,16.651-9.674
	c1.999-5.905,0.47-13.026-3.993-18.589c-5.686-7.082-15.517-11.054-25.577-10.386c-5.832,0.392-11.035,2.213-15.042,5.261
	c-0.466,0.355-0.878,0.745-1.301,1.127c-0.08-0.561-0.17-1.115-0.244-1.68c-0.093-0.713-0.187-1.431-0.294-2.127
	c-0.128-0.953-0.165-1.922-0.198-2.886c-0.019-0.555-0.037-1.113-0.077-1.698l-0.059-1.303c-0.061-1.054-0.123-2.146-0.035-3.177
	c1.11-13.05,4.065-25.799,6.924-38.129c3.008-12.965,6.039-26.252,7.018-40.083C672.418,350.998,680.309,347.155,680.903,346.56z
	 M601.61,358.001c0.159-2.268,1.698-4.338,3.926-4.791c8.358-1.695,9.943-3.117,9.943-3.117s-0.343,2.464,1.596,9.822
	c0.571,2.168-0.565,4.435-2.482,5.598l-3.401,2.333c0.108-3.31,0.547-4.368,0.547-4.368s-1.03,0.514-5.632,0.203
	c-1.227-0.083-2.326,0.777-2.733,1.937l-0.966,2.251l0.599-2.441c0.289-1.178-0.144-2.48-1.191-3.09
	c-0.274-0.159-0.502-0.302-0.744-0.45L601.61,358.001z M585.688,359.621c2.663-8.101,2.213-10.182,2.213-10.182
	s1.971,1.518,9.324,3.474c2.167,0.577,3.574,2.686,3.635,4.927l0.109,3.986c-2.821-1.732-3.521-2.636-3.521-2.636
	s-0.063,1.15-2.611,4.995c-0.68,1.025-0.476,2.405,0.331,3.334l1.49,1.98l-1.886-1.712c-0.898-0.815-2.248-1.055-3.284-0.425
	c-0.215,0.13-0.396,0.233-0.595,0.349l-2.985-2.307C586.015,364.144,584.978,361.782,585.688,359.621z M587.333,366.076l3.404,1.727
	c-2.94,1.708-4.097,1.899-4.097,1.899s0.981,0.603,3.147,4.675c0.547,1.029,1.751,1.512,2.896,1.334l-0.492,0.152
	c-1.159,0.358-2.053,1.398-2.038,2.61c0.05,4.115-0.454,5.363-0.454,5.363s1.018-0.537,5.626-0.328
	c1.229,0.056,2.308-0.828,2.69-1.997l0.61-1.869l-0.381,2.145c-0.297,1.176,0.126,2.48,1.17,3.098
	c3.541,2.098,4.344,3.177,4.344,3.177s0.071-1.149,2.646-4.976c0.687-1.021,0.493-2.402-0.307-3.336l-0.723-0.844l0.86,0.826
	c0.812,0.901,2.131,1.275,3.225,0.753c3.714-1.775,5.057-1.842,5.057-1.842s-0.915-0.698-2.661-4.968
	c-0.466-1.138-1.721-1.747-2.943-1.602l-2.743,0.326l2.903-1.006c1.166-0.332,2.083-1.351,2.095-2.565
	c0.002-0.226,0.011-0.412,0.016-0.621l3.458-1.405c2.107-0.856,4.643-0.386,6.03,1.416c5.202,6.758,7.175,7.556,7.175,7.556
	s-2.363,0.776-8.117,5.757c-1.695,1.467-4.231,1.445-6.118,0.236l-1.937-1.053l1.703,1.152c1.884,1.274,2.905,3.643,2.179,5.798
	c-2.72,8.083-2.284,10.166-2.284,10.166s-1.96-1.532-9.3-3.54c-2.163-0.592-3.556-2.71-3.601-4.952l-0.37-4.011l-0.174,3.629
	c-0.108,2.272-1.601,4.375-3.819,4.877c-8.318,1.881-9.871,3.337-9.871,3.337s0.289-2.47-1.813-9.784
	c-0.619-2.155,0.466-4.447,2.357-5.652l0.804-0.512c-1.956,0.878-4.338,0.605-5.817-0.961c-5.854-6.202-7.897-6.797-7.897-6.797
	s2.273-1.01,7.498-6.543C582.808,365.295,585.333,365.062,587.333,366.076z M410.422,1093.894
	c-2.699-3.222-7.419-3.896-11.245-2.155l-8.592,3.911l8.404-6.29c3.452-2.293,5.376-6.567,4.156-10.527
	c-4.143-13.441-3.697-18.017-3.697-18.017s-2.818,2.745-18.124,6.515c-4.081,1.005-6.764,4.946-6.885,9.148l-0.806,8.331
	l-0.589-8.569c-0.284-4.135-3.045-7.922-7.09-8.821c-13.73-3.052-17.485-5.705-17.485-5.705s0.991,3.808-3.309,18.973
	c-1.147,4.044,0.95,8.326,4.541,10.51l6.91,4.897l-7.921-3.614c-3.771-1.72-8.416-1.098-11.134,2.031
	c-9.226,10.617-13.347,12.655-13.347,12.655s3.82,0.943,15.104,11.949c2.849,2.779,7.27,3.1,10.815,1.329l-1.445,1.007
	c-3.4,2.369-5.229,6.684-3.921,10.616c4.441,13.346,4.096,17.931,4.096,17.931s2.757-2.807,17.975-6.916
	c4.058-1.096,6.653-5.095,6.68-9.298l0.043-6.716l0.989,7.378c0.255,4.136,2.989,7.943,7.029,8.87
	c13.708,3.148,17.445,5.826,17.445,5.826s-0.964-3.814,3.441-18.949c1.175-4.036-0.892-8.332-4.468-10.542l-3.233-1.997l3.658,1.796
	c3.579,2.09,8.263,1.937,11.282-0.902c10.245-9.637,14.55-11.251,14.55-11.251S420.544,1105.978,410.422,1093.894z
	 M391.971,1112.061c-1.527,1.437-3.897,1.514-5.708,0.456l-1.851-0.909l1.636,1.011c1.809,1.118,2.855,3.292,2.261,5.334
	c-2.229,7.658-1.741,9.588-1.741,9.588s-1.891-1.355-8.827-2.948c-2.044-0.469-3.427-2.395-3.556-4.488l-0.5-3.734l-0.022,3.398
	c-0.014,2.126-1.327,4.151-3.38,4.704c-7.7,2.079-9.095,3.5-9.095,3.5s0.174-2.32-2.073-9.072c-0.662-1.99,0.264-4.173,1.984-5.372
	l0.731-0.509c-1.794,0.896-4.031,0.733-5.472-0.673c-5.71-5.569-7.642-6.046-7.642-6.046s2.085-1.031,6.753-6.403
	c1.375-1.583,3.726-1.898,5.633-1.027l4.007,1.828l-3.496-2.478c-1.817-1.105-2.878-3.272-2.298-5.318
	c2.176-7.673,1.674-9.599,1.674-9.599s1.9,1.342,8.847,2.886c2.047,0.455,3.444,2.372,3.588,4.464l0.298,4.336l0.408-4.215
	c0.061-2.125,1.419-4.12,3.484-4.628c7.744-1.908,9.17-3.297,9.17-3.297s-0.226,2.315,1.871,9.116
	c0.618,2.004-0.356,4.166-2.103,5.327l-4.252,3.182l4.347-1.979c1.936-0.881,4.324-0.54,5.689,1.09
	c5.122,6.114,6.997,6.783,6.997,6.783S397.154,1107.184,391.971,1112.061z M857.785,1093.894c-2.699-3.222-7.419-3.896-11.244-2.155
	l-8.591,3.911l8.404-6.29c3.452-2.293,5.377-6.567,4.156-10.527c-4.143-13.441-3.697-18.017-3.697-18.017s-2.818,2.745-18.124,6.515
	c-4.081,1.005-6.765,4.946-6.885,9.148l-0.806,8.331l-0.589-8.569c-0.284-4.135-3.045-7.922-7.09-8.821
	c-13.73-3.052-17.485-5.705-17.485-5.705s0.991,3.808-3.309,18.973c-1.147,4.044,0.949,8.326,4.541,10.51l6.91,4.897l-7.921-3.614
	c-3.77-1.72-8.415-1.098-11.134,2.031c-9.226,10.617-13.347,12.655-13.347,12.655s3.82,0.943,15.104,11.949
	c2.849,2.779,7.27,3.1,10.815,1.329l-1.445,1.007c-3.4,2.369-5.229,6.684-3.921,10.616c4.441,13.346,4.096,17.931,4.096,17.931
	s2.757-2.807,17.975-6.916c4.058-1.096,6.653-5.095,6.68-9.298l0.043-6.716l0.989,7.378c0.255,4.136,2.99,7.943,7.029,8.87
	c13.708,3.148,17.445,5.826,17.445,5.826s-0.964-3.814,3.441-18.949c1.175-4.036-0.892-8.332-4.468-10.542l-3.233-1.997l3.658,1.796
	c3.579,2.09,8.263,1.937,11.281-0.902c10.245-9.637,14.55-11.251,14.55-11.251S867.907,1105.978,857.785,1093.894z
	 M839.334,1112.061c-1.527,1.437-3.897,1.514-5.708,0.456l-1.851-0.909l1.636,1.011c1.809,1.118,2.855,3.292,2.26,5.334
	c-2.229,7.658-1.741,9.588-1.741,9.588s-1.891-1.355-8.827-2.948c-2.044-0.469-3.427-2.395-3.556-4.488l-0.5-3.734l-0.022,3.398
	c-0.014,2.126-1.327,4.151-3.38,4.704c-7.7,2.079-9.095,3.5-9.095,3.5s0.174-2.32-2.073-9.072c-0.662-1.99,0.263-4.173,1.984-5.372
	l0.731-0.509c-1.794,0.896-4.03,0.733-5.472-0.673c-5.71-5.569-7.642-6.046-7.642-6.046s2.085-1.031,6.753-6.403
	c1.376-1.583,3.726-1.898,5.634-1.027l4.008,1.828l-3.496-2.478c-1.817-1.105-2.878-3.272-2.297-5.318
	c2.175-7.673,1.674-9.599,1.674-9.599s1.9,1.342,8.847,2.886c2.047,0.455,3.444,2.372,3.587,4.464l0.298,4.336l0.408-4.215
	c0.061-2.125,1.419-4.12,3.484-4.628c7.744-1.908,9.17-3.297,9.17-3.297s-0.226,2.315,1.871,9.116
	c0.618,2.004-0.356,4.166-2.103,5.327l-4.252,3.182l4.347-1.979c1.936-0.881,4.324-0.54,5.69,1.09
	c5.122,6.114,6.997,6.783,6.997,6.783S844.518,1107.184,839.334,1112.061z M780.016,1069.649c-1.604-5.331-4.161-8.969-8.051-11.446
	c-2.549-1.623-6.748-2.288-12.26,3.753c-3.152,3.449-4.799,7.944-4.759,13c0.013,1.978,0.328,3.881,0.633,5.723
	c0.334,2.021,0.651,3.929,0.531,5.71c-0.037,0.544-0.141,1.086-0.254,1.626c-0.027,0.133-0.051,0.264-0.072,0.387
	c-0.819,0.198-1.799,0.371-2.733,0.478c-2.699,0.315-7.351-1.241-9.847-2.83c-7.514-4.781-12.698-12.015-14.593-20.367
	c-3.257-14.332-0.36-31.359,8.603-50.61c2.845-6.107,6.783-11.628,11.257-17.698c2.314-3.139,5.504-5.488,8.881-7.976
	c1.324-0.977,2.648-1.951,3.924-2.976c11.499-9.249,26.314-28.575,23.252-42.576c-1.02-4.671-3.43-11.15-9.108-15.471
	c-4.004-3.048-9.206-4.869-15.042-5.261c-10.101-0.646-19.892,3.302-25.575,10.386c-4.46,5.563-5.993,12.685-3.996,18.589
	c2.381,7.026,9.999,11.454,16.654,9.674c6.121-1.644,10.232-8.283,8.98-14.497c-0.846-4.18-4.004-7.592-7.891-9.116
	c3.083-2.122,7.287-3.115,11.403-2.533c5.093,0.715,9.495,3.694,11.211,7.592c2.784,6.318-1.182,13.963-3.796,17.959
	c-8.064,12.332-21.587,24.475-40.192,36.086c-15.797,9.858-31.546,15.114-45.547,15.202h-0.264c-6.276,0-12.129-1.407-16.948-4.073
	c-1.231-0.681-4.981-2.755-6.382-4.952c-0.731-1.148-1.06-2.843-1.404-4.637c-0.182-0.942-0.363-1.871-0.582-2.685
	c-0.464-1.893-0.048-3.889,0.681-6.19c1.148,0.31,2.482,0.635,3.881,0.758c6.15,0.553,10.597-2.181,14.924-4.807
	c0.934-0.566,1.879-1.14,2.854-1.687c2.797-1.567,4.709-2.042,6.398-1.61c0.2,0.053,0.392,0.115,0.579,0.176
	c1.081,0.344,2.893,0.926,4.946-0.275c2.344-1.375,3.342-4.308,2.317-6.823c-1.004-2.458-3.326-4.159-5.024-5.397l-0.288-0.214
	c-2.76-2.023-5.616-4.116-9.177-5.178c-5.814-1.735-12.428-0.51-19.643,3.652c-5.424,3.126-10.64,9.209-12.984,15.138v-0.003
	c-2.792,7.06-2.667,14.772,0.35,21.718c3.208,7.383,9.484,13.363,17.22,16.403c4.567,1.796,9.594,2.744,15.156,2.854
	c-4.081,1.7-8.211,3.297-12.346,4.693c-9.553,3.222-19.358,7.549-29.979,13.226c-12.807,6.844-21.912,14.761-27.836,24.2
	c-3.275,5.232-5.424,11.19-7.179,16.366c-2.205,6.497-2.938,13.173-2.178,19.844c1.933,16.993,14.015,32.72,28.731,37.4
	c3.454,1.1,7.202,1.65,11.115,1.65c3.398,0,6.922-0.414,10.49-1.247c7.431-1.727,13.453-4.842,17.9-9.257
	c5.384-5.349,8.59-12.968,8.795-20.903c0.182-7.05-2.127-13.587-6.329-17.93c-0.795-0.825-1.909-1.834-3.462-2.304
	c-2.464-0.745-5.259,0.115-7.688,2.368c-4.896,4.551-6.19,11.102-6.417,15.792c-0.173,3.601,0.176,7.151,0.515,10.587
	c0.166,1.679,0.331,3.361,0.435,5.045c0.053,0.841,0.085,1.783-0.171,2.309c-0.408,0.838-2.026,1.455-2.557,1.658
	c-9.332,3.545-19.385,2.079-27.561-4.033c-8.819-6.588-13.79-17.396-12.97-28.204c0.16-2.093,0.531-4.164,1.1-6.156
	c2.021-7.079,4.506-12.781,7.381-16.945c3.74-5.419,8.814-10.421,14.284-14.091c4.805-3.222,10.32-6.166,17.884-9.545l0.595-0.267
	c5.664-2.531,11.523-5.149,17.335-7.084c9.18-3.059,19.051-7.303,31.057-13.36c8.862-4.468,17.74-9.695,26.44-15.559
	c-6.852,13.52-10.605,28.458-10.509,42.482c0.056,8.021,1.487,19.449,7.989,28.327c2.765,3.774,6.398,7.031,9.588,9.716
	c4.116,3.468,8.483,5.63,14.161,7.01c3.246,0.787,6.11,1.185,9.546,0.566c4.559-0.83,8.478-2.525,12.324-5.336
	C775.953,1090.36,783.246,1080.388,780.016,1069.649z M831.195,1102.262c-0.739-0.882-2.03-1.067-3.077-0.59l-2.351,1.07l2.3-1.721
	c0.945-0.627,1.471-1.797,1.137-2.881c-1.134-3.678-1.012-4.931-1.012-4.931s-0.771,0.752-4.96,1.783
	c-1.117,0.275-1.851,1.354-1.884,2.503l-0.221,2.28l-0.161-2.345c-0.078-1.131-0.833-2.167-1.94-2.414
	c-3.757-0.835-4.785-1.562-4.785-1.562s0.271,1.042-0.906,5.193c-0.314,1.106,0.26,2.278,1.243,2.876l1.891,1.341l-2.167-0.989
	c-1.032-0.471-2.303-0.301-3.047,0.555c-2.525,2.906-3.653,3.464-3.653,3.464s1.045,0.258,4.134,3.27
	c0.78,0.761,1.99,0.849,2.96,0.364l-0.396,0.275c-0.93,0.649-1.431,1.829-1.073,2.906c1.215,3.652,1.121,4.907,1.121,4.907
	s0.754-0.768,4.919-1.893c1.11-0.3,1.821-1.394,1.828-2.545l0.012-1.838l0.271,2.019c0.07,1.132,0.818,2.174,1.924,2.427
	c3.752,0.862,4.774,1.595,4.774,1.595s-0.264-1.044,0.942-5.186c0.322-1.104-0.244-2.28-1.223-2.885l-0.885-0.547l1.001,0.491
	c0.979,0.572,2.261,0.53,3.088-0.247c2.804-2.637,3.982-3.079,3.982-3.079S833.965,1105.568,831.195,1102.262z M587.594,1066.742
	c-5.918-9.439-15.023-17.356-27.833-24.2c-10.621-5.678-20.427-10.005-29.976-13.226c-4.135-1.396-8.264-2.992-12.346-4.693
	c5.562-0.109,10.586-1.06,15.152-2.854c7.736-3.04,14.013-9.02,17.221-16.403c3.018-6.946,3.142-14.657,0.35-21.718
	c-2.345-5.929-7.562-12.012-12.982-15.135c-7.214-4.159-13.826-5.392-19.643-3.652c-3.562,1.062-6.417,3.155-9.197,5.195
	l-0.274,0.198c-1.695,1.241-4.017,2.939-5.021,5.4c-1.022,2.512-0.027,5.443,2.316,6.817c2.054,1.207,3.868,0.625,4.95,0.278
	c0.188-0.061,0.379-0.123,0.583-0.176c1.679-0.448,3.596,0.043,6.393,1.61c0.974,0.547,1.918,1.121,2.852,1.687
	c4.332,2.629,8.826,5.365,14.927,4.807c1.403-0.123,2.739-0.448,3.885-0.761c0.706,2.224,1.149,4.252,0.69,6.134
	c-0.234,0.873-0.415,1.799-0.595,2.739c-0.346,1.796-0.673,3.494-1.405,4.642c-1.401,2.194-5.15,4.271-6.384,4.952
	c-4.883,2.704-10.914,4.065-17.21,4.073c-14.001-0.088-29.751-5.344-45.548-15.202c-18.605-11.612-32.128-23.754-40.192-36.086
	c-2.612-3.996-6.579-11.641-3.794-17.959c1.718-3.895,6.117-6.876,11.211-7.592c4.133-0.59,8.322,0.416,11.402,2.533
	c-3.887,1.524-7.043,4.936-7.888,9.116c-1.256,6.214,2.856,12.853,8.98,14.497c6.651,1.772,14.273-2.648,16.651-9.676
	c1.998-5.902,0.467-13.024-3.996-18.586c-5.682-7.084-15.489-11.043-25.572-10.386c-5.835,0.392-11.038,2.213-15.044,5.261
	c-5.679,4.324-8.088,10.8-9.109,15.471c-3.059,14.003,11.757,33.326,23.255,42.576c1.272,1.022,2.595,1.997,3.919,2.974
	c3.379,2.488,6.571,4.837,8.886,7.979c4.474,6.067,8.41,11.588,11.255,17.698c8.966,19.251,11.861,36.279,8.606,50.61
	c-1.898,8.352-7.082,15.586-14.593,20.367c-2.497,1.588-7.148,3.15-9.852,2.83c-0.921-0.107-1.886-0.275-2.729-0.481
	c-0.02-0.123-0.044-0.251-0.072-0.384c-0.109-0.537-0.218-1.078-0.255-1.623c-0.119-1.786,0.198-3.694,0.533-5.715
	c0.304-1.842,0.619-3.742,0.634-5.72c0.036-5.058-1.61-9.553-4.759-13c-5.52-6.041-9.715-5.371-12.262-3.753
	c-3.888,2.477-6.445,6.115-8.049,11.446c-3.233,10.741,4.063,20.714,11.29,25.989c3.848,2.811,7.765,4.506,12.33,5.339
	c3.422,0.619,6.29,0.216,9.544-0.569c5.675-1.38,10.041-3.542,14.155-7.01c3.19-2.685,6.824-5.939,9.591-9.716
	c6.502-8.878,7.933-20.305,7.988-28.327c0.095-14.027-3.657-28.962-10.51-42.482c8.702,5.865,17.58,11.091,26.44,15.559
	c12.003,6.054,21.872,10.298,31.059,13.36c5.822,1.938,11.689,4.562,17.364,7.098l0.567,0.254
	c7.561,3.377,13.077,6.321,17.884,9.545c5.471,3.67,10.542,8.675,14.282,14.091c2.875,4.164,5.359,9.866,7.382,16.945
	c0.569,1.994,0.938,4.063,1.097,6.156c0.821,10.805-4.148,21.613-12.968,28.204c-8.179,6.113-18.226,7.578-27.559,4.033
	c-0.533-0.203-2.151-0.819-2.563-1.66c-0.254-0.521-0.219-1.463-0.168-2.309c0.103-1.684,0.27-3.366,0.435-5.048
	c0.339-3.433,0.69-6.98,0.517-10.578c-0.227-4.695-1.524-11.246-6.42-15.794c-2.428-2.256-5.228-3.115-7.681-2.368
	c-1.552,0.47-2.667,1.476-3.466,2.301c-4.203,4.343-6.51,10.88-6.329,17.932c0.204,7.936,3.41,15.554,8.797,20.903
	c4.444,4.412,10.466,7.527,17.896,9.257c3.57,0.833,7.094,1.247,10.49,1.247c3.915,0,7.662-0.55,11.116-1.65
	c14.716-4.679,26.8-20.41,28.733-37.4c0.758-6.671,0.025-13.347-2.178-19.844C593.022,1077.932,590.873,1071.972,587.594,1066.742z
	 M383.832,1102.262c-0.739-0.882-2.03-1.067-3.077-0.59l-2.351,1.07l2.3-1.721c0.945-0.627,1.471-1.797,1.137-2.881
	c-1.134-3.678-1.012-4.931-1.012-4.931s-0.771,0.752-4.96,1.783c-1.117,0.275-1.851,1.354-1.884,2.503l-0.221,2.28l-0.161-2.345
	c-0.078-1.131-0.833-2.167-1.94-2.414c-3.757-0.835-4.785-1.562-4.785-1.562s0.271,1.042-0.906,5.193
	c-0.314,1.106,0.26,2.278,1.243,2.876l1.891,1.341l-2.168-0.989c-1.032-0.471-2.303-0.301-3.047,0.555
	c-2.525,2.906-3.653,3.464-3.653,3.464s1.046,0.258,4.134,3.27c0.78,0.761,1.99,0.849,2.96,0.364l-0.396,0.275
	c-0.93,0.649-1.431,1.829-1.073,2.906c1.215,3.652,1.121,4.907,1.121,4.907s0.754-0.768,4.919-1.893
	c1.11-0.3,1.821-1.394,1.828-2.545l0.012-1.838l0.271,2.019c0.07,1.132,0.818,2.174,1.923,2.427
	c3.752,0.862,4.774,1.595,4.774,1.595s-0.264-1.044,0.941-5.186c0.322-1.104-0.244-2.28-1.223-2.885l-0.885-0.547l1.001,0.491
	c0.979,0.572,2.261,0.53,3.088-0.247c2.804-2.637,3.982-3.079,3.982-3.079S386.602,1105.568,383.832,1102.262z M941.963,1064.297
	c-2.246-2.682-6.174-3.243-9.357-1.794l-7.15,3.255l6.994-5.234c2.873-1.909,4.474-5.465,3.458-8.76
	c-3.448-11.185-3.077-14.994-3.077-14.994s-2.345,2.285-15.082,5.422c-3.397,0.837-5.629,4.116-5.73,7.613l-0.671,6.933l-0.49-7.131
	c-0.237-3.441-2.534-6.593-5.901-7.341c-11.426-2.54-14.551-4.747-14.551-4.747s0.824,3.168-2.754,15.789
	c-0.954,3.365,0.79,6.929,3.779,8.746l5.75,4.076l-6.591-3.007c-3.138-1.431-7.003-0.914-9.266,1.69
	c-7.677,8.835-11.107,10.531-11.107,10.531s3.179,0.785,12.569,9.944c2.371,2.313,6.05,2.58,9,1.106l-1.202,0.838
	c-2.83,1.972-4.352,5.563-3.263,8.835c3.695,11.106,3.409,14.922,3.409,14.922s2.294-2.336,14.958-5.756
	c3.377-0.912,5.537-4.24,5.559-7.738l0.036-5.589l0.823,6.14c0.213,3.442,2.488,6.61,5.849,7.382
	c11.408,2.62,14.518,4.849,14.518,4.849s-0.802-3.174,2.864-15.77c0.978-3.359-0.742-6.934-3.718-8.773l-2.69-1.662l3.044,1.495
	c2.978,1.739,6.876,1.612,9.388-0.751c8.526-8.019,12.109-9.363,12.109-9.363S950.386,1074.352,941.963,1064.297z M926.608,1079.414
	c-1.271,1.196-3.243,1.26-4.75,0.38l-1.54-0.756l1.361,0.841c1.506,0.93,2.376,2.739,1.881,4.438
	c-1.855,6.373-1.449,7.979-1.449,7.979s-1.574-1.128-7.346-2.454c-1.701-0.39-2.852-1.993-2.959-3.735l-0.416-3.107l-0.018,2.828
	c-0.011,1.77-1.104,3.454-2.813,3.915c-6.408,1.73-7.568,2.912-7.568,2.912s0.145-1.93-1.725-7.55
	c-0.551-1.656,0.219-3.473,1.651-4.47l0.608-0.424c-1.492,0.745-3.354,0.61-4.554-0.56c-4.752-4.635-6.36-5.032-6.36-5.032
	s1.735-0.858,5.62-5.329c1.145-1.317,3.1-1.579,4.688-0.855l3.335,1.521l-2.91-2.062c-1.512-0.92-2.395-2.723-1.912-4.426
	c1.81-6.386,1.393-7.989,1.393-7.989s1.581,1.117,7.362,2.402c1.703,0.379,2.866,1.974,2.985,3.715l0.248,3.608l0.339-3.508
	c0.051-1.769,1.181-3.429,2.899-3.852c6.445-1.588,7.631-2.743,7.631-2.743s-0.188,1.927,1.557,7.586
	c0.514,1.668-0.296,3.467-1.75,4.432l-3.539,2.649l3.618-1.647c1.611-0.733,3.598-0.449,4.735,0.908
	c4.262,5.088,5.823,5.645,5.823,5.645S930.922,1075.357,926.608,1079.414z M1082.735,865.62
	c-5.397-13.315-20.847-23.394-36.735-23.965c-6.252-0.219-12.375,0.934-18.242,3.441c-4.669,1.999-10.031,4.415-14.622,7.818
	c-8.315,6.153-14.991,15.143-20.41,27.486c-4.484,10.221-7.778,19.587-10.074,28.631c-0.913,3.601-1.983,7.212-3.147,10.8
	c-0.555-4.762-1.764-9.041-3.633-12.893c-3.382-6.97-9.388-12.37-16.48-14.82c-6.671-2.309-13.851-1.866-20.212,1.239
	c-5.336,2.6-10.613,7.885-13.133,13.149c-3.347,7.004-4.012,13.245-1.975,18.546c1.247,3.246,3.398,5.744,5.485,8.171l0.206,0.238
	c1.279,1.497,3.032,3.545,5.427,4.311c2.504,0.798,5.234-0.374,6.377-2.733c1.001-2.058,0.315-3.742-0.096-4.746
	c-0.067-0.166-0.139-0.336-0.2-0.515c-0.505-1.465-0.2-3.219,1.022-5.859c0.435-0.937,0.894-1.847,1.351-2.749
	c2.13-4.212,4.332-8.569,3.387-14.233c-0.2-1.22-0.569-2.378-0.921-3.385c1.901-0.761,3.66-1.268,5.315-0.988
	c0.825,0.152,1.698,0.254,2.581,0.355c1.66,0.187,3.23,0.366,4.311,0.942c2.079,1.11,4.239,4.388,4.949,5.467
	c2.824,4.29,4.538,9.644,4.954,15.487c0.913,12.89-2.805,27.758-10.755,43c-9.367,17.962-19.582,31.279-30.369,39.586
	c-3.465,2.667-10.149,6.823-16.104,4.751c-3.649-1.284-6.663-5.072-7.672-9.655c-0.793-3.588-0.251-7.317,1.316-10.224
	c1.764,3.369,5.104,5.926,8.958,6.398c5.931,0.71,11.86-3.617,12.96-9.484c1.188-6.361-3.513-13.189-10.266-14.905
	c-5.664-1.444-12.191,0.499-17.052,5.061c-6.179,5.792-9.174,15.183-7.818,24.51c0.782,5.395,2.848,10.103,5.974,13.611
	c4.436,4.978,10.632,6.753,15.047,7.365c0.745,0.104,1.497,0.155,2.261,0.155c12.829-0.003,28.249-14.057,35.555-24.731
	c0.854-1.249,1.66-2.541,2.466-3.833c2.047-3.283,3.98-6.382,6.689-8.721c5.264-4.551,10.063-8.568,15.493-11.625
	c17.076-9.623,32.52-13.499,45.944-11.526c7.786,1.145,14.783,5.384,19.697,11.932c1.623,2.162,3.366,6.289,3.273,8.758
	c-0.029,0.801-0.109,1.644-0.224,2.394c-0.072,0.019-0.144,0.037-0.219,0.059c-0.48,0.139-0.964,0.275-1.46,0.347
	c-1.612,0.23-3.39,0.077-5.261-0.085c-1.73-0.152-3.521-0.307-5.355-0.176c-4.725,0.334-8.803,2.194-11.788,5.381
	c-5.275,5.627-4.327,9.546-2.603,11.844c2.592,3.451,6.169,5.576,11.254,6.684c10.224,2.248,19-5.259,23.389-12.362
	c2.338-3.782,3.63-7.543,4.073-11.838c0.331-3.238-0.245-5.88-1.217-8.851c-1.684-5.165-4.004-9.062-7.522-12.639
	c-2.712-2.76-5.985-5.891-9.687-8.184c-8.699-5.395-19.382-5.907-26.824-5.379c-12.735,0.897-26.021,5.285-37.867,12.354
	c4.639-8.246,8.702-16.587,12.095-24.849c4.73-11.502,7.947-20.919,10.119-29.632c1.361-5.472,3.35-11.04,5.272-16.424l0.222-0.625
	c2.571-7.199,4.89-12.49,7.519-17.15c2.987-5.291,7.223-10.306,11.929-14.123c3.622-2.936,8.683-5.622,15.055-7.984
	c1.772-0.662,3.641-1.148,5.555-1.441c9.863-1.513,20.1,2.269,26.76,9.882c6.174,7.055,8.232,16.149,5.643,24.95
	c-0.379,1.303-0.801,2.095-1.252,2.36c-0.454,0.267-1.433,0.283-2.021,0.291c-1.559,0.024-3.12-0.008-4.685-0.04
	c-3.193-0.072-6.5-0.139-9.82,0.28c-4.354,0.547-10.36,2.229-14.249,7.124c-1.949,2.456-2.555,5.173-1.668,7.455
	c0.561,1.439,1.594,2.421,2.434,3.118c4.348,3.601,10.613,5.269,17.145,4.607c7.357-0.761,14.206-4.287,18.792-9.679
	c3.777-4.439,6.235-10.25,7.309-17.273C1085.768,878.379,1085.103,871.458,1082.735,865.62z M1011.429,1022.134
	c-1.81-2.16-4.974-2.613-7.539-1.445l-5.761,2.622l5.635-4.217c2.315-1.538,3.605-4.403,2.787-7.058
	c-2.778-9.012-2.479-12.081-2.479-12.081s-1.89,1.841-12.152,4.369c-2.737,0.674-4.536,3.316-4.616,6.134l-0.54,5.586l-0.395-5.745
	c-0.19-2.772-2.042-5.312-4.754-5.915c-9.206-2.047-11.724-3.825-11.724-3.825s0.664,2.553-2.219,12.721
	c-0.769,2.711,0.637,5.583,3.044,7.047l4.633,3.284l-5.311-2.423c-2.528-1.154-5.642-0.736-7.465,1.361
	c-6.186,7.118-8.949,8.485-8.949,8.485s2.561,0.633,10.127,8.012c1.911,1.864,4.875,2.078,7.252,0.891l-0.969,0.675
	c-2.28,1.589-3.506,4.482-2.629,7.118c2.977,8.948,2.747,12.023,2.747,12.023s1.848-1.883,12.052-4.638
	c2.721-0.735,4.461-3.416,4.479-6.234l0.029-4.503l0.663,4.948c0.171,2.773,2.004,5.325,4.713,5.947
	c9.191,2.111,11.697,3.906,11.697,3.906s-0.647-2.557,2.307-12.705c0.788-2.706-0.598-5.587-2.995-7.068l-2.168-1.339l2.453,1.204
	c2.4,1.401,5.54,1.299,7.564-0.605c6.869-6.461,9.756-7.544,9.756-7.544S1018.216,1030.236,1011.429,1022.134z M999.057,1034.315
	c-1.024,0.963-2.613,1.015-3.827,0.306l-1.241-0.609l1.097,0.677c1.213,0.749,1.914,2.207,1.516,3.576
	c-1.494,5.135-1.167,6.429-1.167,6.429s-1.268-0.909-5.918-1.977c-1.37-0.315-2.298-1.606-2.385-3.009l-0.336-2.503l-0.015,2.278
	c-0.009,1.426-0.89,2.783-2.266,3.154c-5.163,1.394-6.098,2.346-6.098,2.346s0.117-1.555-1.39-6.083
	c-0.444-1.334,0.177-2.798,1.33-3.602l0.49-0.342c-1.203,0.601-2.703,0.492-3.669-0.451c-3.828-3.734-5.124-4.054-5.124-4.054
	s1.398-0.691,4.528-4.293c0.922-1.061,2.498-1.273,3.777-0.689l2.687,1.226l-2.344-1.661c-1.218-0.741-1.929-2.194-1.54-3.566
	c1.459-5.145,1.123-6.437,1.123-6.437s1.274,0.9,5.932,1.936c1.372,0.305,2.309,1.59,2.405,2.993l0.2,2.907l0.273-2.826
	c0.041-1.425,0.951-2.762,2.336-3.103c5.193-1.279,6.148-2.211,6.148-2.211s-0.151,1.553,1.254,6.112
	c0.414,1.343-0.239,2.793-1.41,3.571l-2.851,2.134l2.915-1.327c1.298-0.591,2.899-0.362,3.815,0.731
	c3.434,4.1,4.691,4.548,4.691,4.548S1002.533,1031.046,999.057,1034.315z M313.458,1061.563c-2.246-2.682-6.174-3.243-9.357-1.794
	l-7.15,3.255l6.994-5.234c2.873-1.908,4.474-5.465,3.458-8.76c-3.448-11.186-3.077-14.994-3.077-14.994s-2.345,2.285-15.082,5.422
	c-3.397,0.837-5.629,4.116-5.73,7.613l-0.671,6.933l-0.49-7.131c-0.237-3.441-2.534-6.593-5.901-7.341
	c-11.426-2.54-14.551-4.747-14.551-4.747s0.824,3.168-2.754,15.789c-0.954,3.365,0.79,6.929,3.779,8.746l5.75,4.076l-6.591-3.007
	c-3.138-1.432-7.003-0.914-9.266,1.69c-7.677,8.835-11.107,10.531-11.107,10.531s3.179,0.785,12.569,9.944
	c2.371,2.313,6.05,2.58,9,1.106l-1.202,0.838c-2.83,1.972-4.352,5.563-3.263,8.835c3.695,11.106,3.409,14.922,3.409,14.922
	s2.294-2.336,14.958-5.756c3.377-0.912,5.537-4.24,5.559-7.738l0.036-5.589l0.823,6.14c0.213,3.442,2.488,6.61,5.849,7.382
	c11.408,2.62,14.518,4.849,14.518,4.849s-0.802-3.174,2.863-15.77c0.978-3.359-0.742-6.934-3.718-8.773l-2.69-1.662l3.044,1.495
	c2.978,1.739,6.876,1.612,9.388-0.751c8.526-8.019,12.109-9.363,12.109-9.363S321.882,1071.619,313.458,1061.563z M298.104,1076.681
	c-1.271,1.196-3.243,1.26-4.75,0.38l-1.54-0.756l1.361,0.841c1.506,0.93,2.376,2.739,1.881,4.438
	c-1.855,6.373-1.449,7.979-1.449,7.979s-1.574-1.128-7.346-2.454c-1.701-0.39-2.852-1.993-2.959-3.735l-0.416-3.107l-0.018,2.828
	c-0.011,1.77-1.104,3.454-2.813,3.915c-6.408,1.73-7.569,2.912-7.569,2.912s0.145-1.93-1.725-7.549
	c-0.551-1.656,0.219-3.473,1.651-4.47l0.608-0.424c-1.492,0.745-3.354,0.61-4.554-0.56c-4.752-4.635-6.36-5.032-6.36-5.032
	s1.735-0.858,5.62-5.329c1.145-1.317,3.1-1.579,4.688-0.855l3.335,1.522l-2.91-2.062c-1.512-0.92-2.395-2.723-1.912-4.426
	c1.81-6.386,1.393-7.989,1.393-7.989s1.581,1.117,7.362,2.402c1.704,0.379,2.866,1.974,2.985,3.715l0.248,3.608l0.339-3.508
	c0.051-1.769,1.181-3.429,2.899-3.852c6.445-1.588,7.631-2.743,7.631-2.743s-0.188,1.927,1.557,7.586
	c0.514,1.668-0.296,3.467-1.75,4.432l-3.539,2.649l3.618-1.647c1.611-0.733,3.598-0.449,4.735,0.908
	c4.262,5.088,5.823,5.645,5.823,5.645S302.418,1072.624,298.104,1076.681z M919.835,1071.26c-0.615-0.734-1.69-0.888-2.561-0.49
	l-1.957,0.89l1.914-1.432c0.786-0.522,1.224-1.495,0.946-2.397c-0.944-3.061-0.842-4.103-0.842-4.103s-0.642,0.626-4.127,1.484
	c-0.929,0.229-1.541,1.126-1.568,2.083l-0.184,1.897l-0.134-1.951c-0.065-0.942-0.693-1.804-1.615-2.009
	c-3.127-0.695-3.982-1.299-3.982-1.299s0.226,0.867-0.754,4.321c-0.261,0.921,0.216,1.896,1.034,2.393l1.574,1.116l-1.804-0.823
	c-0.859-0.392-1.917-0.25-2.536,0.462c-2.101,2.418-3.04,2.882-3.04,2.882s0.87,0.215,3.44,2.721
	c0.649,0.633,1.656,0.706,2.463,0.303l-0.329,0.229c-0.774,0.54-1.191,1.522-0.893,2.418c1.011,3.039,0.933,4.084,0.933,4.084
	s0.628-0.639,4.094-1.575c0.924-0.249,1.515-1.16,1.521-2.118l0.01-1.529l0.225,1.68c0.058,0.942,0.681,1.809,1.601,2.02
	c3.122,0.717,3.973,1.327,3.973,1.327s-0.22-0.869,0.784-4.316c0.268-0.919-0.203-1.897-1.018-2.401l-0.736-0.455l0.833,0.409
	c0.815,0.476,1.882,0.441,2.569-0.206c2.333-2.195,3.314-2.563,3.314-2.563S922.14,1074.012,919.835,1071.26z M609.514,916.781
	c-0.728-0.837-1.971-1.004-2.98-0.543l-2.12,0.967l1.849-1.311c0.961-0.585,1.522-1.731,1.215-2.813
	c-1.151-4.059-0.885-5.078-0.885-5.078s-1.005,0.71-4.68,1.527c-1.083,0.241-1.821,1.254-1.897,2.361l-0.158,2.293l-0.216-2.23
	c-0.032-1.124-0.75-2.179-1.843-2.448c-4.096-1.009-4.85-1.744-4.85-1.744s0.119,1.225-0.99,4.822
	c-0.327,1.06,0.188,2.203,1.112,2.817l2.249,1.683l-2.299-1.046c-1.024-0.466-2.287-0.286-3.009,0.577
	c-2.709,3.234-3.701,3.588-3.701,3.588s1.152,0.432,3.894,3.011c0.808,0.76,2.062,0.801,3.019,0.242l0.979-0.481l-0.865,0.535
	c-0.957,0.591-1.51,1.741-1.196,2.821c1.179,4.051,0.921,5.071,0.921,5.071s1-0.717,4.669-1.559
	c1.081-0.248,1.813-1.267,1.881-2.374l0.265-1.974l0.012,1.797c0.007,1.125,0.702,2.195,1.788,2.488
	c4.073,1.1,4.81,1.851,4.81,1.851s-0.092-1.227,1.096-4.799c0.35-1.052-0.139-2.207-1.049-2.841l-0.387-0.27
	c0.949,0.474,2.132,0.388,2.894-0.356c3.02-2.946,4.042-3.198,4.042-3.198S611.983,919.622,609.514,916.781z M993.6,1027.744
	c-0.495-0.591-1.361-0.715-2.063-0.395l-1.577,0.717l1.542-1.154c0.633-0.421,0.987-1.205,0.763-1.932
	c-0.76-2.466-0.678-3.306-0.678-3.306s-0.517,0.504-3.326,1.195c-0.749,0.185-1.241,0.908-1.263,1.679l-0.148,1.529l-0.108-1.573
	c-0.052-0.758-0.559-1.453-1.301-1.618c-2.519-0.561-3.208-1.047-3.208-1.047s0.182,0.699-0.607,3.481
	c-0.21,0.742,0.174,1.528,0.833,1.929l1.268,0.899l-1.453-0.663c-0.692-0.316-1.544-0.202-2.043,0.372
	c-1.693,1.948-2.449,2.322-2.449,2.322s0.701,0.173,2.772,2.193c0.523,0.51,1.334,0.569,1.984,0.244l-0.265,0.185
	c-0.624,0.435-0.96,1.227-0.719,1.948c0.815,2.449,0.752,3.291,0.752,3.291s0.506-0.515,3.298-1.269
	c0.745-0.201,1.221-0.935,1.226-1.706l0.008-1.232l0.182,1.354c0.047,0.759,0.549,1.457,1.29,1.628
	c2.516,0.578,3.201,1.069,3.201,1.069s-0.177-0.7,0.631-3.477c0.216-0.741-0.164-1.529-0.82-1.934l-0.593-0.367l0.671,0.33
	c0.657,0.384,1.516,0.356,2.07-0.165c1.88-1.768,2.67-2.065,2.67-2.065S995.458,1029.962,993.6,1027.744z M453.004,780.636
	l-0.375,0.261c-0.883,0.615-1.358,1.735-1.018,2.756c1.153,3.464,1.063,4.655,1.063,4.655s0.715-0.729,4.666-1.796
	c1.053-0.284,1.727-1.322,1.734-2.413l0.011-1.743l0.257,1.915c0.066,1.074,0.776,2.062,1.825,2.303
	c3.558,0.817,4.529,1.513,4.529,1.513s-0.25-0.99,0.893-4.919c0.305-1.048-0.231-2.163-1.16-2.736l-0.839-0.518l0.949,0.466
	c0.929,0.543,2.145,0.503,2.929-0.234c2.659-2.501,3.777-2.92,3.777-2.92s-0.962-0.343-3.59-3.48
	c-0.701-0.836-1.926-1.012-2.919-0.56l-2.23,1.015l2.182-1.632c0.896-0.595,1.396-1.705,1.079-2.733
	c-1.076-3.489-0.96-4.677-0.96-4.677s-0.732,0.713-4.705,1.691c-1.059,0.261-1.756,1.284-1.787,2.374l-0.209,2.163l-0.153-2.224
	c-0.074-1.073-0.79-2.057-1.84-2.29c-3.564-0.792-4.539-1.481-4.539-1.481s0.257,0.989-0.859,4.925
	c-0.298,1.05,0.247,2.161,1.179,2.728l1.794,1.272l-2.056-0.938c-0.979-0.446-2.185-0.285-2.89,0.527
	c-2.395,2.756-3.465,3.285-3.465,3.285s0.991,0.245,3.921,3.102C450.936,781.012,452.084,781.095,453.004,780.636z M255.913,662.565
	l-0.329,0.229c-0.774,0.54-1.191,1.522-0.893,2.418c1.012,3.04,0.933,4.084,0.933,4.084s0.628-0.639,4.094-1.575
	c0.924-0.25,1.515-1.161,1.521-2.117l0.01-1.53l0.225,1.68c0.058,0.942,0.681,1.809,1.601,2.02c3.122,0.717,3.973,1.327,3.973,1.327
	s-0.22-0.869,0.783-4.316c0.268-0.919-0.203-1.898-1.017-2.401l-0.736-0.455l0.833,0.409c0.815,0.476,1.882,0.441,2.569-0.206
	c2.333-2.195,3.314-2.562,3.314-2.562s-0.844-0.301-3.149-3.053c-0.615-0.734-1.69-0.888-2.561-0.491l-1.957,0.891l1.914-1.432
	c0.786-0.522,1.225-1.495,0.946-2.397c-0.944-3.061-0.842-4.103-0.842-4.103s-0.642,0.625-4.128,1.484
	c-0.929,0.229-1.541,1.126-1.568,2.083l-0.184,1.898l-0.134-1.952c-0.065-0.942-0.693-1.804-1.615-2.009
	c-3.127-0.695-3.982-1.299-3.982-1.299s0.226,0.867-0.754,4.321c-0.261,0.921,0.216,1.896,1.034,2.394l1.574,1.115l-1.804-0.823
	c-0.859-0.392-1.917-0.25-2.536,0.462c-2.101,2.418-3.04,2.882-3.04,2.882s0.87,0.215,3.44,2.722
	C254.099,662.895,255.106,662.968,255.913,662.565z M424.762,766.393c-8.751,10.07-12.66,12.003-12.66,12.003
	s3.623,0.895,14.327,11.335c2.703,2.636,6.896,2.94,10.258,1.261l-1.37,0.956c-3.225,2.247-4.96,6.34-3.719,10.07
	c4.212,12.659,3.886,17.008,3.886,17.008s2.615-2.663,17.049-6.561c3.849-1.039,6.311-4.833,6.336-8.819l0.041-6.37l0.938,6.999
	c0.242,3.924,2.836,7.534,6.667,8.413c13.003,2.986,16.547,5.527,16.547,5.527s-0.915-3.618,3.264-17.974
	c1.114-3.828-0.846-7.903-4.238-9.999l-3.066-1.894l3.47,1.703c3.395,1.983,7.837,1.838,10.701-0.856
	c9.718-9.141,13.801-10.672,13.801-10.672s-3.515-1.254-13.116-12.716c-2.56-3.056-7.037-3.696-10.666-2.044l-8.149,3.709
	l7.971-5.966c3.274-2.175,5.1-6.229,3.942-9.985c-3.93-12.749-3.507-17.09-3.507-17.09s-2.673,2.604-17.191,6.18
	c-3.871,0.954-6.416,4.691-6.53,8.677l-0.765,7.903l-0.558-8.128c-0.27-3.922-2.888-7.514-6.725-8.367
	c-13.023-2.895-16.585-5.412-16.585-5.412s0.94,3.612-3.139,17.997c-1.088,3.836,0.901,7.898,4.307,9.969l6.554,4.645l-7.513-3.427
	C431.746,762.835,427.341,763.426,424.762,766.393z M441.752,771.501c1.305-1.501,3.534-1.8,5.343-0.974l3.801,1.734l-3.316-2.351
	c-1.724-1.048-2.73-3.103-2.179-5.044c2.064-7.279,1.588-9.106,1.588-9.106s1.802,1.273,8.392,2.738
	c1.942,0.432,3.266,2.249,3.403,4.234l0.283,4.113l0.387-3.999c0.058-2.016,1.345-3.908,3.304-4.39
	c7.346-1.81,8.698-3.127,8.698-3.127s-0.214,2.196,1.774,8.647c0.586,1.901-0.338,3.952-1.994,5.052l-4.033,3.018l4.123-1.877
	c1.836-0.836,4.101-0.513,5.397,1.034c4.858,5.799,6.637,6.434,6.637,6.434s-2.066,0.774-6.983,5.399
	c-1.449,1.363-3.697,1.436-5.414,0.433l-1.756-0.862l1.552,0.959c1.716,1.06,2.708,3.122,2.144,5.059
	c-2.114,7.263-1.651,9.094-1.651,9.094s-1.793-1.286-8.372-2.797c-1.939-0.445-3.251-2.272-3.373-4.257l-0.475-3.541l-0.021,3.223
	c-0.013,2.017-1.258,3.937-3.206,4.462c-7.304,1.972-8.627,3.32-8.627,3.32s0.165-2.201-1.966-8.605
	c-0.628-1.888,0.25-3.959,1.882-5.096l0.693-0.483c-1.701,0.85-3.823,0.696-5.19-0.638c-5.416-5.282-7.249-5.735-7.249-5.735
	S437.324,776.597,441.752,771.501z M411.175,928.122c19.73-14.032,38.163-23.452,56.309-28.741l2.514-0.734
	c9.771-2.859,19.876-5.816,30.044-6.785c3.1-0.294,6.182-0.672,9.238-1.068c1.587-0.006,3.239-0.023,5.025-0.056
	c1.015-0.019,3.342-0.216,5.088-1.506c1.012-0.366,1.949-0.972,2.556-1.963c0.24,0.294,0.629,0.453,1.072,0.221
	c0.924-0.485,0.33-1.829-0.545-1.711c0.108-0.774,0.035-1.752-0.65-2.897c-0.937-1.564-2.514-2.065-4.145-2.135
	c-0.944-0.329-2.074-0.539-3.453-0.553c-14.17-0.125-25.576-2.13-34.869-6.129c-7.58-3.259-17.659-10.584-21.117-20.492
	c-2.488-7.127,3.007-14.348,9.755-17.209c4.953-2.103,11.382-2.101,14.566,4.22c0.271,0.542,0.326,0.71,0.331,0.686
	c-0.005,0.035-0.039,0.19-0.235,0.635c-1.435,3.265-0.471,5.555,0.593,6.903c1.325,1.679,3.136,2.52,5.13,2.378
	c2.946-0.214,5.275-2.512,6.373-4.415c4.258-7.367-2.198-16.536-7.903-20.412c-5.48-3.721-12.217-5.066-18.979-3.78
	c-10.123,1.925-19.158,9.182-23.015,18.49c-2.083,5.029-2.535,10.552-1.269,15.557c0.861,3.403,2.34,6.655,4.521,9.946
	c1.758,2.651,3.985,5.328,6.809,8.179c4.931,4.973,11.219,8.734,18.591,11.339c-8.301,2.139-17.415,4.797-26.451,8.398
	c-7.812,3.111-15.21,6.833-22.261,10.853c-10.228,0.371-20.545-1.473-29.976-5.432c-6.306-2.648-10.901-5.752-14.05-9.489
	c-4.526-5.373-5.287-15.002-1.659-21.029c1.744-2.899,5.22-6.054,11.806-4.634c3.872,0.836,7.14,3.999,7.773,7.519
	c0.075,0.414,0.123,0.825,0.172,1.233c0.232,1.949,0.551,4.615,3.267,6.476c1.534,1.052,3.474,1.457,5.319,1.097
	c1.843-0.352,3.425-1.393,4.454-2.926c3.995-5.947-1.356-14.433-2.469-16.072c-2.86-4.215-7.241-7.458-12.667-9.38
	c-7.73-2.736-16.031-1.519-22.779,3.339c-6.748,4.861-10.688,12.69-10.54,20.949c0.099,5.453,1.596,10.926,4.451,16.269
	c7.496,14.007,25.795,19.948,41.905,21.405c-8.162,5.5-15.75,11.214-22.678,16.67c-9.882,7.781-18.211,13.178-26.217,16.982
	c-11.262,5.352-20.829,7.965-29.249,7.987h-0.073c-8.992,0-17.509-4.004-23.377-10.995c-2.441-2.91-5.319-7.413-5.161-12.359
	c0.119-3.79,2.074-7.666,5.503-10.912c3.119-2.95,6.875-4.655,11.163-5.074c3.688-0.355,9.104,0.358,12.197,3.553
	c0.467,0.483,1.02,1.239,1.604,2.037c2.118,2.896,6.065,8.275,11.9,4.823c2.547-1.505,3.282-3.51,3.45-4.925
	c0.486-4.079-3.1-8.091-5.84-10.755c-7.076-6.879-18.528-9.383-29.88-6.54c-11.242,2.816-19.813,12.177-21.836,23.848
	c-0.945,5.448-0.016,10.578,2.92,16.144c5.521,10.482,14.452,17.938,25.142,20.997c3.913,1.121,8.011,1.682,12.339,1.682
	c6.121,0,12.701-1.121,19.857-3.374c10.731-3.375,20.478-8.105,29.129-13.963c-5.064,10.44-7.821,21.575-7.908,32.68
	c-0.021,2.755,0.067,5.643,0.159,8.595c0.475,15.381,0.968,31.284-13.468,38.78c-5.875,3.051-11.561,3.433-16.897,1.148
	c-4.933-2.12-8.003-6.551-8.011-11.569c-0.005-2.544,0.833-5.128,2.36-7.282c0.533-0.75,1.349-1.481,2.214-2.256
	c1.58-1.412,3.37-3.014,4.239-5.443c0.778-2.175,0.364-4.383-1.106-5.91c-1.602-1.66-4.112-2.21-6.538-1.441
	c-3.345,1.065-6.43,3.745-8.2,5.899c-4.523,5.493-6.878,12.898-6.3,19.806c0.266,3.158,1.377,6.473,3.215,9.585
	c3.824,6.462,11.808,9.973,17.485,11.016l0.854,0.16c2.28,0.424,4.615,0.859,7.067,0.859c0.849,0,1.711-0.053,2.589-0.176
	c2.97-0.419,6.002-1.335,9.828-2.968c12.56-5.355,20.919-17.743,22.933-33.988c0.634-5.101,0.307-10.186-0.008-15.103
	c-0.111-1.743-0.223-3.483-0.292-5.221c-0.806-20.442,8.774-42.733,25.004-58.178C410.207,929.215,410.696,928.738,411.175,928.122z
	 M633.549,933.098c11.035-10.763,14.77-11.686,14.77-11.686s-4.03-1.993-13.052-12.375c-2.658-3.059-7.201-3.668-10.888-1.986
	l-7.746,3.534l6.757-4.789c3.512-2.136,5.562-6.323,4.441-10.278c-4.205-14.83-3.236-18.554-3.236-18.554s-3.672,2.594-17.099,5.58
	c-3.956,0.88-6.656,4.583-6.934,8.626l-0.576,8.38l-0.788-8.147c-0.118-4.109-2.742-7.963-6.733-8.946
	c-14.968-3.686-17.724-6.371-17.724-6.371s0.436,4.475-3.616,17.619c-1.194,3.873,0.688,8.052,4.064,10.295l8.219,6.15l-8.402-3.824
	c-3.741-1.703-8.357-1.043-10.996,2.107c-9.899,11.817-13.523,13.11-13.523,13.11s4.21,1.578,14.229,11.002
	c2.952,2.777,7.532,2.926,11.032,0.882l3.577-1.756l-3.161,1.953c-3.497,2.16-5.518,6.362-4.369,10.308
	c4.308,14.801,3.365,18.531,3.365,18.531s3.654-2.619,17.06-5.698c3.95-0.907,6.624-4.629,6.873-8.674l0.967-7.216l0.042,6.568
	c0.027,4.11,2.564,8.022,6.533,9.093c14.882,4.018,17.578,6.763,17.578,6.763s-0.337-4.483,4.006-17.534
	c1.279-3.845-0.509-8.065-3.834-10.382l-1.413-0.985C626.439,936.129,630.762,935.816,633.549,933.098z M616.881,926.478
	c-1.41,1.375-3.597,1.534-5.351,0.658l0.715,0.498c1.682,1.173,2.588,3.307,1.94,5.253c-2.197,6.603-2.027,8.872-2.027,8.872
	s-1.364-1.389-8.894-3.422c-2.008-0.542-3.292-2.521-3.305-4.601l-0.021-3.323l-0.489,3.651c-0.126,2.047-1.479,3.931-3.478,4.389
	c-6.783,1.558-8.632,2.883-8.632,2.883s0.477-1.888-1.703-9.376c-0.581-1.997,0.441-4.123,2.211-5.216l1.6-0.988l-1.81,0.889
	c-1.771,1.034-4.088,0.958-5.582-0.446c-5.069-4.768-7.199-5.567-7.199-5.567s1.834-0.654,6.842-6.633
	c1.336-1.594,3.671-1.928,5.564-1.066l4.251,1.935l-4.158-3.112c-1.708-1.135-2.66-3.249-2.056-5.209
	c2.05-6.651,1.829-8.915,1.829-8.915s1.395,1.358,8.968,3.224c2.019,0.497,3.347,2.448,3.407,4.526l0.399,4.122l0.291-4.24
	c0.141-2.046,1.506-3.92,3.508-4.365c6.794-1.51,8.652-2.822,8.652-2.822s-0.49,1.884,1.637,9.387
	c0.567,2.001-0.47,4.12-2.247,5.201l-3.419,2.423l3.919-1.788c1.866-0.851,4.164-0.543,5.509,1.005
	c4.565,5.253,6.604,6.262,6.604,6.262S622.465,921.032,616.881,926.478z M221.42,1027.744c-0.495-0.591-1.361-0.715-2.063-0.395
	l-1.577,0.717l1.542-1.154c0.633-0.421,0.986-1.205,0.763-1.932c-0.76-2.466-0.679-3.306-0.679-3.306s-0.517,0.504-3.326,1.195
	c-0.749,0.185-1.241,0.908-1.263,1.679l-0.148,1.529l-0.108-1.573c-0.052-0.758-0.559-1.453-1.301-1.618
	c-2.519-0.561-3.208-1.047-3.208-1.047s0.182,0.699-0.607,3.481c-0.21,0.742,0.174,1.528,0.833,1.929l1.268,0.899l-1.453-0.663
	c-0.692-0.316-1.544-0.202-2.043,0.372c-1.693,1.948-2.449,2.322-2.449,2.322s0.701,0.173,2.772,2.193
	c0.523,0.51,1.334,0.569,1.984,0.244l-0.265,0.185c-0.624,0.435-0.96,1.227-0.719,1.948c0.815,2.449,0.752,3.291,0.752,3.291
	s0.506-0.515,3.298-1.269c0.745-0.201,1.221-0.935,1.226-1.706l0.008-1.232l0.182,1.354c0.047,0.759,0.549,1.457,1.29,1.628
	c2.516,0.578,3.201,1.069,3.201,1.069s-0.177-0.7,0.631-3.477c0.216-0.741-0.164-1.529-0.82-1.934l-0.593-0.367l0.671,0.33
	c0.657,0.384,1.516,0.356,2.07-0.165c1.88-1.768,2.67-2.065,2.67-2.065S223.277,1029.962,221.42,1027.744z M239.249,1022.134
	c-1.81-2.16-4.974-2.613-7.539-1.445l-5.761,2.622l5.635-4.217c2.315-1.538,3.605-4.403,2.787-7.058
	c-2.778-9.012-2.479-12.081-2.479-12.081s-1.89,1.841-12.152,4.369c-2.737,0.674-4.536,3.316-4.616,6.134l-0.54,5.586l-0.395-5.745
	c-0.191-2.772-2.042-5.312-4.754-5.915c-9.206-2.047-11.724-3.825-11.724-3.825s0.664,2.553-2.219,12.721
	c-0.769,2.711,0.637,5.583,3.045,7.047l4.633,3.284l-5.311-2.423c-2.528-1.154-5.642-0.736-7.465,1.361
	c-6.186,7.118-8.949,8.485-8.949,8.485s2.561,0.633,10.127,8.012c1.911,1.864,4.875,2.078,7.252,0.891l-0.969,0.675
	c-2.28,1.589-3.506,4.482-2.629,7.118c2.977,8.948,2.747,12.023,2.747,12.023s1.848-1.883,12.052-4.638
	c2.721-0.735,4.461-3.416,4.479-6.234l0.029-4.503l0.663,4.948c0.171,2.773,2.004,5.325,4.713,5.947
	c9.191,2.111,11.697,3.906,11.697,3.906s-0.647-2.557,2.307-12.705c0.788-2.706-0.598-5.587-2.995-7.068l-2.168-1.339l2.453,1.204
	c2.4,1.401,5.54,1.299,7.564-0.605c6.869-6.461,9.756-7.544,9.756-7.544S246.036,1030.236,239.249,1022.134z M226.877,1034.315
	c-1.024,0.963-2.613,1.015-3.827,0.306l-1.241-0.609l1.097,0.677c1.213,0.749,1.914,2.207,1.516,3.576
	c-1.494,5.135-1.167,6.429-1.167,6.429s-1.268-0.909-5.918-1.977c-1.37-0.315-2.298-1.606-2.385-3.009l-0.335-2.503l-0.015,2.278
	c-0.009,1.426-0.89,2.783-2.266,3.154c-5.163,1.394-6.098,2.346-6.098,2.346s0.117-1.555-1.39-6.083
	c-0.444-1.334,0.177-2.798,1.33-3.602l0.49-0.342c-1.203,0.601-2.703,0.492-3.669-0.451c-3.828-3.734-5.124-4.054-5.124-4.054
	s1.398-0.691,4.528-4.293c0.922-1.061,2.498-1.273,3.777-0.689l2.687,1.226l-2.344-1.661c-1.218-0.741-1.929-2.194-1.54-3.566
	c1.459-5.145,1.123-6.437,1.123-6.437s1.274,0.9,5.932,1.936c1.373,0.305,2.309,1.59,2.405,2.993l0.2,2.907l0.273-2.826
	c0.041-1.425,0.951-2.762,2.336-3.103c5.192-1.279,6.148-2.211,6.148-2.211s-0.151,1.553,1.254,6.112
	c0.414,1.343-0.239,2.793-1.41,3.571l-2.851,2.134l2.915-1.327c1.298-0.591,2.899-0.362,3.815,0.731
	c3.434,4.1,4.691,4.548,4.691,4.548S230.353,1031.046,226.877,1034.315z M291.331,1068.526c-0.615-0.734-1.69-0.888-2.561-0.49
	l-1.957,0.89l1.914-1.432c0.786-0.522,1.224-1.495,0.946-2.397c-0.944-3.061-0.842-4.103-0.842-4.103s-0.642,0.626-4.127,1.484
	c-0.929,0.229-1.541,1.126-1.568,2.083l-0.184,1.897l-0.134-1.951c-0.065-0.942-0.693-1.804-1.615-2.009
	c-3.127-0.695-3.982-1.299-3.982-1.299s0.226,0.868-0.754,4.321c-0.261,0.921,0.216,1.896,1.034,2.393l1.574,1.116l-1.804-0.823
	c-0.859-0.392-1.917-0.25-2.536,0.462c-2.101,2.418-3.04,2.882-3.04,2.882s0.87,0.215,3.44,2.721
	c0.649,0.633,1.656,0.706,2.463,0.303l-0.329,0.229c-0.774,0.54-1.191,1.522-0.893,2.418c1.011,3.039,0.933,4.084,0.933,4.084
	s0.628-0.639,4.094-1.575c0.924-0.249,1.515-1.16,1.521-2.118l0.01-1.529l0.225,1.68c0.058,0.942,0.681,1.809,1.601,2.02
	c3.122,0.717,3.973,1.327,3.973,1.327s-0.22-0.869,0.784-4.316c0.268-0.919-0.203-1.897-1.018-2.401l-0.736-0.455l0.833,0.409
	c0.815,0.476,1.882,0.441,2.569-0.205c2.333-2.195,3.314-2.563,3.314-2.563S293.636,1071.278,291.331,1068.526z M226.134,818.888
	c8.802,2.72,16.962,3.131,24.257,1.241c8.83-2.293,16.771-8.262,21.788-16.374c4.448-7.194,6.013-15.343,4.288-22.358
	c-0.316-1.289-0.84-2.944-2.094-4.298c-1.989-2.138-5.264-2.891-8.988-2.047c-7.768,1.738-13.056,7.73-16.123,12.452
	c-2.376,3.654-4.181,7.594-5.929,11.406c-0.864,1.885-1.727,3.769-2.659,5.616c-0.522,1.036-1.09,2.087-1.802,2.563
	c-1.032,0.694-2.871,0.481-4.16,0.267c-12.247-2.039-22.111-9.906-27.063-21.584c-5.331-12.573-3.897-27.262,3.738-38.331
	c1.48-2.143,3.171-4.132,5.026-5.913c6.543-6.273,12.729-10.797,18.388-13.451c7.35-3.443,15.861-5.622,23.965-6.131
	c7.103-0.448,14.768-0.157,24.857,0.94l0.845,0.091c7.534,0.817,15.325,1.66,22.663,3.198c11.543,2.421,24.546,4.012,40.915,5.013
	c5.091,0.311,10.291,0.442,15.541,0.473c-1.9,1.938-3.904,3.819-5.93,5.536c-9.323,7.373-19.701,13.883-29.739,20.18
	c-4.9,3.072-9.966,6.252-14.853,9.495c-11.238,7.455-25.491,17.756-36.045,31.362c-10.992,14.171-16.543,30.297-15.629,45.405
	c1.062,17.577,11.642,33.511,26.327,39.647c4.37,1.826,8.994,2.685,13.572,2.685c12.703-0.003,25.036-6.625,30.456-17.65
	c1.658-3.374,3.259-8.438,1.468-13.395c-1.7-4.717-7.331-8.646-12.658-6.751c-3.932,1.399-5.75,4.952-7.354,8.088
	c-0.492,0.961-0.98,1.922-1.535,2.8c-3.686,5.838-12.444,8.312-19.522,5.515c-6.704-2.651-11.936-9.343-13.656-17.46
	c-1.488-7.023-0.503-15.207,2.851-23.666c8.276-20.879,27.174-36.185,44.567-48.405c3.007-2.111,6.067-4.196,9.138-6.286
	c15.57-10.601,31.598-21.526,42.284-37.298c3.484-0.137,6.988-0.327,10.511-0.582c-16.354,10.117-30.214,24.013-39.069,39.434
	c-4.837,8.422-10.313,21.232-8.934,34.445c0.587,5.627,2.406,11.256,4.107,16.021c2.178,6.105,5.409,11.003,10.474,15.88
	c2.89,2.781,5.612,4.925,9.511,6.34c3.961,1.441,7.842,2.141,11.971,2.141c1.323,0,2.671-0.072,4.053-0.214
	c11.523-1.185,24.462-7.832,27.39-20.017c1.555-6.465,1.11-11.742-1.397-16.614c-2.304-4.468-7.195-5.576-14.532-3.289
	c-5.299,1.655-9.684,5.291-12.681,10.514c-1.18,2.053-2.01,4.234-2.813,6.342c-0.904,2.373-1.758,4.613-3.019,6.478
	c-0.392,0.579-0.856,1.105-1.319,1.623c-0.208,0.232-0.388,0.448-0.551,0.651c-1.089-0.302-2.418-0.782-3.637-1.316
	c-3.195-1.399-7.204-5.953-8.946-9.327c-5.06-9.812-6.09-20.799-2.9-30.937c5.427-17.257,19.044-33.551,40.472-48.429
	c6.799-4.719,14.385-8.139,22.881-11.806c4.456-1.922,9.311-2.442,14.45-2.992c1.994-0.214,3.987-0.427,5.955-0.723
	c17.674-2.659,44.953-13.784,50.267-30.203c1.767-5.459,3.188-13.624-0.071-21.515c-2.304-5.574-6.597-10.603-12.418-14.545
	c-10.07-6.817-22.651-8.625-32.825-4.719c-7.941,3.048-13.798,9.452-15.284,16.71c-1.754,8.582,3.367,17.628,11.183,19.756
	c7.172,1.951,15.267-2.341,17.667-9.377c1.739-5.098,0.236-10.88-3.335-14.761c5.014-0.715,10.707,0.828,15.167,4.348
	c5.094,4.02,7.992,10.087,7.382,15.461c-0.984,8.665-10.065,14.425-15.391,17.086c-16.188,8.096-38.019,12.604-64.887,13.403
	c-22.867,0.681-42.823-3.494-57.748-12.079c-6.84-3.935-12.328-9.158-15.872-15.108c-1.563-2.624-3.654-6.46-3.774-9.444
	c-0.071-1.778,0.681-3.916,1.408-5.985c0.383-1.089,0.758-2.167,1.028-3.16c0.781-2.629,2.753-4.674,5.136-6.785
	c1.082,1.11,2.406,2.442,3.953,3.539c5.958,4.218,12.247,4.111,18.337,4.004c1.347-0.024,2.708-0.051,4.084-0.024
	c2.886,0.048,6.111,0.374,8.159,2.413c0.188,0.187,0.36,0.382,0.529,0.569c0.916,1.017,2.297,2.555,4.917,2.555h0.02
	c3.022-0.005,5.622-2.261,6.049-5.251c0.431-3.043-0.934-6.169-1.93-8.454l-0.172-0.395c-1.648-3.796-3.351-7.722-6.39-10.96
	c-4.956-5.291-12.539-7.997-22.54-8.048h-0.143c-7.489,0-16.511,3.144-22.498,7.85h-0.001c-7.163,5.63-11.7,13.702-12.771,22.729
	c-1.142,9.607,1.755,19.617,7.947,27.462c4.21,5.333,9.723,9.874,16.667,13.704c-6.368-0.798-12.742-1.767-18.947-3.04
	c-12.021-2.472-25.001-3.94-39.678-4.484c-17.632-0.667-32.008,2.063-43.97,8.334c-6.623,3.467-12.527,8.408-17.541,12.767
	c-6.254,5.437-11.086,11.961-14.357,19.387c-8.331,18.915-5.307,42.682,7.19,56.509
	C209.321,811.387,217.026,816.075,226.134,818.888z M180.491,993.16c-2.988-3.19-7.064-5.05-11.789-5.384
	c-1.84-0.131-3.628,0.024-5.353,0.176c-1.875,0.165-3.645,0.32-5.267,0.083c-0.492-0.069-0.976-0.206-1.448-0.342
	c-0.079-0.021-0.153-0.043-0.227-0.061c-0.112-0.731-0.194-1.586-0.224-2.4c-0.095-2.464,1.65-6.591,3.274-8.753
	c4.913-6.548,11.908-10.787,19.696-11.932c13.412-1.97,28.866,1.903,45.947,11.526c5.424,3.054,10.225,7.071,15.493,11.625
	c2.707,2.338,4.638,5.435,6.684,8.715c0.807,1.295,1.615,2.589,2.47,3.839c7.306,10.677,22.727,24.731,35.554,24.731
	c0.763,0,1.518-0.051,2.26-0.155c4.415-0.611,10.609-2.384,15.048-7.365c3.127-3.508,5.193-8.216,5.977-13.611
	c1.353-9.327-1.643-18.72-7.818-24.51c-4.861-4.562-11.397-6.502-17.053-5.061c-6.753,1.716-11.454,8.544-10.265,14.905
	c1.098,5.867,7.044,10.213,12.958,9.484c3.854-0.472,7.192-3.03,8.958-6.396c1.567,2.904,2.107,6.633,1.316,10.221
	c-1.012,4.583-4.024,8.371-7.674,9.655c-5.934,2.077-12.638-2.082-16.103-4.751c-10.784-8.304-21.001-21.624-30.369-39.586
	c-7.949-15.245-11.668-30.113-10.753-42.997c0.415-5.848,2.127-11.203,4.953-15.49c0.71-1.076,2.87-4.356,4.95-5.467
	c1.078-0.577,2.648-0.755,4.31-0.942c0.884-0.101,1.758-0.203,2.525-0.347c1.682-0.272,3.409,0.208,5.371,0.985
	c-0.352,1.004-0.718,2.159-0.921,3.374c-0.946,5.67,1.256,10.023,3.385,14.233c0.456,0.902,0.918,1.815,1.353,2.755
	c1.224,2.64,1.53,4.391,1.022,5.859c-0.061,0.179-0.132,0.35-0.2,0.513c-0.41,1.006-1.097,2.691-0.095,4.749
	c1.145,2.357,3.884,3.534,6.374,2.733c2.397-0.766,4.152-2.816,5.433-4.314l0.199-0.232c1.986-2.309,4.236-4.922,5.487-8.173
	c2.037-5.301,1.372-11.539-1.975-18.546c-2.517-5.264-7.794-10.546-13.132-13.149c-6.364-3.107-13.543-3.548-20.215-1.239
	c-7.092,2.45-13.098,7.853-16.479,14.82c-1.869,3.852-3.078,8.131-3.632,12.893c-1.162-3.585-2.234-7.196-3.148-10.8
	c-2.294-9.049-5.59-18.413-10.075-28.628c-5.415-12.343-12.091-21.333-20.406-27.489c-4.594-3.403-9.958-5.822-14.627-7.821
	c-5.863-2.501-11.999-3.66-18.239-3.438c-15.889,0.571-31.339,10.651-36.735,23.965c-2.368,5.84-3.034,12.759-1.926,20.012
	c1.073,7.02,3.533,12.831,7.31,17.27c4.586,5.392,11.434,8.921,18.791,9.682c6.541,0.657,12.797-1.006,17.146-4.61
	c0.838-0.694,1.873-1.676,2.43-3.112c0.892-2.282,0.284-5.002-1.666-7.458c-3.889-4.896-9.894-6.577-14.247-7.124
	c-3.322-0.422-6.628-0.355-9.823-0.28c-1.562,0.032-3.118,0.059-4.685,0.04c-0.585-0.008-1.564-0.024-2.021-0.294
	c-0.448-0.262-0.869-1.054-1.252-2.36c-2.588-8.798-0.531-17.892,5.644-24.947c6.663-7.616,16.918-11.398,26.761-9.882
	c1.913,0.294,3.781,0.779,5.559,1.441c6.364,2.36,11.427,5.048,15.05,7.984c4.706,3.817,8.944,8.833,11.929,14.123
	c2.631,4.661,4.949,9.951,7.518,17.15l0.223,0.625c1.922,5.384,3.909,10.952,5.273,16.424c2.17,8.705,5.385,18.119,10.118,29.632
	c3.395,8.264,7.457,16.606,12.097,24.849c-11.845-7.068-25.132-11.457-37.868-12.354c-7.437-0.526-18.122-0.016-26.825,5.379
	c-3.697,2.29-6.972,5.424-9.687,8.184c-3.518,3.58-5.839,7.477-7.523,12.639c-0.969,2.968-1.547,5.611-1.213,8.851
	c0.442,4.298,1.735,8.059,4.072,11.838c4.387,7.1,13.136,14.599,23.389,12.362c5.084-1.108,8.659-3.233,11.251-6.684
	C184.818,1002.703,185.767,998.784,180.491,993.16z M241.597,671.651l-1.202,0.838c-2.83,1.972-4.352,5.563-3.263,8.835
	c3.696,11.106,3.409,14.921,3.409,14.921s2.294-2.336,14.958-5.756c3.377-0.912,5.537-4.24,5.559-7.738l0.036-5.589l0.823,6.14
	c0.213,3.442,2.488,6.61,5.849,7.382c11.408,2.62,14.518,4.849,14.518,4.849s-0.802-3.174,2.863-15.77
	c0.978-3.358-0.742-6.934-3.718-8.772l-2.69-1.662l3.044,1.495c2.978,1.739,6.876,1.612,9.388-0.751
	c8.526-8.02,12.109-9.363,12.109-9.363s-3.084-1.1-11.508-11.156c-2.246-2.681-6.174-3.243-9.357-1.793l-7.15,3.255l6.994-5.234
	c2.873-1.908,4.474-5.464,3.458-8.76c-3.448-11.185-3.077-14.994-3.077-14.994s-2.345,2.285-15.083,5.422
	c-3.396,0.836-5.629,4.116-5.73,7.612l-0.671,6.933l-0.49-7.131c-0.236-3.441-2.534-6.593-5.9-7.341
	c-11.426-2.541-14.551-4.748-14.551-4.748s0.824,3.169-2.754,15.789c-0.954,3.365,0.79,6.929,3.779,8.746l5.75,4.076l-6.592-3.007
	c-3.138-1.432-7.003-0.914-9.265,1.69c-7.678,8.835-11.107,10.531-11.107,10.531s3.179,0.785,12.569,9.945
	C234.968,672.857,238.648,673.124,241.597,671.651z M246.041,654.551c1.145-1.317,3.1-1.58,4.688-0.855l3.335,1.521l-2.91-2.062
	c-1.512-0.92-2.395-2.723-1.912-4.425c1.81-6.386,1.393-7.989,1.393-7.989s1.581,1.117,7.362,2.402
	c1.704,0.379,2.866,1.973,2.985,3.714l0.248,3.608l0.34-3.508c0.051-1.769,1.181-3.428,2.899-3.852
	c6.445-1.587,7.631-2.743,7.631-2.743s-0.188,1.927,1.557,7.586c0.514,1.668-0.296,3.467-1.75,4.432l-3.539,2.648l3.618-1.646
	c1.611-0.733,3.598-0.45,4.735,0.907c4.262,5.088,5.823,5.645,5.823,5.645s-1.813,0.679-6.127,4.737
	c-1.271,1.196-3.243,1.26-4.75,0.38l-1.54-0.756l1.361,0.841c1.506,0.93,2.376,2.739,1.881,4.439
	c-1.855,6.373-1.449,7.979-1.449,7.979s-1.574-1.128-7.346-2.453c-1.701-0.39-2.852-1.993-2.96-3.735l-0.416-3.107l-0.018,2.828
	c-0.012,1.77-1.104,3.454-2.813,3.915c-6.408,1.73-7.569,2.912-7.569,2.912s0.145-1.931-1.725-7.55
	c-0.551-1.656,0.219-3.473,1.651-4.471l0.608-0.424c-1.493,0.745-3.354,0.611-4.554-0.56c-4.751-4.634-6.36-5.031-6.36-5.031
	S242.156,659.021,246.041,654.551z"/>
</svg>
