<?xml version="1.0" encoding="utf-8"?>
<!-- Designed by Vexels.com - 2019 All Rights Reserved - https://vexels.com/terms-and-conditions/  -->
<svg version="1.1" fill="#e7e1e3" id="Layer_1" xmlns="http://www.w3.org/2000/svg" xmlns:xlink="http://www.w3.org/1999/xlink" x="0px" y="0px"
	 viewBox="0 0 1200 1200" enable-background="new 0 0 1200 1200" xml:space="preserve">
<path d="M1073.929,880.03c-4.966-0.839-9.73-1.634-14.316-2.397c-51.846-8.645-80.403-13.406-123.26-36.445
	c-19.066-10.213-30.995-19.476-41.523-27.647c-15.289-11.872-27.366-21.249-50.43-23.559c-8.817-0.864-20.134,2.077-34.469,5.799
	c-49.804,12.924-133.153,34.573-209.345-81.491c-33.161-50.528-79.422-129.696-128.399-213.51
	C422.535,415.811,371.193,327.949,328.26,260.9c-69.273-108.184-87.382-115.886-98.939-114.593
	c-1.159,0.128-2.279,0.497-3.288,1.085c-3.046,1.768-75.083,44.3-116.616,128.554c-8.993,18.243-17.866,34.636-25.693,49.096
	C55.24,377.669,36.4,412.471,62.255,445.83c0.093,0.134,0.22,0.314,0.389,0.552c4.214,6.704,24.339,39.823,40.647,85.883
	c1.596,7.489,3.25,14.87,4.94,22.414c3.848,17.177,7.807,34.891,11.708,56.506c-2.76,1.181-5.293,2.803-7.345,4.768
	c-7.07,6.772-10.528,17.811-9.02,28.812c1.425,10.41,7.074,18.361,16.339,22.99c2.54,1.269,5.32,2.225,8.235,2.908
	c0.001,0.183-0.029,0.361-0.016,0.547c0.532,7.439,1.036,18.702,1.524,29.591c0.28,6.267,0.552,12.337,0.816,17.349
	c0.038,0.719,0.201,1.397,0.415,2.05c-5.455,22.174-4.301,43.342,3.77,61.637c-0.838,1.343-1.305,2.938-1.253,4.639
	c1.819,59.362,2.929,124.065,3.564,170.791c-1.511-1.067-3.12-2.045-4.833-2.814c-10.63-4.755-22.922-3.285-34.603,4.143
	c-10.015,6.371-15.704,14.272-17.907,24.868c-1.573,7.57-3.209,22.088,3.506,34.234c4.132,7.475,9.952,13.132,17.792,17.297
	c4.233,2.249,8.766,4.039,13.469,5.383c0.075,4.572,3.793,8.258,8.382,8.258H225.07c4.544,0,8.262-3.613,8.392-8.155
	c0.034-1.172,3.409-118.745,6.408-232.633c0.008-0.301-0.042-0.586-0.065-0.88c6.293-5.39,11.608-11.602,15.529-17.855
	c11.723-18.689,14.793-40.81,8.691-59.006l0.858-0.508l-3.327-5.865c-0.149-0.26-0.291-0.511-0.429-0.752l-1.193-2.102
	c-0.023-0.041-0.046-0.082-0.068-0.123c-4.787-8.441-10.738-14.664-17.695-18.577c0.971-36.617,1.759-63.019,2.15-75.764
	c8.39,1.279,17.107,4.909,25.599,10.7c26.368,17.997,63.441,64.86,74.105,78.706l1.395,1.858c0.399,0.558,0.671,0.921,0.697,0.954
	c39.848,55.737,73.605,108.318,88.091,137.217c23.169,46.404,83.502,157.098,143.185,182.744
	c25.688,10.981,64.122,15.215,107.739,15.215c117.403-0.005,272.221-30.684,316.064-42.939c9.503-2.643,20.514-5.42,32.171-8.36
	c69.635-17.573,115.364-30.834,116.534-54.166C1151.771,910.87,1127.636,889.161,1073.929,880.03z M1005.876,884.873
	c-8.297,3.308-16.018,7.555-22.418,12.449c-11.007,8.413-20.612,18.208-29.88,27.784c3.311-7.387,5.171-15.008,5.378-22.471
	c0.295-10.746-2.424-23.212-7.461-34.198c-0.227-0.495-0.502-0.958-0.744-1.443C969.693,875.45,986.784,880.658,1005.876,884.873z
	 M842.747,806.692c18.235,1.826,27.101,8.71,41.788,20.112c2.542,1.973,5.238,4.065,8.146,6.253
	c-15.137-0.726-29.677,3.015-41.252,10.235c0.331-3.672,0.088-7.428-0.675-11.045c-1.295-6.138-3.166-11.615-6.648-16.857
	c-2.523-3.798-5.83-6.261-9.64-8.124C837.769,806.715,840.585,806.47,842.747,806.692z M784.465,837.262
	c1.595-7.856,7.428-16.233,14.904-19.458c3.609-1.557,7.882-2.982,11.857-3.051c4.265-0.074,8.244,1.632,12.047,3.34
	c4.107,1.845,7.026,3.38,9.513,7.275c2.157,3.378,2.953,7.385,3.566,11.311c1.415,9.064-5.01,18.508-15.081,17.459
	c6.02-9.607-8.073-17.44-16.001-12.966c-10.521,5.937-3.609,20.138,3.885,25.077c5.907,3.893,13.437,4.302,20.364,2.49
	c-2.334,5.545-3.461,11.063-3.33,16.491c0.068,2.96,0.251,10.823,5.171,11.911c5.122,1.148,7.718-5.712,9.26-9.803
	c0.194-0.517,0.369-0.981,0.525-1.364c4.124-10.038,9.249-17.289,16.622-23.515c7.147-6.032,15.822-10.878,25.084-14.007
	c7.409-2.506,17.155-4.982,26.868-1.856c3.636,1.168,6.968,2.792,10.013,4.613c-0.945,0.621-3.999,2.248-12.403,4.318
	c-2.878,0.708-4.769,3.487-4.854,6.449l-0.568,5.874l-0.415-6.041c-0.2-2.915-2.147-5.586-4.999-6.22
	c-9.68-2.152-12.328-4.022-12.328-4.022s0.698,2.685-2.333,13.377c-0.808,2.851,0.67,5.871,3.202,7.411l4.872,3.453l-5.584-2.548
	c-2.659-1.212-5.933-0.773-7.85,1.432c-6.505,7.485-9.411,8.922-9.411,8.922s2.693,0.665,10.649,8.425
	c2.009,1.96,5.126,2.186,7.625,0.937l-1.019,0.71c-2.397,1.671-3.687,4.713-2.764,7.485c3.131,9.41,2.888,12.642,2.888,12.642
	s1.944-1.979,12.673-4.876c2.861-0.773,4.691-3.593,4.71-6.556l0.031-4.735l0.697,5.202c0.18,2.916,2.108,5.6,4.956,6.254
	c9.665,2.219,12.3,4.108,12.3,4.108s-0.68-2.689,2.426-13.36c0.828-2.846-0.629-5.875-3.15-7.432l-2.279-1.408l2.579,1.267
	c2.523,1.473,5.826,1.366,7.954-0.637c7.223-6.794,10.259-7.932,10.259-7.932s-2.613-0.932-9.75-9.452
	c-1.903-2.272-5.231-2.747-7.928-1.52l-6.058,2.757l5.925-4.434c2.434-1.617,3.791-4.63,2.93-7.422
	c-2.311-7.497-2.593-11.044-2.612-12.214c5.688,3.464,10.282,7.655,13.533,11.129c14.138,15.111,18.527,36.235,11.454,55.128
	c-6.811,18.191-23.504,34.051-43.466,41.739c4.786-4.999,7.707-11.074,8.374-17.582c0.918-8.973-2.46-17.948-8.609-22.867
	c-6.655-5.321-17.185-6.677-26.213-3.381c-4.359,1.596-7.59,3.993-9.724,7.311c-0.746,1.148-1.998,3.072-0.568,5.078
	c1.771,2.487,4.624,1.326,6.338,0.626c0.404-0.167,0.79-0.325,1.137-0.429c7.95-2.378,17.874-1.588,25.289,2.006
	c2.022,0.978,3.11,1.563,3.848,3.135c0.724,1.544,0.91,3.755,0.992,5.504c0.189,4.184-0.757,8.161-2.738,11.495
	c-9.473,15.961-29.282,16.65-48.776,15.991c-17.593-0.601-35.352-3.698-52.523-6.69c-2.487-0.435-4.969-0.866-7.453-1.293
	c0.093-0.019,0.186-0.038,0.284-0.057c2.678-0.519,5.78-1.153,8.754-2.066c4.728-1.459,8.959-3.977,12.933-7.699
	c8.199-7.68,11.246-18.56,8.147-29.107c-2.339-7.961-9.831-13.717-19.549-15.021c-4.42-0.597-8.691-0.184-12.538,1.002
	c2.967-4.592,4.929-9.892,5.547-15.539c1.55-14.245-3.095-27.076-11.086-37.939C783.04,847.079,783.461,842.206,784.465,837.262z
	 M911.08,877.5c1.365-0.621,3.048-0.381,4.011,0.769c3.611,4.311,4.933,4.783,4.933,4.783s-1.536,0.575-5.191,4.013
	c-1.077,1.013-2.748,1.067-4.024,0.322l-1.305-0.641l1.153,0.713c1.276,0.789,2.013,2.321,1.594,3.761
	c-1.571,5.399-1.227,6.76-1.227,6.76s-1.333-0.956-6.223-2.078c-1.441-0.331-2.416-1.689-2.507-3.165l-0.353-2.632l-0.015,2.396
	c-0.01,1.5-0.935,2.926-2.383,3.317c-5.429,1.466-6.412,2.467-6.412,2.467s0.123-1.636-1.461-6.396
	c-0.467-1.403,0.186-2.943,1.399-3.788l0.515-0.359c-1.265,0.631-2.842,0.517-3.858-0.474c-4.026-3.927-5.388-4.264-5.388-4.264
	s1.47-0.727,4.761-4.514c0.97-1.116,2.627-1.338,3.972-0.724l2.825,1.289l-2.465-1.747c-1.281-0.78-2.029-2.307-1.62-3.75
	c1.534-5.41,1.18-6.768,1.18-6.768s1.34,0.946,6.238,2.035c1.443,0.32,2.428,1.672,2.529,3.147l0.21,3.057l0.288-2.972
	c0.043-1.499,1-2.905,2.456-3.263c5.46-1.345,6.466-2.324,6.466-2.324s-0.159,1.632,1.319,6.427
	c0.435,1.413-0.251,2.937-1.483,3.755l-2.998,2.244L911.08,877.5z M782.906,819.279c-3.843,5.817-5.964,12.453-6.398,19.474
	c-0.097,1.565-0.172,3.148-0.221,4.734c-8.478-8.602-18.966-15.543-29.525-20.44C759.626,822.876,771.767,821.345,782.906,819.279z
	 M544.292,698.797c4.963-10.351,6.637-22.002,5.708-33.489c8.064,13.24,15.756,25.676,22.988,37.114
	c-7.197-2.387-14.683-3.347-21.911-2.622h-0.004c-2.707,0.275-5.393,0.778-8.054,1.42
	C543.459,700.419,543.899,699.617,544.292,698.797z M545.694,715.081c4.056-0.978,8.464-1.388,12.766-1.148
	c6.673,0.35,14.15,2.916,20.514,7.038c12.833,8.314,21.023,22.254,21.107,35.728c-0.767-0.154-1.559-0.239-2.372-0.239
	c-6.632,0-12.009,5.377-12.009,12.01c0,6.632,5.377,12.009,12.009,12.009c0.427,0,0.831-0.082,1.247-0.126
	c0.113,0.079,0.211,0.163,0.332,0.239c2.441,1.528,4.515,1.203,5.827,0.672c4.501-1.839,6.71-8.773,8.341-15.581
	c0.451-1.872,0.725-3.767,0.885-5.668c35.203,39.434,71.325,55.914,104.416,61.093c5.24,1.925,10.45,3.929,15.564,6.202
	c16.423,7.3,35.714,17.997,45.156,34.276c0.286,0.717,0.575,1.431,0.857,2.166c0.625,1.624,1.385,5.273,3.095,6.817
	c0.5,1.625,0.915,3.291,1.215,5.012c-1.607-1.787-3.627-3.865-6.233-6.327c-4.682-4.433-10.877-8.431-17.445-11.263
	c-11.145-4.805-23.578-7.94-40.31-10.164c-9.888-1.309-20.19-1.401-31.13-0.314c-8.181,0.439-16.317,1.573-24.236,2.711
	c-2.952,0.424-5.901,0.85-8.85,1.235l-3.845,0.514c-10.607,1.432-21.566,2.916-31.933,1.528
	c-18.289-2.446-36.385-14.734-35.579-33.485c0.363-8.434,4.9-16.518,12.137-21.618c7.068-4.985,15.63-6.45,23.51-4.015
	c4.982,1.539,9.738,5.707,12.118,10.615c1.091,2.25,2.095,5.562,1.195,9.135c-1.614-1.332-3.656-2.165-5.912-2.165
	c-5.159,0-9.34,4.182-9.34,9.341s4.182,9.34,9.34,9.34c0.916,0,1.784-0.173,2.62-0.419c0.075,0.014,0.14,0.051,0.217,0.061
	c4.201,0.579,8.757-4.11,9.751-5.403c7.934-10.32,4.034-23.633-2.943-31.632c-7.789-8.926-20.063-12.49-32.867-9.533
	c-11.648,2.689-20.569,9.027-25.793,18.328c-5.88,10.462-6.548,22.815-1.834,33.892c6.967,16.371,24.32,25.186,40.745,27.678
	c-1.738,0.457-3.477,0.923-5.209,1.358c-21.129,5.299-41.623,4.548-59.275-2.167c-16.527-6.289-31.836-19.506-43.105-37.218
	c-5.104-8.021-7.08-18.082-8.456-27.759c-1.343-9.443-2.446-20.552-0.441-31.337c4.024-21.643,16.509-38.711,35.188-48.145
	c0.227-0.087,0.418-0.178,0.558-0.243l0.918-0.421c0.935-0.41,1.879-0.801,2.834-1.159
	C542.695,715.912,544.218,715.436,545.694,715.081z M739.895,896.83c-0.036-0.087-0.071-0.172-0.107-0.254
	c-0.049-0.123-0.101-0.246-0.156-0.372l-0.549-1.309l-0.038,0.014c-4.561-9.347-15.01-16.259-26.483-17.377
	c-10.484-1.022-22.968,3.78-26.428,14.969c-1.006,3.256-0.826,6.846,0.323,10.086c-1.382-1.278-3.283-3.241-5.826-6.276
	c-1.726-2.061-4.744-2.492-7.191-1.379l-5.494,2.501l5.375-4.022c2.208-1.466,3.438-4.199,2.658-6.732
	c-2.65-8.596-2.364-11.522-2.364-11.522s-1.802,1.755-11.59,4.167c-2.61,0.642-4.326,3.163-4.403,5.85l-0.516,5.327l-0.376-5.48
	c-0.182-2.644-1.947-5.066-4.534-5.642c-8.78-1.952-11.182-3.649-11.182-3.649s0.634,2.435-2.116,12.133
	c-0.733,2.587,0.607,5.325,2.904,6.722l4.419,3.132l-5.065-2.311c-1.621-0.739-3.471-0.739-5.053-0.093
	c0.156-0.961,0.192-1.929,0.038-2.786c-0.779-4.332-3.52-9.057-5.086-11.487c-1.537-2.387-3.457-4.318-5.636-5.843
	c0.908-0.253,1.822-0.506,2.718-0.763c3.233-0.924,6.469-1.869,9.713-2.818c24.291-7.098,49.383-14.417,74.943-12.993l0.134,0.008
	c0.331,0.049,0.637,0.074,0.888,0.093c1.028,0.101,2.05,0.21,3.077,0.32c1.41,0.153,2.823,0.317,4.231,0.478l0.752,0.087
	c3.564,0.407,7.781,0.921,12.058,1.621c6.048,0.998,12.61,2.689,20.066,5.174c6.671,2.219,12.769,5.488,17.628,9.454
	c2.528,2.061,4.911,4.414,6.707,6.234c0.298,0.301,0.686,0.844,1.151,1.465c1.281,1.716,3.094,4.127,5.16,5.173
	c-1.682,9.719-7.03,18.928-16.291,22.846c-6.646,2.812-14.357,1.421-20.299-2.417c-2.571-1.66-4.843-3.807-6.6-6.319
	c-0.224-1.602-0.572-3.231-1.154-4.904c-0.003-0.016-0.008-0.033-0.014-0.049l0.046-0.019L739.895,896.83z M635.155,912.441
	c1.822,1.777,4.649,1.983,6.916,0.851l-0.924,0.644c-2.174,1.516-3.344,4.274-2.507,6.79c2.84,8.535,2.62,11.467,2.62,11.467
	s1.763-1.796,11.495-4.423c2.595-0.701,4.255-3.258,4.272-5.946l0.028-4.295l0.632,4.719c0.163,2.645,1.912,5.079,4.495,5.672
	c8.767,2.014,11.156,3.727,11.156,3.727s-0.617-2.44,2.201-12.119c0.751-2.581-0.57-5.328-2.857-6.741l-2.067-1.277l2.339,1.149
	c2.289,1.336,5.284,1.239,7.215-0.577c3.853-3.624,6.36-5.446,7.799-6.356c0.607,0.984,1.291,1.919,2.104,2.742
	c3.394,3.438,7.98,4.63,12.591,3.263c5.406-1.599,9.082-6.346,9.366-12.094c0.18-3.608-1.003-6.876-3.236-9.314
	c3.777-0.511,7.964,0.495,11.684,2.905c5.25,3.403,8.289,8.795,7.934,14.072c-0.765,11.356-15.097,17.265-27.5,21.146
	c-11.965,3.742-25.814,5.873-42.329,6.516c-16.74,0.648-30.777-1.306-42.931-5.974c-7.294-2.801-12.979-6.147-17.379-10.23
	c-2.167-2.011-9.26-9.096-9.516-15.775c-0.104-2.684,1.312-6.346,2.383-8.863c0.724-1.689,2.837-4.668,3.884-5.532
	c0.128,0.145,0.265,0.306,0.366,0.429c0.312,0.372,0.612,0.719,0.894,0.981c1.667,1.552,3.189,2.651,4.799,3.455
	c3.662,1.831,7.688,2.102,10.793,2.132c1.104,0.003,2.208-0.025,3.318-0.063c2.227-0.068,4.329-0.137,6.327,0.172
	c1.476,0.23,2.566,0.604,3.435,1.178c0.246,0.164,0.593,0.527,0.926,0.88c0.686,0.719,1.541,1.613,2.733,2.124
	c0.705,0.3,1.404,0.418,2.089,0.45c-3.552,3.63-5.206,4.477-5.206,4.477S627.939,905.402,635.155,912.441z M649.416,899.078
	c-1.162-0.707-1.84-2.093-1.469-3.401c1.391-4.907,1.071-6.139,1.071-6.139s1.215,0.858,5.658,1.845
	c1.309,0.291,2.202,1.517,2.294,2.855l0.19,2.773l0.261-2.695c0.039-1.36,0.907-2.635,2.228-2.96
	c4.953-1.22,5.865-2.109,5.865-2.109s-0.144,1.481,1.196,5.83c0.395,1.282-0.228,2.664-1.345,3.406l-2.719,2.035l2.78-1.265
	c1.238-0.564,2.765-0.346,3.638,0.697c3.275,3.91,4.475,4.338,4.475,4.338s-1.393,0.522-4.708,3.64
	c-0.977,0.919-2.492,0.968-3.65,0.292l-1.184-0.581l1.046,0.646c1.157,0.715,1.826,2.105,1.446,3.411
	c-1.425,4.898-1.113,6.132-1.113,6.132s-1.209-0.866-5.645-1.886c-1.307-0.299-2.192-1.531-2.274-2.87l-0.32-2.387l-0.014,2.173
	c-0.009,1.36-0.848,2.654-2.161,3.009c-4.924,1.33-5.816,2.238-5.816,2.238s0.111-1.483-1.326-5.802
	c-0.423-1.273,0.168-2.669,1.269-3.435l0.468-0.326c-1.147,0.573-2.578,0.469-3.499-0.43c-3.651-3.561-4.887-3.867-4.887-3.867
	s1.333-0.659,4.319-4.095c0.88-1.012,2.383-1.213,3.603-0.657l2.563,1.169L649.416,899.078z M537.343,659.381
	c3.209,16.815-0.876,35.872-13.88,47.005c-16.107,13.791-38.373,7.583-47.917-10.769c-5.182-9.965-6.044-23.227,1.379-31.656
	c3.421-3.884,8.777-7.916,7.186-12.842c-1.099-3.401-5.413-4.911-8.861-3.968c-3.448,0.942-6.105,3.676-8.239,6.543
	c-1.903,2.556-3.511,5.321-4.831,8.218c-2.177-5.929-5.678-10.993-10.703-15.423c-4.349-3.833-12.01-9.568-21.444-12.454
	c1.912-2.415,5.639-6.445,12.874-12.614c3.568-3.043,4.274-8.313,2.295-12.563l-3.163-6.791l4.52,6.966
	c2.232,4.048,6.806,6.58,11.32,5.586c15.322-3.371,20.368-2.455,20.368-2.455s-2.793-3.385-5.578-20.746
	c-0.743-4.629-4.877-7.974-9.536-8.494l-4.212-0.469l4.545,0.064c4.606,0.398,9.254-1.992,10.942-6.296
	c1.987-5.069,3.708-8.798,5.116-11.538c1.298,2.769,2.718,5.476,4.241,8.097c8.602,14.801,20.182,27.604,30.564,41.214
	C524.711,627.608,534.134,642.566,537.343,659.381z M417.672,595.438c-8.414-2.887-10.591-2.446-10.591-2.446
	s1.61-2.035,3.751-9.679c0.631-2.252,2.85-3.692,5.189-3.725l4.913-0.07l-4.707-0.829c-2.359-0.247-4.463-1.924-4.855-4.264
	c-1.47-8.774-2.895-10.476-2.895-10.476s2.556,0.445,10.297-1.315c2.281-0.518,4.604,0.747,5.748,2.788l2.37,4.228l-1.601-4.444
	c-0.953-2.172-0.537-4.831,1.302-6.329c6.896-5.62,7.67-7.702,7.67-7.702s0.878,2.442,6.238,8.297
	c1.579,1.725,1.63,4.37,0.423,6.373l-2.767,5.238l3.437-4.07c1.531-1.813,4.101-2.609,6.256-1.618
	c8.082,3.719,10.292,3.498,10.292,3.498s-1.806,1.863-4.704,9.253c-0.854,2.178-3.206,3.388-5.536,3.186l-2.3-0.033l2.132,0.238
	c2.357,0.263,4.449,1.955,4.825,4.298c1.409,8.784,2.822,10.497,2.822,10.497s-2.553-0.464-10.306,1.242
	c-2.284,0.503-4.598-0.779-5.728-2.827l-2.287-3.525l1.6,3.436c1.001,2.15,0.644,4.818-1.161,6.356
	c-6.77,5.772-7.497,7.87-7.497,7.87s-0.932-2.421-6.421-8.155c-1.617-1.69-1.727-4.333-0.565-6.362l0.494-0.863
	C422.129,595.263,419.797,596.168,417.672,595.438z M500.503,582.353c-3.449-3.929-6.773-7.96-9.788-12.239
	c-2.667-3.785-5.084-7.833-7.128-12.047c0.071-0.082,0.117-0.131,0.117-0.131s-0.064,0.004-0.179,0.004
	c-1.934-4.007-3.522-8.164-4.624-12.407C486.212,558.023,493.423,570.322,500.503,582.353z M419.964,475.176
	c-0.762,5.498-4.29,9.25-7.637,13.359c1.945-2.405,0.111-0.261-0.235,0.271c-0.691,1.064-1.348,1.977-1.608,3.255
	c-0.597,2.937,0.646,6.087,3.092,7.821c5.558,3.94,10.571-1.009,13.948-5.15c5.67-6.954,8.171-14.913,8.109-23.199
	c7.367,12.586,14.73,25.184,22.055,37.719c4.777,8.174,9.527,16.303,14.243,24.368c-0.001,7.624,1.542,15.239,4.109,22.558
	c-3.047-1.019-7.155-2.615-12.678-5.156c-4.259-1.96-9.339-0.386-12.364,3.196l-6.794,8.044l5.469-10.352
	c2.385-3.96,2.285-9.187-0.836-12.597c-10.594-11.572-12.329-16.398-12.329-16.398s-1.53,4.113-15.16,15.221
	c-3.634,2.962-4.458,8.216-2.573,12.508l3.165,8.783l-4.685-8.358c-2.261-4.032-6.852-6.532-11.359-5.507
	c-15.298,3.478-20.35,2.596-20.35,2.596s2.817,3.366,5.722,20.707c0.775,4.624,4.932,7.94,9.595,8.427l9.304,1.638l-9.71,0.139
	c-2.936,0.042-5.768,1.212-7.77,3.196c-8.897-8.905-17.177-18.481-25.374-27.966c-12.595-14.574-22.793-29.815-28.072-48.553
	c-5.07-17.998-1.721-35.472,7.069-51.781c9.381-17.406,31.48-24.86,49.796-16.832c8.565,3.755,16.915,12.462,20.699,20.97
	C419.071,463.199,420.74,469.578,419.964,475.176z M232.891,600.751c0.743,3.038,2.004,5.832,3.651,8.387
	c-0.194,0.003-0.39-0.016-0.584-0.012c-4.437,0.126-8.009,3.684-8.153,8.123c-0.005,0.146-0.222,6.875-0.59,19.183
	c-1.073-0.308-2.187-0.517-3.365-0.517h-0.038c-3.386,0.011-6.74,2.159-7.975,5.111c-1.033,2.471-0.476,5.062,1.532,7.111
	c1.063,1.085,2.285,1.714,3.362,2.268c0.839,0.432,1.563,0.806,2.018,1.29c1.358,1.44,1.946,3.537,2.2,5.045
	c0.529,3.132-0.01,6.253-1.517,8.784c-3.015,5.067-9.555,7.349-15.207,5.316c-7.702-2.774-11.898-11.618-12.065-18.921
	c-0.343-15.223,6.874-28.019,14.514-41.569c3.344-5.928,6.801-12.058,9.51-18.344c5.839-13.542,9.451-23.944,11.708-33.731
	c0.589-2.564,0.903-5.133,1.207-7.617l0.1-0.823c0.067-0.533,0.18-1.096,0.295-1.675c0.17-0.859,0.341-1.792,0.427-2.749
	c7.158,3.239,14.066,7.038,20.63,11.385c5.153,3.412,9.814,6.816,13.877,11.516c0.478,0.553,0.936,1.123,1.403,1.686
	c-3.654-1.718-7.264-2.922-11.356-3.258c-4.65-0.383-8.486,1.317-12.33,3.765c-5.291,3.365-9.868,6.989-12.101,13.045
	C231.933,589.276,231.442,594.82,232.891,600.751z M254.703,537.371c-10.749-15.77-19.631-33.251-23.314-52.107
	c-1.743-8.925-2.43-18.202-0.715-27.185c1.489-7.799,5.184-18.554,12.081-23.253c3.372-2.297,8.642-3.355,12.64-3.985
	c2.531-0.399,10.568-0.361,12.281,1.949c0.915,1.233-0.272,3.361-0.536,4.723c-0.429,2.218-0.66,4.396-0.443,6.652
	c0.413,4.305,2.349,8.181,4.575,11.814c2.232,3.641,4.993,7.072,6.687,11.019c0.809,1.884,1.378,3.864,1.323,5.933
	c-0.046,1.748-1.08,3.728-0.811,5.441c0.685,4.354,5.287,3.433,7.674,1.263c3.398-3.088,6.351-8.24,8.284-12.353
	c5.533-11.773,0.068-24.999-8.755-34.118c-0.001-3.507-2.764-8.207-3.592-10.524c-4.03-11.282-3.871-22.74-1.489-34.472
	c2.306-11.356,10.739-23.466,21.546-28.128c5.217-2.251,11.394-4.311,17.141-4.411c6.165-0.107,11.919,2.361,17.416,4.83
	c5.937,2.667,10.157,4.886,13.752,10.517c3.119,4.885,4.269,10.677,5.155,16.352c2.045,13.104-7.243,26.756-21.802,25.24
	c8.703-13.889-11.671-25.214-23.132-18.745c-15.21,8.584-5.217,29.114,5.616,36.254c7.285,4.801,16.274,5.911,24.976,4.516
	c-2.995,3.141-5.613,6.741-7.763,10.809c-8.987,17.004-13.912,36.453-10.154,55.544c2.953,15.001,9.849,29.598,18.702,42.288
	c-5.503-3.555-12.023-5.249-18.669-3.483c-10.678,2.837-17.77,17.169-8.341,25.498c9.304,8.219,24.616,0.379,22.415-12.216
	c14.995,8.651,14.642,34.446-0.628,42.637c-15.535,8.332-34.351-6.371-45.53-15.945
	C277.084,567.554,265.209,552.784,254.703,537.371z M257.692,373.047c3.916,2.696,10.587,0.989,15.321-0.553
	c-2.215,5.643-3.538,11.626-3.922,17.828c-0.377,6.097-0.665,12.368,0.003,18.456c0.625,5.69,2.714,10.581,4.772,15.759
	c-15.528-7.4-34.111-2.229-44.552,11.372c-3.966,5.165-6.404,10.975-7.749,17.079c-1.55-12.379-3.524-23.901-5.385-33.909
	c-3.386-18.207-4.723-32.788-4.205-45.882c0.734-18.552,3.938-33.026,9.794-44.253c6.443-12.356,18.054-21.17,31.854-24.182
	c5.856-1.282,14.316-1.973,21.329,1.992c5.433,3.075,9.559,8.789,11.614,16.095c1.858,6.603,1.487,13.19-1.108,19.571
	c-2.368,5.827-7.438,12.799-14.567,14.895c-1.119,0.328-2.554,0.541-4.074,0.768c-5.212,0.779-12.349,1.848-11.972,9.273
	C254.977,369.926,255.935,371.839,257.692,373.047z M232.142,163.347c1.772,0.7,4.843,2.655,9.925,7.655
	c-7.687-1.767-15.995-1.141-23.552,1.772C224.716,168.187,229.497,165.026,232.142,163.347z M202.582,205.455
	c2.077-4.258,4.705-9.123,8.441-12.908c7.535-7.631,16.83-10.976,26.888-9.724c0.107,0.025,0.216,0.044,0.329,0.063l0.44,0.074
	c0.476,0.087,0.947,0.183,1.425,0.298c0.72,0.175,1.432,0.38,2.124,0.64c1.781,0.667,3.62,1.686,5.178,2.867
	c2.386,1.804,4.613,4.777,5.959,7.956c2.829,6.669,2.314,14.288-1.309,19.41c-0.746,1.052-1.783,2.012-3.542,3.233
	c-1.45,1-5.862,4.042-3.733,8.869c0.805,1.826,2.256,3.042,4.087,3.427c3.575,0.746,7.171-1.99,10.314-4.868
	c6.828-6.224,8.785-15.748,8.408-23.16c12.127,16.268,28.024,39.3,48.861,71.974c28.412,44.556,60.449,98.05,93.166,153.602
	c-9.917-6.317-21.754-9.582-34.012-8.433c-2.446,0.228-4.852,0.607-7.215,1.111c8.772-10.623,10.883-25.464,8.034-38.967
	c-1.873-8.874-4.576-16.792-9.611-24.37c-5.213-7.844-12.706-11.794-21.393-14.821c-11.952-4.172-23.42-6.887-35.808-2.847
	c-3.723,1.213-7.187,2.695-10.458,4.421c0.314-1.018,0.605-2.029,0.845-3.019c1.073-4.426,1.324-8.926,0.865-13.33
	c0.951-1.449,1.582-4.079-0.224-12.215c-0.784-3.545-2.401-7.346-4.551-10.708c-3.519-5.507-8.082-10.623-14.791-16.592
	c-6.022-5.359-13.232-9.773-22.026-13.485c-0.44-0.221-0.902-0.399-1.35-0.571l-2.058-0.872c-1.346-0.558-2.7-1.09-4.064-1.593
	c-2.52-0.932-5.051-1.842-7.586-2.741c-2.17-0.768-4.352-1.509-6.533-2.247c-2.822-0.959-5.645-1.916-8.445-2.935
	c-10.118-3.687-18.28-9.645-23.607-17.232c-4.883-6.953-7.517-16.784-7.23-26.97C198.527,214.345,200.485,209.754,202.582,205.455z
	 M124.48,283.368c20.608-41.804,49.732-73.087,72.839-93.435c-0.899,1.28-1.774,2.585-2.574,3.969
	c-3.204,5.543-7.012,12.848-8.039,20.2c-0.832,5.966-0.31,12.878,1.599,21.126c1.689,7.316,4.585,13.668,8.604,18.883
	c4.798,6.226,10.09,11.014,15.731,14.234c6.312,3.605,12.756,5.931,18.78,7.904c1.658,0.544,3.323,1.08,4.993,1.615
	c11.682,3.751,23.716,7.662,33.638,14.72c-1.967-0.279-4.022-0.415-6.185-0.402c-16.501,0.025-31.461,6.196-42.128,17.377
	c-7.567,7.929-12.993,18.15-16.525,30.962c-0.723-2.143-1.504-4.649-2.337-7.605c-1.232-4.371-5.583-7.127-10.124-7.107
	l-4.105,0.019l4.38-0.446c4.476-0.131,8.681-2.951,9.824-7.28c3.878-14.692,6.901-18.634,6.901-18.634s-4.153,0.908-20.342-4.378
	c-4.317-1.41-9.029,0.672-11.539,4.456l-5.638,8.498l4.106-10.571c1.852-4.076,1.172-9.094-2.212-12.025
	c-11.485-9.95-13.694-14.399-13.694-14.399s-1.013,4.128-12.885,16.338c-3.166,3.255-3.371,8.402-1.078,12.322l4.026,8.097
	l-5.441-7.518c-2.625-3.627-7.322-5.519-11.544-4.03c-10.208,3.601-15.643,4.489-17.936,4.705
	C118.504,295.304,121.48,289.454,124.48,283.368z M170.516,339.83c1.204,1.958,1.158,4.564-0.407,6.246
	c-5.868,6.309-6.334,8.409-6.334,8.409s-1.167-2.225-7.089-7.13c-1.745-1.445-2.145-3.975-1.254-6.058l0.379-0.885
	c-1.132,1.848-3.275,2.978-5.4,2.513c-8.418-1.838-10.463-1.17-10.463-1.17s1.321-2.138,2.528-9.731
	c0.355-2.238,2.329-3.871,4.576-4.164l4.719-0.616l-4.622-0.272c-2.298,0.027-4.509-1.353-5.147-3.56
	c-2.395-8.278-3.956-9.756-3.956-9.756s2.509,0.143,9.76-2.415c2.137-0.754,4.513,0.204,5.841,2.039l2.753,3.804l-2.037-4.097
	c-1.16-1.983-1.056-4.587,0.546-6.235c6.007-6.178,6.52-8.267,6.52-8.267s1.117,2.251,6.929,7.286
	c1.712,1.484,2.056,4.022,1.119,6.085l-2.077,5.349l2.853-4.3c1.27-1.914,3.654-2.967,5.838-2.254
	c8.191,2.674,10.293,2.215,10.293,2.215s-1.53,1.994-3.492,9.428c-0.578,2.191-2.706,3.617-4.971,3.683l-2.216,0.225l2.077-0.009
	c2.297-0.011,4.499,1.384,5.123,3.595c2.337,8.293,3.888,9.784,3.888,9.784s-2.508-0.161-9.777,2.347
	c-2.142,0.739-4.511-0.236-5.826-2.08l-2.594-3.135L170.516,339.83z M119.603,528.237c-0.077-0.355-0.175-0.705-0.295-1.047
	c-3.484-9.879-7.146-19.184-10.803-27.813c2.697,0.461,6.969,1.488,13.565,3.752c3.537,1.213,7.42-0.292,9.718-3.221l-0.822,1.436
	c-1.934,3.379-1.752,7.779,0.94,10.592c9.138,9.546,10.689,13.578,10.689,13.578s1.212-3.493,12.482-13.102
	c3.005-2.562,3.6-7.002,1.933-10.582l-2.664-5.72l3.807,5.868c1.88,3.409,5.733,5.543,9.535,4.706
	c12.906-2.84,17.157-2.068,17.157-2.068s-2.353-2.851-4.699-17.474c-0.626-3.899-4.108-6.717-8.033-7.154l-3.548-0.396l3.828,0.054
	c3.88,0.335,7.795-1.677,9.217-5.303c4.824-12.303,7.831-15.405,7.831-15.405s-3.678,0.368-17.133-5.823
	c-3.588-1.65-7.867-0.325-10.415,2.692l-5.723,6.777l4.607-8.72c2.009-3.336,1.925-7.738-0.704-10.61
	c-8.924-9.747-10.385-13.812-10.385-13.812s-1.289,3.465-12.77,12.821c-3.061,2.495-3.755,6.921-2.167,10.537l2.666,7.398
	l-3.946-7.04c-1.904-3.396-5.771-5.502-9.568-4.639c-12.886,2.929-17.142,2.187-17.142,2.187s2.372,2.835,4.82,17.442
	c0.653,3.895,4.155,6.688,8.083,7.098l7.837,1.38l-8.179,0.117c-3.894,0.055-7.587,2.452-8.638,6.201
	c-1.593,5.688-3.007,9.501-4.087,11.988c-13.629-31.316-26.748-52.748-29.875-57.705c-0.086-0.137-0.176-0.271-0.271-0.404
	l-0.441-0.626c-0.112-0.167-0.231-0.331-0.355-0.492c-18.552-23.758-6.405-48.645,22.837-102.669
	c5.136-9.488,10.72-19.812,16.506-30.957c1.196,1.863,3.707,6.706,7.042,18.233c1.262,4.362,5.632,7.088,10.173,7.036l9.134,0.537
	l-9.326,1.218c-4.44,0.579-8.341,3.807-9.043,8.229c-2.384,15.007-4.996,19.232-4.996,19.232s4.041-1.32,20.678,2.314
	c4.201,0.918,8.437-1.317,10.673-4.967l-0.748,1.749c-1.761,4.117-0.97,9.117,2.478,11.973c11.703,9.692,14.01,14.092,14.01,14.092
	s0.921-4.149,12.519-16.62c3.093-3.325,3.184-8.475,0.805-12.343l-3.801-6.18l5.126,6.197c2.6,3.645,7.283,5.57,11.516,4.11
	c4.672-1.612,8.335-2.659,11.169-3.347c-2.69,16.361-2.993,32.358-0.838,47.582c1.131,8,2.464,16.095,3.752,23.925
	c1.339,8.136,2.723,16.549,3.881,24.846c0.595,4.263,1.089,8.494,1.533,12.705c-6.914-15.917-13.631-31.913-22.147-47.061
	c-6.378-11.346-13.601-22.281-23.286-31.102c-7.495-6.827-15.946-11.445-25.111-14.957c-2.979-2.505-6.819-4.02-11.016-4.02
	c-9.461,0-17.13,7.67-17.13,17.13c0,9.46,7.669,17.13,17.13,17.13c9.461,0,17.13-7.67,17.13-17.13c0-0.351-0.032-0.695-0.053-1.041
	c9.114,5.269,17.04,12.349,23.452,21.123c10.556,14.444,18.736,31.739,25.236,48.371c5.11,13.076,10.992,26.024,17.626,38.6
	c0.006,0.233,0.022,0.473,0.028,0.706l0.015,0.609l0.485,0.372c0.263,0.203,0.503,0.421,0.743,0.637
	c1.139,2.119,2.28,4.237,3.463,6.332l0.17,0.79h0.262c9.209,16.199,19.748,31.629,31.729,45.664
	c-16.623-10.591-35.759-17.61-55.331-20.032c-19.569-2.421-42.591-0.779-57.885,13.08c-4.324,3.918-8.339,8.533-11.548,13.57
	c-0.027-0.12-0.054-0.242-0.081-0.362C122.9,543.345,121.221,535.848,119.603,528.237z M132.602,476.419
	c-1.987-0.208-3.759-1.621-4.089-3.591c-1.238-7.391-2.439-8.825-2.439-8.825s2.153,0.375,8.673-1.107
	c1.921-0.437,3.878,0.629,4.841,2.347l1.996,3.562l-1.349-3.743c-0.803-1.83-0.452-4.069,1.097-5.331
	c5.809-4.734,6.461-6.488,6.461-6.488s0.739,2.057,5.255,6.989c1.33,1.453,1.373,3.681,0.356,5.368l-2.331,4.413l2.896-3.429
	c1.289-1.526,3.454-2.197,5.269-1.362c6.808,3.132,8.669,2.946,8.669,2.946s-1.521,1.569-3.962,7.795
	c-0.719,1.834-2.7,2.853-4.663,2.683l-1.937-0.027l1.796,0.2c1.986,0.221,3.748,1.647,4.064,3.62
	c1.187,7.399,2.377,8.841,2.377,8.841s-2.151-0.39-8.681,1.047c-1.924,0.424-3.873-0.656-4.825-2.38l-1.926-2.969l1.348,2.894
	c0.843,1.811,0.543,4.058-0.978,5.354c-5.702,4.862-6.315,6.629-6.315,6.629s-0.785-2.04-5.408-6.87
	c-1.362-1.424-1.454-3.65-0.476-5.359l0.416-0.727c-1.163,1.483-3.128,2.244-4.917,1.63c-7.088-2.432-8.921-2.061-8.921-2.061
	s1.356-1.714,3.16-8.153c0.532-1.897,2.4-3.109,4.37-3.138l4.138-0.059L132.602,476.419z M125.348,656.93
	c-6.261-3.613-9.493-9.309-9.604-16.926c-0.078-5.22,0.836-9.71,2.326-11.438c1.192-1.38,3.783-1.42,6.369-1.181
	c1.847,1.772,4.462,2.7,7.191,2.25c1.311-0.22,2.479-0.758,3.489-1.485c3.142-0.105,6.499-0.706,9.053-2.682
	c1.914-1.481,2.353-3.192,2.383-4.37c0.09-3.394-3.066-6.111-4.761-7.573c-1.512-1.302-3.17-2.263-4.903-2.968
	c-0.396-2.223-0.792-4.361-1.188-6.504c8.328,5.042,18.331,6.486,27.656,1.06c3.461-2.015,8.193-5.843,8.511-10.172
	c0.27-3.69-2.853-6.871-5.432-9.091c-7.44-6.407-15.922-5.724-24.954-4.029c-2.455,0.461-6.76,1.42-9.956,0.893
	c-1.202-5.81-2.402-11.377-3.597-16.81c2.371-8.127,7.896-15.22,14.344-20.572c15.523-12.884,37.481-13.861,56.566-10.663
	c9.437,1.582,18.654,4.165,27.541,7.597c-0.734,1.546-0.957,3.5-1.156,5.278c-0.079,0.708-0.143,1.356-0.251,1.826
	c-1.965,8.606-5.526,17.967-11.208,29.454c-4.404,8.912-9.889,13.712-16.766,14.674c-6.682,0.929-12.851-3.498-14.046-10.082
	c-1.39-7.658,3.293-13.99,8.139-17.36c1.674-1.164,3.422-2.197,5.273-3.293l1.138-0.675c0.292-0.172,0.674-0.369,1.097-0.59
	c2.536-1.32,6.011-3.127,6.393-6.349c0.204-1.725-0.385-3.348-1.659-4.57c-3.479-3.342-11.457-2.911-13.242-2.626
	c-9.577,1.525-17.981,9.514-20.913,19.88c-2.401,8.489-0.314,19.287,5.314,27.511c4.839,7.07,11.548,11.345,18.891,12.042
	c1.935,0.194,3.852,0.087,5.712-0.276c-4.496,7.016-9.458,13.78-14.299,20.378l-2.737,3.736c-1.159,1.588-2.292,3.195-3.423,4.802
	c-5.604,7.964-10.898,15.483-19.123,20.077C149.204,661.863,134.514,662.216,125.348,656.93z M153.973,669.674
	c-3.371,5.027-6.397,10.076-9.134,15.125c-0.24-4.889-0.486-9.412-0.74-13.205C147.436,671.261,150.763,670.643,153.973,669.674z
	 M151.632,1031.845h-28.857c-1.015,0-1.975,0.208-2.875,0.538c-6.47-1.701-12.58-4.307-17.914-7.704
	c-6.707-4.274-11.421-11.697-13.274-20.9c-1.096-5.444-0.974-11.911,0.344-18.21c1.062-5.073,2.262-9.443,6.19-11.517
	c3.885-2.052,9.249-1.643,12.765,0.97c0.614,0.456,1.212,0.935,1.808,1.41c2.93,2.339,5.943,4.734,10.399,4.395
	c3.519-0.366,6.185-2.167,8.763-3.906c0.499-0.336,1.002-0.675,1.513-1.006c3.181-2.058,5.445-3.346,8.767-3.819
	c1.52,1.678,3.692,2.751,6.128,2.751h0.109c4.585-0.06,8.252-3.824,8.192-8.407c-0.17-13.19-0.383-28.167-0.642-44.23
	c1.768,3.03,4.294,5.649,7.534,7.624c6.673,4.069,13.963,5.597,19.987,4.198c15.167-3.523,23.563-15.822,30.201-29.336
	c-1.375,18.339-2.829,37.268-6.035,55.729c-3.897,22.43-11.252,39.465-22.482,52.078c-7.476,8.401-18.481,14.059-26.109,17.582
	C154.692,1030.756,153.175,1031.325,151.632,1031.845z M202.093,833.832c-1.642-5.328-2.237-8.608-2.456-10.49
	c7.181-0.008,14.136-1.594,20.65-4.263c-0.074,0.305-0.15,0.577-0.224,0.887c-2.475,10.44-3.998,21.282-5.21,32.382
	c-1.513-1.239-3.977-3.584-7.685-8.011c-1.883-2.247-5.175-2.718-7.843-1.503l-5.993,2.728l5.862-4.387
	C201.602,839.576,202.945,836.595,202.093,833.832z M172.281,901.621c-0.213-0.683-0.611-1.96-0.499-2.318
	c0.037-0.025,0.169-0.077,0.266-0.112c0.306-0.117,0.726-0.276,1.136-0.634c2.259-1.96,2.528-4.531,0.704-6.71
	c-1.275-1.522-3.332-2.293-6.114-2.293c-6.604,0.005-11.974,3.748-15.103,10.388c-0.249-13.949-0.53-28.445-0.85-43.197
	c1.494,1.212,3.382,2.877,5.748,5.185c1.987,1.938,5.071,2.163,7.544,0.927l-1.008,0.702c-2.372,1.653-3.648,4.663-2.735,7.406
	c3.097,9.309,2.857,12.506,2.857,12.506s1.923-1.958,12.538-4.824c2.831-0.765,4.641-3.554,4.659-6.486l0.03-4.684l0.69,5.147
	c0.178,2.885,2.085,5.54,4.903,6.187c9.562,2.196,12.168,4.064,12.168,4.064s-0.673-2.661,2.4-13.218
	c0.82-2.815-0.622-5.812-3.116-7.353l-2.255-1.393l2.551,1.252c2.496,1.458,5.763,1.351,7.869-0.629
	c3.698-3.479,6.267-5.441,7.904-6.542c-0.36,3.442-0.699,6.906-1.028,10.392c-0.56,5.939-1.196,12.67-2.73,19.205
	c-1.842,7.836-5.738,15.078-9.674,21.733c-2.094,3.539-4.374,6.589-6.777,9.063c-2.14,2.203-4.762,3.613-7.538,5.103
	c-0.605,0.325-1.212,0.653-1.817,0.989c-3.136,1.741-6.848,3.414-10.573,2.659c-4.453-0.905-8.395-2.79-10.543-5.045
	c-1.256-1.32-2.939-3.793-3.174-4.564c0.481-0.128,1.417-0.202,1.857-0.238c0.466-0.038,0.866-0.074,1.107-0.123
	c1.875-0.366,3.836-0.875,5.473-2.099c2.271-1.697,3.68-4.736,3.677-7.934C172.827,903.381,172.562,902.529,172.281,901.621z
	 M173.123,847.355c-1.267-0.771-2.007-2.282-1.603-3.709c1.518-5.353,1.168-6.696,1.168-6.696s1.325,0.936,6.171,2.013
	c1.428,0.318,2.402,1.654,2.502,3.114l0.208,3.024l0.284-2.94c0.043-1.483,0.99-2.874,2.43-3.228
	c5.402-1.33,6.396-2.299,6.396-2.299s-0.157,1.615,1.305,6.358c0.431,1.398-0.248,2.906-1.467,3.716l-2.966,2.219l3.032-1.38
	c1.35-0.615,3.016-0.376,3.968,0.76c3.573,4.265,4.88,4.732,4.88,4.732s-1.519,0.569-5.135,3.97
	c-1.065,1.002-2.719,1.056-3.982,0.318l-1.291-0.634l1.141,0.705c1.262,0.78,1.991,2.296,1.577,3.72
	c-1.555,5.342-1.214,6.688-1.214,6.688s-1.319-0.946-6.157-2.057c-1.425-0.327-2.39-1.671-2.481-3.13l-0.349-2.604l-0.015,2.37
	c-0.01,1.484-0.925,2.896-2.358,3.282c-5.371,1.451-6.344,2.441-6.344,2.441s0.121-1.618-1.446-6.328
	c-0.462-1.388,0.184-2.911,1.384-3.747l0.51-0.355c-1.251,0.625-2.811,0.512-3.817-0.469c-3.983-3.885-5.331-4.218-5.331-4.218
	s1.454-0.719,4.711-4.466c0.959-1.104,2.599-1.324,3.929-0.717l2.795,1.275L173.123,847.355z M186.872,825.81
	c-2.847,0.701-4.718,3.45-4.802,6.381l-0.562,5.811l-0.411-5.977c-0.198-2.884-2.124-5.526-4.946-6.153
	c-9.577-2.129-12.196-3.979-12.196-3.979s0.691,2.656-2.308,13.234c-0.8,2.821,0.662,5.808,3.167,7.331l4.82,3.416l-5.525-2.521
	c-2.63-1.2-5.87-0.766-7.766,1.416c-1.863,2.145-3.394,3.74-4.677,4.992c-0.333-14.849-0.704-29.855-1.116-44.706
	c3.892,3.746,8.133,6.911,12.663,9.353c9.105,4.91,20.826,8.045,32.455,8.768C193.756,823.905,190.955,824.805,186.872,825.81z
	 M216.911,1031.845h-45.337c9.348-5.42,16.01-11.082,21.202-17.981c7.986-10.61,14.037-22.777,17.039-34.259
	c3.746-14.313,5.302-28.929,6.807-43.064c0.706-6.63,1.028-13.367,1.339-19.886c0.175-3.67,0.35-7.341,0.592-11.011
	c0.23-3.479,0.5-6.958,0.771-10.44c0.484-6.223,0.983-12.657,1.23-19.003c0.214-5.504,0.633-11.046,1.139-16.589
	C219.589,937.564,217.579,1008.408,216.911,1031.845z M243.868,741.137c2.128,8.91,2.542,18.639,1.197,28.134
	c-1.063,7.51-3.162,17.024-10.011,23.977c-7.605,7.724-17.444,11.76-24.36,13.788c-19.295,5.674-39.546,0.243-52.842-14.149
	c-11.666-12.627-18.101-31.498-17.684-50.43c2.477,4.307,5.849,7.896,9.967,10.53c8.021,5.13,18.128,6.188,25.745,2.7
	c8.338-3.818,14.497-12.881,15.69-23.089c0.577-4.947-0.178-9.229-2.355-12.925c-0.708-1.211-2.378-4.039-5.815-3.52
	c-4.208,0.642-4.551,4.928-4.695,6.756c-0.031,0.385-0.056,0.754-0.111,1.069c-1.388,7.808-6.332,15.95-12.595,20.738
	c-1.731,1.326-2.409,1.79-3.568,1.714c-1.458-0.041-3.43-0.853-4.784-1.457c-3.501-1.571-6.476-4.075-8.375-7.048
	c-3.21-5.027-4.389-10.353-4.236-15.839c0.902-1.369,1.41-3.012,1.317-4.774c-0.059-1.12-0.118-2.308-0.178-3.525
	c2.001-8.287,6.281-16.786,10.817-25.074c8.388-15.321,19.088-29.719,29.44-43.641c-0.116,0.568-0.224,1.142-0.321,1.716
	c-0.866,5.111-0.508,10.243,1.095,15.696c3.336,11.339,12.125,19.355,23.512,21.438c5.212,0.959,10.527-0.235,15.228-3.135
	c-0.168,6.115-0.344,12.616-0.527,19.489c-0.114,0.12-0.235,0.221-0.343,0.353c-4.164,5.097,1.567,11.323,4.648,14.671
	c0.362,0.394,0.689,0.746,0.951,1.049C237.621,724.359,241.689,732.004,243.868,741.137z M308.545,648.728
	c-9.917-10.083-20.003-19.231-29.162-25.483c-11.517-7.855-23.603-12.461-35.421-13.725c-3.49-4.401-5.445-11.113-3.987-16.568
	c0.727-2.719,1.823-5.752,3.549-8.017c1.851-2.429,4.577-3.908,7.225-5.287c2.859-1.49,5.018-2.447,8.31-2.117
	c2.856,0.288,5.461,1.619,7.939,3.017c5.722,3.228,8.177,11.031,3.117,16.225c-2.727-7.648-13.384-3.205-14.389,3.237
	c-1.333,8.548,9.715,10.967,15.817,8.948c7.708-2.551,12.239-11.416,12.444-19.139c0.04-1.502-0.167-2.936-0.476-4.333
	c5.304,4.998,11.134,9.479,17.321,13.285c8.876,5.461,19.687,9.473,29.773,8.917c-5.296,2.61-9.799,6.192-13.625,11.094
	c-4.978,6.38-7.687,13.918-8.184,21.961C308.632,643.378,308.513,646.059,308.545,648.728z M337.555,643.163
	c-10.521,5.937-3.609,20.139,3.884,25.078c7.863,5.182,18.594,4.18,26.958-0.005c-4.242,8.714-6.473,18.315-6.872,29.715
	c-0.176,5.049-0.063,9.637,0.359,13.891c-0.751-1.054-1.518-2.14-2.26-3.178l-2.232-3.001
	c-8.313-10.791-24.084-30.613-41.261-49.011c-0.945-5.718-0.578-11.508,0.619-17.4c1.595-7.855,7.428-16.232,14.904-19.457
	c3.608-1.557,7.881-2.982,11.857-3.051c4.265-0.074,8.244,1.633,12.047,3.341c4.107,1.844,7.026,3.38,9.513,7.275
	c2.157,3.379,2.953,7.385,3.566,11.311c1.415,9.064-5.01,18.508-15.081,17.459C359.577,646.523,345.484,638.688,337.555,643.163z
	 M361.594,607.129c-6.093-2.126-12.005-3.69-18.123-3.256c3.245-1.936,6.246-4.634,8.85-8.323c0,0,0.002-0.002,0.003-0.003
	c7.139-10.12,7.495-24.382,3.001-35.792c10.263,11.619,21.514,22.735,32.998,32.91c-3.256,10-5.531,12.9-5.531,12.9
	s4.301-0.873,20.931,4.835c2.851,0.979,5.879,0.444,8.391-1.073c0.444,0.293,0.891,0.564,1.341,0.794
	c-1.322,3.67-0.782,7.886,1.946,10.735c5.285,5.521,8.422,9.478,10.26,12.095c-2.163-0.417-4.392-0.685-6.687-0.713
	c-8.88-0.09-16.976,2.23-24.756,7.158c-3.858,2.445-7.488,5.329-10.854,8.542c0.768-4.497,0.626-9.205-0.322-13.699
	c-1.295-6.138-3.165-11.615-6.648-16.857C372.786,611.954,367.603,609.222,361.594,607.129z M428.825,812.25
	c-6.226-10.23-13.082-21.061-20.289-32.117c4.52,3.417,9.013,6.656,13.282,9.728c2.551,1.837,5.163,3.598,7.781,5.318
	C428.836,800.84,428.577,806.551,428.825,812.25z M410.372,764.114c-16.827-13.878-27.504-28.022-32.641-43.234
	c-3.373-9.987-2.861-21.741-2.184-29.714c0.771-9.063,4.683-18.328,11.018-26.09c5.241-6.42,11.635-11.727,18.49-15.349
	c6.264-3.315,14.158-3.668,22.226-1.003c4.847,1.602,9.976,4.66,14.441,8.609c3.43,3.034,6.045,5.611,5.942,8.855
	c-0.107,3.31-2.464,6.805-5.485,8.134c-0.667,0.292-1.345,0.56-2.02,0.831c-3.565,1.418-8.002,3.181-10.227,8.191
	c-0.053,0.12-0.101,0.246-0.142,0.369c-1.416,3.572-1.153,7.008-0.92,10.058c0.044,0.579,0.089,1.162,0.122,1.749
	c0.197,3.515,0.257,5.813-0.959,8.634c-1.595,3.706-0.336,6.267,0.558,7.461c1.757,2.361,5.032,3.487,8.755,3.061
	c4.38-0.522,9.187-2.503,13.19-5.439c4.423-3.241,7.822-7.456,10.236-12.363c3.968,10.62,11.884,19.903,21.733,25.399
	c4.367,2.437,9.358,4.936,14.387,5.468c2.005,0.212,4.001,0.221,5.984,0.122c-4.444,5.759-8.086,12.144-10.588,18.98
	c-0.875,2.388-1.618,4.775-2.298,7.165c-1.053-2.459-2.567-4.881-4.657-7.189c-8.266-9.117-20.193-11.375-30.383-5.728
	c-7.279,4.031-12.556,10.041-14.475,16.488c-3.45,11.583-0.685,22.118,4.492,31.968C433.203,781.54,421.391,773.204,410.372,764.114
	z M464.618,759.553c0.447,3.599,2.782,6.923,6.249,8.888c0.98,0.557,2.069,0.795,3.122,1.025c0.052,0.014,0.108,0.025,0.167,0.038
	c0.012,0.071,0.025,0.145,0.04,0.221c0.85,4.261,4.198,6.609,8.338,5.868c1.143-0.207,2.594-0.748,4.046-2.02
	c-0.287,4.36-0.301,8.761,0.018,13.242c0.76,10.697,2.27,24.057,6.895,35.458c-2.204-1.57-4.406-3.139-6.641-4.706
	c-4.721-3.312-10.071-7.068-14.756-11.419c-5.522-5.127-9.671-11.763-13.332-18.166c-1.897-3.321-3.307-6.551-4.194-9.604
	c-0.728-2.514-0.66-5.239-0.589-8.125c0.018-0.68,0.034-1.364,0.041-2.052c0.033-3.045,0.322-6.453,2.229-8.634
	c2.561-2.927,5.663-5.124,8.101-5.731c0.251-0.063,0.583-0.126,0.952-0.183C464.751,755.461,464.352,757.418,464.618,759.553z
	 M450.266,850.403c-0.345-0.687-0.7-1.38-1.042-2.065c-2.374-4.736-5.173-9.935-8.272-15.448c-1.284-4.224-2.229-8.553-3.078-12.765
	c-1.386-6.882-2.666-14.099-2.581-21.274c0.969,0.618,1.95,1.257,2.91,1.867c3.032,1.924,6.066,3.848,9.065,5.83
	c2.842,1.875,5.664,3.788,8.487,5.698c5.083,3.444,10.34,7.002,15.666,10.314c0.848,0.527,1.684,1.094,2.528,1.634
	c-3.163,0.468-6.143,1.643-8.372,3.471c-3.221,2.64-4.523,5.499-3.767,8.27c0.436,1.596,1.457,2.81,2.876,3.416
	c0.648,0.277,1.365,0.381,2.103,0.374c1.422,0.61,3.066,0.855,4.386,0.834c3.794-0.424,9.505-1.608,13.239,0.379
	c0.447,1.535,0.754,3.367,0.916,5.488c0.21,2.774-0.798,5.056-3.479,7.877c-4.24,4.466-9.295,6.335-15.029,5.57
	C461.009,859.097,454.983,855.516,450.266,850.403z M459.19,867.684c2.891,1.163,5.658,1.912,8.321,2.163
	c0.579,0.057,1.174,0.082,1.779,0.082c4.597,0,9.835-1.563,14.078-4.264c5.433-3.457,8.949-7.207,10.748-11.465
	c1.939-4.586,2.002-9.956,0.224-15.976c2.057,1.49,4.109,2.982,6.146,4.467c0.044,0.033,0.087,0.063,0.131,0.093
	c9.782,7.385,20.88,16.16,29.436,27.002c4.605,5.838,7.29,12.449,7.762,19.044c-0.001,0.336-0.078,0.817-0.145,1.331
	c-0.291,2.249-0.593,4.575,0.698,6.395c1.023,1.449,2.495,2.255,4.049,2.255c0.272,0,0.547-0.025,0.821-0.077
	c2.475-0.451,3.915-2.758,4.44-4.769c1.024-3.949,0.607-9.194-1.238-15.589c-0.461-1.602-1.02-3.165-1.658-4.694
	c2.331,1.03,4.689,1.971,7.098,2.767c11.345,3.747,22.149,5.642,32.222,5.695c-6.911,8.334-9.18,20.279-5.138,31.127
	c3.12,8.379,9.44,15.316,18.866,20.738c-3.37-0.484-6.721-0.992-10.028-1.495c-11.906-1.812-24.217-3.684-36.539-4.269
	c-8.597-0.41-19.88-0.487-30.908,2.599c-6.269,1.752-12.13,4.572-18.197,8.755C486.774,916.929,472.111,892.041,459.19,867.684z
	 M584.005,1023.162c-9.459-4.065-19.356-11.059-29.42-20.208c15.022,4.54,30.477,2.166,44.348-4.801
	c4.133-2.076,8.078-4.492,11.91-7.079c-3.171,7.752-4.843,16.32-3.273,25.104c0.93,5.213,2.639,10.569,5.166,15.425
	C601.933,1029.464,592.252,1026.687,584.005,1023.162z M617.678,977.967c-6.008,4.19-12.348,7.946-19.067,10.883
	c-12.219,5.341-26.085,7.691-39.112,3.895c-9.351-2.725-16.369-8.722-16.526-18.954c-0.118-7.691,3.503-16.359,10.385-20.321
	c3.233-1.861,6.996-2.361,10.61-1.448c2.165,0.546,4.427,1.311,5.454,3.403c1.146,2.333,1.881,5.201,5.323,4.529
	c5.255-1.025,3.681-8.653,1.235-11.494c-3.161-3.671-8.508-5.215-13.175-5.591c-14.682-1.181-26.252,10.968-29.199,24.521
	c-1.038,4.772-1.003,9.4-0.063,13.686c-8.33-9.676-16.648-20.451-24.808-31.972c7.928-4.987,16.881-7.938,26.324-8.616
	c11.815-0.844,25.424,0.232,41.619,3.296c25.311,4.791,49.503,6.223,72.103,4.277c-9.661,6.138-18.306,13.783-25.412,22.523
	c-1.733,2.132-3.504,4.488-5.213,7.021C617.965,977.755,617.801,977.881,617.678,977.967z M707.066,1032.708
	c-9.025,2.699-20.62-0.82-25.814-8.898c0.191-0.771,0.262-1.602,0.33-2.269c0.289-2.842,0.766-5.62,2.33-8.067
	c2.499-3.91,9.01-6.756,7.041-12.32c-1.49-4.21-4.916-4.497-8.184-3.328c-3.933,0.213-8.176,5.457-9.422,8.234
	c-2.261,5.042-2.129,10.856-0.321,16.012c2.379,6.785,7.382,12.142,13.563,15.371c-7.504,0.012-14.845-0.105-21.976-0.368
	c2.194-3.356,3.427-7.194,3.561-11.353c0.085-2.596-0.159-8.964-4.233-11.952c-3.277-2.397-7.565-1.465-10.5-0.552
	c-8.601,2.662-12.034,9.803-14.575,16.283l-0.246,0.637c-0.388,1.002-1.346,3.463-2.355,4.962c-1.795-0.191-3.578-0.391-5.331-0.607
	c-0.806-0.544-1.63-1.173-2.39-1.878c-4.449-4.113-7.456-10.539-8.467-18.09c-2.113-15.75,7.368-30.241,15.69-39.624
	c9.978-11.249,22.673-20.566,36.705-26.94c4.485-2.036,8.352-3.528,12.646-4.192c1.705-0.262,3.419-0.459,5.133-0.656
	c2.517-0.29,5.122-0.588,7.707-1.096c7.346-1.446,14.526-3.889,21.339-7.262c8.991-4.451,17.357-11.442,20.782-20.205
	c5.296,4.074,11.767,6.636,18.457,6.955c5.846,0.278,11.411-1.009,16.354-3.458c-1.097,3.148-1.402,6.85,0.268,10.141
	c1.246,2.46,4.11,4.217,6.69,3.993c2.033-0.142,3.613-1.432,4.332-3.542c0.413-1.205,0.424-2.394,0.432-3.545
	c0.011-1.039,0.019-2.02,0.333-2.886c0.809-2.219,2.646-3.914,4.045-4.941c2.853-2.099,6.237-3.091,9.536-2.894
	c6.592,0.465,12.176,5.849,12.987,12.526c1.071,8.8-5.357,17.131-12.26,20.809c-13.805,7.355-29.372,6.63-44.436,5.92
	c-6.759-0.317-13.747-0.642-20.5-0.24c-14.641,0.877-25.475,2.323-35.119,4.684c-2.454,0.601-4.829,1.454-7.125,2.277l-0.579,0.208
	c-1.049-0.499-2.209-0.801-3.448-0.801c-4.455,0-8.067,3.612-8.067,8.067c0,4.456,3.612,8.067,8.067,8.067
	c1.543,0,2.971-0.456,4.197-1.207c0.158,0.194,0.306,0.395,0.466,0.588c4.016,4.846,8.301,9.475,12.02,14.56
	c1.183,1.618,2.288,3.303,3.324,5.031c0.557,1.148,1.105,2.096,1.501,2.668c2.879,5.421,4.894,11.288,5.384,17.446
	C717.544,1022.62,715.06,1030.317,707.066,1032.708z M697.536,964.874c8.256-1.845,17.781-2.764,29.793-2.855h0.404
	c10.263,0,17.297,2.954,21.501,9.027c4.305,6.218,2.979,14.633-3.015,19.156c-5.682,4.285-13.66,4.54-20.807,0.664
	c-1.861-1.006-3.69-2.178-5.458-3.315l-1.06-0.678c-0.306-0.194-0.678-0.465-1.093-0.763c-2.044-1.473-4.837-3.504-7.141-2.656
	c-0.892,0.323-1.581,0.901-2.031,1.69c-2.021-2.441-4.135-4.808-6.291-7.128c-1.824-1.963-3.675-3.901-5.515-5.848
	c0.807-1.257,1.288-2.742,1.288-4.346C698.11,966.779,697.896,965.789,697.536,964.874z M753.445,1024.18
	c-1.826,1.272-2.808,3.589-2.105,5.7c0.623,1.873,1.064,3.409,1.385,4.679c-12.995,1.021-25.863,1.806-38.438,2.297
	c3.865-2.473,6.927-6.062,8.336-10.731c2.095-6.938,0.801-14.394-1.897-21.249c4.957,2.249,10.797,3.045,16.569,1.934
	c5.449-1.054,10.9-4.25,15.314-8.691c-0.263,1.183-0.589,2.523-1.057,4.172c-0.616,2.171,0.51,4.471,2.438,5.644l3.71,2.629
	l-4.253-1.94c-2.024-0.924-4.519-0.59-5.978,1.09c-4.954,5.701-7.167,6.795-7.167,6.795s2.051,0.506,8.11,6.416
	c1.53,1.492,3.904,1.664,5.807,0.713L753.445,1024.18z M766.035,1033.434c0.442-0.798,0.736-1.692,0.742-2.633l0.023-3.606
	l0.531,3.962c0.046,0.748,0.291,1.448,0.615,2.103C767.309,1033.319,766.672,1033.377,766.035,1033.434z M773.622,1019.382
	l-0.994-0.489l0.878,0.543c0.971,0.6,1.533,1.767,1.214,2.864c-1.197,4.112-0.935,5.148-0.935,5.148s-1.015-0.728-4.74-1.583
	c-1.097-0.252-1.84-1.286-1.909-2.41l-0.269-2.005l-0.012,1.824c-0.007,1.142-0.712,2.229-1.815,2.527
	c-4.134,1.116-4.883,1.879-4.883,1.879s0.094-1.246-1.113-4.872c-0.355-1.069,0.141-2.24,1.065-2.884l0.393-0.274
	c-0.963,0.481-2.164,0.394-2.938-0.361c-3.066-2.99-4.103-3.247-4.103-3.247s1.12-0.553,3.626-3.437c0.739-0.85,2-1.019,3.025-0.551
	l2.152,0.981l-1.877-1.33c-0.976-0.594-1.545-1.757-1.234-2.855c1.168-4.12,0.899-5.155,0.899-5.155s1.02,0.72,4.75,1.55
	c1.099,0.245,1.849,1.274,1.926,2.397l0.16,2.328l0.219-2.264c0.033-1.141,0.762-2.212,1.87-2.485
	c4.158-1.024,4.924-1.77,4.924-1.77s-0.121,1.244,1.005,4.895c0.332,1.076-0.191,2.237-1.129,2.86l-2.283,1.709l2.334-1.063
	c1.039-0.473,2.322-0.29,3.055,0.586c2.75,3.283,3.757,3.642,3.757,3.642s-1.17,0.439-3.953,3.056
	C775.867,1019.908,774.595,1019.949,773.622,1019.382z M781.49,1031.947c0.229-0.92,0.494-1.921,0.83-3.073
	c0.631-2.167-0.479-4.474-2.399-5.66l-1.736-1.073l1.964,0.965c1.922,1.122,4.437,1.04,6.057-0.485
	c2.499-2.35,4.31-3.782,5.575-4.677c0.411,4.639,2.764,8.919,6.068,12.23C792.405,1030.797,786.949,1031.388,781.49,1031.947z
	 M838.393,1007.439c-0.437,7.68-4.449,13.714-11.607,17.453c-1.01,0.529-3.323,1.655-5.849,2.464
	c-2.027,0.263-4.058,0.523-6.094,0.778c-0.125-0.022-0.268-0.014-0.389-0.044c-3.124-0.784-4.624-5.018-5.83-8.418
	c-0.279-0.79-0.544-1.533-0.809-2.189c-1.41-3.485-3.772-9.314-8.161-11.413c-1.651-0.784-2.908-0.517-3.67-0.159
	c-2.419,1.14-3.315,4.725-3.796,6.655c-0.198,0.792-0.312,1.579-0.389,2.362c-1.18-1.054-2.853-2.739-5.205-5.546
	c-1.449-1.73-3.984-2.092-6.038-1.157l-4.613,2.1l4.512-3.377c1.854-1.231,2.887-3.526,2.232-5.653
	c-2.225-7.217-1.985-9.674-1.985-9.674s-1.513,1.474-9.731,3.498c-2.192,0.54-3.632,2.656-3.697,4.912l-0.433,4.473l-0.316-4.601
	c-0.153-2.22-1.635-4.254-3.807-4.736c-2.75-0.612-4.751-1.192-6.184-1.681c0.686-0.98,1.321-1.997,1.899-3.044
	c3.914-7.1,4.684-14.562,2.167-21.003c-1.134-2.911-2.965-5.441-5.318-7.415c9.705,0.784,19.396,2.411,28.817,3.99l4.545,0.76
	c1.935,0.32,3.875,0.607,5.816,0.894c9.803,1.448,19.063,2.818,27.153,8.287C831.804,982.847,839.019,996.381,838.393,1007.439z
	 M841.832,1024.511c3.708-4.829,5.663-10.625,5.641-17.171c-0.041-11.777-6.652-24.879-16.518-33.42
	c36.355,5.385,68.398,0.156,91.695-14.277c-3.357,3.688-6.745,7.443-9.989,11.285c-7.549,8.94-15.912,17.486-24.176,25.928
	l0.005,0.003c-8.708,8.61-18.989,18.334-30.998,25.343C852.327,1022.988,847.104,1023.759,841.832,1024.511z M1080.292,965.511
	c-3.755,3.179-6.923,5.551-10.673,4.884c-3.771-0.672-7.248-3.834-8.265-7.521c-0.199-0.716-0.372-1.44-0.541-2.162
	c-0.88-3.687-1.875-7.868-6.067-10.511l-9.894-6.241c0.312-1.717,0.84-4.018,1.737-7.1c0.719-2.47-0.546-5.1-2.734-6.452
	l-1.979-1.222l2.239,1.099c2.19,1.279,5.057,1.185,6.905-0.552c6.271-5.899,8.906-6.887,8.906-6.887s-2.268-0.809-8.464-8.205
	c-1.652-1.973-4.541-2.385-6.882-1.319l-5.259,2.393l5.144-3.849c2.113-1.403,3.291-4.019,2.544-6.443
	c-2.536-8.226-2.263-11.027-2.263-11.027s-1.725,1.68-11.093,3.987c-2.498,0.615-4.14,3.028-4.214,5.599l-0.493,5.1l-0.36-5.245
	c-0.174-2.531-1.864-4.848-4.34-5.399c-8.403-1.869-10.702-3.492-10.702-3.492s0.606,2.331-2.025,11.613
	c-0.702,2.475,0.581,5.096,2.779,6.434l4.229,2.997l-4.848-2.212c-2.308-1.053-5.151-0.672-6.815,1.243
	c-5.647,6.498-8.169,7.745-8.169,7.745s2.338,0.578,9.245,7.314c1.744,1.701,4.45,1.897,6.619,0.814l-0.884,0.616
	c-2.081,1.45-3.201,4.091-2.4,6.498c2.718,8.168,2.507,10.974,2.507,10.974s1.687-1.718,11.001-4.233
	c2.484-0.671,4.072-3.119,4.089-5.692l0.026-4.11l0.605,4.516c0.156,2.531,1.83,4.861,4.302,5.429
	c4.801,1.102,7.559,2.099,9.078,2.76c-3.386-0.312-5.73-0.653-8.447-2.324c-2.892-1.779-5.116-1.066-6.185-0.492
	c-2.178,1.181-3.531,3.848-3.619,7.133c-0.112,4.195,1.101,9.008,3.329,13.201c4.125,7.777,11.115,13.352,20.142,16.264
	c-6.383,1.648-12.719,3.247-18.846,4.794c-11.758,2.968-22.862,5.769-32.572,8.467c-20.418,5.707-65.272,15.523-118.956,24.312
	c1.076-0.834,2.151-1.67,3.207-2.516c11.457-9.183,21.927-20.036,32.534-31.28c3.982-4.22,8.494-9.005,13.553-13.072
	c6.01-4.837,13.277-8.035,20.235-10.768c3.649-1.435,7.15-2.391,10.399-2.842c2.796-0.385,5.57,0.09,8.513,0.593
	c0.667,0.115,1.336,0.23,2.011,0.336c3.239,0.508,6.841,1.367,8.994,3.881c2.11,2.465,4.479,6.264,4.805,9.549
	c0.085,0.85,0.068,2.156-0.025,3.219c-0.377-0.249-0.705-0.451-0.927-0.563c-1.809-0.916-3.793-1.768-6.048-1.815
	c-3.192,0.016-6.491,1.626-8.656,4.411c-0.571,0.735-0.929,1.686-1.276,2.605c-0.115,0.301-0.271,0.719-0.421,1.063
	c-0.287-0.052-0.623-0.082-0.998-0.068c-3.64,0.197-5.914,2.583-5.794,6.086c0.055,1.607,0.765,4.026,3.834,6.42
	c6.322,4.922,14.425,4.728,22.241-0.525c9.705-6.524,13.46-17.404,9.563-27.724c-2.82-7.472-7.767-13.302-13.57-15.991
	c-12.323-5.715-24.578-3.151-36.396,1.867c10.79-11.842,21.96-23.838,33.95-34.707c16.341-14.816,32.078-23.444,48.115-26.376
	c2.337-0.429,4.729-0.627,7.122-0.699c7.554,1.33,15.515,2.665,24.152,4.104c1.92,0.32,3.889,0.648,5.872,0.98
	c6.596,2.76,12.813,7.156,17.976,12.797c5.709,6.231,10.131,13.474,12.785,20.943c2.49,7.01,1.684,15.228-2.274,23.141
	C1088.854,956.771,1084.976,961.548,1080.292,965.511z M1045.235,947.842c-0.016,0-0.036-0.003-0.055-0.003
	c-0.249-0.017-0.5-0.038-0.75-0.056c-0.003-0.193,0.002-0.433,0.018-0.727L1045.235,947.842z M1036.543,926.103
	c1.107,0.684,1.747,2.014,1.384,3.264c-1.364,4.687-1.066,5.868-1.066,5.868s-1.157-0.829-5.402-1.805
	c-1.251-0.287-2.098-1.466-2.177-2.747l-0.306-2.285l-0.013,2.08c-0.008,1.302-0.812,2.54-2.069,2.879
	c-4.713,1.272-5.567,2.142-5.567,2.142s0.107-1.42-1.269-5.553c-0.405-1.218,0.161-2.554,1.214-3.288l0.447-0.312
	c-1.098,0.548-2.467,0.449-3.349-0.412c-3.495-3.409-4.678-3.701-4.678-3.701s1.276-0.631,4.133-3.919
	c0.842-0.969,2.28-1.162,3.448-0.629l2.453,1.119l-2.14-1.517c-1.112-0.676-1.761-2.003-1.406-3.255
	c1.331-4.696,1.025-5.875,1.025-5.875s1.163,0.821,5.415,1.766c1.253,0.279,2.108,1.452,2.196,2.732l0.182,2.654l0.25-2.58
	c0.037-1.302,0.868-2.522,2.132-2.833c4.74-1.167,5.613-2.018,5.613-2.018s-0.138,1.417,1.145,5.579
	c0.378,1.227-0.218,2.55-1.287,3.261l-2.603,1.947l2.661-1.211c1.185-0.539,2.646-0.331,3.482,0.668
	c3.135,3.742,4.282,4.151,4.282,4.151s-1.333,0.499-4.506,3.484c-0.935,0.879-2.385,0.927-3.494,0.28l-1.133-0.557L1036.543,926.103
	z M1133.129,947.506c-0.003,0.068-0.702,7.04-31.392,18.147c-2.223,0.804-4.554,1.597-6.914,2.387
	c4.963-5.62,10.025-13.358,11.492-22.604c1.353-8.516,0.235-16.63-3.419-24.805c-3.265-7.312-7.938-14.147-13.661-20.088
	C1134.812,913.028,1133.709,935.884,1133.129,947.506z M906.926,879.741l-1.658,0.754l1.622-1.214
	c0.666-0.443,1.037-1.267,0.802-2.031c-0.799-2.594-0.714-3.476-0.714-3.476s-0.544,0.53-3.497,1.257
	c-0.787,0.194-1.305,0.955-1.328,1.765l-0.156,1.608l-0.114-1.653c-0.055-0.798-0.587-1.528-1.368-1.702
	c-2.649-0.589-3.374-1.101-3.374-1.101s0.191,0.735-0.638,3.662c-0.221,0.78,0.183,1.606,0.876,2.027l1.333,0.946l-1.528-0.698
	c-0.728-0.331-1.624-0.212-2.148,0.391c-1.78,2.049-2.576,2.442-2.576,2.442s0.737,0.182,2.914,2.306
	c0.55,0.536,1.403,0.598,2.087,0.256l-0.279,0.194c-0.656,0.458-1.009,1.29-0.757,2.048c0.857,2.576,0.79,3.46,0.79,3.46
	s0.532-0.541,3.468-1.334c0.783-0.211,1.284-0.983,1.289-1.794l0.008-1.295l0.191,1.423c0.049,0.798,0.577,1.533,1.356,1.712
	c2.645,0.607,3.366,1.125,3.366,1.125s-0.186-0.736,0.664-3.656c0.227-0.779-0.172-1.608-0.862-2.034l-0.624-0.386l0.706,0.347
	c0.69,0.403,1.594,0.374,2.177-0.174c1.977-1.859,2.807-2.171,2.807-2.171s-0.715-0.256-2.668-2.587
	C908.575,879.534,907.664,879.404,906.926,879.741z M537.594,760.712l1.464,1.038l-1.678-0.765c-0.799-0.365-1.783-0.233-2.359,0.43
	c-1.955,2.25-2.828,2.682-2.828,2.682s0.809,0.2,3.201,2.532c0.604,0.589,1.54,0.657,2.292,0.281l-0.306,0.213
	c-0.72,0.502-1.108,1.416-0.831,2.249c0.941,2.829,0.868,3.8,0.868,3.8s0.584-0.595,3.809-1.466c0.86-0.232,1.41-1.08,1.416-1.97
	l0.009-1.423l0.21,1.563c0.054,0.877,0.633,1.684,1.489,1.88c2.905,0.668,3.697,1.235,3.697,1.235s-0.204-0.808,0.729-4.015
	c0.249-0.855-0.189-1.766-0.946-2.234l-0.685-0.423l0.775,0.381c0.758,0.443,1.751,0.411,2.391-0.191
	c2.171-2.042,3.083-2.384,3.083-2.384s-0.785-0.28-2.93-2.84c-0.572-0.683-1.572-0.826-2.383-0.457l-1.821,0.829l1.781-1.333
	c0.731-0.486,1.139-1.391,0.881-2.23c-0.878-2.849-0.784-3.818-0.784-3.818s-0.597,0.582-3.84,1.381
	c-0.865,0.213-1.433,1.048-1.459,1.938l-0.171,1.766l-0.125-1.815c-0.06-0.877-0.645-1.679-1.502-1.869
	c-2.909-0.647-3.705-1.209-3.705-1.209s0.21,0.807-0.701,4.02C536.389,759.342,536.833,760.25,537.594,760.712z M1035.187,919.763
	c-0.452-0.54-1.243-0.653-1.884-0.361l-1.439,0.655l1.408-1.053c0.578-0.385,0.901-1.1,0.696-1.763
	c-0.694-2.251-0.619-3.018-0.619-3.018s-0.472,0.46-3.036,1.091c-0.683,0.169-1.133,0.829-1.153,1.533l-0.135,1.395l-0.099-1.435
	c-0.047-0.692-0.51-1.327-1.188-1.477c-2.3-0.511-2.929-0.956-2.929-0.956s0.166,0.638-0.554,3.179
	c-0.192,0.677,0.159,1.395,0.76,1.76l1.157,0.821l-1.327-0.605c-0.631-0.288-1.41-0.184-1.865,0.34
	c-1.545,1.778-2.236,2.119-2.236,2.119s0.64,0.158,2.53,2.002c0.477,0.465,1.218,0.519,1.811,0.223l-0.242,0.168
	c-0.569,0.397-0.876,1.12-0.657,1.779c0.744,2.235,0.686,3.004,0.686,3.004s0.462-0.471,3.011-1.159
	c0.68-0.184,1.114-0.853,1.119-1.557l0.007-1.125l0.166,1.236c0.043,0.693,0.501,1.33,1.177,1.485
	c2.296,0.527,2.922,0.976,2.922,0.976s-0.162-0.639,0.576-3.174c0.197-0.676-0.149-1.396-0.748-1.766l-0.542-0.334l0.613,0.301
	c0.599,0.35,1.384,0.325,1.89-0.151c1.716-1.615,2.437-1.885,2.437-1.885S1036.882,921.787,1035.187,919.763z M523.08,729.889
	c0,0,0.767,2.948-2.562,14.691c-0.888,3.131,0.735,6.447,3.516,8.138l5.35,3.792l-6.133-2.798c-2.919-1.332-6.516-0.85-8.621,1.572
	c-7.143,8.22-10.334,9.798-10.334,9.798s2.958,0.731,11.695,9.253c2.206,2.152,5.629,2.4,8.374,1.029l-1.119,0.78
	c-2.633,1.835-4.049,5.175-3.036,8.22c3.438,10.333,3.172,13.883,3.172,13.883s2.134-2.173,13.917-5.355
	c3.142-0.848,5.151-3.945,5.172-7.199l0.034-5.2l0.766,5.713c0.198,3.203,2.315,6.15,5.442,6.868
	c10.614,2.438,13.508,4.512,13.508,4.512s-0.747-2.954,2.664-14.672c0.91-3.125-0.69-6.452-3.459-8.162l-2.503-1.546l2.832,1.39
	c2.771,1.619,6.398,1.5,8.735-0.699c7.933-7.461,11.266-8.711,11.266-8.711s-2.869-1.024-10.707-10.38
	c-2.09-2.495-5.744-3.017-8.706-1.669l-6.652,3.028l6.507-4.87c2.673-1.776,4.163-5.085,3.218-8.151
	c-3.208-10.407-2.863-13.95-2.863-13.95s-2.182,2.126-14.033,5.044c-3.16,0.778-5.238,3.83-5.331,7.083l-0.624,6.451l-0.456-6.635
	c-0.22-3.202-2.358-6.134-5.49-6.831C525.988,731.943,523.08,729.889,523.08,729.889z M542.402,752.296l0.231,3.357l0.316-3.263
	c0.047-1.647,1.098-3.191,2.697-3.584c5.996-1.477,7.1-2.553,7.1-2.553s-0.175,1.793,1.448,7.059
	c0.478,1.552-0.276,3.226-1.628,4.124l-3.292,2.464l3.366-1.532c1.499-0.683,3.348-0.418,4.405,0.844
	c3.966,4.734,5.418,5.252,5.418,5.252s-1.687,0.632-5.7,4.408c-1.183,1.112-3.018,1.172-4.42,0.354l-1.433-0.704l1.267,0.782
	c1.401,0.866,2.211,2.549,1.75,4.13c-1.726,5.929-1.348,7.423-1.348,7.423s-1.464-1.049-6.835-2.282
	c-1.582-0.364-2.654-1.855-2.754-3.475l-0.387-2.891l-0.017,2.631c-0.011,1.647-1.027,3.213-2.617,3.642
	c-5.962,1.61-7.042,2.71-7.042,2.71s0.135-1.796-1.605-7.025c-0.513-1.541,0.204-3.231,1.536-4.16l0.566-0.394
	c-1.389,0.693-3.121,0.568-4.237-0.521c-4.421-4.312-5.917-4.682-5.917-4.682s1.615-0.798,5.229-4.958
	c1.065-1.225,2.885-1.469,4.362-0.795l3.103,1.416l-2.707-1.919c-1.407-0.856-2.228-2.534-1.779-4.118
	c1.684-5.941,1.296-7.432,1.296-7.432s1.471,1.039,6.85,2.235C541.21,749.192,542.291,750.676,542.402,752.296z M427.389,587.356
	l-0.267,0.467c-0.628,1.098-0.569,2.527,0.305,3.442c2.969,3.101,3.473,4.411,3.473,4.411s0.394-1.134,4.055-4.257
	c0.976-0.832,1.17-2.275,0.628-3.438l-0.866-1.858l1.237,1.906c0.611,1.108,1.863,1.801,3.098,1.529
	c4.193-0.922,5.574-0.672,5.574-0.672s-0.764-0.927-1.527-5.677c-0.203-1.267-1.335-2.182-2.61-2.324l-1.153-0.129l1.244,0.018
	c1.26,0.109,2.533-0.545,2.995-1.723c1.567-3.997,2.544-5.005,2.544-5.005s-1.195,0.12-5.566-1.891
	c-1.166-0.536-2.556-0.106-3.384,0.875l-1.859,2.201l1.497-2.833c0.653-1.084,0.625-2.514-0.229-3.447
	c-2.899-3.167-3.374-4.488-3.374-4.488s-0.419,1.126-4.149,4.166c-0.995,0.81-1.22,2.249-0.704,3.423l0.866,2.404l-1.282-2.287
	c-0.619-1.104-1.875-1.788-3.109-1.507c-4.186,0.951-5.569,0.711-5.569,0.711s0.771,0.921,1.566,5.666
	c0.212,1.265,1.35,2.173,2.626,2.306l2.546,0.449l-2.657,0.038c-1.265,0.018-2.465,0.797-2.806,2.015
	c-1.158,4.134-2.029,5.235-2.029,5.235s1.177-0.239,5.728,1.323C425.38,588.797,426.642,588.308,427.389,587.356z M126.78,1000.662
	c-0.394-0.47-1.081-0.568-1.639-0.314l-1.252,0.57l1.225-0.917c0.503-0.333,0.784-0.957,0.606-1.534
	c-0.604-1.959-0.539-2.626-0.539-2.626s-0.411,0.4-2.641,0.95c-0.595,0.146-0.986,0.721-1.003,1.333l-0.118,1.214l-0.086-1.249
	c-0.041-0.603-0.444-1.155-1.033-1.286c-2.001-0.445-2.549-0.831-2.549-0.831s0.145,0.555-0.482,2.765
	c-0.167,0.59,0.138,1.213,0.662,1.532l1.007,0.714l-1.154-0.527c-0.55-0.251-1.226-0.161-1.623,0.296
	c-1.345,1.547-1.945,1.844-1.945,1.844s0.557,0.137,2.201,1.742c0.415,0.405,1.06,0.452,1.576,0.194l-0.211,0.146
	c-0.496,0.346-0.762,0.974-0.571,1.548c0.647,1.945,0.597,2.613,0.597,2.613s0.402-0.409,2.62-1.008
	c0.591-0.159,0.97-0.742,0.974-1.355l0.006-0.978l0.144,1.075c0.037,0.603,0.436,1.158,1.025,1.293
	c1.998,0.459,2.543,0.85,2.543,0.85s-0.141-0.556,0.502-2.762c0.171-0.588-0.13-1.214-0.651-1.536l-0.471-0.291l0.533,0.262
	c0.521,0.305,1.204,0.282,1.644-0.132c1.493-1.404,2.12-1.64,2.12-1.64S128.255,1002.423,126.78,1000.662z M352.682,595.038
	c-0.114,0.161-0.237,0.336-0.359,0.508c0,0-0.001,0.001-0.001,0.002C352.47,595.338,352.568,595.199,352.682,595.038z
	 M140.941,996.206c-1.437-1.716-3.951-2.076-5.988-1.148l-4.576,2.083l4.476-3.349c1.838-1.222,2.864-3.497,2.213-5.606
	c-2.206-7.159-1.969-9.596-1.969-9.596s-1.501,1.462-9.652,3.47c-2.174,0.535-3.603,2.634-3.667,4.872l-0.429,4.437l-0.314-4.564
	c-0.151-2.202-1.622-4.219-3.776-4.698c-7.312-1.625-9.312-3.038-9.312-3.038s0.528,2.029-1.762,10.105
	c-0.611,2.154,0.506,4.434,2.418,5.597l3.68,2.609l-4.218-1.925c-2.008-0.916-4.482-0.584-5.93,1.082
	c-4.913,5.654-7.108,6.74-7.108,6.74s2.034,0.502,8.044,6.364c1.518,1.48,3.872,1.651,5.76,0.708l-0.769,0.536
	c-1.811,1.262-2.785,3.56-2.088,5.654c2.365,7.107,2.182,9.549,2.182,9.549s1.468-1.495,9.573-3.683
	c2.161-0.584,3.543-2.713,3.558-4.952l0.023-3.576l0.527,3.929c0.136,2.203,1.592,4.23,3.743,4.724
	c7.301,1.677,9.291,3.103,9.291,3.103s-0.514-2.031,1.833-10.092c0.626-2.15-0.475-4.438-2.379-5.614l-1.722-1.063l1.948,0.957
	c1.906,1.113,4.401,1.032,6.008-0.481c5.456-5.132,7.749-5.992,7.749-5.992S146.332,1002.641,140.941,996.206z M131.114,1005.881
	c-0.813,0.765-2.076,0.806-3.04,0.243l-0.986-0.484l0.871,0.538c0.964,0.595,1.52,1.753,1.204,2.84
	c-1.187,4.079-0.927,5.107-0.927,5.107s-1.007-0.721-4.701-1.57c-1.088-0.25-1.825-1.276-1.894-2.39l-0.266-1.988l-0.012,1.809
	c-0.007,1.133-0.706,2.211-1.8,2.506c-4.101,1.107-4.844,1.863-4.844,1.863s0.093-1.235-1.104-4.831
	c-0.353-1.06,0.14-2.223,1.056-2.861l0.389-0.271c-0.955,0.477-2.147,0.39-2.914-0.359c-3.041-2.966-4.07-3.22-4.07-3.22
	s1.111-0.549,3.597-3.409c0.732-0.843,1.984-1.011,3-0.547l2.134,0.974l-1.862-1.32c-0.968-0.588-1.533-1.742-1.224-2.831
	c1.159-4.087,0.892-5.113,0.892-5.113s1.012,0.715,4.712,1.537c1.09,0.243,1.834,1.263,1.911,2.377l0.159,2.309l0.217-2.245
	c0.032-1.132,0.755-2.195,1.855-2.465c4.124-1.016,4.884-1.756,4.884-1.756s-0.12,1.233,0.996,4.855
	c0.329,1.067-0.19,2.219-1.12,2.837l-2.265,1.694l2.315-1.054c1.031-0.469,2.303-0.288,3.03,0.581
	c2.728,3.256,3.726,3.612,3.726,3.612S133.875,1003.284,131.114,1005.881z M175.047,854.989c0.544,0.53,1.388,0.592,2.064,0.254
	l-0.276,0.191c-0.649,0.453-0.998,1.276-0.749,2.027c0.848,2.548,0.782,3.423,0.782,3.423s0.526-0.536,3.431-1.32
	c0.775-0.209,1.27-0.973,1.275-1.775l0.008-1.282l0.189,1.408c0.049,0.79,0.571,1.516,1.342,1.693
	c2.617,0.601,3.33,1.112,3.33,1.112s-0.184-0.728,0.657-3.617c0.224-0.77-0.17-1.591-0.853-2.012l-0.617-0.381l0.698,0.343
	c0.683,0.399,1.577,0.37,2.153-0.172c1.956-1.839,2.777-2.148,2.777-2.148s-0.707-0.252-2.64-2.559
	c-0.515-0.615-1.416-0.744-2.146-0.411l-1.64,0.747l1.604-1.201c0.659-0.437,1.026-1.253,0.793-2.009
	c-0.791-2.566-0.706-3.44-0.706-3.44s-0.538,0.524-3.46,1.244c-0.779,0.192-1.291,0.944-1.314,1.746l-0.154,1.591l-0.112-1.636
	c-0.054-0.789-0.581-1.512-1.353-1.684c-2.621-0.583-3.338-1.089-3.338-1.089s0.189,0.727-0.632,3.622
	c-0.219,0.772,0.181,1.589,0.867,2.006l1.319,0.935l-1.512-0.689c-0.72-0.329-1.607-0.21-2.125,0.387
	c-1.761,2.027-2.548,2.415-2.548,2.415S172.893,852.888,175.047,854.989z M226.172,751.422l-5.515,2.51l5.395-4.037
	c2.216-1.472,3.451-4.216,2.667-6.757c-2.659-8.628-2.373-11.565-2.373-11.565s-1.809,1.762-11.634,4.182
	c-2.62,0.646-4.342,3.175-4.419,5.872l-0.517,5.348l-0.378-5.501c-0.182-2.654-1.954-5.085-4.551-5.662
	c-8.813-1.959-11.224-3.662-11.224-3.662s0.636,2.444-2.124,12.178c-0.736,2.596,0.61,5.344,2.915,6.747l4.435,3.144l-5.084-2.32
	c-2.42-1.104-5.402-0.704-7.147,1.304c-5.922,6.815-8.568,8.123-8.568,8.123s2.452,0.605,9.695,7.67
	c1.829,1.784,4.667,1.99,6.942,0.853l-0.927,0.646c-2.183,1.521-3.357,4.291-2.517,6.815c2.851,8.567,2.63,11.509,2.63,11.509
	s1.769-1.802,11.538-4.44c2.605-0.703,4.271-3.27,4.288-5.968l0.028-4.311l0.635,4.736c0.164,2.655,1.919,5.099,4.512,5.694
	c8.799,2.02,11.198,3.74,11.198,3.74s-0.619-2.448,2.209-12.163c0.754-2.59-0.572-5.349-2.868-6.766l-2.075-1.282l2.348,1.153
	c2.297,1.342,5.304,1.244,7.242-0.579c6.576-6.186,9.34-7.221,9.34-7.221s-2.379-0.849-8.876-8.605
	C231.658,750.737,228.628,750.304,226.172,751.422z M221.547,764.467c-0.98,0.922-2.502,0.972-3.664,0.292l-1.188-0.583l1.05,0.648
	c1.161,0.717,1.833,2.113,1.451,3.424c-1.431,4.915-1.117,6.154-1.117,6.154s-1.214-0.87-5.666-1.892
	c-1.312-0.301-2.2-1.538-2.283-2.881l-0.321-2.396l-0.014,2.182c-0.009,1.365-0.852,2.663-2.17,3.019
	c-4.943,1.334-5.838,2.247-5.838,2.247s0.112-1.489-1.33-5.823c-0.425-1.278,0.169-2.678,1.274-3.448l0.469-0.327
	c-1.151,0.575-2.587,0.471-3.512-0.432c-3.665-3.575-4.906-3.881-4.906-3.881s1.339-0.662,4.335-4.11
	c0.883-1.017,2.391-1.219,3.616-0.66l2.572,1.174l-2.244-1.591c-1.166-0.709-1.847-2.1-1.475-3.414
	c1.397-4.926,1.075-6.162,1.075-6.162s1.22,0.862,5.679,1.853c1.314,0.292,2.211,1.522,2.303,2.865l0.191,2.784l0.262-2.706
	c0.039-1.365,0.91-2.645,2.236-2.971c4.971-1.224,5.886-2.116,5.886-2.116s-0.145,1.486,1.201,5.851
	c0.396,1.287-0.229,2.674-1.35,3.419l-2.73,2.043l2.79-1.27c1.242-0.566,2.775-0.346,3.652,0.7c3.288,3.925,4.491,4.354,4.491,4.354
	S224.874,761.337,221.547,764.467z M175.612,333.61c0,0-0.839-0.806-2.103-5.292c-0.337-1.196-1.528-1.95-2.771-1.945l-1.124,0.005
	l1.199-0.122c1.225-0.036,2.376-0.808,2.689-1.992c1.061-4.021,1.889-5.099,1.889-5.099s-1.136,0.248-5.567-1.198
	c-1.181-0.386-2.471,0.184-3.158,1.219l-1.543,2.326l1.124-2.893c0.507-1.115,0.321-2.488-0.605-3.291
	c-3.143-2.723-3.748-3.941-3.748-3.941s-0.277,1.13-3.526,4.471c-0.866,0.891-0.922,2.3-0.295,3.373l1.102,2.216l-1.489-2.057
	c-0.718-0.993-2.004-1.511-3.159-1.103c-3.922,1.383-5.279,1.306-5.279,1.306s0.845,0.8,2.14,5.277
	c0.345,1.194,1.541,1.94,2.784,1.925l2.5,0.148l-2.552,0.333c-1.215,0.159-2.283,1.041-2.475,2.251
	c-0.652,4.107-1.367,5.264-1.367,5.264s1.106-0.361,5.659,0.633c1.15,0.251,2.309-0.361,2.921-1.36l-0.205,0.478
	c-0.482,1.127-0.266,2.495,0.678,3.277c3.203,2.652,3.834,3.856,3.834,3.856s0.252-1.136,3.426-4.548
	c0.846-0.91,0.871-2.32,0.22-3.378l-1.04-1.692l1.403,1.696c0.712,0.998,1.993,1.525,3.151,1.125
	C174.256,333.523,175.612,333.61,175.612,333.61z M216.322,758.177c-0.474-0.566-1.303-0.685-1.975-0.379l-1.509,0.687l1.476-1.105
	c0.606-0.403,0.944-1.153,0.73-1.849c-0.728-2.361-0.65-3.166-0.65-3.166s-0.495,0.482-3.184,1.144
	c-0.717,0.177-1.188,0.869-1.21,1.607l-0.141,1.464l-0.104-1.505c-0.05-0.726-0.535-1.392-1.246-1.55
	c-2.412-0.536-3.072-1.002-3.072-1.002s0.174,0.669-0.581,3.333c-0.201,0.711,0.167,1.463,0.798,1.846l1.214,0.861l-1.391-0.635
	c-0.662-0.303-1.478-0.193-1.956,0.356c-1.621,1.865-2.345,2.223-2.345,2.223s0.671,0.165,2.653,2.099
	c0.5,0.489,1.277,0.545,1.9,0.234l-0.254,0.177c-0.597,0.416-0.919,1.174-0.689,1.865c0.78,2.345,0.72,3.15,0.72,3.15
	s0.484-0.493,3.158-1.215c0.713-0.193,1.169-0.895,1.173-1.633l0.008-1.18l0.174,1.296c0.045,0.727,0.525,1.395,1.235,1.558
	c2.408,0.553,3.065,1.024,3.065,1.024s-0.169-0.67,0.604-3.329c0.207-0.709-0.157-1.464-0.785-1.852l-0.568-0.351l0.643,0.316
	c0.629,0.367,1.451,0.34,1.982-0.159c1.8-1.693,2.556-1.977,2.556-1.977S218.1,760.299,216.322,758.177z M772.317,1013.875
	c-0.397-0.474-1.09-0.573-1.652-0.317l-1.262,0.575l1.235-0.924c0.507-0.337,0.79-0.965,0.611-1.547
	c-0.609-1.975-0.543-2.648-0.543-2.648s-0.414,0.404-2.663,0.958c-0.6,0.148-0.994,0.726-1.012,1.343l-0.118,1.224l-0.087-1.259
	c-0.042-0.608-0.447-1.164-1.042-1.297c-2.018-0.448-2.569-0.838-2.569-0.838s0.146,0.56-0.486,2.788
	c-0.168,0.594,0.14,1.223,0.667,1.544l1.015,0.72l-1.164-0.532c-0.554-0.253-1.237-0.161-1.636,0.299
	c-1.356,1.56-1.961,1.859-1.961,1.859s0.562,0.139,2.22,1.756c0.419,0.409,1.068,0.456,1.589,0.195l-0.212,0.148
	c-0.499,0.348-0.768,0.982-0.576,1.56c0.653,1.961,0.602,2.635,0.602,2.635s0.405-0.413,2.641-1.016
	c0.596-0.161,0.978-0.749,0.981-1.367l0.007-0.987l0.145,1.084c0.038,0.607,0.439,1.167,1.033,1.303
	c2.014,0.463,2.563,0.856,2.563,0.856s-0.142-0.56,0.506-2.784c0.173-0.593-0.131-1.224-0.656-1.549l-0.475-0.294l0.538,0.264
	c0.526,0.307,1.214,0.285,1.658-0.133c1.505-1.416,2.138-1.653,2.138-1.653S773.805,1015.65,772.317,1013.875z M139.346,484.601
	c0.968,0.332,2.031-0.079,2.66-0.881l-0.225,0.394c-0.529,0.924-0.48,2.128,0.257,2.898c2.501,2.613,2.925,3.716,2.925,3.716
	s0.332-0.955,3.416-3.586c0.822-0.701,0.985-1.916,0.529-2.896l-0.729-1.565l1.042,1.606c0.515,0.933,1.569,1.517,2.61,1.288
	c3.532-0.777,4.695-0.566,4.695-0.566s-0.644-0.78-1.286-4.783c-0.171-1.067-1.124-1.838-2.198-1.958l-0.971-0.109l1.048,0.015
	c1.062,0.092,2.133-0.459,2.522-1.451c1.32-3.367,2.143-4.216,2.143-4.216s-1.007,0.1-4.689-1.593
	c-0.982-0.452-2.153-0.089-2.85,0.737l-1.566,1.854l1.261-2.387c0.55-0.913,0.527-2.117-0.193-2.903
	c-2.442-2.667-2.842-3.78-2.842-3.78s-0.353,0.948-3.495,3.509c-0.838,0.683-1.027,1.893-0.593,2.883l0.73,2.024l-1.08-1.927
	c-0.521-0.929-1.579-1.505-2.618-1.269c-3.526,0.802-4.691,0.599-4.691,0.599s0.649,0.776,1.319,4.773
	c0.179,1.066,1.137,1.83,2.212,1.943l2.145,0.377l-2.238,0.032c-1.066,0.015-2.077,0.671-2.364,1.697
	c-0.975,3.483-1.709,4.41-1.709,4.41S135.512,483.285,139.346,484.601z M651.181,906.076c0.499,0.487,1.272,0.543,1.893,0.232
	l-0.253,0.176c-0.595,0.415-0.915,1.17-0.686,1.859c0.777,2.335,0.717,3.138,0.717,3.138s0.482-0.491,3.146-1.21
	c0.71-0.192,1.164-0.892,1.169-1.628l0.008-1.175l0.173,1.291c0.045,0.724,0.523,1.39,1.23,1.552c2.399,0.551,3.053,1.02,3.053,1.02
	s-0.169-0.668,0.602-3.317c0.206-0.706-0.156-1.459-0.782-1.845l-0.566-0.35l0.64,0.314c0.626,0.366,1.446,0.339,1.974-0.158
	c1.793-1.687,2.547-1.969,2.547-1.969s-0.649-0.232-2.42-2.346c-0.472-0.564-1.298-0.682-1.968-0.377l-1.504,0.685l1.471-1.101
	c0.604-0.402,0.941-1.149,0.727-1.843c-0.725-2.352-0.647-3.153-0.647-3.153s-0.493,0.481-3.172,1.14
	c-0.714,0.176-1.184,0.866-1.205,1.601l-0.141,1.458l-0.103-1.5c-0.05-0.724-0.533-1.386-1.241-1.544
	c-2.403-0.534-3.06-0.999-3.06-0.999s0.173,0.667-0.579,3.321c-0.201,0.708,0.166,1.457,0.795,1.839l1.209,0.857l-1.386-0.632
	c-0.66-0.301-1.473-0.193-1.949,0.355c-1.615,1.858-2.336,2.214-2.336,2.214S649.206,904.149,651.181,906.076z M352.322,595.548
	l-0.001,0.001c-0.018,0.026-0.035,0.05-0.053,0.076C352.288,595.597,352.301,595.578,352.322,595.548z"/>
</svg>
