<?xml version="1.0" encoding="utf-8"?>
<!-- Generator: Adobe Illustrator 23.0.3, SVG Export Plug-In . SVG Version: 6.00 Build 0)  -->
<svg version="1.1" fill="#e7e1e3" id="Capa_1" xmlns="http://www.w3.org/2000/svg" xmlns:xlink="http://www.w3.org/1999/xlink" x="0px" y="0px"
	 viewBox="0 0 1200 1200" enable-background="new 0 0 1200 1200" xml:space="preserve">
<path d="M722.838,152.103c4.237-3.853,6.256-9.973,4.669-15.648c-0.13-0.501-0.272-0.982-0.452-1.58
	c-1.809-5.972-6.893-10.074-12.722-10.869c1.995-5.629,0.602-12.106-4.037-16.464c-0.406-0.38-0.824-0.76-1.231-1.119
	c-4.698-4.166-11.201-4.974-16.597-2.555c-0.031-0.023-0.067-0.039-0.099-0.061c-1.308-5.683-5.774-10.358-11.804-11.669
	l-0.253-0.056c-0.425-0.094-0.845-0.185-1.281-0.27c-5.35-1.035-10.759,0.845-14.334,4.695c-2.921-3.139-7.038-4.979-11.471-4.979
	c-3.667,0-7.046,1.266-9.72,3.383c-0.021-0.218-0.045-0.437-0.073-0.656c-0.738-5.576-4.483-10.283-9.18-12.213
	c-0.004-0.008-0.007-0.016-0.01-0.024c2.434-5.228,1.826-11.866-1.977-16.329c-3.876-4.542-10.508-6.175-16.116-4.446
	c-0.988-3.745-3.411-7.136-6.722-9.14c-4.633-2.804-10.859-2.803-15.492,0.001c-3.312,2.004-5.731,5.394-6.719,9.138
	c-5.603-1.722-12.212-0.11-16.088,4.412c-3.843,4.483-4.45,11.191-1.959,16.443c-0.938,0.391-1.842,0.886-2.701,1.478
	c-2.18,1.506-3.945,3.552-5.107,5.919c-0.941,1.917-1.445,4.038-1.53,6.164c-1.838-1.705-4.116-2.988-6.716-3.662
	c-0.489-0.126-0.993-0.25-1.468-0.361c-5.784-1.37-11.713,0.763-15.398,5.067c-3.482-4.54-9.358-6.973-15.287-5.836
	c-0.427,0.083-0.847,0.176-1.271,0.269l-0.255,0.056c-6.065,1.317-10.553,6.033-11.836,11.757
	c-5.409-2.457-11.945-1.658-16.656,2.518c-0.422,0.369-0.841,0.753-1.251,1.137c-4.613,4.335-6.009,10.775-4.049,16.387
	c-0.014,0.028-0.03,0.056-0.042,0.084c-5.803,0.818-10.859,4.909-12.665,10.866c-0.153,0.512-0.303,1.023-0.432,1.515
	c-1.598,5.716,0.418,11.846,4.654,15.702c-4.714,3.458-7.245,9.448-6.05,15.534c0.1,0.501,0.214,1.015,0.323,1.506
	c1.235,5.599,5.377,9.877,10.559,11.482c-2.64,4.533-2.844,10.231-0.189,15.148l0.625,1.142c2.502,4.567,7.042,7.432,11.962,7.959
	c0.043,0.077,0.077,0.158,0.126,0.233c-1.488,4.627-0.781,9.854,2.233,13.965l0.776,1.054c2.955,3.973,7.605,6.182,12.359,6.226
	c0.058,0.122,0.156,0.226,0.228,0.343c-0.95,4.62,0.238,9.542,3.534,13.32l0.83,0.937c3.331,3.788,8.142,5.628,12.89,5.227
	c-0.735,4.706,0.738,9.608,4.252,13.194l0.901,0.927c3.511,3.559,8.366,5.12,13.069,4.496c-0.495,4.71,1.194,9.516,4.837,12.928
	l0.932,0.871c3.553,3.295,8.287,4.649,12.838,3.972c0.075,0.124,0.146,0.25,0.237,0.366c-0.343,4.751,1.409,9.651,6.023,12.984
	c-0.195,1.35-0.332,2.718-0.332,4.122c0,2.237,0.284,4.405,0.772,6.496c-1.517,0.616-2.93,1.47-4.152,2.601
	c-0.351,0.324-0.697,0.653-1.05,0.994c-3.424,3.335-4.779,8.197-3.828,12.703c-4.589,0.879-8.578,4.082-10.29,8.634
	c-0.189,0.501-0.372,1.015-0.548,1.541c-1.62,4.877-0.38,10.066,2.946,13.641c-3.732,3.386-5.422,8.699-4.029,13.792
	c0.161,0.583,0.335,1.156,0.52,1.719c1.958,5.932,7.599,9.596,13.565,9.359c0.087,0.07,0.163,0.15,0.258,0.213
	c0.203,0.136,0.426,0.213,0.644,0.304c1.913,5.441,7.072,9.369,13.158,9.369c2.964,0,5.693-0.958,7.955-2.539l0.06,65.541
	c-0.074-0.014-0.151-0.025-0.226-0.039l0.007,8.495h-7.74c-6.348,0-11.51,5.163-11.51,11.508v5.169
	c0,6.346,5.162,11.509,11.51,11.509h7.769l0.007,7.415h-7.776c-6.348,0-11.51,5.163-11.51,11.508v5.169
	c0,6.346,5.162,11.509,11.51,11.509h7.802l0.007,7.415h-7.808c-6.348,0-11.51,5.162-11.51,11.508v5.169
	c0,6.346,5.162,11.508,11.51,11.508h7.834l0.649,578.829c-0.104,1.624-0.381,10.149,4.649,15.583
	c2.591,2.804,6.172,4.284,10.354,4.284c5.272,0,14.233-2.54,15-19.726l0.646-578.971h7.84c6.345,0,11.507-5.162,11.507-11.508
	v-5.169c0-6.346-5.162-11.508-11.507-11.508h-7.814l0.007-7.415h7.807c6.345,0,11.507-5.163,11.507-11.509v-5.169
	c0-6.346-5.162-11.508-11.507-11.508h-7.781l0.008-7.415h7.773c6.345,0,11.507-5.163,11.507-11.509v-5.169
	c0-6.346-5.162-11.508-11.507-11.508h-7.744l0.004-4.936c-0.076-0.002-0.152-0.009-0.228-0.011l0.062-68.613
	c2.125,1.311,4.603,2.102,7.28,2.102c6.313,0,11.662-4.208,13.39-9.965c6.439,0.904,12.798-2.904,14.906-9.285
	c0.185-0.566,0.359-1.14,0.517-1.719c1.393-5.088-0.298-10.401-4.03-13.787c3.326-3.576,4.563-8.765,2.944-13.643
	c-0.174-0.524-0.358-1.038-0.544-1.539c-1.714-4.552-5.702-7.756-10.292-8.634c0.948-4.506-0.405-9.368-3.832-12.706
	c-0.344-0.335-0.694-0.665-1.043-0.988c-1.57-1.454-5.491-3.67-9.543-4.285c0.268-1.569,0.438-3.171,0.438-4.815
	c0-0.339-0.039-0.668-0.051-1.003c5.287-3.685,7.938-10.025,7.819-15.617c4.742,0.912,9.759-0.43,13.48-3.884l0.926-0.865
	c3.641-3.41,5.33-8.216,4.837-12.926c4.707,0.627,9.564-0.941,13.082-4.51l0.88-0.905c3.52-3.591,4.994-8.496,4.259-13.202
	c4.745,0.391,9.557-1.435,12.881-5.217l0.856-0.965c3.365-3.857,4.543-8.923,3.464-13.638c0.045,0.001,0.09,0.001,0.134,0.001
	c4.804,0,9.523-2.224,12.514-6.245l0.773-1.049c3.055-4.166,3.749-9.487,2.173-14.165c4.992-0.473,9.612-3.364,12.146-7.99
	l0.631-1.154c2.649-4.909,2.443-10.603-0.197-15.135c5.181-1.605,9.323-5.881,10.556-11.471c0.112-0.502,0.225-1.016,0.327-1.529
	C730.084,161.548,727.554,155.56,722.838,152.103z M721.53,136.662c0.123,0.408,0.246,0.817,0.373,1.301
	c1.101,3.94-0.688,8.311-3.99,10.603c-0.163-0.006-0.324-0.019-0.491-0.003l-8.791,0.827c-2.622-1.172-4.64-3.453-5.423-6.28
	l-0.262-0.914c-0.715-2.355-0.502-4.826,0.526-6.98c0.364-0.089,0.722-0.221,1.06-0.428l7.968-4.875
	c0.087-0.054,0.159-0.123,0.24-0.182C716.713,129.941,720.292,132.571,721.53,136.662z M690.928,181.017l-0.544,0.988
	c-1.987,3.632-2.374,7.813-1.307,11.637c-0.183,0.287-0.313,0.591-0.41,0.902c-4.072,0.553-7.865,2.702-10.419,6.18l-0.656,0.901
	c-2.77,3.726-3.673,8.339-2.702,12.644c-4.383-0.014-8.784,1.795-11.864,5.319l-0.765,0.874c-0.322,0.365-0.611,0.75-0.893,1.139
	c0.096-3.112-0.137-6.196-0.727-9.112c-2.338-11.562-9.982-21.714-20.448-27.157c-6.426-3.343-14.129-5.082-22.934-5.183
	l-0.17-8.998l35.475-0.084c1.595-0.004,2.888-1.294,2.896-2.89l0.06-14.756c0.004-0.772-0.3-1.514-0.847-2.061
	c-0.544-0.547-1.284-0.854-2.056-0.854c-9.007-0.001-18.016-0.027-27.022-0.054c-2.435-0.007-4.871-0.008-7.306-0.015
	c0.301-0.266,0.607-0.527,0.893-0.808c0.182-0.12,0.357-0.258,0.515-0.423c0.099-0.104,0.139-0.236,0.22-0.35
	c3.73-3.998,6.049-9.309,6.15-15.16c1.87,0.732,3.917,1.134,6.095,1.134c7.624,0,13.971-5.476,15.371-12.695
	c0.017-0.009,0.035-0.011,0.052-0.021c0.102-0.057,0.186-0.131,0.281-0.195c1.71,0.623,3.522,0.971,5.362,0.971
	c4.474,0,8.684-1.933,11.615-5.153c2.194,2.31,5.065,3.899,8.283,4.522c0.275,0.053,0.541,0.106,0.854,0.179
	c3.324,0.717,6.691,0.335,9.674-1.017c0.697,3.132,2.37,6.012,4.871,8.226c0.181,0.162,0.374,0.334,0.555,0.504
	c2.395,2.252,5.37,3.646,8.512,4.074c-1.084,3.059-1.186,6.416-0.213,9.619l0.244,0.846c0.911,3.286,2.896,6.117,5.531,8.139
	c-0.017,0.138-0.013,0.281-0.015,0.422c-2.36,2.181-4.018,5.06-4.665,8.343l-0.18,0.857c-0.835,3.761-0.208,7.629,1.597,10.888
	c-0.037,0.1-0.056,0.201-0.085,0.302C696.077,174.84,692.861,177.421,690.928,181.017z M641,246.246
	c-0.105,0.036-0.208,0.078-0.308,0.127c-4.329,2.078-8.962,3.174-13.419,3.174c-0.106,0-0.212,0-0.316-0.002
	c-4.361-0.05-9.022-1.161-13.48-3.213c-6.369-2.932-11.722-7.938-15.077-14.099v-0.001l5.365-5.266
	c2.73,2.809,5.786,5.711,9.374,7.955c5.221,3.265,10.867,4.554,15.905,3.616c5.251-0.974,10.167-4.438,13.491-9.506
	c4.246-6.481,5.121-14.471,2.281-20.854c-3.28-7.367-11.339-12.493-21.557-13.71c-5.221-0.623-10.434-0.29-15.483,0.028
	c-1.881,0.12-3.805,0.242-5.713,0.312c-0.097-6.425-0.189-12.869-0.281-19.314c-0.091-6.436-0.183-12.871-0.279-19.288
	c8.029,0.005,16.053,0.028,24.077,0.053c8.039,0.025,16.079,0.048,24.125,0.053l-0.038,8.959l-35.541,0.084
	c-0.777,0.002-1.521,0.316-2.067,0.872c-0.544,0.556-0.841,1.307-0.828,2.085l0.28,14.82c0.015,0.774,0.338,1.511,0.9,2.045
	c0.561,0.535,1.29,0.809,2.086,0.801c9.022-0.258,16.777,1.257,23.02,4.503c8.792,4.574,15.475,13.447,17.438,23.159
	c1.22,6.032,0.64,14.053-2.24,20.75c-0.137,0.216-0.238,0.453-0.315,0.699C650.054,240.168,646.343,244.398,641,246.246z
	 M598.761,321.924c-2.917,0-5.699-0.57-8.265-1.572l3.141-5.973c1.612,0.542,3.331,0.848,5.124,0.848
	c3.237,0,6.248-0.967,8.777-2.613l3.358,5.785C607.375,320.619,603.222,321.924,598.761,321.924z M609.08,325.603l-0.114,126.312
	h-14.675l-0.114-124.631l0.413,0.106c1.366,0.201,2.751,0.339,4.17,0.339c2.307,0,4.54-0.304,6.689-0.821L609.08,325.603z
	 M598.761,288.015c6.109,0,11.077,4.97,11.077,11.077c0,6.107-4.969,11.077-11.077,11.077c-6.106,0-11.074-4.969-11.074-11.077
	C587.687,292.984,592.655,288.015,598.761,288.015z M582.903,296.189h-6.769c0.751-5.877,3.725-11.068,8.073-14.675l4.268,5.158
	C585.615,289.046,583.597,292.389,582.903,296.189z M589.164,278.403c2.923-1.361,6.167-2.144,9.597-2.144
	c3.431,0,6.675,0.782,9.597,2.143l-4.282,5.177c-0.062,0.075-0.105,0.158-0.159,0.237c-1.621-0.549-3.352-0.86-5.157-0.86
	c-1.804,0-3.534,0.311-5.156,0.86c-0.053-0.079-0.097-0.162-0.159-0.237L589.164,278.403z M609.051,286.674l4.267-5.158
	c4.348,3.607,7.322,8.797,8.073,14.674h-6.77C613.928,292.389,611.91,289.047,609.051,286.674z M609.536,272.575
	c-3.33-1.358-6.963-2.121-10.775-2.121c-2.866,0-5.63,0.435-8.243,1.222c-3.505-2.906-8.322-4.867-13.148-4.248
	c0.318-4.411-1.273-8.855-4.501-12.08h54.02c0.127,0.001,0.255,0.002,0.381,0.002c0.162,0,0.326-0.012,0.487-0.014
	c-2.152,2.097-3.779,4.746-4.612,7.741c-0.013,0.047-0.633,2.503-0.633,5.284C617.767,267.796,613.012,269.718,609.536,272.575z
	 M559.915,229.809c-0.784-0.026-1.568,0.252-2.142,0.8c-0.575,0.549-0.9,1.308-0.898,2.103l0.01,7.869
	c-0.63-1.066-1.379-2.074-2.276-2.98l-0.823-0.848c-3.288-3.356-7.866-4.961-12.376-4.594c0.68-4.454-0.581-9.131-3.667-12.643
	l-0.766-0.872c-3.083-3.529-7.386-5.391-11.868-5.324c0.973-4.303,0.074-8.91-2.683-12.618l-0.68-0.937
	c-2.685-3.653-6.738-5.861-11.052-6.264c1.366-4.034,1.049-8.558-1.082-12.448l-0.527-0.962c-1.976-3.677-5.27-6.311-9.09-7.48
	c1.9-3.298,2.568-7.245,1.723-11.052l-0.191-0.901c-0.669-3.403-2.401-6.385-4.894-8.592c2.749-2.028,4.804-4.936,5.736-8.297
	l0.24-0.837c0.981-3.228,0.881-6.594-0.204-9.658c3.142-0.428,6.12-1.822,8.512-4.072c0.183-0.172,0.376-0.344,0.562-0.506
	c2.357-2.09,3.947-4.781,4.709-7.708c0.202-0.11,0.392-0.232,0.565-0.371c2.888,1.21,6.107,1.554,9.306,0.863
	c0.277-0.064,0.541-0.117,0.824-0.171c3.511-0.68,6.617-2.543,8.864-5.185c2.135,2.798,5.206,4.835,8.764,5.68l0.859,0.209
	c3.422,0.885,6.932,0.533,10.044-0.822c0.258,0.1,0.519,0.166,0.781,0.207c1.609,7.659,8.403,13.431,16.531,13.431
	c2.566,0,5.07-0.58,7.339-1.673v0.143c0,6.319,2.585,12.048,6.756,16.195c0.028,0.04,0.047,0.083,0.077,0.122
	c0.241,0.31,0.539,0.542,0.86,0.725c0.021,0.019,0.041,0.038,0.062,0.056h-14.606c-0.45,0-0.894,0.105-1.296,0.306l-14.863,7.424
	c-1.03,0.514-1.659,1.588-1.603,2.738l0.477,9.71c0.038,0.777,0.385,1.506,0.968,2.025c0.579,0.517,1.341,0.786,2.119,0.729
	l7.855-0.511v57.32L559.915,229.809z M586.377,88.694c4.624-1.971,8.263-6.064,9.669-10.891c3.63,1.272,7.667,1.268,11.298-0.011
	c1.403,4.685,4.967,8.731,9.421,10.758c0.047,0.082,0.098,0.163,0.151,0.242c-1.799,3.494-2.28,7.613-1.173,11.383
	c0.907,3.089,2.901,5.831,5.488,7.741c-1.994,1.95-3.448,4.408-4.189,7.105c-0.203-0.155-0.418-0.293-0.626-0.441
	c-0.146-0.134-0.307-0.256-0.485-0.362c-0.027-0.016-0.056-0.023-0.082-0.038c-3.658-2.451-8.048-3.892-12.772-3.892
	c-5.054,0-9.835,1.621-13.736,4.529c-0.649-3.43-2.353-6.596-4.85-9.028c0.898-0.986,1.648-2.083,2.226-3.262
	C588.813,98.241,588.585,92.969,586.377,88.694z M612.548,125.547c0.059-0.079,0.13-0.143,0.181-0.23l2.487-4.198
	c3.127,3.117,5.066,7.426,5.066,12.18c0,3.566-1.108,6.878-2.994,9.621l-3.645-3.46c1.06-1.813,1.679-3.914,1.679-6.162
	C615.322,130.36,614.28,127.66,612.548,125.547z M593.302,235.01c3.255,5.978,8.128,11.009,13.936,14.534h-17.363L590,156.203h5.695
	c0.097,6.447,0.19,12.906,0.282,19.372c0.105,7.421,0.211,14.842,0.323,22.236c0.025,1.585,1.317,2.858,2.902,2.858h0.005
	c3.006-0.005,6.02-0.196,8.935-0.382c5.002-0.319,9.729-0.618,14.426-0.059c6.308,0.752,14.07,3.854,16.943,10.308
	c2.015,4.527,1.295,10.537-1.832,15.311c-2.46,3.75-5.994,6.295-9.695,6.982c-3.598,0.665-7.779-0.335-11.769-2.831
	c-3.885-2.429-7.283-6.006-10.283-9.161c-0.534-0.564-1.275-0.889-2.052-0.903c-0.821-0.02-1.528,0.285-2.084,0.831l-7.458,7.322
	c-0.544,0.531-1.556,1.521-1.852,3.052C592.148,232.895,592.959,234.379,593.302,235.01z M593.448,140.846l-3.879,3.016
	c-2.31-2.911-3.701-6.575-3.701-10.562c0-2.216,0.413-4.372,1.232-6.409l0.189-0.383v0l0.992-1.921l3.342,3.46
	c0.089,0.092,0.189,0.164,0.288,0.242c-0.691,1.532-1.084,3.225-1.084,5.012C590.827,136.147,591.811,138.764,593.448,140.846z
	 M607.914,122.052c-1.485-0.642-3.12-1.001-4.839-1.001c-2.863,0-5.494,0.994-7.582,2.646l-3.45-3.573
	c3.049-2.562,6.908-4.032,11.032-4.032c2.64,0,5.133,0.615,7.372,1.683L607.914,122.052z M610.507,133.299
	c0,4.098-3.333,7.433-7.431,7.433c-4.099,0-7.434-3.335-7.434-7.433c0-4.099,3.335-7.433,7.434-7.433
	C607.173,125.866,610.507,129.201,610.507,133.299z M593.977,147.787l3.624-2.818c0.188-0.146,0.346-0.315,0.488-0.494
	c1.524,0.683,3.209,1.072,4.986,1.072c2.404,0,4.643-0.707,6.537-1.909l3.618,3.433c-2.85,2.082-6.355,3.327-10.155,3.327
	C599.733,150.399,596.621,149.432,593.977,147.787z M561.74,115.469l1.726-4.136c0.321-0.169,0.616-0.389,0.854-0.663
	c0.435-0.503,0.928-0.948,1.446-1.366c2.816,0.167,8.4,0.647,13.512,1.143c0.121,0.011,0.242,0.017,0.363,0.017
	c0.39,0,0.757-0.096,1.114-0.21c1.955,2.036,3.071,4.748,3.071,7.67c0,0.795-0.312,2.542-0.57,3.736l-1.061,2.054
	c-0.567,0.924-1.261,1.761-2.071,2.485c-2.036,1.823-4.663,2.828-7.401,2.828c-6.119,0-11.1-4.98-11.1-11.102
	c0-0.576,0.043-1.154,0.133-1.716C561.794,115.961,561.765,115.714,561.74,115.469z M569.633,236.083
	c0.786,0.034,1.568-0.251,2.141-0.799c0.575-0.548,0.899-1.307,0.899-2.1v-63.462c0-0.802-0.333-1.569-0.918-2.118
	c-0.584-0.549-1.375-0.844-2.172-0.777l-8.003,0.521l-0.24-4.873l12.556-6.271h10.3l-0.125,93.341H562.7l-0.018-13.792
	L569.633,236.083z M622.286,119.149c0-3.313,1.688-6.398,4.397-8.214l10.174-0.408c1.324,2.345,3.256,5.803,5.126,9.164
	c-0.289,5.189-4.562,9.334-9.821,9.334c-2.953,0-5.497-1.076-7.263-2.986c-0.64-1.919-1.514-3.733-2.609-5.391
	c-0.015-0.278-0.012-0.597-0.005-0.946L622.286,119.149z M705.224,110.775c0.376,0.329,0.748,0.669,1.105,1.003
	c3.461,3.251,4.003,8.379,1.53,12.254l-7.211,4.412c-0.029,0.018-0.051,0.042-0.08,0.061c-2.743,0.252-5.467-0.659-7.51-2.584
	c-0.225-0.212-0.464-0.423-0.686-0.621c-2.059-1.823-3.204-4.369-3.26-7.041c0.468-1.181,1.96-4.412,3.499-7.644
	C696.254,107.572,701.584,107.548,705.224,110.775z M677.922,97.509c0.385,0.075,0.763,0.158,1.146,0.242l0.261,0.058
	c3.933,0.854,6.774,4.003,7.45,7.761c-2.655,5.5-4,8.4-4.634,10.088c-2.069,1.208-4.514,1.627-6.9,1.113
	c-0.348-0.079-0.685-0.147-1.024-0.212c-2.488-0.482-4.603-1.934-6.055-4.022l0.755-11.872c0.003-0.044-0.006-0.086-0.005-0.131
	C671.154,98.081,674.554,96.859,677.922,97.509z M653.227,97.333c3.321,0,6.351,1.646,8.176,4.353l-0.704,11.063
	c-0.018,0.288,0.004,0.567,0.049,0.84c-1.853,2.173-4.593,3.496-7.521,3.496c-1.756,0-3.427-0.453-4.911-1.31
	c-2.34-4.209-3.901-7.003-4.939-8.835C643.523,101.621,647.873,97.333,653.227,97.333z M637.678,95.018
	c0.274,2.051-0.042,4.062-0.885,5.663c-0.498,0.943-1.205,1.797-1.991,2.484l-9.539,0.382c-0.035,0.001-0.067,0.012-0.102,0.014
	c-1.811-1.17-3.252-2.987-3.849-5.021c-0.862-2.938-0.095-6.346,1.888-8.786c1.721-0.495,4.287-1.303,8.202-2.555
	C634.682,88.176,637.242,91.718,637.678,95.018z M627.849,69.455c2.493,2.925,2.678,7.542,0.729,10.836
	c-3.801,1.209-7.917,2.473-8.971,2.725c-0.21,0.021-0.407,0.095-0.608,0.151c-2.796-1.32-5.046-3.881-5.989-6.822l4.807-9.509
	C621.284,65.728,625.48,66.678,627.849,69.455z M596.94,57.069c2.835-1.717,6.647-1.718,9.483-0.001
	c2.478,1.499,4.139,4.266,4.383,7.148l-3.679,7.278c-3.007,1.725-6.863,1.888-10.022,0.465l-4.552-7.348
	C592.672,61.589,594.352,58.636,596.94,57.069z M575.535,69.43c2.321-2.706,6.391-3.668,9.805-2.667
	c0.092,0.341,0.216,0.678,0.412,0.994l4.844,7.818c-0.923,3.909-4.23,7.312-8.122,8.262l-6.849-2.942
	c-0.186-0.08-0.378-0.131-0.568-0.179C572.813,77.405,572.92,72.482,575.535,69.43z M566.574,92.049
	c0.724-1.477,1.829-2.756,3.193-3.699c0.664-0.457,1.37-0.815,2.144-1.087c0.238,0.181,0.492,0.345,0.779,0.468l8.232,3.536
	c0.097,0.041,0.197,0.06,0.295,0.092c1.383,2.672,1.564,6.001,0.284,8.616c-0.558,1.141-1.421,2.15-2.493,2.974
	c-5.471-0.524-9.03-0.821-11.354-0.976c-0.194-0.23-0.43-0.422-0.6-0.671C565.336,98.782,565.138,94.975,566.574,92.049z
	 M550.324,97.284c0.448,0.103,0.905,0.218,1.345,0.331c3.339,0.865,5.796,3.355,6.779,6.423l-4.848,11.619
	c-2.069,1.038-4.48,1.33-6.853,0.718l-0.916-0.223c-2.804-0.665-5.107-2.535-6.383-5.038v-8.79
	C541.446,98.428,545.929,96.243,550.324,97.284z M520.675,96.86l0.267-0.06c0.378-0.082,0.748-0.164,1.125-0.237
	c3.993-0.768,7.93,1.087,10.018,4.367c-0.048,0.239-0.074,0.485-0.074,0.738v9.637c0,0.044,0.011,0.084,0.013,0.127
	c-1.419,2.147-3.655,3.676-6.237,4.177c-0.348,0.066-0.684,0.134-0.994,0.205c-2.873,0.628-5.802-0.077-8.075-1.871l-3.654-7.576
	C513.044,101.867,516.14,97.845,520.675,96.86z M493.668,110.831c0.36-0.337,0.73-0.676,1.115-1.013
	c3.193-2.832,7.703-3.145,11.228-1.116c0.06,0.23,0.14,0.458,0.247,0.68l4.497,9.326c-0.363,2.147-1.432,4.14-3.125,5.641
	c-0.227,0.199-0.464,0.411-0.692,0.625c-1.743,1.639-3.982,2.539-6.303,2.616l-9.203-5.855
	C489.843,118.08,490.598,113.717,493.668,110.831z M478.109,136.97c0.123-0.472,0.259-0.92,0.389-1.359
	c1.358-4.484,5.661-7.246,10.189-6.807l7.44,4.733c1.361,2.316,1.724,5.089,0.916,7.748l-0.26,0.905
	c-0.774,2.788-2.775,5.056-5.377,6.233c-5.323-0.298-7.764-0.428-8.893-0.485C478.924,145.744,476.948,141.124,478.109,136.97z
	 M477.099,166.933c-0.104-0.458-0.205-0.929-0.296-1.376c-0.814-4.146,1.163-8.19,4.637-10.225c0.883,0.031,9.853,0.534,9.853,0.534
	c0.07,0.004,0.14,0.006,0.211,0.006c0.176,0,0.345-0.026,0.514-0.05c1.957,1.416,3.33,3.511,3.815,5.97l0.205,0.969
	c0.551,2.483,0.069,5.033-1.211,7.139c-0.183,0.038-0.366,0.076-0.547,0.143l-9.15,3.414c-0.457,0.171-0.856,0.426-1.197,0.735
	C480.59,173.244,477.892,170.525,477.099,166.933z M487.52,193.179l-0.616-1.127c-2.25-4.163-1.115-9.439,2.633-12.301l5.28-1.97
	c3.769-0.248,7.346,1.698,9.166,5.081l0.539,0.982c1.557,2.845,1.543,6.222,0.133,9.03c-0.146,0.074-0.294,0.141-0.433,0.236
	l-7.393,5.046C493.091,198.469,489.391,196.594,487.52,193.179z M502.193,215.724l-0.766-1.039
	c-2.197-2.995-2.411-6.927-0.797-10.119l7.695-5.253c3.351-0.324,6.686,1.09,8.732,3.876l0.69,0.95
	c1.888,2.54,2.383,5.736,1.494,8.626c-0.218,0.141-0.456,0.238-0.646,0.429l-6.069,6.07
	C508.742,220.29,504.578,218.931,502.193,215.724z M518.828,236.161l-0.826-0.93c-2.183-2.502-2.876-5.816-2.07-8.856l6.921-6.922
	c3.517-0.934,7.281,0.181,9.755,3.014l0.773,0.88c2.581,2.934,3.097,7.156,1.438,10.617l-6.237,5.152
	C525.085,240.047,521.312,238.988,518.828,236.161z M536.667,255.291l-0.896-0.92c-2.553-2.604-3.351-6.306-2.303-9.643l8.028-6.631
	c0.038-0.031,0.065-0.07,0.101-0.102c2.913-0.326,5.911,0.645,8.035,2.812l0.832,0.857c1.947,1.97,2.89,4.637,2.763,7.286
	l-8.211,9.086C542.016,258.495,538.898,257.554,536.667,255.291z M555.314,273.4l-0.922-0.862
	c-3.233-3.027-3.994-7.803-1.902-11.677l3.511-3.885c0.374-0.197,0.749-0.424,1.128-0.636c2.47-1.381,4.864-0.886,7.371,0.057
	c1.166,0.445,2.226,1.109,3.139,1.959l0.871,0.823c3.006,2.785,3.885,7.177,2.296,10.904l-3.939,4.517
	C563.174,276.8,558.485,276.342,555.314,273.4z M570.297,281.985l7.625-8.743c0,0,0,0,0.001-0.001
	c2.151-0.33,4.368,0.186,6.333,1.201c-0.271,0.161-0.543,0.323-0.809,0.492c-0.169,0.081-0.331,0.18-0.487,0.296
	c-4.871,3.236-8.679,7.925-10.844,13.44C570.4,286.589,570.057,284.137,570.297,281.985z M569.735,313.35
	c0.314-0.302,0.629-0.603,0.95-0.899c0.625-0.58,1.335-1.039,2.097-1.385c2.211,4.776,5.674,8.858,9.999,11.778
	c-0.279,0.297-0.641,0.634-1.137,1.01c-0.282,0.211-0.535,0.455-0.881,0.809c-1.501,1.46-3.464,2.197-5.506,2.194l-6.943-4.13
	C566.674,319.664,567.225,315.793,569.735,313.35z M576.693,353.297c-0.062-0.229-0.132-0.458-0.208-0.685
	c-0.039-0.124-0.077-0.25-0.109-0.364c-0.585-2.136-1.685-4.087-3.167-5.69c1.742-1.572,3.072-3.583,3.828-5.86
	c0.061-0.18,0.121-0.358,0.183-0.523c0.945-2.507,1.133-5.165,0.586-7.696c2.606-0.489,5.036-1.74,7.018-3.668l0.315-0.324
	c0.31-0.235,0.593-0.468,0.859-0.699l0.025,28.049c-0.866-0.698-1.766-1.318-2.706-1.729
	C580.975,353.082,578.581,353.046,576.693,353.297z M556.535,333.892c0.151-0.453,0.308-0.895,0.472-1.327
	c0.911-2.426,2.95-4.16,5.343-4.813c0.169,0.148,0.349,0.287,0.549,0.406l9.157,5.447c0.34,1.488,0.29,3.048-0.267,4.528
	c-0.091,0.242-0.178,0.489-0.26,0.739c-0.53,1.597-1.557,2.963-2.902,3.926l-10.022-0.765c-0.019-0.002-0.036,0.003-0.056,0.001
	C556.413,339.971,555.555,336.841,556.535,333.892z M555.976,359.392c-0.157-0.473-0.301-0.954-0.433-1.436
	c-0.882-3.221,0.393-6.578,2.997-8.469l10.134,0.773c0.985,0.965,1.731,2.153,2.109,3.536c0.039,0.141,0.081,0.272,0.122,0.407l0,0
	l-7.079,10.578C560.377,364.936,557.109,362.824,555.976,359.392z M578.089,374.653c-3.772,0-6.923-2.582-7.858-6.063l6.26-9.354
	c1.13-0.268,2.933-0.498,4.501,0.189c2.328,1.019,4.398,3.961,5.042,5.96l0.002,2.925
	C585.201,371.935,581.962,374.653,578.089,374.653z M585.401,317.567c-4.984-3.614-8.45-9.179-9.267-15.574h6.769
	c0.7,3.835,2.749,7.203,5.649,9.58L585.401,317.567z M608.456,1130.087c-0.527,11.734-5.104,11.734-6.826,11.734
	c-2.516,0-3.68-0.94-4.337-1.646c-2.425-2.601-2.625-7.812-2.5-9.585c0.008-0.109,0.013-0.216,0.013-0.322l-0.648-578.965h14.939
	L608.456,1130.087z M625.116,531.296c1.834,0,3.328,1.494,3.328,3.329v5.169c0,1.836-1.494,3.329-3.328,3.329h-46.971
	c-1.838,0-3.331-1.494-3.331-3.329v-5.169c0-1.836,1.493-3.329,3.331-3.329H625.116z M594.125,515.702h15.005l-0.007,7.415h-14.991
	L594.125,515.702z M625.116,495.695c1.834,0,3.328,1.494,3.328,3.329v5.169c0,1.836-1.494,3.329-3.328,3.329h-46.971
	c-1.838,0-3.331-1.494-3.331-3.329v-5.169c0-1.836,1.493-3.329,3.331-3.329h35.091c0.002,0,0.002,0,0.005,0H625.116z
	 M594.093,480.101h15.07l-0.008,7.415H594.1L594.093,480.101z M625.116,460.094c1.834,0,3.328,1.494,3.328,3.329v5.169
	c0,1.836-1.494,3.329-3.328,3.329h-11.853c-0.002,0-0.002,0-0.005,0h-35.112c-1.838,0-3.331-1.494-3.331-3.329v-5.169
	c0-1.836,1.493-3.329,3.331-3.329H625.116z M615.428,314.649l-3.346-5.764c-0.075-0.13-0.167-0.244-0.259-0.358
	c1.384-1.909,2.359-4.126,2.798-6.533h6.77C620.769,306.856,618.617,311.235,615.428,314.649z M625.246,332.428
	c0.057,0.1,0.091,0.214,0.157,0.307c-0.478,2.453-0.291,5.013,0.62,7.432c0.064,0.172,0.125,0.35,0.185,0.535
	c0.755,2.274,2.086,4.284,3.83,5.856c-1.442,1.558-2.511,3.45-3.11,5.52c-0.346,0.108-0.677,0.269-0.988,0.483
	c-0.567-0.061-1.143-0.093-1.714-0.04c-2.62,0.24-4.979,1.065-6.995,2.294l0.025-27.108c0.266,0.259,0.519,0.528,0.821,0.757
	l0.359,0.36C620.36,330.695,622.717,331.915,625.246,332.428z M624.491,374.653c-3.188,0-5.927-1.854-7.273-4.525l0.007-7.206
	c1.46-2.714,4.497-4.344,7.531-4.621c0.194-0.019,0.427-0.003,0.674,0.029l7.117,9.285
	C631.989,371.581,628.608,374.653,624.491,374.653z M647.703,357.96c-0.133,0.488-0.28,0.968-0.433,1.434
	c-1.099,3.337-4.228,5.418-7.57,5.394c-0.069-0.114-0.128-0.233-0.211-0.341l-7.351-9.591c0.041-0.133,0.079-0.258,0.135-0.428
	c0.07-0.215,0.138-0.436,0.194-0.646c0.495-1.805,1.603-3.303,3.113-4.354l9.047,0.336c0.046,0.001,0.094,0.002,0.14,0.002
	c0.087,0,0.169-0.019,0.255-0.025C647.407,351.669,648.548,354.872,647.703,357.96z M646.241,332.564
	c0.162,0.433,0.32,0.875,0.469,1.325c1.025,3.086,0.048,6.372-2.307,8.423l-9.995-0.371c-0.239-0.003-0.473,0.02-0.701,0.058
	c-0.887-0.869-1.588-1.921-1.988-3.123c-0.083-0.254-0.17-0.502-0.261-0.748c-0.564-1.5-0.61-3.086-0.25-4.596
	c3.286-1.484,6.646-4.363,8.429-6.015C642.56,327.82,645.172,329.722,646.241,332.564z M632.565,312.453
	c0.315,0.292,0.631,0.591,0.937,0.888c2.099,2.042,2.823,5.07,2.067,7.797c-0.016,0.016-0.039,0.02-0.055,0.036
	c-1.977,1.965-5.524,4.882-7.656,5.687c-2.002-0.031-3.925-0.789-5.488-2.313c-0.244-0.247-0.493-0.486-0.761-0.689
	c-1.34-1.015-2.031-3.287-2.326-4.836c2.62-2.696,4.703-5.904,6.106-9.459C628.131,309.74,631.512,311.479,632.565,312.453z
	 M626.288,291.273c-1.816-6.383-5.784-11.857-11.081-15.589c2.388-1.37,5.214-2.033,7.86-1.276l6.027,6.182
	C629.784,283.603,628.947,288.044,626.288,291.273z M645.608,273.484l-0.916,0.856c-2.546,2.362-6.063,3.12-9.258,2.208
	c-0.085-0.108-0.121-0.238-0.219-0.339l-6.848-7.024c-0.093-1.438,0.055-3.41,0.373-4.553c0.969-3.484,3.624-6.402,6.927-7.614
	c1.588-0.583,3.321-0.75,4.98-0.399c0.341,0.072,0.673,0.18,1.002,0.293l6.8,7.63c0.018,0.02,0.039,0.033,0.057,0.052
	C649.117,267.789,648.095,271.156,645.608,273.484z M664.22,255.326l-0.875,0.899c-2.737,2.778-6.787,3.607-10.326,2.265
	l-6.164-6.916c-0.073-0.563-0.073-1.138-0.023-1.692c4.404-2.555,7.819-6.471,10.224-11.107c0.717,0.083,1.604,0.268,2.51,0.511
	l6.715,5.611C667.728,248.421,666.979,252.512,664.22,255.326z M682.011,236.161l-0.85,0.958c-2.252,2.562-5.579,3.688-8.788,3.176
	l-7.591-6.343c-1.145-3.258-0.511-6.99,1.838-9.659l0.773-0.881c2.178-2.494,5.365-3.639,8.501-3.237l7.592,5.543
	C685.086,229.144,684.574,233.224,682.011,236.161z M698.575,215.628l-0.761,1.034c-2.086,2.806-5.527,4.19-8.883,3.82l-7.729-5.643
	c-1.425-3.163-1.086-6.878,1.066-9.774l0.666-0.914c2.245-3.056,6.017-4.469,9.663-3.759l6.31,4.259
	C701.038,207.969,700.969,212.365,698.575,215.628z M713.101,192.986l-0.622,1.138c-1.732,3.162-5.023,5.007-8.47,5.019
	c-0.045-0.034-0.082-0.075-0.129-0.107l-8.891-6.001c-1.042-2.637-0.927-5.659,0.485-8.24l0.554-1.006
	c1.557-2.899,4.42-4.744,7.61-5.039l8.171,3.215C714.443,184.948,715.045,189.387,713.101,192.986z M723.197,166.492
	c-0.093,0.459-0.194,0.93-0.3,1.398c-0.858,3.886-3.96,6.717-7.699,7.415l-9.599-3.777c-1.612-2.221-2.247-5.08-1.626-7.876
	l0.195-0.924c0.463-2.355,1.755-4.375,3.591-5.786l10.292-0.968C721.849,157.894,724.049,162.153,723.197,166.492z"/>
</svg>
