<?xml version="1.0" encoding="utf-8"?>
<!-- Designed by Vexels.com - 2019 All Rights Reserved - https://vexels.com/terms-and-conditions/  -->
<svg version="1.1" fill="#593b25" id="Layer_1" xmlns="http://www.w3.org/2000/svg" xmlns:xlink="http://www.w3.org/1999/xlink" x="0px" y="0px"
	 viewBox="0 0 1200 1200" enable-background="new 0 0 1200 1200" xml:space="preserve">
<g>
	<path d="M308.598,647.764c-2.424-1.62-5.043-3.573-7.848-5.208c-9.993-5.824-18.881-13.045-27.375-20.854
		c-11.768-10.82-23.753-21.404-36.328-32.703c-1.525,2.444-2.691,4.228-3.773,6.061c-14.036,23.761-29.31,46.641-49.607,65.604
		c-10.009,9.351-20.552,18.176-31.336,26.624c-2.991,2.343-7.681,2.596-11.644,3.599c-3.966,1.005-8.091,1.45-11.985,2.66
		c-14.538,4.521-28.365,2.245-41.815-4.001c-6.314-2.932-10.953-7.863-15.164-13.248c-9.44-12.071-14.737-25.956-17.969-40.771
		c-5.114-23.438-4.99-46.882,0.303-70.229c2.791-12.309,7.882-23.762,15.12-34.15c18.973-27.23,45.509-36.998,77.697-33.087
		c28.259,3.433,51.075,18.168,72.371,35.762c5.056,4.177,9.632,8.935,14.46,13.39c1.322,1.22,2.761,2.315,4.617,3.859
		c1.27-2.373,2.361-4.283,3.335-6.251c13.497-27.265,24.82-55.446,34.566-84.228c15.268-45.088,29.877-90.4,41.983-136.459
		c7.298-27.766,15.057-55.441,19.763-83.822c1.14-6.878,1.939-13.812,3.081-20.689c1.016-6.119,3.147-8.187,9.298-8.612
		c3.02-0.209,6.166,0.148,9.136,0.795c3.612,0.788,6.301,3.078,7.229,6.826c1.868,7.547,3.632,15.121,5.372,22.698
		c0.458,1.993,0.583,4.062,1.013,6.063c5.349,24.856,6.034,50.138,6.006,75.37c-0.032,29.341-1.549,58.679-1.767,88.023
		c-0.147,19.695,0.829,39.399,1.35,59.097c0.042,1.597,0.451,3.183,1.708,4.896c2.649-9.994,5.249-20.002,7.975-29.975
		c0.897-3.282,2.172-6.459,3.193-9.71c14.048-44.723,32.295-87.788,51.566-130.445c4.816-10.66,9.757-21.264,14.743-31.846
		c14.699-31.197,34.525-59.15,55.02-86.67c1.589-2.134,3.584-3.962,5.223-6.062c3.519-4.511,8.535-4.569,13.448-4.372
		c3.475,0.139,6.491,3.502,6.615,7.734c0.198,6.746,0.242,13.57-0.554,20.253c-0.992,8.334-2.908,16.557-4.414,24.831
		c-3.16,17.357-6.436,34.694-9.442,52.077c-4.996,28.901-10.135,57.783-14.622,86.765c-4.456,28.786-8.782,57.617-12.078,86.553
		c-4.328,38.005-5.559,76.172-1.61,114.326c0.703,6.788,0.915,13.731,4.243,20.185c1.548,3.002,1.058,7.015,1.701,10.532
		c3.447,18.857,9.959,36.398,22.417,51.318c1.838,2.202,3.846,4.267,5.842,6.331c4.559,4.715,9.888,5.394,15.796,2.911
		c7.102-2.985,13.255-7.402,18.791-12.673c10.069-9.587,18.007-20.771,24.123-33.22c12.758-25.974,21.417-53.252,25.707-81.894
		c1.539-10.27,1.698-20.525-1.702-30.445c-1.228-3.583-3.221-7.156-5.705-10.001c-4.803-5.502-8.751-5.964-14.473-1.611
		c-10.69,8.134-19.489,17.917-26.097,29.819c-6.561,11.819-11.106,24.257-13.409,37.459c-1.151,6.6-1.07,13.415-1.566,20.424
		c-5.933,3.895-11.564,2.651-14.999-3.613c-2.873-5.24-3.611-11.035-3.242-16.739c0.728-11.247,1.438-22.581,3.531-33.618
		c1.101-5.802,4.466-11.502,7.931-16.464c8.286-11.866,19.296-20.902,32.868-25.993c10.432-3.913,21.647-5.795,32.596-2.762
		c9.988,2.767,17.061,9.548,20.114,19.887c2.55,8.634,2.64,17.461,1.657,26.264c-3.51,31.41-11.983,61.61-23.436,90.945
		c-5.646,14.461-14.799,26.951-25.261,38.396c-15.638,17.106-35.457,21.912-57.71,19.373c-7.637-0.871-14.741-3.236-21.108-7.646
		c-0.631-0.437-1.413-0.655-2.633-1.202c-0.262,3.02-0.513,5.601-0.706,8.187c-2.098,28.123-7.273,55.734-13.969,83.078
		c-7.663,31.289-15.268,62.626-26.218,92.957c-5.004,13.862-11.457,27.215-17.582,40.649c-1.506,3.303-1.645,5.865-0.146,9.165
		c8.003,17.615,13.291,36.158,18.356,54.777c2.098,7.712,4.39,15.391,7.048,22.925c3.695,10.473,10.007,19.332,18.512,26.427
		c4.804,4.007,10.146,7.54,16.909,6.822c2.381-0.253,4.9-0.872,6.982-2.01c11.747-6.418,21.535-15.105,28.43-26.638
		c6.021-10.07,10.57-20.826,13.403-32.283c2.732-11.049,0.187-21.435-5.059-30.86c-3.725-6.692-10.442-11.09-17.911-13.259
		c-2.93-0.85-6.637-0.497-9.595,0.492c-10.026,3.353-18.225,9.632-24.123,18.314c-7.051,10.378-6.521,21.68-2.176,32.995
		c0.398,1.036,1.443,1.885,2.333,2.652c0.873,0.752,1.932,1.289,2.992,1.974c-3.96,3.699-8.357,4.084-12.16,1.249
		c-0.813-0.606-1.678-1.303-2.167-2.159c-6.22-10.886-10.716-22.215-7.777-35.087c0.53-2.321,1.733-4.64,3.143-6.585
		c9.062-12.494,21.378-20.405,36.268-23.782c5.035-1.142,10.595-0.084,15.908,0.143c12.515,0.536,22.32,6.827,30.283,15.739
		c6.513,7.289,9.072,16.809,8.893,26.311c-0.475,25.232-8.383,48.116-25.292,67.115c-20.103,22.588-51.787,27.181-77.99,11.996
		c-12.4-7.186-21.683-17.398-28.599-29.88c-7.82-14.115-12.561-29.376-16.835-44.815c-1.254-4.529-2.416-9.084-3.917-14.748
		c-2.094,2.013-3.628,3.443-5.112,4.923c-18.331,18.281-40.514,26.213-66.116,23.416c-19.431-2.123-36.738-9.975-51.698-22.633
		c-7.025-5.944-11.903-13.52-15.293-22.058c-7.933-19.981-13.091-40.592-14.211-62.135c-2.945-56.63,6.235-111.26,27.187-163.91
		C298.113,671.915,303.268,660.349,308.598,647.764z M423.144,862.018c1.125-1.41,1.759-1.975,2.108-2.681
		c1.542-3.124,3.101-6.245,4.476-9.443c16.579-38.579,28.242-78.731,38.072-119.458c7.565-31.341,10.561-63.071,7.645-95.258
		c-0.164-1.809-0.603-3.634-1.193-5.356c-3.982-11.624-8.473-23.094-11.969-34.86c-4.859-16.355-4.577-16.397-19.044-25.05
		c-4.678-2.798-9.146-3.47-14.552-1.636c-17.596,5.97-32.323,16.787-47.362,27.122c-0.991,0.681-1.735,1.736-2.545,2.661
		c-12.098,13.823-21.651,29.28-29.409,45.884c-0.5,1.069-0.837,2.214-1.515,4.037c11.735,4.596,23.004,9.39,35.692,8.574
		c2.631-0.169,5.282-0.736,7.822-1.471c12.27-3.55,21.272-11.347,27.616-22.197c6.891-11.786,11.542-24.237,9.577-38.299
		c7.804-2.852,14.026,0.777,14.404,9.253c0.309,6.926-0.235,13.964-1.146,20.854c-2.497,18.891-12.714,32.054-30.432,39.233
		c-18.995,7.696-38.398,7.648-58.007,2.821c-3.944-0.971-7.836-2.153-12.338-3.4c-1.199,3.157-2.381,5.938-3.323,8.798
		c-14.191,43.086-23.016,87.281-26.001,132.513c-1.118,16.94-0.387,34.016-0.156,51.026c0.242,17.79,4.042,34.874,10.098,51.643
		c5.548,15.363,16.196,24.716,31.057,30.176c3.086,1.134,6.043,1.458,8.914-0.078c4.864-2.603,9.951-4.967,14.344-8.238
		c12.876-9.585,22.202-22.366,30.696-35.771c0.761-1.201,1.086-3.24,0.636-4.557c-4.06-11.887-9.072-23.396-16.622-33.496
		c-6.728-9.001-13.967-10.08-23.591-4.148c-3.13,1.929-5.957,4.35-8.919,6.551c-1.454,1.08-2.87,1.613-4.554-0.695
		c0.853-1.732,1.647-3.82,2.827-5.66c5.419-8.45,13.932-10.997,23.234-11.7c15.831-1.195,28.138,5.804,38.568,16.973
		C419.77,858.314,421.263,859.967,423.144,862.018z M332.672,335.072c-0.276-0.05-0.551-0.099-0.827-0.149
		c-0.618,1.864-1.271,3.716-1.848,5.593c-11.459,37.248-22.614,74.593-34.446,111.723c-11.785,36.985-25.59,73.212-43.481,107.761
		c-0.551,1.065-0.927,2.221-1.559,3.76c4.195,4.211,8.411,8.354,12.53,12.592c13.424,13.815,26.793,27.685,40.233,41.485
		c2.431,2.496,4.978,4.912,7.688,7.095c2.508,2.02,5.308,3.679,8.743,6.016c1.607-2.92,2.904-5.301,4.232-7.665
		c0.257-0.457,0.593-0.887,0.962-1.261c2.544-2.581,5.321-4.965,7.627-7.741c13.275-15.981,27.117-31.289,44.981-42.452
		c9.672-6.044,19.792-10.76,30.978-13.12c5.403-1.14,10.794-2.343,16.165-3.624c7.313-1.744,14.621-1.833,21.964-0.26
		c2.493,0.534,4.996,1.02,7.814,1.592c0-1.859,0.04-3.07-0.006-4.279c-0.594-15.379-1.741-30.76-1.697-46.137
		c0.113-39.494,4.489-78.674,11.145-117.528c7.863-45.901,16.949-91.584,28.997-136.618c0.392-1.467,0.613-2.98,1.01-4.948
		c-0.849,0.634-1.29,0.805-1.474,1.125c-3.58,6.224-7.327,12.363-10.652,18.722c-17.517,33.496-32.161,68.312-46.791,103.114
		c-16.885,40.165-29.625,81.725-40.755,123.812c-2.408,9.104-5.782,17.954-8.735,26.913c-1.769,5.365-5.639,7.853-11.16,7.961
		c-1.638,0.032-3.287,0.019-4.917-0.129c-4.699-0.426-8.124-2.597-9.711-7.25c-1.126-3.3-2.666-6.495-3.44-9.871
		c-3.895-16.986-8.418-33.884-11.172-51.061c-3.762-23.467-6.563-47.115-8.944-70.769c-1.704-16.928-2.035-33.994-2.999-50.997
		C333.06,337.338,332.827,336.207,332.672,335.072z M223.805,576.837c-1.453-1.641-2.477-2.915-3.621-4.07
		c-7.511-7.582-15.295-14.91-22.517-22.756c-10.507-11.416-22.45-21.001-35.319-29.552c-5.474-3.637-11.251-6.382-17.402-8.861
		c-14.695-5.923-27.753-2.739-40.376,5.066c-17.536,10.843-27.759,27.231-33.092,46.562c-7.094,25.712-5.563,51.563,0.944,77.232
		c3.486,13.749,9.561,26.17,19.243,36.646c7.376,7.981,16.959,11.493,27.262,9.29c15.224-3.255,29.24-10.237,40.695-20.791
		C186.856,640.513,205.699,609.183,223.805,576.837z"/>
	<path d="M854.604,871.826c2.707-6.163,5.716-12.213,8.066-18.509c8.245-22.094,16.32-44.251,24.291-66.446
		c0.937-2.608,1.301-5.625,1.12-8.4c-1.72-26.323,3.121-51.572,13.013-75.797c4.944-12.108,12.837-22.556,23.888-29.88
		c12.851-8.518,26.673-8.517,40.545-2.521c5.571,2.408,8.828,6.907,10.399,12.938c2.418,9.277,0.392,17.853-3.231,26.268
		c-1.037,2.409-3.378,2.34-4.61-0.021c-0.556-1.066-0.699-2.342-1.068-3.511c-2.299-7.283-5.288-14.249-9.865-20.415
		c-1.563-2.106-3.466-3.96-5.367-6.102c-5.324,3.285-8.253,8.08-10.286,13.109c-3.372,8.345-6.881,16.813-8.715,25.568
		c-5.304,25.322-9.641,50.851-8.726,76.885c0.229,6.516,1.393,13.038,2.61,19.466c0.584,3.085,2.294,5.956,3.707,9.451
		c8.368-4.307,13.089-11.003,17.803-17.694c1.603-2.276,3.222-4.553,4.643-6.944c6.078-10.23,12.152-20.464,18.05-30.798
		c0.96-1.682,1.587-3.925,1.417-5.823c-2.285-25.592,5.734-48.594,17.498-70.677c5.942-11.155,13.722-20.895,23.245-29.17
		c11.93-10.367,25.627-16.229,41.712-14.999c4.253,0.325,8.59,1.086,12.624,2.437c11.802,3.952,17.881,14.714,14.834,26.772
		c-1.233,4.882-3.577,9.615-6.119,14.008c-5.198,8.985-12.584,16.151-20.42,22.858c-10.029,8.585-20.838,15.991-32.766,21.696
		c-2.28,1.09-4.198,2.163-4.929,4.971c-3.785,14.534-7.117,29.114-6.758,44.279c0.113,4.76,0.947,9.188,3.274,13.519
		c1.576,2.933,3.579,3.826,6.387,3.509c1.998-0.226,4.12-0.684,5.853-1.643c3.394-1.878,6.809-3.874,9.766-6.358
		c13.072-10.98,25.417-22.695,35.58-36.531c3.274-4.457,5.259-4.78,11.675-1.989c-1.142,2.503-1.927,5.282-3.507,7.492
		c-5.362,7.5-10.735,15.023-16.625,22.104c-4.713,5.666-10.225,10.662-15.307,16.026c-5.929,6.258-13.31,9.804-21.734,10.365
		c-7.118,0.474-14.363,0.237-21.464-0.513c-8.508-0.899-15.371-5.308-20.461-12.222c-2.058-2.795-3.814-5.813-6.148-9.409
		c-1.015,1.826-1.911,3.259-2.637,4.774c-4.538,9.475-9.601,18.637-16.696,26.472c-10.076,11.126-22.696,15.827-37.575,13.977
		c-10.541-1.311-18.075-7.218-23.27-16.309c-1.009-1.766-1.994-3.546-3.7-6.585c-1.811,5.999-3.996,10.837-4.587,15.864
		c-0.611,5.192-2.749,9.78-4.432,14.445c-3.893,10.789-8.574,21.308-13.263,31.789c-1.912,4.274-4.272,8.478-7.127,12.174
		c-7.234,9.368-24.077,11.658-33.372,4.354c-2.883-2.265-5.241-5.896-6.5-9.385c-2.699-7.482-4.559-15.153-4.815-23.334
		c-0.827-26.381,1.465-52.477,5.464-78.507c3.957-25.756,7.604-51.561,11.313-77.355c0.492-3.418,0.544-6.898,0.832-10.775
		c-2.963,0.456-4.102,2.496-5.464,4.054c-11.056,12.641-19.885,26.781-25.622,42.492c-5.761,15.774-10.849,31.848-15.221,48.063
		c-5.763,21.376-10.488,43.031-15.785,64.535c-1.076,4.367-2.566,8.65-4.129,12.874c-2.056,5.557-6.724,6.735-11.997,6.552
		c-6.174-0.215-9.746-2.279-11.021-7.87c-2.46-10.785-4.579-21.67-6.252-32.604c-1.482-9.687-2.166-19.497-3.344-30.59
		c-1.036,2.278-1.762,3.525-2.19,4.868c-3.796,11.926-7.511,23.878-11.319,35.8c-0.872,2.728-1.835,5.455-3.059,8.038
		c-4.434,9.353-17.419,10.486-23.062,1.686c-2.824-4.404-4.629-9.583-6.217-14.625c-1.693-5.378-2.587-11.008-4.071-17.603
		c-1.469,2.91-2.543,4.838-3.439,6.846c-7.641,17.122-17.006,33.248-28.071,48.375c-5.929,8.105-12.729,14.971-23.319,16.79
		c-12.227,2.1-21.486-2.87-25.928-14.438c-3.275-8.527-4.529-17.487-4.904-26.528c-0.348-8.404-0.169-16.83-0.216-25.246
		c-0.012-2.147-0.002-4.294-0.002-6.442c-0.432-0.092-0.863-0.184-1.295-0.276c-1.07,2.117-2.293,4.172-3.185,6.361
		c-4.138,10.148-10.078,19.237-16.522,28.001c-2.298,3.126-4.979,6.021-7.776,8.72c-12.45,12.011-30.862,11.53-43.005-0.836
		c-9.459-9.633-12.954-21.635-14.22-34.575c-2.896-29.603,2.984-57.564,15.927-84.169c1.252-2.574,2.488-5.305,4.37-7.384
		c2.142-2.366,4.721-4.753,7.601-5.958c9.336-3.907,17.024,0.646,17.054,10.712c0.029,9.376-1.169,18.812-2.507,28.124
		c-2.128,14.82-5.051,29.527-7.201,44.344c-1.688,11.632-1.188,23.347,0.304,34.997c0.499,3.898,1.694,7.545,5.09,10.756
		c1.709-1.371,3.736-2.489,5.068-4.162c4.205-5.281,8.717-10.438,12.096-16.235c14.412-24.723,25.751-50.879,35.006-77.933
		c1.452-4.244,1.849-8.837,3.117-13.157c1.845-6.287,4.026-12.477,6.084-18.701c1.675-5.065,5.261-7.544,10.523-8.015
		c2.556-0.228,5.565,0.076,6.315-3.182c1.583,1.21,2.894,2.424,4.395,3.321c5.052,3.018,7.739,7.375,7.22,13.266
		c-0.899,10.214-1.86,20.429-3.127,30.602c-3.297,26.468-6.954,52.892-10.083,79.378c-1.081,9.147-1.104,18.425-1.444,27.649
		c-0.088,2.388,0.452,4.799,0.854,8.637c2.437-2.283,4.071-3.63,5.491-5.174c9.076-9.873,16.793-20.718,23.046-32.59
		c7.563-14.36,13.891-29.249,19.929-44.32c7.152-17.851,11.188-36.382,14.725-55.149c1.166-6.186,3.596-12.156,5.719-18.128
		c0.737-2.075,2.07-4.046,3.509-5.744c5.888-6.946,14.918-5.616,17.948,2.895c1.415,3.973,2.25,8.453,2.054,12.642
		c-0.615,13.104-1.483,26.22-2.933,39.255c-1.746,15.698-4.224,31.314-6.303,46.976c-0.375,2.827-0.355,5.706,0.206,8.875
		c0.593-1.05,1.368-2.037,1.751-3.158c6.905-20.183,13.976-40.314,20.495-60.622c1.857-5.784,1.896-12.128,3.094-18.151
		c2.015-10.131,5.403-19.782,10.915-28.602c4.083-6.535,15.006-8.977,21.05-4.377c1.626,1.238,3.087,3.589,3.326,5.584
		c0.701,5.855,1.464,11.855,0.925,17.679c-1.871,20.22-4.29,40.389-6.473,60.581c-0.13,1.204-0.017,2.434,0.549,3.84
		c0.606-1.8,1.257-3.586,1.812-5.401c5.336-17.461,10.279-35.054,16.076-52.361c7.376-22.021,18.823-41.814,34.206-59.34
		c6.576-7.492,14.525-10.233,24.183-9.208c10.822,1.148,17.479,7.599,19.123,18.371c1.692,11.089,0.722,22.138-0.587,33.112
		c-4.059,34.029-8.749,67.985-12.55,102.042c-1.695,15.185-1.852,30.541-2.707,45.82
		C853.364,871.566,853.984,871.696,854.604,871.826z M1025.375,718.904c9.26-6.566,17.909-13.064,24.796-21.466
		c3.858-4.707,7.044-10.034,10.029-15.364c2.356-4.208,2.73-9.018,1.594-13.758c-0.871-3.633-2.36-6.943-6.243-8.265
		C1045.162,668.361,1026.963,703.606,1025.375,718.904z"/>
	<path d="M692.797,572.463c2.657-1.913,5.396-3.637,7.853-5.696c8.599-7.207,15.053-16.152,20.899-25.658
		c10.986-17.866,19.617-36.926,28.803-55.712c5.949-12.166,12.088-24.238,18.162-36.343c1.209-2.409,2.278-4.69,1.247-7.582
		c-7.657-21.479,6.89-41.945,31.897-43.653c5.354-0.366,10.733-0.236,15.692,2.155c9.984,4.813,7.865,11.369,2.174,17.651
		c-1.826,2.015-3.651,0.818-4.857-1.351c-1.457-2.621-2.456-5.719-6.369-6.597c-2.947,5.795-4.043,11.812-1.431,17.758
		c3.121,7.103,6.539,14.154,10.617,20.74c5.831,9.415,12.538,18.283,18.57,27.58c5.566,8.579,10.736,17.416,16.289,26.48
		c4.447-1.257,9.143-2.591,13.841-3.913c27.154-7.64,53.702-4.771,79.681,5.083c11.291,4.283,20.84,11.399,28.874,20.472
		c1.356,1.531,2.795,2.988,4.215,4.461c0.117,0.122,0.384,0.099,1.511,0.352c-1.967-7.382-3.329-14.536-5.808-21.28
		c-3.106-8.45-6.921-16.663-10.8-24.801c-8.209-17.221-17.089-34.134-24.891-51.533c-7.861-17.53-5.088-34.605,5.173-50.418
		c10.778-16.607,32.036-22.634,49.313-13.142c13.768,7.564,23.99,18.638,25.429,35.508c0.052,0.605,0.232,1.199,0.438,2.225
		c0.787-0.452,1.527-0.693,2.017-1.184c18.682-18.715,41.307-25.074,67.051-21.062c6.338,0.988,12.084,4.019,17.1,8.087
		c11.648,9.45,15.884,21.542,12.476,36.203c-2.534,10.899-8.477,19.942-15.658,28.264c-11.37,13.177-25.527,23.069-39.268,33.5
		c-14.215,10.791-28.254,21.838-41.976,33.248c-11.198,9.312-19.094,21.388-25.821,34.189c-0.783,1.491-1.064,3.587-0.76,5.253
		c2.46,13.458,2.443,26.938,0.738,40.453c-0.281,2.23-0.561,4.529-1.336,6.613c-1.643,4.422-8.057,6.519-11.894,3.797
		c-1.064-0.755-1.548-2.697-1.794-4.178c-1.985-11.937-3.82-23.899-5.757-35.845c-2.816-17.374-10.314-32.294-23.155-44.491
		c-22.504-21.374-48.53-25.895-77.454-16.206c-5.03,1.685-9.763,4.257-15.267,6.701c0.712,2.834,1.382,5.54,2.072,8.24
		c5.188,20.302,7.71,40.736,2.913,61.502c-3.223,13.954-9.892,26.105-20.089,36.102c-10.447,10.242-23.13,15.332-37.899,14.763
		c-12.66-0.488-21.265-6.995-24.697-19.311c-3.425-12.294-3.376-24.71-0.206-37.116c5.322-20.833,16.575-38.258,30.828-53.976
		c1.773-1.956,3.612-3.852,5.279-5.625c-8.683-24.313-24.781-43.564-39.036-65.512c-2.644,6.619-5.007,11.808-6.813,17.183
		c-7.473,22.247-16.799,43.692-28.66,63.915c-7.893,13.458-16.946,26.208-29.476,35.968c-9.167,7.14-19.45,9.155-30.749,6.631
		c-6.343-1.417-11.227-4.82-14.884-10.123c-5.367-7.784-8.011-16.523-9.397-25.783c-1.628-10.877-0.936-21.693,0.295-32.528
		c2.148-18.908,7.927-36.854,14.56-54.553c1.43-3.815,3.451-7.439,5.487-10.987c1.92-3.346,4.969-5.437,8.783-6.238
		c5.88-1.235,10.69,2.06,11.626,7.952c1.011,6.363,0.551,12.663-0.752,18.952c-3.287,15.863-6.932,31.669-9.623,47.634
		c-2.528,14.996-3.697,30.175-0.614,45.316C688.324,564.986,689.15,569.021,692.797,572.463z M992.589,532.136
		c1.218-1.332,1.849-1.82,2.223-2.459c6.305-10.798,14.933-19.546,24.628-27.217c11.252-8.903,22.801-17.431,34.194-26.157
		c7-5.361,14.167-10.533,20.872-16.244c10.926-9.306,19.638-20.445,24.595-34.033c4.968-13.618-2.247-26.961-16.214-30.488
		c-6.19-1.563-12.536-2.128-18.904-0.786c-15.5,3.267-28.969,10.076-39.167,22.54c-2.464,3.011-4.795,6.13-7.212,9.18
		c-3.113,3.927-6.375,3.703-8.405-0.84c-1.243-2.781-1.829-5.855-2.727-8.792c-3.311-10.829-7.257-21.3-14.685-30.183
		c-10.146-12.133-29.126-7.584-35.247,5.54c-5.699,12.219-5.633,24.691-0.905,37.061c3.215,8.411,7.19,16.532,10.834,24.778
		c6.708,15.179,13.579,30.289,20.069,45.561c3.472,8.169,4.895,16.9,5.383,25.766C992.029,527.325,992.302,529.278,992.589,532.136z
		 M824.79,542.381c-0.635-0.145-1.271-0.291-1.906-0.436c-5.669,6.398-12.315,12.195-16.734,19.363
		c-4.433,7.192-7.276,15.568-9.678,23.759c-3.247,11.073-2.423,22.312,1.694,33.178c1.77,4.671,4.331,8.755,9.458,11.256
		c12.34-7.682,19.754-18.754,22.584-32.783c2.336-11.583,1.47-23.281-0.696-34.817C828.278,555.331,826.386,548.884,824.79,542.381z
		"/>
	<path d="M175.832,755.108c0.64-3.337,1.058-5.723,1.559-8.091c2.78-13.144,9.562-23.454,21.551-29.933
		c16.446-8.888,35.652-2.651,43.8,14.173c5.007,10.339,5.792,21.281,4.269,32.467c-2.137,15.697-5.806,31.072-11.246,45.928
		c-5.71,15.594-8.395,31.654-9.184,48.141c-0.206,4.298-0.508,8.621-1.233,12.853c-0.437,2.548-1.422,5.164-2.796,7.35
		c-1.816,2.889-3.607,2.678-6.858,1.643c-14.464-4.606-26.358-13.792-39.122-21.447c-5.091-3.053-10.355-5.871-15.734-8.379
		c-10.097-4.709-19.42-10.621-28.339-17.236c-23.56-17.471-27.469-45.214-17.983-68.271c6.509-15.82,21.535-24.866,37.532-23.195
		c7.005,0.732,12.985,3.571,18.04,8.43C171.81,751.199,173.521,752.868,175.832,755.108z M210.357,862.848
		c0.254-3.353,0.441-5.328,0.546-7.307c0.861-16.226,3.141-32.161,8.131-47.733c3.997-12.472,7.433-25.147,10.532-37.874
		c1.44-5.914,1.692-12.154,2.103-18.272c0.339-5.044-1.434-9.706-3.941-14.024c-4.647-8.004-14.301-10.534-22.39-5.908
		c-4.779,2.732-8.444,6.672-10.549,11.676c-1.731,4.113-3.02,8.503-3.82,12.895c-1.175,6.443-1.673,13.007-2.601,19.499
		c-0.316,2.212-0.789,4.48-1.672,6.513c-1.198,2.759-3.768,3.237-5.997,1.253c-1.038-0.924-1.803-2.213-2.513-3.44
		c-4.49-7.762-10.757-13.948-17.595-19.558c-5.668-4.649-12.184-5.799-19.053-3.066c-6.008,2.391-10.152,6.842-12.492,12.867
		c-5.109,13.15-5.414,33.599,11.63,46.696c7.117,5.469,14.727,10.491,22.67,14.651C179.697,840.279,196.319,848.286,210.357,862.848
		z"/>
	<path d="M1092.142,537.483c1.633-1.425,3.026-2.54,4.305-3.775c7.336-7.084,16.06-11.398,26.171-12.47
		c3.796-0.403,7.88-0.362,11.535,0.604c11.269,2.978,17.19,12.243,15.588,23.758c-1.316,9.459-5.847,17.433-12.109,24.444
		c-9.465,10.598-20.429,19.538-31.448,28.455c-11.793,9.543-23.181,19.587-34.798,29.35c-2.339,1.966-4.757,3.933-7.414,5.401
		c-3.921,2.167-5.961,1.015-6.835-3.497c-0.546-2.816-0.941-5.664-1.336-8.507c-1.449-10.427-4.433-20.396-8.557-30.077
		c-4.432-10.405-8.139-21.087-9.385-32.392c-1.565-14.195,1.843-26.918,12.447-37.049c4.229-4.041,9.181-6.831,15.251-7.216
		c12.14-0.77,20.721,6.648,24.661,16.645C1090.955,533.026,1091.401,535.012,1092.142,537.483z M1065.181,617.322
		c1.553-1.272,2.889-2.131,3.934-3.259c11.467-12.386,24.56-22.911,37.733-33.376c6.091-4.839,11.819-10.143,17.586-15.376
		c5.604-5.085,9.425-11.33,11.138-18.745c1.335-5.779-0.219-8.815-5.613-11.363c-5.898-2.786-11.583-1.971-17.034,1.209
		c-6.601,3.851-12.434,8.639-17.462,14.429c-2.01,2.314-4.163,4.553-6.535,6.477c-0.886,0.718-2.859,0.972-3.829,0.466
		c-0.995-0.52-1.622-2.166-1.931-3.436c-0.214-0.881,0.373-1.962,0.619-2.949c1.511-6.073,0.419-11.885-2.337-17.291
		c-4.368-8.566-15.021-10.643-22.394-4.498c-5.898,4.915-8.87,11.45-8.311,18.992c0.466,6.284,1.766,12.564,3.286,18.7
		c2.609,10.531,5.933,20.888,8.451,31.438C1063.883,604.604,1064.259,610.714,1065.181,617.322z"/>
	<path d="M709.607,376.997c4.018,0.706,8.105,1.156,12.024,2.223c2.073,0.564,4.111,1.927,5.709,3.419
		c2.684,2.506,2.613,5.326,0.214,8.184c-0.649,0.774-1.422,1.52-2.286,2.026c-11.027,6.466-22.636,9.496-35.333,5.781
		c-0.784-0.229-1.544-0.557-2.29-0.894c-6.265-2.825-6.795-7.113-1.589-11.77C692.76,379.969,700.269,376.317,709.607,376.997z"/>
	<path d="M725.503,634.777c2.821,0.604,8.366,1.254,13.529,3.019c7.95,2.719,9.396,9.042,3.739,15.229
		c-1.725,1.886-4.107,3.426-6.484,4.411c-6.621,2.746-13.525,2.96-20.424,1.053c-1.738-0.481-3.46-1.325-4.945-2.355
		c-5.794-4.022-6.41-9.913-1.718-15.122C714.132,635.536,716.466,634.454,725.503,634.777z"/>
	<path d="M785.345,862.109c-0.051-0.792-0.102-1.583-0.154-2.375c0.091-0.004,0.182-0.007,0.273-0.011c0,0.794,0,1.587,0,2.381
		C785.425,862.105,785.385,862.107,785.345,862.109z"/>
</g>
</svg>
